<?xml version="1.0" encoding="utf-8" standalone="no"?>
<!DOCTYPE svg PUBLIC "-//W3C//DTD SVG 1.1//EN"
  "http://www.w3.org/Graphics/SVG/1.1/DTD/svg11.dtd">
<svg xmlns:xlink="http://www.w3.org/1999/xlink" width="460.8pt" height="345.6pt" viewBox="0 0 460.8 345.6" xmlns="http://www.w3.org/2000/svg" version="1.1">
 <metadata>
  <rdf:RDF xmlns:dc="http://purl.org/dc/elements/1.1/" xmlns:cc="http://creativecommons.org/ns#" xmlns:rdf="http://www.w3.org/1999/02/22-rdf-syntax-ns#">
   <cc:Work>
    <dc:type rdf:resource="http://purl.org/dc/dcmitype/StillImage"/>
    <dc:date>2023-07-17T23:06:18.159653</dc:date>
    <dc:format>image/svg+xml</dc:format>
    <dc:creator>
     <cc:Agent>
      <dc:title>Matplotlib v3.5.2, https://matplotlib.org/</dc:title>
     </cc:Agent>
    </dc:creator>
   </cc:Work>
  </rdf:RDF>
 </metadata>
 <defs>
  <style type="text/css">*{stroke-linejoin: round; stroke-linecap: butt}</style>
 </defs>
 <g id="figure_1">
  <g id="patch_1">
   <path d="M 0 345.6 
L 460.8 345.6 
L 460.8 0 
L 0 0 
z
" style="fill: #ffffff"/>
  </g>
  <g id="axes_1">
   <g id="patch_2">
    <path d="M 57.6 307.584 
L 414.72 307.584 
L 414.72 41.472 
L 57.6 41.472 
z
" style="fill: #ffffff"/>
   </g>
   <g id="patch_3">
    <path d="M 165.469091 232.651636 
C 178.80061 232.651636 191.587899 227.354968 201.014706 217.928161 
C 210.441513 208.501353 215.738182 195.714064 215.738182 182.382545 
C 215.738182 169.051027 210.441513 156.263738 201.014706 146.83693 
C 191.587899 137.410123 178.80061 132.113455 165.469091 132.113455 
C 152.137572 132.113455 139.350283 137.410123 129.923476 146.83693 
C 120.496669 156.263738 115.2 169.051027 115.2 182.382545 
C 115.2 195.714064 120.496669 208.501353 129.923476 217.928161 
C 139.350283 227.354968 152.137572 232.651636 165.469091 232.651636 
z
" clip-path="url(#pae6c07b903)" style="fill: #0000ff; opacity: 0.1; stroke: #0000ff; stroke-linejoin: miter"/>
   </g>
   <g id="patch_4">
    <path d="M 181.178182 216.942545 
C 194.509701 216.942545 207.29699 211.645877 216.723797 202.21907 
C 226.150604 192.792262 231.447273 180.004973 231.447273 166.673455 
C 231.447273 153.341936 226.150604 140.554647 216.723797 131.127839 
C 207.29699 121.701032 194.509701 116.404364 181.178182 116.404364 
C 167.846663 116.404364 155.059374 121.701032 145.632567 131.127839 
C 136.205759 140.554647 130.909091 153.341936 130.909091 166.673455 
C 130.909091 180.004973 136.205759 192.792262 145.632567 202.21907 
C 155.059374 211.645877 167.846663 216.942545 181.178182 216.942545 
z
" clip-path="url(#pae6c07b903)" style="fill: #0000ff; opacity: 0.1; stroke: #0000ff; stroke-linejoin: miter"/>
   </g>
   <g id="patch_5">
    <path d="M 181.178182 169.815273 
C 194.509701 169.815273 207.29699 164.518604 216.723797 155.091797 
C 226.150604 145.66499 231.447273 132.877701 231.447273 119.546182 
C 231.447273 106.214663 226.150604 93.427374 216.723797 84.000567 
C 207.29699 74.573759 194.509701 69.277091 181.178182 69.277091 
C 167.846663 69.277091 155.059374 74.573759 145.632567 84.000567 
C 136.205759 93.427374 130.909091 106.214663 130.909091 119.546182 
C 130.909091 132.877701 136.205759 145.66499 145.632567 155.091797 
C 155.059374 164.518604 167.846663 169.815273 181.178182 169.815273 
z
" clip-path="url(#pae6c07b903)" style="fill: #ff0000; opacity: 0.1; stroke: #ff0000; stroke-linejoin: miter"/>
   </g>
   <g id="patch_6">
    <path d="M 181.178182 122.688 
C 186.177501 122.688 190.972735 120.701749 194.507787 117.166697 
C 198.04284 113.631644 200.029091 108.83641 200.029091 103.837091 
C 200.029091 98.837771 198.04284 94.042538 194.507787 90.507485 
C 190.972735 86.972433 186.177501 84.986182 181.178182 84.986182 
C 176.178862 84.986182 171.383629 86.972433 167.848576 90.507485 
C 164.313523 94.042538 162.327273 98.837771 162.327273 103.837091 
C 162.327273 108.83641 164.313523 113.631644 167.848576 117.166697 
C 171.383629 120.701749 176.178862 122.688 181.178182 122.688 
z
" clip-path="url(#pae6c07b903)" style="fill: #008000; opacity: 0.1; stroke: #008000; stroke-linejoin: miter"/>
   </g>
   <g id="patch_7">
    <path d="M 196.887273 295.488 
C 210.218791 295.488 223.00608 290.191331 232.432888 280.764524 
C 241.859695 271.337717 247.156364 258.550428 247.156364 245.218909 
C 247.156364 231.88739 241.859695 219.100101 232.432888 209.673294 
C 223.00608 200.246487 210.218791 194.949818 196.887273 194.949818 
C 183.555754 194.949818 170.768465 200.246487 161.341658 209.673294 
C 151.91485 219.100101 146.618182 231.88739 146.618182 245.218909 
C 146.618182 258.550428 151.91485 271.337717 161.341658 280.764524 
C 170.768465 290.191331 183.555754 295.488 196.887273 295.488 
z
" clip-path="url(#pae6c07b903)" style="fill: #ff0000; opacity: 0.1; stroke: #ff0000; stroke-linejoin: miter"/>
   </g>
   <g id="patch_8">
    <path d="M 196.887273 201.233455 
C 201.886592 201.233455 206.681826 199.247204 210.216878 195.712151 
C 213.751931 192.177098 215.738182 187.381865 215.738182 182.382545 
C 215.738182 177.383226 213.751931 172.587993 210.216878 169.05294 
C 206.681826 165.517887 201.886592 163.531636 196.887273 163.531636 
C 191.887953 163.531636 187.09272 165.517887 183.557667 169.05294 
C 180.022614 172.587993 178.036364 177.383226 178.036364 182.382545 
C 178.036364 187.381865 180.022614 192.177098 183.557667 195.712151 
C 187.09272 199.247204 191.887953 201.233455 196.887273 201.233455 
z
" clip-path="url(#pae6c07b903)" style="fill: #008000; opacity: 0.1; stroke: #008000; stroke-linejoin: miter"/>
   </g>
   <g id="patch_9">
    <path d="M 196.887273 169.815273 
C 210.218791 169.815273 223.00608 164.518604 232.432888 155.091797 
C 241.859695 145.66499 247.156364 132.877701 247.156364 119.546182 
C 247.156364 106.214663 241.859695 93.427374 232.432888 84.000567 
C 223.00608 74.573759 210.218791 69.277091 196.887273 69.277091 
C 183.555754 69.277091 170.768465 74.573759 161.341658 84.000567 
C 151.91485 93.427374 146.618182 106.214663 146.618182 119.546182 
C 146.618182 132.877701 151.91485 145.66499 161.341658 155.091797 
C 170.768465 164.518604 183.555754 169.815273 196.887273 169.815273 
z
" clip-path="url(#pae6c07b903)" style="fill: #0000ff; opacity: 0.1; stroke: #0000ff; stroke-linejoin: miter"/>
   </g>
   <g id="patch_10">
    <path d="M 212.596364 295.488 
C 225.927882 295.488 238.715171 290.191331 248.141979 280.764524 
C 257.568786 271.337717 262.865455 258.550428 262.865455 245.218909 
C 262.865455 231.88739 257.568786 219.100101 248.141979 209.673294 
C 238.715171 200.246487 225.927882 194.949818 212.596364 194.949818 
C 199.264845 194.949818 186.477556 200.246487 177.050749 209.673294 
C 167.623941 219.100101 162.327273 231.88739 162.327273 245.218909 
C 162.327273 258.550428 167.623941 271.337717 177.050749 280.764524 
C 186.477556 290.191331 199.264845 295.488 212.596364 295.488 
z
" clip-path="url(#pae6c07b903)" style="fill: #0000ff; opacity: 0.1; stroke: #0000ff; stroke-linejoin: miter"/>
   </g>
   <g id="patch_11">
    <path d="M 212.596364 279.778909 
C 225.927882 279.778909 238.715171 274.482241 248.141979 265.055433 
C 257.568786 255.628626 262.865455 242.841337 262.865455 229.509818 
C 262.865455 216.178299 257.568786 203.39101 248.141979 193.964203 
C 238.715171 184.537396 225.927882 179.240727 212.596364 179.240727 
C 199.264845 179.240727 186.477556 184.537396 177.050749 193.964203 
C 167.623941 203.39101 162.327273 216.178299 162.327273 229.509818 
C 162.327273 242.841337 167.623941 255.628626 177.050749 265.055433 
C 186.477556 274.482241 199.264845 279.778909 212.596364 279.778909 
z
" clip-path="url(#pae6c07b903)" style="fill: #0000ff; opacity: 0.1; stroke: #0000ff; stroke-linejoin: miter"/>
   </g>
   <g id="patch_12">
    <path d="M 212.596364 232.651636 
C 217.595683 232.651636 222.390917 230.665386 225.925969 227.130333 
C 229.461022 223.59528 231.447273 218.800047 231.447273 213.800727 
C 231.447273 208.801408 229.461022 204.006174 225.925969 200.471122 
C 222.390917 196.936069 217.595683 194.949818 212.596364 194.949818 
C 207.597044 194.949818 202.801811 196.936069 199.266758 200.471122 
C 195.731705 204.006174 193.745455 208.801408 193.745455 213.800727 
C 193.745455 218.800047 195.731705 223.59528 199.266758 227.130333 
C 202.801811 230.665386 207.597044 232.651636 212.596364 232.651636 
z
" clip-path="url(#pae6c07b903)" style="fill: #008000; opacity: 0.1; stroke: #008000; stroke-linejoin: miter"/>
   </g>
   <g id="patch_13">
    <path d="M 212.596364 248.360727 
C 225.927882 248.360727 238.715171 243.064059 248.141979 233.637251 
C 257.568786 224.210444 262.865455 211.423155 262.865455 198.091636 
C 262.865455 184.760118 257.568786 171.972829 248.141979 162.546021 
C 238.715171 153.119214 225.927882 147.822545 212.596364 147.822545 
C 199.264845 147.822545 186.477556 153.119214 177.050749 162.546021 
C 167.623941 171.972829 162.327273 184.760118 162.327273 198.091636 
C 162.327273 211.423155 167.623941 224.210444 177.050749 233.637251 
C 186.477556 243.064059 199.264845 248.360727 212.596364 248.360727 
z
" clip-path="url(#pae6c07b903)" style="fill: #0000ff; opacity: 0.1; stroke: #0000ff; stroke-linejoin: miter"/>
   </g>
   <g id="patch_14">
    <path d="M 212.596364 201.233455 
C 217.595683 201.233455 222.390917 199.247204 225.925969 195.712151 
C 229.461022 192.177098 231.447273 187.381865 231.447273 182.382545 
C 231.447273 177.383226 229.461022 172.587993 225.925969 169.05294 
C 222.390917 165.517887 217.595683 163.531636 212.596364 163.531636 
C 207.597044 163.531636 202.801811 165.517887 199.266758 169.05294 
C 195.731705 172.587993 193.745455 177.383226 193.745455 182.382545 
C 193.745455 187.381865 195.731705 192.177098 199.266758 195.712151 
C 202.801811 199.247204 207.597044 201.233455 212.596364 201.233455 
z
" clip-path="url(#pae6c07b903)" style="fill: #008000; opacity: 0.1; stroke: #008000; stroke-linejoin: miter"/>
   </g>
   <g id="patch_15">
    <path d="M 212.596364 201.233455 
C 225.927882 201.233455 238.715171 195.936786 248.141979 186.509979 
C 257.568786 177.083171 262.865455 164.295882 262.865455 150.964364 
C 262.865455 137.632845 257.568786 124.845556 248.141979 115.418749 
C 238.715171 105.991941 225.927882 100.695273 212.596364 100.695273 
C 199.264845 100.695273 186.477556 105.991941 177.050749 115.418749 
C 167.623941 124.845556 162.327273 137.632845 162.327273 150.964364 
C 162.327273 164.295882 167.623941 177.083171 177.050749 186.509979 
C 186.477556 195.936786 199.264845 201.233455 212.596364 201.233455 
z
" clip-path="url(#pae6c07b903)" style="fill: #0000ff; opacity: 0.1; stroke: #0000ff; stroke-linejoin: miter"/>
   </g>
   <g id="patch_16">
    <path d="M 212.596364 169.815273 
C 225.927882 169.815273 238.715171 164.518604 248.141979 155.091797 
C 257.568786 145.66499 262.865455 132.877701 262.865455 119.546182 
C 262.865455 106.214663 257.568786 93.427374 248.141979 84.000567 
C 238.715171 74.573759 225.927882 69.277091 212.596364 69.277091 
C 199.264845 69.277091 186.477556 74.573759 177.050749 84.000567 
C 167.623941 93.427374 162.327273 106.214663 162.327273 119.546182 
C 162.327273 132.877701 167.623941 145.66499 177.050749 155.091797 
C 186.477556 164.518604 199.264845 169.815273 212.596364 169.815273 
z
" clip-path="url(#pae6c07b903)" style="fill: #0000ff; opacity: 0.1; stroke: #0000ff; stroke-linejoin: miter"/>
   </g>
   <g id="patch_17">
    <path d="M 212.596364 122.688 
C 217.595683 122.688 222.390917 120.701749 225.925969 117.166697 
C 229.461022 113.631644 231.447273 108.83641 231.447273 103.837091 
C 231.447273 98.837771 229.461022 94.042538 225.925969 90.507485 
C 222.390917 86.972433 217.595683 84.986182 212.596364 84.986182 
C 207.597044 84.986182 202.801811 86.972433 199.266758 90.507485 
C 195.731705 94.042538 193.745455 98.837771 193.745455 103.837091 
C 193.745455 108.83641 195.731705 113.631644 199.266758 117.166697 
C 202.801811 120.701749 207.597044 122.688 212.596364 122.688 
z
" clip-path="url(#pae6c07b903)" style="fill: #008000; opacity: 0.1; stroke: #008000; stroke-linejoin: miter"/>
   </g>
   <g id="patch_18">
    <path d="M 228.305455 264.069818 
C 233.304774 264.069818 238.100007 262.083567 241.63506 258.548515 
C 245.170113 255.013462 247.156364 250.218229 247.156364 245.218909 
C 247.156364 240.21959 245.170113 235.424356 241.63506 231.889303 
C 238.100007 228.354251 233.304774 226.368 228.305455 226.368 
C 223.306135 226.368 218.510902 228.354251 214.975849 231.889303 
C 211.440796 235.424356 209.454545 240.21959 209.454545 245.218909 
C 209.454545 250.218229 211.440796 255.013462 214.975849 258.548515 
C 218.510902 262.083567 223.306135 264.069818 228.305455 264.069818 
z
" clip-path="url(#pae6c07b903)" style="fill: #008000; opacity: 0.1; stroke: #008000; stroke-linejoin: miter"/>
   </g>
   <g id="patch_19">
    <path d="M 228.305455 248.360727 
C 233.304774 248.360727 238.100007 246.374477 241.63506 242.839424 
C 245.170113 239.304371 247.156364 234.509138 247.156364 229.509818 
C 247.156364 224.510499 245.170113 219.715265 241.63506 216.180213 
C 238.100007 212.64516 233.304774 210.658909 228.305455 210.658909 
C 223.306135 210.658909 218.510902 212.64516 214.975849 216.180213 
C 211.440796 219.715265 209.454545 224.510499 209.454545 229.509818 
C 209.454545 234.509138 211.440796 239.304371 214.975849 242.839424 
C 218.510902 246.374477 223.306135 248.360727 228.305455 248.360727 
z
" clip-path="url(#pae6c07b903)" style="fill: #008000; opacity: 0.1; stroke: #008000; stroke-linejoin: miter"/>
   </g>
   <g id="patch_20">
    <path d="M 228.305455 201.233455 
C 233.304774 201.233455 238.100007 199.247204 241.63506 195.712151 
C 245.170113 192.177098 247.156364 187.381865 247.156364 182.382545 
C 247.156364 177.383226 245.170113 172.587993 241.63506 169.05294 
C 238.100007 165.517887 233.304774 163.531636 228.305455 163.531636 
C 223.306135 163.531636 218.510902 165.517887 214.975849 169.05294 
C 211.440796 172.587993 209.454545 177.383226 209.454545 182.382545 
C 209.454545 187.381865 211.440796 192.177098 214.975849 195.712151 
C 218.510902 199.247204 223.306135 201.233455 228.305455 201.233455 
z
" clip-path="url(#pae6c07b903)" style="fill: #008000; opacity: 0.1; stroke: #008000; stroke-linejoin: miter"/>
   </g>
   <g id="patch_21">
    <path d="M 228.305455 169.815273 
C 241.636973 169.815273 254.424262 164.518604 263.85107 155.091797 
C 273.277877 145.66499 278.574545 132.877701 278.574545 119.546182 
C 278.574545 106.214663 273.277877 93.427374 263.85107 84.000567 
C 254.424262 74.573759 241.636973 69.277091 228.305455 69.277091 
C 214.973936 69.277091 202.186647 74.573759 192.759839 84.000567 
C 183.333032 93.427374 178.036364 106.214663 178.036364 119.546182 
C 178.036364 132.877701 183.333032 145.66499 192.759839 155.091797 
C 202.186647 164.518604 214.973936 169.815273 228.305455 169.815273 
z
" clip-path="url(#pae6c07b903)" style="fill: #0000ff; opacity: 0.1; stroke: #0000ff; stroke-linejoin: miter"/>
   </g>
   <g id="patch_22">
    <path d="M 244.014545 264.069818 
C 249.013865 264.069818 253.809098 262.083567 257.344151 258.548515 
C 260.879204 255.013462 262.865455 250.218229 262.865455 245.218909 
C 262.865455 240.21959 260.879204 235.424356 257.344151 231.889303 
C 253.809098 228.354251 249.013865 226.368 244.014545 226.368 
C 239.015226 226.368 234.219993 228.354251 230.68494 231.889303 
C 227.149887 235.424356 225.163636 240.21959 225.163636 245.218909 
C 225.163636 250.218229 227.149887 255.013462 230.68494 258.548515 
C 234.219993 262.083567 239.015226 264.069818 244.014545 264.069818 
z
" clip-path="url(#pae6c07b903)" style="fill: #008000; opacity: 0.1; stroke: #008000; stroke-linejoin: miter"/>
   </g>
   <g id="patch_23">
    <path d="M 244.014545 248.360727 
C 249.013865 248.360727 253.809098 246.374477 257.344151 242.839424 
C 260.879204 239.304371 262.865455 234.509138 262.865455 229.509818 
C 262.865455 224.510499 260.879204 219.715265 257.344151 216.180213 
C 253.809098 212.64516 249.013865 210.658909 244.014545 210.658909 
C 239.015226 210.658909 234.219993 212.64516 230.68494 216.180213 
C 227.149887 219.715265 225.163636 224.510499 225.163636 229.509818 
C 225.163636 234.509138 227.149887 239.304371 230.68494 242.839424 
C 234.219993 246.374477 239.015226 248.360727 244.014545 248.360727 
z
" clip-path="url(#pae6c07b903)" style="fill: #008000; opacity: 0.1; stroke: #008000; stroke-linejoin: miter"/>
   </g>
   <g id="patch_24">
    <path d="M 244.014545 232.651636 
C 249.013865 232.651636 253.809098 230.665386 257.344151 227.130333 
C 260.879204 223.59528 262.865455 218.800047 262.865455 213.800727 
C 262.865455 208.801408 260.879204 204.006174 257.344151 200.471122 
C 253.809098 196.936069 249.013865 194.949818 244.014545 194.949818 
C 239.015226 194.949818 234.219993 196.936069 230.68494 200.471122 
C 227.149887 204.006174 225.163636 208.801408 225.163636 213.800727 
C 225.163636 218.800047 227.149887 223.59528 230.68494 227.130333 
C 234.219993 230.665386 239.015226 232.651636 244.014545 232.651636 
z
" clip-path="url(#pae6c07b903)" style="fill: #008000; opacity: 0.1; stroke: #008000; stroke-linejoin: miter"/>
   </g>
   <g id="patch_25">
    <path d="M 244.014545 248.360727 
C 257.346064 248.360727 270.133353 243.064059 279.560161 233.637251 
C 288.986968 224.210444 294.283636 211.423155 294.283636 198.091636 
C 294.283636 184.760118 288.986968 171.972829 279.560161 162.546021 
C 270.133353 153.119214 257.346064 147.822545 244.014545 147.822545 
C 230.683027 147.822545 217.895738 153.119214 208.46893 162.546021 
C 199.042123 171.972829 193.745455 184.760118 193.745455 198.091636 
C 193.745455 211.423155 199.042123 224.210444 208.46893 233.637251 
C 217.895738 243.064059 230.683027 248.360727 244.014545 248.360727 
z
" clip-path="url(#pae6c07b903)" style="fill: #ff0000; opacity: 0.1; stroke: #ff0000; stroke-linejoin: miter"/>
   </g>
   <g id="patch_26">
    <path d="M 244.014545 232.651636 
C 257.346064 232.651636 270.133353 227.354968 279.560161 217.928161 
C 288.986968 208.501353 294.283636 195.714064 294.283636 182.382545 
C 294.283636 169.051027 288.986968 156.263738 279.560161 146.83693 
C 270.133353 137.410123 257.346064 132.113455 244.014545 132.113455 
C 230.683027 132.113455 217.895738 137.410123 208.46893 146.83693 
C 199.042123 156.263738 193.745455 169.051027 193.745455 182.382545 
C 193.745455 195.714064 199.042123 208.501353 208.46893 217.928161 
C 217.895738 227.354968 230.683027 232.651636 244.014545 232.651636 
z
" clip-path="url(#pae6c07b903)" style="fill: #ff0000; opacity: 0.1; stroke: #ff0000; stroke-linejoin: miter"/>
   </g>
   <g id="patch_27">
    <path d="M 244.014545 216.942545 
C 257.346064 216.942545 270.133353 211.645877 279.560161 202.21907 
C 288.986968 192.792262 294.283636 180.004973 294.283636 166.673455 
C 294.283636 153.341936 288.986968 140.554647 279.560161 131.127839 
C 270.133353 121.701032 257.346064 116.404364 244.014545 116.404364 
C 230.683027 116.404364 217.895738 121.701032 208.46893 131.127839 
C 199.042123 140.554647 193.745455 153.341936 193.745455 166.673455 
C 193.745455 180.004973 199.042123 192.792262 208.46893 202.21907 
C 217.895738 211.645877 230.683027 216.942545 244.014545 216.942545 
z
" clip-path="url(#pae6c07b903)" style="fill: #0000ff; opacity: 0.1; stroke: #0000ff; stroke-linejoin: miter"/>
   </g>
   <g id="patch_28">
    <path d="M 244.014545 185.524364 
C 257.346064 185.524364 270.133353 180.227695 279.560161 170.800888 
C 288.986968 161.37408 294.283636 148.586791 294.283636 135.255273 
C 294.283636 121.923754 288.986968 109.136465 279.560161 99.709658 
C 270.133353 90.28285 257.346064 84.986182 244.014545 84.986182 
C 230.683027 84.986182 217.895738 90.28285 208.46893 99.709658 
C 199.042123 109.136465 193.745455 121.923754 193.745455 135.255273 
C 193.745455 148.586791 199.042123 161.37408 208.46893 170.800888 
C 217.895738 180.227695 230.683027 185.524364 244.014545 185.524364 
z
" clip-path="url(#pae6c07b903)" style="fill: #0000ff; opacity: 0.1; stroke: #0000ff; stroke-linejoin: miter"/>
   </g>
   <g id="patch_29">
    <path d="M 244.014545 169.815273 
C 257.346064 169.815273 270.133353 164.518604 279.560161 155.091797 
C 288.986968 145.66499 294.283636 132.877701 294.283636 119.546182 
C 294.283636 106.214663 288.986968 93.427374 279.560161 84.000567 
C 270.133353 74.573759 257.346064 69.277091 244.014545 69.277091 
C 230.683027 69.277091 217.895738 74.573759 208.46893 84.000567 
C 199.042123 93.427374 193.745455 106.214663 193.745455 119.546182 
C 193.745455 132.877701 199.042123 145.66499 208.46893 155.091797 
C 217.895738 164.518604 230.683027 169.815273 244.014545 169.815273 
z
" clip-path="url(#pae6c07b903)" style="fill: #0000ff; opacity: 0.1; stroke: #0000ff; stroke-linejoin: miter"/>
   </g>
   <g id="patch_30">
    <path d="M 244.014545 154.106182 
C 257.346064 154.106182 270.133353 148.809513 279.560161 139.382706 
C 288.986968 129.955899 294.283636 117.16861 294.283636 103.837091 
C 294.283636 90.505572 288.986968 77.718283 279.560161 68.291476 
C 270.133353 58.864669 257.346064 53.568 244.014545 53.568 
C 230.683027 53.568 217.895738 58.864669 208.46893 68.291476 
C 199.042123 77.718283 193.745455 90.505572 193.745455 103.837091 
C 193.745455 117.16861 199.042123 129.955899 208.46893 139.382706 
C 217.895738 148.809513 230.683027 154.106182 244.014545 154.106182 
z
" clip-path="url(#pae6c07b903)" style="fill: #0000ff; opacity: 0.1; stroke: #0000ff; stroke-linejoin: miter"/>
   </g>
   <g id="patch_31">
    <path d="M 259.723636 295.488 
C 273.055155 295.488 285.842444 290.191331 295.269251 280.764524 
C 304.696059 271.337717 309.992727 258.550428 309.992727 245.218909 
C 309.992727 231.88739 304.696059 219.100101 295.269251 209.673294 
C 285.842444 200.246487 273.055155 194.949818 259.723636 194.949818 
C 246.392118 194.949818 233.604829 200.246487 224.178021 209.673294 
C 214.751214 219.100101 209.454545 231.88739 209.454545 245.218909 
C 209.454545 258.550428 214.751214 271.337717 224.178021 280.764524 
C 233.604829 290.191331 246.392118 295.488 259.723636 295.488 
z
" clip-path="url(#pae6c07b903)" style="fill: #0000ff; opacity: 0.1; stroke: #0000ff; stroke-linejoin: miter"/>
   </g>
   <g id="patch_32">
    <path d="M 259.723636 279.778909 
C 273.055155 279.778909 285.842444 274.482241 295.269251 265.055433 
C 304.696059 255.628626 309.992727 242.841337 309.992727 229.509818 
C 309.992727 216.178299 304.696059 203.39101 295.269251 193.964203 
C 285.842444 184.537396 273.055155 179.240727 259.723636 179.240727 
C 246.392118 179.240727 233.604829 184.537396 224.178021 193.964203 
C 214.751214 203.39101 209.454545 216.178299 209.454545 229.509818 
C 209.454545 242.841337 214.751214 255.628626 224.178021 265.055433 
C 233.604829 274.482241 246.392118 279.778909 259.723636 279.778909 
z
" clip-path="url(#pae6c07b903)" style="fill: #0000ff; opacity: 0.1; stroke: #0000ff; stroke-linejoin: miter"/>
   </g>
   <g id="patch_33">
    <path d="M 259.723636 248.360727 
C 273.055155 248.360727 285.842444 243.064059 295.269251 233.637251 
C 304.696059 224.210444 309.992727 211.423155 309.992727 198.091636 
C 309.992727 184.760118 304.696059 171.972829 295.269251 162.546021 
C 285.842444 153.119214 273.055155 147.822545 259.723636 147.822545 
C 246.392118 147.822545 233.604829 153.119214 224.178021 162.546021 
C 214.751214 171.972829 209.454545 184.760118 209.454545 198.091636 
C 209.454545 211.423155 214.751214 224.210444 224.178021 233.637251 
C 233.604829 243.064059 246.392118 248.360727 259.723636 248.360727 
z
" clip-path="url(#pae6c07b903)" style="fill: #ff0000; opacity: 0.1; stroke: #ff0000; stroke-linejoin: miter"/>
   </g>
   <g id="patch_34">
    <path d="M 259.723636 232.651636 
C 273.055155 232.651636 285.842444 227.354968 295.269251 217.928161 
C 304.696059 208.501353 309.992727 195.714064 309.992727 182.382545 
C 309.992727 169.051027 304.696059 156.263738 295.269251 146.83693 
C 285.842444 137.410123 273.055155 132.113455 259.723636 132.113455 
C 246.392118 132.113455 233.604829 137.410123 224.178021 146.83693 
C 214.751214 156.263738 209.454545 169.051027 209.454545 182.382545 
C 209.454545 195.714064 214.751214 208.501353 224.178021 217.928161 
C 233.604829 227.354968 246.392118 232.651636 259.723636 232.651636 
z
" clip-path="url(#pae6c07b903)" style="fill: #ff0000; opacity: 0.1; stroke: #ff0000; stroke-linejoin: miter"/>
   </g>
   <g id="patch_35">
    <path d="M 259.723636 216.942545 
C 273.055155 216.942545 285.842444 211.645877 295.269251 202.21907 
C 304.696059 192.792262 309.992727 180.004973 309.992727 166.673455 
C 309.992727 153.341936 304.696059 140.554647 295.269251 131.127839 
C 285.842444 121.701032 273.055155 116.404364 259.723636 116.404364 
C 246.392118 116.404364 233.604829 121.701032 224.178021 131.127839 
C 214.751214 140.554647 209.454545 153.341936 209.454545 166.673455 
C 209.454545 180.004973 214.751214 192.792262 224.178021 202.21907 
C 233.604829 211.645877 246.392118 216.942545 259.723636 216.942545 
z
" clip-path="url(#pae6c07b903)" style="fill: #ff0000; opacity: 0.1; stroke: #ff0000; stroke-linejoin: miter"/>
   </g>
   <g id="patch_36">
    <path d="M 259.723636 185.524364 
C 273.055155 185.524364 285.842444 180.227695 295.269251 170.800888 
C 304.696059 161.37408 309.992727 148.586791 309.992727 135.255273 
C 309.992727 121.923754 304.696059 109.136465 295.269251 99.709658 
C 285.842444 90.28285 273.055155 84.986182 259.723636 84.986182 
C 246.392118 84.986182 233.604829 90.28285 224.178021 99.709658 
C 214.751214 109.136465 209.454545 121.923754 209.454545 135.255273 
C 209.454545 148.586791 214.751214 161.37408 224.178021 170.800888 
C 233.604829 180.227695 246.392118 185.524364 259.723636 185.524364 
z
" clip-path="url(#pae6c07b903)" style="fill: #ff0000; opacity: 0.1; stroke: #ff0000; stroke-linejoin: miter"/>
   </g>
   <g id="patch_37">
    <path d="M 259.723636 138.397091 
C 264.722956 138.397091 269.518189 136.41084 273.053242 132.875787 
C 276.588295 129.340735 278.574545 124.545501 278.574545 119.546182 
C 278.574545 114.546862 276.588295 109.751629 273.053242 106.216576 
C 269.518189 102.681523 264.722956 100.695273 259.723636 100.695273 
C 254.724317 100.695273 249.929083 102.681523 246.394031 106.216576 
C 242.858978 109.751629 240.872727 114.546862 240.872727 119.546182 
C 240.872727 124.545501 242.858978 129.340735 246.394031 132.875787 
C 249.929083 136.41084 254.724317 138.397091 259.723636 138.397091 
z
" clip-path="url(#pae6c07b903)" style="fill: #008000; opacity: 0.1; stroke: #008000; stroke-linejoin: miter"/>
   </g>
   <g id="patch_38">
    <path d="M 259.723636 122.688 
C 264.722956 122.688 269.518189 120.701749 273.053242 117.166697 
C 276.588295 113.631644 278.574545 108.83641 278.574545 103.837091 
C 278.574545 98.837771 276.588295 94.042538 273.053242 90.507485 
C 269.518189 86.972433 264.722956 84.986182 259.723636 84.986182 
C 254.724317 84.986182 249.929083 86.972433 246.394031 90.507485 
C 242.858978 94.042538 240.872727 98.837771 240.872727 103.837091 
C 240.872727 108.83641 242.858978 113.631644 246.394031 117.166697 
C 249.929083 120.701749 254.724317 122.688 259.723636 122.688 
z
" clip-path="url(#pae6c07b903)" style="fill: #008000; opacity: 0.1; stroke: #008000; stroke-linejoin: miter"/>
   </g>
   <g id="patch_39">
    <path d="M 275.432727 264.069818 
C 280.432047 264.069818 285.22728 262.083567 288.762333 258.548515 
C 292.297386 255.013462 294.283636 250.218229 294.283636 245.218909 
C 294.283636 240.21959 292.297386 235.424356 288.762333 231.889303 
C 285.22728 228.354251 280.432047 226.368 275.432727 226.368 
C 270.433408 226.368 265.638174 228.354251 262.103122 231.889303 
C 258.568069 235.424356 256.581818 240.21959 256.581818 245.218909 
C 256.581818 250.218229 258.568069 255.013462 262.103122 258.548515 
C 265.638174 262.083567 270.433408 264.069818 275.432727 264.069818 
z
" clip-path="url(#pae6c07b903)" style="fill: #008000; opacity: 0.1; stroke: #008000; stroke-linejoin: miter"/>
   </g>
   <g id="patch_40">
    <path d="M 275.432727 279.778909 
C 288.764246 279.778909 301.551535 274.482241 310.978342 265.055433 
C 320.40515 255.628626 325.701818 242.841337 325.701818 229.509818 
C 325.701818 216.178299 320.40515 203.39101 310.978342 193.964203 
C 301.551535 184.537396 288.764246 179.240727 275.432727 179.240727 
C 262.101209 179.240727 249.31392 184.537396 239.887112 193.964203 
C 230.460305 203.39101 225.163636 216.178299 225.163636 229.509818 
C 225.163636 242.841337 230.460305 255.628626 239.887112 265.055433 
C 249.31392 274.482241 262.101209 279.778909 275.432727 279.778909 
z
" clip-path="url(#pae6c07b903)" style="fill: #ff0000; opacity: 0.1; stroke: #ff0000; stroke-linejoin: miter"/>
   </g>
   <g id="patch_41">
    <path d="M 275.432727 264.069818 
C 288.764246 264.069818 301.551535 258.77315 310.978342 249.346342 
C 320.40515 239.919535 325.701818 227.132246 325.701818 213.800727 
C 325.701818 200.469209 320.40515 187.68192 310.978342 178.255112 
C 301.551535 168.828305 288.764246 163.531636 275.432727 163.531636 
C 262.101209 163.531636 249.31392 168.828305 239.887112 178.255112 
C 230.460305 187.68192 225.163636 200.469209 225.163636 213.800727 
C 225.163636 227.132246 230.460305 239.919535 239.887112 249.346342 
C 249.31392 258.77315 262.101209 264.069818 275.432727 264.069818 
z
" clip-path="url(#pae6c07b903)" style="fill: #ff0000; opacity: 0.1; stroke: #ff0000; stroke-linejoin: miter"/>
   </g>
   <g id="patch_42">
    <path d="M 275.432727 216.942545 
C 280.432047 216.942545 285.22728 214.956295 288.762333 211.421242 
C 292.297386 207.886189 294.283636 203.090956 294.283636 198.091636 
C 294.283636 193.092317 292.297386 188.297083 288.762333 184.762031 
C 285.22728 181.226978 280.432047 179.240727 275.432727 179.240727 
C 270.433408 179.240727 265.638174 181.226978 262.103122 184.762031 
C 258.568069 188.297083 256.581818 193.092317 256.581818 198.091636 
C 256.581818 203.090956 258.568069 207.886189 262.103122 211.421242 
C 265.638174 214.956295 270.433408 216.942545 275.432727 216.942545 
z
" clip-path="url(#pae6c07b903)" style="fill: #008000; opacity: 0.1; stroke: #008000; stroke-linejoin: miter"/>
   </g>
   <g id="patch_43">
    <path d="M 275.432727 185.524364 
C 280.432047 185.524364 285.22728 183.538113 288.762333 180.00306 
C 292.297386 176.468007 294.283636 171.672774 294.283636 166.673455 
C 294.283636 161.674135 292.297386 156.878902 288.762333 153.343849 
C 285.22728 149.808796 280.432047 147.822545 275.432727 147.822545 
C 270.433408 147.822545 265.638174 149.808796 262.103122 153.343849 
C 258.568069 156.878902 256.581818 161.674135 256.581818 166.673455 
C 256.581818 171.672774 258.568069 176.468007 262.103122 180.00306 
C 265.638174 183.538113 270.433408 185.524364 275.432727 185.524364 
z
" clip-path="url(#pae6c07b903)" style="fill: #008000; opacity: 0.1; stroke: #008000; stroke-linejoin: miter"/>
   </g>
   <g id="patch_44">
    <path d="M 275.432727 169.815273 
C 288.764246 169.815273 301.551535 164.518604 310.978342 155.091797 
C 320.40515 145.66499 325.701818 132.877701 325.701818 119.546182 
C 325.701818 106.214663 320.40515 93.427374 310.978342 84.000567 
C 301.551535 74.573759 288.764246 69.277091 275.432727 69.277091 
C 262.101209 69.277091 249.31392 74.573759 239.887112 84.000567 
C 230.460305 93.427374 225.163636 106.214663 225.163636 119.546182 
C 225.163636 132.877701 230.460305 145.66499 239.887112 155.091797 
C 249.31392 164.518604 262.101209 169.815273 275.432727 169.815273 
z
" clip-path="url(#pae6c07b903)" style="fill: #0000ff; opacity: 0.1; stroke: #0000ff; stroke-linejoin: miter"/>
   </g>
   <g id="patch_45">
    <path d="M 275.432727 154.106182 
C 288.764246 154.106182 301.551535 148.809513 310.978342 139.382706 
C 320.40515 129.955899 325.701818 117.16861 325.701818 103.837091 
C 325.701818 90.505572 320.40515 77.718283 310.978342 68.291476 
C 301.551535 58.864669 288.764246 53.568 275.432727 53.568 
C 262.101209 53.568 249.31392 58.864669 239.887112 68.291476 
C 230.460305 77.718283 225.163636 90.505572 225.163636 103.837091 
C 225.163636 117.16861 230.460305 129.955899 239.887112 139.382706 
C 249.31392 148.809513 262.101209 154.106182 275.432727 154.106182 
z
" clip-path="url(#pae6c07b903)" style="fill: #0000ff; opacity: 0.1; stroke: #0000ff; stroke-linejoin: miter"/>
   </g>
   <g id="patch_46">
    <path d="M 291.141818 295.488 
C 304.473337 295.488 317.260626 290.191331 326.687433 280.764524 
C 336.114241 271.337717 341.410909 258.550428 341.410909 245.218909 
C 341.410909 231.88739 336.114241 219.100101 326.687433 209.673294 
C 317.260626 200.246487 304.473337 194.949818 291.141818 194.949818 
C 277.810299 194.949818 265.02301 200.246487 255.596203 209.673294 
C 246.169396 219.100101 240.872727 231.88739 240.872727 245.218909 
C 240.872727 258.550428 246.169396 271.337717 255.596203 280.764524 
C 265.02301 290.191331 277.810299 295.488 291.141818 295.488 
z
" clip-path="url(#pae6c07b903)" style="fill: #0000ff; opacity: 0.1; stroke: #0000ff; stroke-linejoin: miter"/>
   </g>
   <g id="patch_47">
    <path d="M 291.141818 279.778909 
C 304.473337 279.778909 317.260626 274.482241 326.687433 265.055433 
C 336.114241 255.628626 341.410909 242.841337 341.410909 229.509818 
C 341.410909 216.178299 336.114241 203.39101 326.687433 193.964203 
C 317.260626 184.537396 304.473337 179.240727 291.141818 179.240727 
C 277.810299 179.240727 265.02301 184.537396 255.596203 193.964203 
C 246.169396 203.39101 240.872727 216.178299 240.872727 229.509818 
C 240.872727 242.841337 246.169396 255.628626 255.596203 265.055433 
C 265.02301 274.482241 277.810299 279.778909 291.141818 279.778909 
z
" clip-path="url(#pae6c07b903)" style="fill: #ff0000; opacity: 0.1; stroke: #ff0000; stroke-linejoin: miter"/>
   </g>
   <g id="patch_48">
    <path d="M 291.141818 232.651636 
C 296.141138 232.651636 300.936371 230.665386 304.471424 227.130333 
C 308.006477 223.59528 309.992727 218.800047 309.992727 213.800727 
C 309.992727 208.801408 308.006477 204.006174 304.471424 200.471122 
C 300.936371 196.936069 296.141138 194.949818 291.141818 194.949818 
C 286.142499 194.949818 281.347265 196.936069 277.812213 200.471122 
C 274.27716 204.006174 272.290909 208.801408 272.290909 213.800727 
C 272.290909 218.800047 274.27716 223.59528 277.812213 227.130333 
C 281.347265 230.665386 286.142499 232.651636 291.141818 232.651636 
z
" clip-path="url(#pae6c07b903)" style="fill: #008000; opacity: 0.1; stroke: #008000; stroke-linejoin: miter"/>
   </g>
   <g id="patch_49">
    <path d="M 291.141818 216.942545 
C 296.141138 216.942545 300.936371 214.956295 304.471424 211.421242 
C 308.006477 207.886189 309.992727 203.090956 309.992727 198.091636 
C 309.992727 193.092317 308.006477 188.297083 304.471424 184.762031 
C 300.936371 181.226978 296.141138 179.240727 291.141818 179.240727 
C 286.142499 179.240727 281.347265 181.226978 277.812213 184.762031 
C 274.27716 188.297083 272.290909 193.092317 272.290909 198.091636 
C 272.290909 203.090956 274.27716 207.886189 277.812213 211.421242 
C 281.347265 214.956295 286.142499 216.942545 291.141818 216.942545 
z
" clip-path="url(#pae6c07b903)" style="fill: #008000; opacity: 0.1; stroke: #008000; stroke-linejoin: miter"/>
   </g>
   <g id="patch_50">
    <path d="M 291.141818 201.233455 
C 296.141138 201.233455 300.936371 199.247204 304.471424 195.712151 
C 308.006477 192.177098 309.992727 187.381865 309.992727 182.382545 
C 309.992727 177.383226 308.006477 172.587993 304.471424 169.05294 
C 300.936371 165.517887 296.141138 163.531636 291.141818 163.531636 
C 286.142499 163.531636 281.347265 165.517887 277.812213 169.05294 
C 274.27716 172.587993 272.290909 177.383226 272.290909 182.382545 
C 272.290909 187.381865 274.27716 192.177098 277.812213 195.712151 
C 281.347265 199.247204 286.142499 201.233455 291.141818 201.233455 
z
" clip-path="url(#pae6c07b903)" style="fill: #008000; opacity: 0.1; stroke: #008000; stroke-linejoin: miter"/>
   </g>
   <g id="patch_51">
    <path d="M 291.141818 216.942545 
C 304.473337 216.942545 317.260626 211.645877 326.687433 202.21907 
C 336.114241 192.792262 341.410909 180.004973 341.410909 166.673455 
C 341.410909 153.341936 336.114241 140.554647 326.687433 131.127839 
C 317.260626 121.701032 304.473337 116.404364 291.141818 116.404364 
C 277.810299 116.404364 265.02301 121.701032 255.596203 131.127839 
C 246.169396 140.554647 240.872727 153.341936 240.872727 166.673455 
C 240.872727 180.004973 246.169396 192.792262 255.596203 202.21907 
C 265.02301 211.645877 277.810299 216.942545 291.141818 216.942545 
z
" clip-path="url(#pae6c07b903)" style="fill: #ff0000; opacity: 0.1; stroke: #ff0000; stroke-linejoin: miter"/>
   </g>
   <g id="patch_52">
    <path d="M 291.141818 185.524364 
C 304.473337 185.524364 317.260626 180.227695 326.687433 170.800888 
C 336.114241 161.37408 341.410909 148.586791 341.410909 135.255273 
C 341.410909 121.923754 336.114241 109.136465 326.687433 99.709658 
C 317.260626 90.28285 304.473337 84.986182 291.141818 84.986182 
C 277.810299 84.986182 265.02301 90.28285 255.596203 99.709658 
C 246.169396 109.136465 240.872727 121.923754 240.872727 135.255273 
C 240.872727 148.586791 246.169396 161.37408 255.596203 170.800888 
C 265.02301 180.227695 277.810299 185.524364 291.141818 185.524364 
z
" clip-path="url(#pae6c07b903)" style="fill: #ff0000; opacity: 0.1; stroke: #ff0000; stroke-linejoin: miter"/>
   </g>
   <g id="patch_53">
    <path d="M 291.141818 169.815273 
C 304.473337 169.815273 317.260626 164.518604 326.687433 155.091797 
C 336.114241 145.66499 341.410909 132.877701 341.410909 119.546182 
C 341.410909 106.214663 336.114241 93.427374 326.687433 84.000567 
C 317.260626 74.573759 304.473337 69.277091 291.141818 69.277091 
C 277.810299 69.277091 265.02301 74.573759 255.596203 84.000567 
C 246.169396 93.427374 240.872727 106.214663 240.872727 119.546182 
C 240.872727 132.877701 246.169396 145.66499 255.596203 155.091797 
C 265.02301 164.518604 277.810299 169.815273 291.141818 169.815273 
z
" clip-path="url(#pae6c07b903)" style="fill: #ff0000; opacity: 0.1; stroke: #ff0000; stroke-linejoin: miter"/>
   </g>
   <g id="patch_54">
    <path d="M 291.141818 122.688 
C 296.141138 122.688 300.936371 120.701749 304.471424 117.166697 
C 308.006477 113.631644 309.992727 108.83641 309.992727 103.837091 
C 309.992727 98.837771 308.006477 94.042538 304.471424 90.507485 
C 300.936371 86.972433 296.141138 84.986182 291.141818 84.986182 
C 286.142499 84.986182 281.347265 86.972433 277.812213 90.507485 
C 274.27716 94.042538 272.290909 98.837771 272.290909 103.837091 
C 272.290909 108.83641 274.27716 113.631644 277.812213 117.166697 
C 281.347265 120.701749 286.142499 122.688 291.141818 122.688 
z
" clip-path="url(#pae6c07b903)" style="fill: #008000; opacity: 0.1; stroke: #008000; stroke-linejoin: miter"/>
   </g>
   <g id="patch_55">
    <path d="M 306.850909 295.488 
C 320.182428 295.488 332.969717 290.191331 342.396524 280.764524 
C 351.823331 271.337717 357.12 258.550428 357.12 245.218909 
C 357.12 231.88739 351.823331 219.100101 342.396524 209.673294 
C 332.969717 200.246487 320.182428 194.949818 306.850909 194.949818 
C 293.51939 194.949818 280.732101 200.246487 271.305294 209.673294 
C 261.878487 219.100101 256.581818 231.88739 256.581818 245.218909 
C 256.581818 258.550428 261.878487 271.337717 271.305294 280.764524 
C 280.732101 290.191331 293.51939 295.488 306.850909 295.488 
z
" clip-path="url(#pae6c07b903)" style="fill: #ff0000; opacity: 0.1; stroke: #ff0000; stroke-linejoin: miter"/>
   </g>
   <g id="patch_56">
    <path d="M 306.850909 279.778909 
C 320.182428 279.778909 332.969717 274.482241 342.396524 265.055433 
C 351.823331 255.628626 357.12 242.841337 357.12 229.509818 
C 357.12 216.178299 351.823331 203.39101 342.396524 193.964203 
C 332.969717 184.537396 320.182428 179.240727 306.850909 179.240727 
C 293.51939 179.240727 280.732101 184.537396 271.305294 193.964203 
C 261.878487 203.39101 256.581818 216.178299 256.581818 229.509818 
C 256.581818 242.841337 261.878487 255.628626 271.305294 265.055433 
C 280.732101 274.482241 293.51939 279.778909 306.850909 279.778909 
z
" clip-path="url(#pae6c07b903)" style="fill: #ff0000; opacity: 0.1; stroke: #ff0000; stroke-linejoin: miter"/>
   </g>
   <g id="patch_57">
    <path d="M 306.850909 248.360727 
C 320.182428 248.360727 332.969717 243.064059 342.396524 233.637251 
C 351.823331 224.210444 357.12 211.423155 357.12 198.091636 
C 357.12 184.760118 351.823331 171.972829 342.396524 162.546021 
C 332.969717 153.119214 320.182428 147.822545 306.850909 147.822545 
C 293.51939 147.822545 280.732101 153.119214 271.305294 162.546021 
C 261.878487 171.972829 256.581818 184.760118 256.581818 198.091636 
C 256.581818 211.423155 261.878487 224.210444 271.305294 233.637251 
C 280.732101 243.064059 293.51939 248.360727 306.850909 248.360727 
z
" clip-path="url(#pae6c07b903)" style="fill: #ff0000; opacity: 0.1; stroke: #ff0000; stroke-linejoin: miter"/>
   </g>
   <g id="patch_58">
    <path d="M 306.850909 201.233455 
C 311.850229 201.233455 316.645462 199.247204 320.180515 195.712151 
C 323.715567 192.177098 325.701818 187.381865 325.701818 182.382545 
C 325.701818 177.383226 323.715567 172.587993 320.180515 169.05294 
C 316.645462 165.517887 311.850229 163.531636 306.850909 163.531636 
C 301.85159 163.531636 297.056356 165.517887 293.521303 169.05294 
C 289.986251 172.587993 288 177.383226 288 182.382545 
C 288 187.381865 289.986251 192.177098 293.521303 195.712151 
C 297.056356 199.247204 301.85159 201.233455 306.850909 201.233455 
z
" clip-path="url(#pae6c07b903)" style="fill: #008000; opacity: 0.1; stroke: #008000; stroke-linejoin: miter"/>
   </g>
   <g id="patch_59">
    <path d="M 306.850909 216.942545 
C 320.182428 216.942545 332.969717 211.645877 342.396524 202.21907 
C 351.823331 192.792262 357.12 180.004973 357.12 166.673455 
C 357.12 153.341936 351.823331 140.554647 342.396524 131.127839 
C 332.969717 121.701032 320.182428 116.404364 306.850909 116.404364 
C 293.51939 116.404364 280.732101 121.701032 271.305294 131.127839 
C 261.878487 140.554647 256.581818 153.341936 256.581818 166.673455 
C 256.581818 180.004973 261.878487 192.792262 271.305294 202.21907 
C 280.732101 211.645877 293.51939 216.942545 306.850909 216.942545 
z
" clip-path="url(#pae6c07b903)" style="fill: #0000ff; opacity: 0.1; stroke: #0000ff; stroke-linejoin: miter"/>
   </g>
   <g id="patch_60">
    <path d="M 306.850909 185.524364 
C 320.182428 185.524364 332.969717 180.227695 342.396524 170.800888 
C 351.823331 161.37408 357.12 148.586791 357.12 135.255273 
C 357.12 121.923754 351.823331 109.136465 342.396524 99.709658 
C 332.969717 90.28285 320.182428 84.986182 306.850909 84.986182 
C 293.51939 84.986182 280.732101 90.28285 271.305294 99.709658 
C 261.878487 109.136465 256.581818 121.923754 256.581818 135.255273 
C 256.581818 148.586791 261.878487 161.37408 271.305294 170.800888 
C 280.732101 180.227695 293.51939 185.524364 306.850909 185.524364 
z
" clip-path="url(#pae6c07b903)" style="fill: #ff0000; opacity: 0.1; stroke: #ff0000; stroke-linejoin: miter"/>
   </g>
   <g id="patch_61">
    <path d="M 306.850909 169.815273 
C 320.182428 169.815273 332.969717 164.518604 342.396524 155.091797 
C 351.823331 145.66499 357.12 132.877701 357.12 119.546182 
C 357.12 106.214663 351.823331 93.427374 342.396524 84.000567 
C 332.969717 74.573759 320.182428 69.277091 306.850909 69.277091 
C 293.51939 69.277091 280.732101 74.573759 271.305294 84.000567 
C 261.878487 93.427374 256.581818 106.214663 256.581818 119.546182 
C 256.581818 132.877701 261.878487 145.66499 271.305294 155.091797 
C 280.732101 164.518604 293.51939 169.815273 306.850909 169.815273 
z
" clip-path="url(#pae6c07b903)" style="fill: #0000ff; opacity: 0.1; stroke: #0000ff; stroke-linejoin: miter"/>
   </g>
   <g id="patch_62">
    <path d="M 306.850909 122.688 
C 311.850229 122.688 316.645462 120.701749 320.180515 117.166697 
C 323.715567 113.631644 325.701818 108.83641 325.701818 103.837091 
C 325.701818 98.837771 323.715567 94.042538 320.180515 90.507485 
C 316.645462 86.972433 311.850229 84.986182 306.850909 84.986182 
C 301.85159 84.986182 297.056356 86.972433 293.521303 90.507485 
C 289.986251 94.042538 288 98.837771 288 103.837091 
C 288 108.83641 289.986251 113.631644 293.521303 117.166697 
C 297.056356 120.701749 301.85159 122.688 306.850909 122.688 
z
" clip-path="url(#pae6c07b903)" style="fill: #008000; opacity: 0.1; stroke: #008000; stroke-linejoin: miter"/>
   </g>
   <g id="matplotlib.axis_1">
    <g id="xtick_1">
     <g id="line2d_1">
      <path d="M 71.214545 307.584 
L 71.214545 41.472 
" clip-path="url(#pae6c07b903)" style="fill: none; stroke-dasharray: 1.85,0.8; stroke-dashoffset: 0; stroke: #b0b0b0; stroke-opacity: 0.5; stroke-width: 0.5"/>
     </g>
     <g id="line2d_2">
      <defs>
       <path id="m069e40d55e" d="M 0 0 
L 0 3.5 
" style="stroke: #000000; stroke-width: 0.8"/>
      </defs>
      <g>
       <use xlink:href="#m069e40d55e" x="71.214545" y="307.584" style="stroke: #000000; stroke-width: 0.8"/>
      </g>
     </g>
     <g id="text_1">
      <!-- −5 -->
      <g transform="translate(63.843452 322.182437)scale(0.1 -0.1)">
       <defs>
        <path id="DejaVuSans-2212" d="M 678 2272 
L 4684 2272 
L 4684 1741 
L 678 1741 
L 678 2272 
z
" transform="scale(0.015625)"/>
        <path id="DejaVuSans-35" d="M 691 4666 
L 3169 4666 
L 3169 4134 
L 1269 4134 
L 1269 2991 
Q 1406 3038 1543 3061 
Q 1681 3084 1819 3084 
Q 2600 3084 3056 2656 
Q 3513 2228 3513 1497 
Q 3513 744 3044 326 
Q 2575 -91 1722 -91 
Q 1428 -91 1123 -41 
Q 819 9 494 109 
L 494 744 
Q 775 591 1075 516 
Q 1375 441 1709 441 
Q 2250 441 2565 725 
Q 2881 1009 2881 1497 
Q 2881 1984 2565 2268 
Q 2250 2553 1709 2553 
Q 1456 2553 1204 2497 
Q 953 2441 691 2322 
L 691 4666 
z
" transform="scale(0.015625)"/>
       </defs>
       <use xlink:href="#DejaVuSans-2212"/>
       <use xlink:href="#DejaVuSans-35" x="83.789062"/>
      </g>
     </g>
    </g>
    <g id="xtick_2">
     <g id="line2d_3">
      <path d="M 149.76 307.584 
L 149.76 41.472 
" clip-path="url(#pae6c07b903)" style="fill: none; stroke-dasharray: 1.85,0.8; stroke-dashoffset: 0; stroke: #b0b0b0; stroke-opacity: 0.5; stroke-width: 0.5"/>
     </g>
     <g id="line2d_4">
      <g>
       <use xlink:href="#m069e40d55e" x="149.76" y="307.584" style="stroke: #000000; stroke-width: 0.8"/>
      </g>
     </g>
     <g id="text_2">
      <!-- 0 -->
      <g transform="translate(146.57875 322.182437)scale(0.1 -0.1)">
       <defs>
        <path id="DejaVuSans-30" d="M 2034 4250 
Q 1547 4250 1301 3770 
Q 1056 3291 1056 2328 
Q 1056 1369 1301 889 
Q 1547 409 2034 409 
Q 2525 409 2770 889 
Q 3016 1369 3016 2328 
Q 3016 3291 2770 3770 
Q 2525 4250 2034 4250 
z
M 2034 4750 
Q 2819 4750 3233 4129 
Q 3647 3509 3647 2328 
Q 3647 1150 3233 529 
Q 2819 -91 2034 -91 
Q 1250 -91 836 529 
Q 422 1150 422 2328 
Q 422 3509 836 4129 
Q 1250 4750 2034 4750 
z
" transform="scale(0.015625)"/>
       </defs>
       <use xlink:href="#DejaVuSans-30"/>
      </g>
     </g>
    </g>
    <g id="xtick_3">
     <g id="line2d_5">
      <path d="M 228.305455 307.584 
L 228.305455 41.472 
" clip-path="url(#pae6c07b903)" style="fill: none; stroke-dasharray: 1.85,0.8; stroke-dashoffset: 0; stroke: #b0b0b0; stroke-opacity: 0.5; stroke-width: 0.5"/>
     </g>
     <g id="line2d_6">
      <g>
       <use xlink:href="#m069e40d55e" x="228.305455" y="307.584" style="stroke: #000000; stroke-width: 0.8"/>
      </g>
     </g>
     <g id="text_3">
      <!-- 5 -->
      <g transform="translate(225.124205 322.182437)scale(0.1 -0.1)">
       <use xlink:href="#DejaVuSans-35"/>
      </g>
     </g>
    </g>
    <g id="xtick_4">
     <g id="line2d_7">
      <path d="M 306.850909 307.584 
L 306.850909 41.472 
" clip-path="url(#pae6c07b903)" style="fill: none; stroke-dasharray: 1.85,0.8; stroke-dashoffset: 0; stroke: #b0b0b0; stroke-opacity: 0.5; stroke-width: 0.5"/>
     </g>
     <g id="line2d_8">
      <g>
       <use xlink:href="#m069e40d55e" x="306.850909" y="307.584" style="stroke: #000000; stroke-width: 0.8"/>
      </g>
     </g>
     <g id="text_4">
      <!-- 10 -->
      <g transform="translate(300.488409 322.182437)scale(0.1 -0.1)">
       <defs>
        <path id="DejaVuSans-31" d="M 794 531 
L 1825 531 
L 1825 4091 
L 703 3866 
L 703 4441 
L 1819 4666 
L 2450 4666 
L 2450 531 
L 3481 531 
L 3481 0 
L 794 0 
L 794 531 
z
" transform="scale(0.015625)"/>
       </defs>
       <use xlink:href="#DejaVuSans-31"/>
       <use xlink:href="#DejaVuSans-30" x="63.623047"/>
      </g>
     </g>
    </g>
    <g id="xtick_5">
     <g id="line2d_9">
      <path d="M 385.396364 307.584 
L 385.396364 41.472 
" clip-path="url(#pae6c07b903)" style="fill: none; stroke-dasharray: 1.85,0.8; stroke-dashoffset: 0; stroke: #b0b0b0; stroke-opacity: 0.5; stroke-width: 0.5"/>
     </g>
     <g id="line2d_10">
      <g>
       <use xlink:href="#m069e40d55e" x="385.396364" y="307.584" style="stroke: #000000; stroke-width: 0.8"/>
      </g>
     </g>
     <g id="text_5">
      <!-- 15 -->
      <g transform="translate(379.033864 322.182437)scale(0.1 -0.1)">
       <use xlink:href="#DejaVuSans-31"/>
       <use xlink:href="#DejaVuSans-35" x="63.623047"/>
      </g>
     </g>
    </g>
    <g id="text_6">
     <!-- Eixo X (m) -->
     <g transform="translate(210.374062 335.860562)scale(0.1 -0.1)">
      <defs>
       <path id="DejaVuSans-45" d="M 628 4666 
L 3578 4666 
L 3578 4134 
L 1259 4134 
L 1259 2753 
L 3481 2753 
L 3481 2222 
L 1259 2222 
L 1259 531 
L 3634 531 
L 3634 0 
L 628 0 
L 628 4666 
z
" transform="scale(0.015625)"/>
       <path id="DejaVuSans-69" d="M 603 3500 
L 1178 3500 
L 1178 0 
L 603 0 
L 603 3500 
z
M 603 4863 
L 1178 4863 
L 1178 4134 
L 603 4134 
L 603 4863 
z
" transform="scale(0.015625)"/>
       <path id="DejaVuSans-78" d="M 3513 3500 
L 2247 1797 
L 3578 0 
L 2900 0 
L 1881 1375 
L 863 0 
L 184 0 
L 1544 1831 
L 300 3500 
L 978 3500 
L 1906 2253 
L 2834 3500 
L 3513 3500 
z
" transform="scale(0.015625)"/>
       <path id="DejaVuSans-6f" d="M 1959 3097 
Q 1497 3097 1228 2736 
Q 959 2375 959 1747 
Q 959 1119 1226 758 
Q 1494 397 1959 397 
Q 2419 397 2687 759 
Q 2956 1122 2956 1747 
Q 2956 2369 2687 2733 
Q 2419 3097 1959 3097 
z
M 1959 3584 
Q 2709 3584 3137 3096 
Q 3566 2609 3566 1747 
Q 3566 888 3137 398 
Q 2709 -91 1959 -91 
Q 1206 -91 779 398 
Q 353 888 353 1747 
Q 353 2609 779 3096 
Q 1206 3584 1959 3584 
z
" transform="scale(0.015625)"/>
       <path id="DejaVuSans-20" transform="scale(0.015625)"/>
       <path id="DejaVuSans-58" d="M 403 4666 
L 1081 4666 
L 2241 2931 
L 3406 4666 
L 4084 4666 
L 2584 2425 
L 4184 0 
L 3506 0 
L 2194 1984 
L 872 0 
L 191 0 
L 1856 2491 
L 403 4666 
z
" transform="scale(0.015625)"/>
       <path id="DejaVuSans-28" d="M 1984 4856 
Q 1566 4138 1362 3434 
Q 1159 2731 1159 2009 
Q 1159 1288 1364 580 
Q 1569 -128 1984 -844 
L 1484 -844 
Q 1016 -109 783 600 
Q 550 1309 550 2009 
Q 550 2706 781 3412 
Q 1013 4119 1484 4856 
L 1984 4856 
z
" transform="scale(0.015625)"/>
       <path id="DejaVuSans-6d" d="M 3328 2828 
Q 3544 3216 3844 3400 
Q 4144 3584 4550 3584 
Q 5097 3584 5394 3201 
Q 5691 2819 5691 2113 
L 5691 0 
L 5113 0 
L 5113 2094 
Q 5113 2597 4934 2840 
Q 4756 3084 4391 3084 
Q 3944 3084 3684 2787 
Q 3425 2491 3425 1978 
L 3425 0 
L 2847 0 
L 2847 2094 
Q 2847 2600 2669 2842 
Q 2491 3084 2119 3084 
Q 1678 3084 1418 2786 
Q 1159 2488 1159 1978 
L 1159 0 
L 581 0 
L 581 3500 
L 1159 3500 
L 1159 2956 
Q 1356 3278 1631 3431 
Q 1906 3584 2284 3584 
Q 2666 3584 2933 3390 
Q 3200 3197 3328 2828 
z
" transform="scale(0.015625)"/>
       <path id="DejaVuSans-29" d="M 513 4856 
L 1013 4856 
Q 1481 4119 1714 3412 
Q 1947 2706 1947 2009 
Q 1947 1309 1714 600 
Q 1481 -109 1013 -844 
L 513 -844 
Q 928 -128 1133 580 
Q 1338 1288 1338 2009 
Q 1338 2731 1133 3434 
Q 928 4138 513 4856 
z
" transform="scale(0.015625)"/>
      </defs>
      <use xlink:href="#DejaVuSans-45"/>
      <use xlink:href="#DejaVuSans-69" x="63.183594"/>
      <use xlink:href="#DejaVuSans-78" x="90.966797"/>
      <use xlink:href="#DejaVuSans-6f" x="147.021484"/>
      <use xlink:href="#DejaVuSans-20" x="208.203125"/>
      <use xlink:href="#DejaVuSans-58" x="239.990234"/>
      <use xlink:href="#DejaVuSans-20" x="308.496094"/>
      <use xlink:href="#DejaVuSans-28" x="340.283203"/>
      <use xlink:href="#DejaVuSans-6d" x="379.296875"/>
      <use xlink:href="#DejaVuSans-29" x="476.708984"/>
     </g>
    </g>
   </g>
   <g id="matplotlib.axis_2">
    <g id="ytick_1">
     <g id="line2d_11">
      <path d="M 57.6 292.346182 
L 414.72 292.346182 
" clip-path="url(#pae6c07b903)" style="fill: none; stroke-dasharray: 1.85,0.8; stroke-dashoffset: 0; stroke: #b0b0b0; stroke-opacity: 0.5; stroke-width: 0.5"/>
     </g>
     <g id="line2d_12">
      <defs>
       <path id="mcfd28cf0a2" d="M 0 0 
L -3.5 0 
" style="stroke: #000000; stroke-width: 0.8"/>
      </defs>
      <g>
       <use xlink:href="#mcfd28cf0a2" x="57.6" y="292.346182" style="stroke: #000000; stroke-width: 0.8"/>
      </g>
     </g>
     <g id="text_7">
      <!-- −2 -->
      <g transform="translate(35.857813 296.145401)scale(0.1 -0.1)">
       <defs>
        <path id="DejaVuSans-32" d="M 1228 531 
L 3431 531 
L 3431 0 
L 469 0 
L 469 531 
Q 828 903 1448 1529 
Q 2069 2156 2228 2338 
Q 2531 2678 2651 2914 
Q 2772 3150 2772 3378 
Q 2772 3750 2511 3984 
Q 2250 4219 1831 4219 
Q 1534 4219 1204 4116 
Q 875 4013 500 3803 
L 500 4441 
Q 881 4594 1212 4672 
Q 1544 4750 1819 4750 
Q 2544 4750 2975 4387 
Q 3406 4025 3406 3419 
Q 3406 3131 3298 2873 
Q 3191 2616 2906 2266 
Q 2828 2175 2409 1742 
Q 1991 1309 1228 531 
z
" transform="scale(0.015625)"/>
       </defs>
       <use xlink:href="#DejaVuSans-2212"/>
       <use xlink:href="#DejaVuSans-32" x="83.789062"/>
      </g>
     </g>
    </g>
    <g id="ytick_2">
     <g id="line2d_13">
      <path d="M 57.6 260.928 
L 414.72 260.928 
" clip-path="url(#pae6c07b903)" style="fill: none; stroke-dasharray: 1.85,0.8; stroke-dashoffset: 0; stroke: #b0b0b0; stroke-opacity: 0.5; stroke-width: 0.5"/>
     </g>
     <g id="line2d_14">
      <g>
       <use xlink:href="#mcfd28cf0a2" x="57.6" y="260.928" style="stroke: #000000; stroke-width: 0.8"/>
      </g>
     </g>
     <g id="text_8">
      <!-- 0 -->
      <g transform="translate(44.2375 264.727219)scale(0.1 -0.1)">
       <use xlink:href="#DejaVuSans-30"/>
      </g>
     </g>
    </g>
    <g id="ytick_3">
     <g id="line2d_15">
      <path d="M 57.6 229.509818 
L 414.72 229.509818 
" clip-path="url(#pae6c07b903)" style="fill: none; stroke-dasharray: 1.85,0.8; stroke-dashoffset: 0; stroke: #b0b0b0; stroke-opacity: 0.5; stroke-width: 0.5"/>
     </g>
     <g id="line2d_16">
      <g>
       <use xlink:href="#mcfd28cf0a2" x="57.6" y="229.509818" style="stroke: #000000; stroke-width: 0.8"/>
      </g>
     </g>
     <g id="text_9">
      <!-- 2 -->
      <g transform="translate(44.2375 233.309037)scale(0.1 -0.1)">
       <use xlink:href="#DejaVuSans-32"/>
      </g>
     </g>
    </g>
    <g id="ytick_4">
     <g id="line2d_17">
      <path d="M 57.6 198.091636 
L 414.72 198.091636 
" clip-path="url(#pae6c07b903)" style="fill: none; stroke-dasharray: 1.85,0.8; stroke-dashoffset: 0; stroke: #b0b0b0; stroke-opacity: 0.5; stroke-width: 0.5"/>
     </g>
     <g id="line2d_18">
      <g>
       <use xlink:href="#mcfd28cf0a2" x="57.6" y="198.091636" style="stroke: #000000; stroke-width: 0.8"/>
      </g>
     </g>
     <g id="text_10">
      <!-- 4 -->
      <g transform="translate(44.2375 201.890855)scale(0.1 -0.1)">
       <defs>
        <path id="DejaVuSans-34" d="M 2419 4116 
L 825 1625 
L 2419 1625 
L 2419 4116 
z
M 2253 4666 
L 3047 4666 
L 3047 1625 
L 3713 1625 
L 3713 1100 
L 3047 1100 
L 3047 0 
L 2419 0 
L 2419 1100 
L 313 1100 
L 313 1709 
L 2253 4666 
z
" transform="scale(0.015625)"/>
       </defs>
       <use xlink:href="#DejaVuSans-34"/>
      </g>
     </g>
    </g>
    <g id="ytick_5">
     <g id="line2d_19">
      <path d="M 57.6 166.673455 
L 414.72 166.673455 
" clip-path="url(#pae6c07b903)" style="fill: none; stroke-dasharray: 1.85,0.8; stroke-dashoffset: 0; stroke: #b0b0b0; stroke-opacity: 0.5; stroke-width: 0.5"/>
     </g>
     <g id="line2d_20">
      <g>
       <use xlink:href="#mcfd28cf0a2" x="57.6" y="166.673455" style="stroke: #000000; stroke-width: 0.8"/>
      </g>
     </g>
     <g id="text_11">
      <!-- 6 -->
      <g transform="translate(44.2375 170.472673)scale(0.1 -0.1)">
       <defs>
        <path id="DejaVuSans-36" d="M 2113 2584 
Q 1688 2584 1439 2293 
Q 1191 2003 1191 1497 
Q 1191 994 1439 701 
Q 1688 409 2113 409 
Q 2538 409 2786 701 
Q 3034 994 3034 1497 
Q 3034 2003 2786 2293 
Q 2538 2584 2113 2584 
z
M 3366 4563 
L 3366 3988 
Q 3128 4100 2886 4159 
Q 2644 4219 2406 4219 
Q 1781 4219 1451 3797 
Q 1122 3375 1075 2522 
Q 1259 2794 1537 2939 
Q 1816 3084 2150 3084 
Q 2853 3084 3261 2657 
Q 3669 2231 3669 1497 
Q 3669 778 3244 343 
Q 2819 -91 2113 -91 
Q 1303 -91 875 529 
Q 447 1150 447 2328 
Q 447 3434 972 4092 
Q 1497 4750 2381 4750 
Q 2619 4750 2861 4703 
Q 3103 4656 3366 4563 
z
" transform="scale(0.015625)"/>
       </defs>
       <use xlink:href="#DejaVuSans-36"/>
      </g>
     </g>
    </g>
    <g id="ytick_6">
     <g id="line2d_21">
      <path d="M 57.6 135.255273 
L 414.72 135.255273 
" clip-path="url(#pae6c07b903)" style="fill: none; stroke-dasharray: 1.85,0.8; stroke-dashoffset: 0; stroke: #b0b0b0; stroke-opacity: 0.5; stroke-width: 0.5"/>
     </g>
     <g id="line2d_22">
      <g>
       <use xlink:href="#mcfd28cf0a2" x="57.6" y="135.255273" style="stroke: #000000; stroke-width: 0.8"/>
      </g>
     </g>
     <g id="text_12">
      <!-- 8 -->
      <g transform="translate(44.2375 139.054491)scale(0.1 -0.1)">
       <defs>
        <path id="DejaVuSans-38" d="M 2034 2216 
Q 1584 2216 1326 1975 
Q 1069 1734 1069 1313 
Q 1069 891 1326 650 
Q 1584 409 2034 409 
Q 2484 409 2743 651 
Q 3003 894 3003 1313 
Q 3003 1734 2745 1975 
Q 2488 2216 2034 2216 
z
M 1403 2484 
Q 997 2584 770 2862 
Q 544 3141 544 3541 
Q 544 4100 942 4425 
Q 1341 4750 2034 4750 
Q 2731 4750 3128 4425 
Q 3525 4100 3525 3541 
Q 3525 3141 3298 2862 
Q 3072 2584 2669 2484 
Q 3125 2378 3379 2068 
Q 3634 1759 3634 1313 
Q 3634 634 3220 271 
Q 2806 -91 2034 -91 
Q 1263 -91 848 271 
Q 434 634 434 1313 
Q 434 1759 690 2068 
Q 947 2378 1403 2484 
z
M 1172 3481 
Q 1172 3119 1398 2916 
Q 1625 2713 2034 2713 
Q 2441 2713 2670 2916 
Q 2900 3119 2900 3481 
Q 2900 3844 2670 4047 
Q 2441 4250 2034 4250 
Q 1625 4250 1398 4047 
Q 1172 3844 1172 3481 
z
" transform="scale(0.015625)"/>
       </defs>
       <use xlink:href="#DejaVuSans-38"/>
      </g>
     </g>
    </g>
    <g id="ytick_7">
     <g id="line2d_23">
      <path d="M 57.6 103.837091 
L 414.72 103.837091 
" clip-path="url(#pae6c07b903)" style="fill: none; stroke-dasharray: 1.85,0.8; stroke-dashoffset: 0; stroke: #b0b0b0; stroke-opacity: 0.5; stroke-width: 0.5"/>
     </g>
     <g id="line2d_24">
      <g>
       <use xlink:href="#mcfd28cf0a2" x="57.6" y="103.837091" style="stroke: #000000; stroke-width: 0.8"/>
      </g>
     </g>
     <g id="text_13">
      <!-- 10 -->
      <g transform="translate(37.875 107.63631)scale(0.1 -0.1)">
       <use xlink:href="#DejaVuSans-31"/>
       <use xlink:href="#DejaVuSans-30" x="63.623047"/>
      </g>
     </g>
    </g>
    <g id="ytick_8">
     <g id="line2d_25">
      <path d="M 57.6 72.418909 
L 414.72 72.418909 
" clip-path="url(#pae6c07b903)" style="fill: none; stroke-dasharray: 1.85,0.8; stroke-dashoffset: 0; stroke: #b0b0b0; stroke-opacity: 0.5; stroke-width: 0.5"/>
     </g>
     <g id="line2d_26">
      <g>
       <use xlink:href="#mcfd28cf0a2" x="57.6" y="72.418909" style="stroke: #000000; stroke-width: 0.8"/>
      </g>
     </g>
     <g id="text_14">
      <!-- 12 -->
      <g transform="translate(37.875 76.218128)scale(0.1 -0.1)">
       <use xlink:href="#DejaVuSans-31"/>
       <use xlink:href="#DejaVuSans-32" x="63.623047"/>
      </g>
     </g>
    </g>
    <g id="text_15">
     <!-- Eixo Y (m) -->
     <g transform="translate(29.778125 199.942844)rotate(-90)scale(0.1 -0.1)">
      <defs>
       <path id="DejaVuSans-59" d="M -13 4666 
L 666 4666 
L 1959 2747 
L 3244 4666 
L 3922 4666 
L 2272 2222 
L 2272 0 
L 1638 0 
L 1638 2222 
L -13 4666 
z
" transform="scale(0.015625)"/>
      </defs>
      <use xlink:href="#DejaVuSans-45"/>
      <use xlink:href="#DejaVuSans-69" x="63.183594"/>
      <use xlink:href="#DejaVuSans-78" x="90.966797"/>
      <use xlink:href="#DejaVuSans-6f" x="147.021484"/>
      <use xlink:href="#DejaVuSans-20" x="208.203125"/>
      <use xlink:href="#DejaVuSans-59" x="239.990234"/>
      <use xlink:href="#DejaVuSans-20" x="301.074219"/>
      <use xlink:href="#DejaVuSans-28" x="332.861328"/>
      <use xlink:href="#DejaVuSans-6d" x="371.875"/>
      <use xlink:href="#DejaVuSans-29" x="469.287109"/>
     </g>
    </g>
   </g>
   <g id="line2d_27">
    <defs>
     <path id="m317685ca86" d="M 0 3 
C 0.795609 3 1.55874 2.683901 2.12132 2.12132 
C 2.683901 1.55874 3 0.795609 3 0 
C 3 -0.795609 2.683901 -1.55874 2.12132 -2.12132 
C 1.55874 -2.683901 0.795609 -3 0 -3 
C -0.795609 -3 -1.55874 -2.683901 -2.12132 -2.12132 
C -2.683901 -1.55874 -3 -0.795609 -3 0 
C -3 0.795609 -2.683901 1.55874 -2.12132 2.12132 
C -1.55874 2.683901 -0.795609 3 0 3 
z
" style="stroke: #0000ff"/>
    </defs>
    <g clip-path="url(#pae6c07b903)">
     <use xlink:href="#m317685ca86" x="165.469091" y="182.382545" style="fill: #0000ff; stroke: #0000ff"/>
    </g>
   </g>
   <g id="line2d_28">
    <g clip-path="url(#pae6c07b903)">
     <use xlink:href="#m317685ca86" x="181.178182" y="166.673455" style="fill: #0000ff; stroke: #0000ff"/>
    </g>
   </g>
   <g id="line2d_29">
    <defs>
     <path id="m21a54e6413" d="M 0 3 
C 0.795609 3 1.55874 2.683901 2.12132 2.12132 
C 2.683901 1.55874 3 0.795609 3 0 
C 3 -0.795609 2.683901 -1.55874 2.12132 -2.12132 
C 1.55874 -2.683901 0.795609 -3 0 -3 
C -0.795609 -3 -1.55874 -2.683901 -2.12132 -2.12132 
C -2.683901 -1.55874 -3 -0.795609 -3 0 
C -3 0.795609 -2.683901 1.55874 -2.12132 2.12132 
C -1.55874 2.683901 -0.795609 3 0 3 
z
" style="stroke: #ff0000"/>
    </defs>
    <g clip-path="url(#pae6c07b903)">
     <use xlink:href="#m21a54e6413" x="181.178182" y="119.546182" style="fill: #ff0000; stroke: #ff0000"/>
    </g>
   </g>
   <g id="line2d_30">
    <defs>
     <path id="m679083dec9" d="M 0 3 
C 0.795609 3 1.55874 2.683901 2.12132 2.12132 
C 2.683901 1.55874 3 0.795609 3 0 
C 3 -0.795609 2.683901 -1.55874 2.12132 -2.12132 
C 1.55874 -2.683901 0.795609 -3 0 -3 
C -0.795609 -3 -1.55874 -2.683901 -2.12132 -2.12132 
C -2.683901 -1.55874 -3 -0.795609 -3 0 
C -3 0.795609 -2.683901 1.55874 -2.12132 2.12132 
C -1.55874 2.683901 -0.795609 3 0 3 
z
" style="stroke: #008000"/>
    </defs>
    <g clip-path="url(#pae6c07b903)">
     <use xlink:href="#m679083dec9" x="181.178182" y="103.837091" style="fill: #008000; stroke: #008000"/>
    </g>
   </g>
   <g id="line2d_31">
    <g clip-path="url(#pae6c07b903)">
     <use xlink:href="#m21a54e6413" x="196.887273" y="245.218909" style="fill: #ff0000; stroke: #ff0000"/>
    </g>
   </g>
   <g id="line2d_32">
    <g clip-path="url(#pae6c07b903)">
     <use xlink:href="#m679083dec9" x="196.887273" y="182.382545" style="fill: #008000; stroke: #008000"/>
    </g>
   </g>
   <g id="line2d_33">
    <g clip-path="url(#pae6c07b903)">
     <use xlink:href="#m317685ca86" x="196.887273" y="119.546182" style="fill: #0000ff; stroke: #0000ff"/>
    </g>
   </g>
   <g id="line2d_34">
    <g clip-path="url(#pae6c07b903)">
     <use xlink:href="#m317685ca86" x="212.596364" y="245.218909" style="fill: #0000ff; stroke: #0000ff"/>
    </g>
   </g>
   <g id="line2d_35">
    <g clip-path="url(#pae6c07b903)">
     <use xlink:href="#m317685ca86" x="212.596364" y="229.509818" style="fill: #0000ff; stroke: #0000ff"/>
    </g>
   </g>
   <g id="line2d_36">
    <g clip-path="url(#pae6c07b903)">
     <use xlink:href="#m679083dec9" x="212.596364" y="213.800727" style="fill: #008000; stroke: #008000"/>
    </g>
   </g>
   <g id="line2d_37">
    <g clip-path="url(#pae6c07b903)">
     <use xlink:href="#m317685ca86" x="212.596364" y="198.091636" style="fill: #0000ff; stroke: #0000ff"/>
    </g>
   </g>
   <g id="line2d_38">
    <g clip-path="url(#pae6c07b903)">
     <use xlink:href="#m679083dec9" x="212.596364" y="182.382545" style="fill: #008000; stroke: #008000"/>
    </g>
   </g>
   <g id="line2d_39">
    <g clip-path="url(#pae6c07b903)">
     <use xlink:href="#m317685ca86" x="212.596364" y="150.964364" style="fill: #0000ff; stroke: #0000ff"/>
    </g>
   </g>
   <g id="line2d_40">
    <g clip-path="url(#pae6c07b903)">
     <use xlink:href="#m317685ca86" x="212.596364" y="119.546182" style="fill: #0000ff; stroke: #0000ff"/>
    </g>
   </g>
   <g id="line2d_41">
    <g clip-path="url(#pae6c07b903)">
     <use xlink:href="#m679083dec9" x="212.596364" y="103.837091" style="fill: #008000; stroke: #008000"/>
    </g>
   </g>
   <g id="line2d_42">
    <g clip-path="url(#pae6c07b903)">
     <use xlink:href="#m679083dec9" x="228.305455" y="245.218909" style="fill: #008000; stroke: #008000"/>
    </g>
   </g>
   <g id="line2d_43">
    <g clip-path="url(#pae6c07b903)">
     <use xlink:href="#m679083dec9" x="228.305455" y="229.509818" style="fill: #008000; stroke: #008000"/>
    </g>
   </g>
   <g id="line2d_44">
    <g clip-path="url(#pae6c07b903)">
     <use xlink:href="#m679083dec9" x="228.305455" y="182.382545" style="fill: #008000; stroke: #008000"/>
    </g>
   </g>
   <g id="line2d_45">
    <g clip-path="url(#pae6c07b903)">
     <use xlink:href="#m317685ca86" x="228.305455" y="119.546182" style="fill: #0000ff; stroke: #0000ff"/>
    </g>
   </g>
   <g id="line2d_46">
    <g clip-path="url(#pae6c07b903)">
     <use xlink:href="#m679083dec9" x="244.014545" y="245.218909" style="fill: #008000; stroke: #008000"/>
    </g>
   </g>
   <g id="line2d_47">
    <g clip-path="url(#pae6c07b903)">
     <use xlink:href="#m679083dec9" x="244.014545" y="229.509818" style="fill: #008000; stroke: #008000"/>
    </g>
   </g>
   <g id="line2d_48">
    <g clip-path="url(#pae6c07b903)">
     <use xlink:href="#m679083dec9" x="244.014545" y="213.800727" style="fill: #008000; stroke: #008000"/>
    </g>
   </g>
   <g id="line2d_49">
    <g clip-path="url(#pae6c07b903)">
     <use xlink:href="#m21a54e6413" x="244.014545" y="198.091636" style="fill: #ff0000; stroke: #ff0000"/>
    </g>
   </g>
   <g id="line2d_50">
    <g clip-path="url(#pae6c07b903)">
     <use xlink:href="#m21a54e6413" x="244.014545" y="182.382545" style="fill: #ff0000; stroke: #ff0000"/>
    </g>
   </g>
   <g id="line2d_51">
    <g clip-path="url(#pae6c07b903)">
     <use xlink:href="#m317685ca86" x="244.014545" y="166.673455" style="fill: #0000ff; stroke: #0000ff"/>
    </g>
   </g>
   <g id="line2d_52">
    <g clip-path="url(#pae6c07b903)">
     <use xlink:href="#m317685ca86" x="244.014545" y="135.255273" style="fill: #0000ff; stroke: #0000ff"/>
    </g>
   </g>
   <g id="line2d_53">
    <g clip-path="url(#pae6c07b903)">
     <use xlink:href="#m317685ca86" x="244.014545" y="119.546182" style="fill: #0000ff; stroke: #0000ff"/>
    </g>
   </g>
   <g id="line2d_54">
    <g clip-path="url(#pae6c07b903)">
     <use xlink:href="#m317685ca86" x="244.014545" y="103.837091" style="fill: #0000ff; stroke: #0000ff"/>
    </g>
   </g>
   <g id="line2d_55">
    <g clip-path="url(#pae6c07b903)">
     <use xlink:href="#m317685ca86" x="259.723636" y="245.218909" style="fill: #0000ff; stroke: #0000ff"/>
    </g>
   </g>
   <g id="line2d_56">
    <g clip-path="url(#pae6c07b903)">
     <use xlink:href="#m317685ca86" x="259.723636" y="229.509818" style="fill: #0000ff; stroke: #0000ff"/>
    </g>
   </g>
   <g id="line2d_57">
    <g clip-path="url(#pae6c07b903)">
     <use xlink:href="#m21a54e6413" x="259.723636" y="198.091636" style="fill: #ff0000; stroke: #ff0000"/>
    </g>
   </g>
   <g id="line2d_58">
    <g clip-path="url(#pae6c07b903)">
     <use xlink:href="#m21a54e6413" x="259.723636" y="182.382545" style="fill: #ff0000; stroke: #ff0000"/>
    </g>
   </g>
   <g id="line2d_59">
    <g clip-path="url(#pae6c07b903)">
     <use xlink:href="#m21a54e6413" x="259.723636" y="166.673455" style="fill: #ff0000; stroke: #ff0000"/>
    </g>
   </g>
   <g id="line2d_60">
    <g clip-path="url(#pae6c07b903)">
     <use xlink:href="#m21a54e6413" x="259.723636" y="135.255273" style="fill: #ff0000; stroke: #ff0000"/>
    </g>
   </g>
   <g id="line2d_61">
    <g clip-path="url(#pae6c07b903)">
     <use xlink:href="#m679083dec9" x="259.723636" y="119.546182" style="fill: #008000; stroke: #008000"/>
    </g>
   </g>
   <g id="line2d_62">
    <g clip-path="url(#pae6c07b903)">
     <use xlink:href="#m679083dec9" x="259.723636" y="103.837091" style="fill: #008000; stroke: #008000"/>
    </g>
   </g>
   <g id="line2d_63">
    <g clip-path="url(#pae6c07b903)">
     <use xlink:href="#m679083dec9" x="275.432727" y="245.218909" style="fill: #008000; stroke: #008000"/>
    </g>
   </g>
   <g id="line2d_64">
    <g clip-path="url(#pae6c07b903)">
     <use xlink:href="#m21a54e6413" x="275.432727" y="229.509818" style="fill: #ff0000; stroke: #ff0000"/>
    </g>
   </g>
   <g id="line2d_65">
    <g clip-path="url(#pae6c07b903)">
     <use xlink:href="#m21a54e6413" x="275.432727" y="213.800727" style="fill: #ff0000; stroke: #ff0000"/>
    </g>
   </g>
   <g id="line2d_66">
    <g clip-path="url(#pae6c07b903)">
     <use xlink:href="#m679083dec9" x="275.432727" y="198.091636" style="fill: #008000; stroke: #008000"/>
    </g>
   </g>
   <g id="line2d_67">
    <g clip-path="url(#pae6c07b903)">
     <use xlink:href="#m679083dec9" x="275.432727" y="166.673455" style="fill: #008000; stroke: #008000"/>
    </g>
   </g>
   <g id="line2d_68">
    <g clip-path="url(#pae6c07b903)">
     <use xlink:href="#m317685ca86" x="275.432727" y="119.546182" style="fill: #0000ff; stroke: #0000ff"/>
    </g>
   </g>
   <g id="line2d_69">
    <g clip-path="url(#pae6c07b903)">
     <use xlink:href="#m317685ca86" x="275.432727" y="103.837091" style="fill: #0000ff; stroke: #0000ff"/>
    </g>
   </g>
   <g id="line2d_70">
    <g clip-path="url(#pae6c07b903)">
     <use xlink:href="#m317685ca86" x="291.141818" y="245.218909" style="fill: #0000ff; stroke: #0000ff"/>
    </g>
   </g>
   <g id="line2d_71">
    <g clip-path="url(#pae6c07b903)">
     <use xlink:href="#m21a54e6413" x="291.141818" y="229.509818" style="fill: #ff0000; stroke: #ff0000"/>
    </g>
   </g>
   <g id="line2d_72">
    <g clip-path="url(#pae6c07b903)">
     <use xlink:href="#m679083dec9" x="291.141818" y="213.800727" style="fill: #008000; stroke: #008000"/>
    </g>
   </g>
   <g id="line2d_73">
    <g clip-path="url(#pae6c07b903)">
     <use xlink:href="#m679083dec9" x="291.141818" y="198.091636" style="fill: #008000; stroke: #008000"/>
    </g>
   </g>
   <g id="line2d_74">
    <g clip-path="url(#pae6c07b903)">
     <use xlink:href="#m679083dec9" x="291.141818" y="182.382545" style="fill: #008000; stroke: #008000"/>
    </g>
   </g>
   <g id="line2d_75">
    <g clip-path="url(#pae6c07b903)">
     <use xlink:href="#m21a54e6413" x="291.141818" y="166.673455" style="fill: #ff0000; stroke: #ff0000"/>
    </g>
   </g>
   <g id="line2d_76">
    <g clip-path="url(#pae6c07b903)">
     <use xlink:href="#m21a54e6413" x="291.141818" y="135.255273" style="fill: #ff0000; stroke: #ff0000"/>
    </g>
   </g>
   <g id="line2d_77">
    <g clip-path="url(#pae6c07b903)">
     <use xlink:href="#m21a54e6413" x="291.141818" y="119.546182" style="fill: #ff0000; stroke: #ff0000"/>
    </g>
   </g>
   <g id="line2d_78">
    <g clip-path="url(#pae6c07b903)">
     <use xlink:href="#m679083dec9" x="291.141818" y="103.837091" style="fill: #008000; stroke: #008000"/>
    </g>
   </g>
   <g id="line2d_79">
    <g clip-path="url(#pae6c07b903)">
     <use xlink:href="#m21a54e6413" x="306.850909" y="245.218909" style="fill: #ff0000; stroke: #ff0000"/>
    </g>
   </g>
   <g id="line2d_80">
    <g clip-path="url(#pae6c07b903)">
     <use xlink:href="#m21a54e6413" x="306.850909" y="229.509818" style="fill: #ff0000; stroke: #ff0000"/>
    </g>
   </g>
   <g id="line2d_81">
    <g clip-path="url(#pae6c07b903)">
     <use xlink:href="#m21a54e6413" x="306.850909" y="198.091636" style="fill: #ff0000; stroke: #ff0000"/>
    </g>
   </g>
   <g id="line2d_82">
    <g clip-path="url(#pae6c07b903)">
     <use xlink:href="#m679083dec9" x="306.850909" y="182.382545" style="fill: #008000; stroke: #008000"/>
    </g>
   </g>
   <g id="line2d_83">
    <g clip-path="url(#pae6c07b903)">
     <use xlink:href="#m317685ca86" x="306.850909" y="166.673455" style="fill: #0000ff; stroke: #0000ff"/>
    </g>
   </g>
   <g id="line2d_84">
    <g clip-path="url(#pae6c07b903)">
     <use xlink:href="#m21a54e6413" x="306.850909" y="135.255273" style="fill: #ff0000; stroke: #ff0000"/>
    </g>
   </g>
   <g id="line2d_85">
    <g clip-path="url(#pae6c07b903)">
     <use xlink:href="#m317685ca86" x="306.850909" y="119.546182" style="fill: #0000ff; stroke: #0000ff"/>
    </g>
   </g>
   <g id="line2d_86">
    <g clip-path="url(#pae6c07b903)">
     <use xlink:href="#m679083dec9" x="306.850909" y="103.837091" style="fill: #008000; stroke: #008000"/>
    </g>
   </g>
   <g id="patch_63">
    <path d="M 57.6 307.584 
L 57.6 41.472 
" style="fill: none; stroke: #000000; stroke-width: 0.8; stroke-linejoin: miter; stroke-linecap: square"/>
   </g>
   <g id="patch_64">
    <path d="M 414.72 307.584 
L 414.72 41.472 
" style="fill: none; stroke: #000000; stroke-width: 0.8; stroke-linejoin: miter; stroke-linecap: square"/>
   </g>
   <g id="patch_65">
    <path d="M 57.6 307.584 
L 414.72 307.584 
" style="fill: none; stroke: #000000; stroke-width: 0.8; stroke-linejoin: miter; stroke-linecap: square"/>
   </g>
   <g id="patch_66">
    <path d="M 57.6 41.472 
L 414.72 41.472 
" style="fill: none; stroke: #000000; stroke-width: 0.8; stroke-linejoin: miter; stroke-linecap: square"/>
   </g>
   <g id="text_16">
    <!-- Instancia: ../instances_OL2A/10x10/SAP-inst_0.6_10x10.dat -->
    <g transform="translate(58.100625 8.2635)scale(0.12 -0.12)">
     <defs>
      <path id="DejaVuSans-49" d="M 628 4666 
L 1259 4666 
L 1259 0 
L 628 0 
L 628 4666 
z
" transform="scale(0.015625)"/>
      <path id="DejaVuSans-6e" d="M 3513 2113 
L 3513 0 
L 2938 0 
L 2938 2094 
Q 2938 2591 2744 2837 
Q 2550 3084 2163 3084 
Q 1697 3084 1428 2787 
Q 1159 2491 1159 1978 
L 1159 0 
L 581 0 
L 581 3500 
L 1159 3500 
L 1159 2956 
Q 1366 3272 1645 3428 
Q 1925 3584 2291 3584 
Q 2894 3584 3203 3211 
Q 3513 2838 3513 2113 
z
" transform="scale(0.015625)"/>
      <path id="DejaVuSans-73" d="M 2834 3397 
L 2834 2853 
Q 2591 2978 2328 3040 
Q 2066 3103 1784 3103 
Q 1356 3103 1142 2972 
Q 928 2841 928 2578 
Q 928 2378 1081 2264 
Q 1234 2150 1697 2047 
L 1894 2003 
Q 2506 1872 2764 1633 
Q 3022 1394 3022 966 
Q 3022 478 2636 193 
Q 2250 -91 1575 -91 
Q 1294 -91 989 -36 
Q 684 19 347 128 
L 347 722 
Q 666 556 975 473 
Q 1284 391 1588 391 
Q 1994 391 2212 530 
Q 2431 669 2431 922 
Q 2431 1156 2273 1281 
Q 2116 1406 1581 1522 
L 1381 1569 
Q 847 1681 609 1914 
Q 372 2147 372 2553 
Q 372 3047 722 3315 
Q 1072 3584 1716 3584 
Q 2034 3584 2315 3537 
Q 2597 3491 2834 3397 
z
" transform="scale(0.015625)"/>
      <path id="DejaVuSans-74" d="M 1172 4494 
L 1172 3500 
L 2356 3500 
L 2356 3053 
L 1172 3053 
L 1172 1153 
Q 1172 725 1289 603 
Q 1406 481 1766 481 
L 2356 481 
L 2356 0 
L 1766 0 
Q 1100 0 847 248 
Q 594 497 594 1153 
L 594 3053 
L 172 3053 
L 172 3500 
L 594 3500 
L 594 4494 
L 1172 4494 
z
" transform="scale(0.015625)"/>
      <path id="DejaVuSans-61" d="M 2194 1759 
Q 1497 1759 1228 1600 
Q 959 1441 959 1056 
Q 959 750 1161 570 
Q 1363 391 1709 391 
Q 2188 391 2477 730 
Q 2766 1069 2766 1631 
L 2766 1759 
L 2194 1759 
z
M 3341 1997 
L 3341 0 
L 2766 0 
L 2766 531 
Q 2569 213 2275 61 
Q 1981 -91 1556 -91 
Q 1019 -91 701 211 
Q 384 513 384 1019 
Q 384 1609 779 1909 
Q 1175 2209 1959 2209 
L 2766 2209 
L 2766 2266 
Q 2766 2663 2505 2880 
Q 2244 3097 1772 3097 
Q 1472 3097 1187 3025 
Q 903 2953 641 2809 
L 641 3341 
Q 956 3463 1253 3523 
Q 1550 3584 1831 3584 
Q 2591 3584 2966 3190 
Q 3341 2797 3341 1997 
z
" transform="scale(0.015625)"/>
      <path id="DejaVuSans-63" d="M 3122 3366 
L 3122 2828 
Q 2878 2963 2633 3030 
Q 2388 3097 2138 3097 
Q 1578 3097 1268 2742 
Q 959 2388 959 1747 
Q 959 1106 1268 751 
Q 1578 397 2138 397 
Q 2388 397 2633 464 
Q 2878 531 3122 666 
L 3122 134 
Q 2881 22 2623 -34 
Q 2366 -91 2075 -91 
Q 1284 -91 818 406 
Q 353 903 353 1747 
Q 353 2603 823 3093 
Q 1294 3584 2113 3584 
Q 2378 3584 2631 3529 
Q 2884 3475 3122 3366 
z
" transform="scale(0.015625)"/>
      <path id="DejaVuSans-3a" d="M 750 794 
L 1409 794 
L 1409 0 
L 750 0 
L 750 794 
z
M 750 3309 
L 1409 3309 
L 1409 2516 
L 750 2516 
L 750 3309 
z
" transform="scale(0.015625)"/>
      <path id="DejaVuSans-2e" d="M 684 794 
L 1344 794 
L 1344 0 
L 684 0 
L 684 794 
z
" transform="scale(0.015625)"/>
      <path id="DejaVuSans-2f" d="M 1625 4666 
L 2156 4666 
L 531 -594 
L 0 -594 
L 1625 4666 
z
" transform="scale(0.015625)"/>
      <path id="DejaVuSans-65" d="M 3597 1894 
L 3597 1613 
L 953 1613 
Q 991 1019 1311 708 
Q 1631 397 2203 397 
Q 2534 397 2845 478 
Q 3156 559 3463 722 
L 3463 178 
Q 3153 47 2828 -22 
Q 2503 -91 2169 -91 
Q 1331 -91 842 396 
Q 353 884 353 1716 
Q 353 2575 817 3079 
Q 1281 3584 2069 3584 
Q 2775 3584 3186 3129 
Q 3597 2675 3597 1894 
z
M 3022 2063 
Q 3016 2534 2758 2815 
Q 2500 3097 2075 3097 
Q 1594 3097 1305 2825 
Q 1016 2553 972 2059 
L 3022 2063 
z
" transform="scale(0.015625)"/>
      <path id="DejaVuSans-5f" d="M 3263 -1063 
L 3263 -1509 
L -63 -1509 
L -63 -1063 
L 3263 -1063 
z
" transform="scale(0.015625)"/>
      <path id="DejaVuSans-4f" d="M 2522 4238 
Q 1834 4238 1429 3725 
Q 1025 3213 1025 2328 
Q 1025 1447 1429 934 
Q 1834 422 2522 422 
Q 3209 422 3611 934 
Q 4013 1447 4013 2328 
Q 4013 3213 3611 3725 
Q 3209 4238 2522 4238 
z
M 2522 4750 
Q 3503 4750 4090 4092 
Q 4678 3434 4678 2328 
Q 4678 1225 4090 567 
Q 3503 -91 2522 -91 
Q 1538 -91 948 565 
Q 359 1222 359 2328 
Q 359 3434 948 4092 
Q 1538 4750 2522 4750 
z
" transform="scale(0.015625)"/>
      <path id="DejaVuSans-4c" d="M 628 4666 
L 1259 4666 
L 1259 531 
L 3531 531 
L 3531 0 
L 628 0 
L 628 4666 
z
" transform="scale(0.015625)"/>
      <path id="DejaVuSans-41" d="M 2188 4044 
L 1331 1722 
L 3047 1722 
L 2188 4044 
z
M 1831 4666 
L 2547 4666 
L 4325 0 
L 3669 0 
L 3244 1197 
L 1141 1197 
L 716 0 
L 50 0 
L 1831 4666 
z
" transform="scale(0.015625)"/>
      <path id="DejaVuSans-53" d="M 3425 4513 
L 3425 3897 
Q 3066 4069 2747 4153 
Q 2428 4238 2131 4238 
Q 1616 4238 1336 4038 
Q 1056 3838 1056 3469 
Q 1056 3159 1242 3001 
Q 1428 2844 1947 2747 
L 2328 2669 
Q 3034 2534 3370 2195 
Q 3706 1856 3706 1288 
Q 3706 609 3251 259 
Q 2797 -91 1919 -91 
Q 1588 -91 1214 -16 
Q 841 59 441 206 
L 441 856 
Q 825 641 1194 531 
Q 1563 422 1919 422 
Q 2459 422 2753 634 
Q 3047 847 3047 1241 
Q 3047 1584 2836 1778 
Q 2625 1972 2144 2069 
L 1759 2144 
Q 1053 2284 737 2584 
Q 422 2884 422 3419 
Q 422 4038 858 4394 
Q 1294 4750 2059 4750 
Q 2388 4750 2728 4690 
Q 3069 4631 3425 4513 
z
" transform="scale(0.015625)"/>
      <path id="DejaVuSans-50" d="M 1259 4147 
L 1259 2394 
L 2053 2394 
Q 2494 2394 2734 2622 
Q 2975 2850 2975 3272 
Q 2975 3691 2734 3919 
Q 2494 4147 2053 4147 
L 1259 4147 
z
M 628 4666 
L 2053 4666 
Q 2838 4666 3239 4311 
Q 3641 3956 3641 3272 
Q 3641 2581 3239 2228 
Q 2838 1875 2053 1875 
L 1259 1875 
L 1259 0 
L 628 0 
L 628 4666 
z
" transform="scale(0.015625)"/>
      <path id="DejaVuSans-2d" d="M 313 2009 
L 1997 2009 
L 1997 1497 
L 313 1497 
L 313 2009 
z
" transform="scale(0.015625)"/>
      <path id="DejaVuSans-64" d="M 2906 2969 
L 2906 4863 
L 3481 4863 
L 3481 0 
L 2906 0 
L 2906 525 
Q 2725 213 2448 61 
Q 2172 -91 1784 -91 
Q 1150 -91 751 415 
Q 353 922 353 1747 
Q 353 2572 751 3078 
Q 1150 3584 1784 3584 
Q 2172 3584 2448 3432 
Q 2725 3281 2906 2969 
z
M 947 1747 
Q 947 1113 1208 752 
Q 1469 391 1925 391 
Q 2381 391 2643 752 
Q 2906 1113 2906 1747 
Q 2906 2381 2643 2742 
Q 2381 3103 1925 3103 
Q 1469 3103 1208 2742 
Q 947 2381 947 1747 
z
" transform="scale(0.015625)"/>
     </defs>
     <use xlink:href="#DejaVuSans-49"/>
     <use xlink:href="#DejaVuSans-6e" x="29.492188"/>
     <use xlink:href="#DejaVuSans-73" x="92.871094"/>
     <use xlink:href="#DejaVuSans-74" x="144.970703"/>
     <use xlink:href="#DejaVuSans-61" x="184.179688"/>
     <use xlink:href="#DejaVuSans-6e" x="245.458984"/>
     <use xlink:href="#DejaVuSans-63" x="308.837891"/>
     <use xlink:href="#DejaVuSans-69" x="363.818359"/>
     <use xlink:href="#DejaVuSans-61" x="391.601562"/>
     <use xlink:href="#DejaVuSans-3a" x="452.880859"/>
     <use xlink:href="#DejaVuSans-20" x="486.572266"/>
     <use xlink:href="#DejaVuSans-2e" x="518.359375"/>
     <use xlink:href="#DejaVuSans-2e" x="550.146484"/>
     <use xlink:href="#DejaVuSans-2f" x="581.933594"/>
     <use xlink:href="#DejaVuSans-69" x="615.625"/>
     <use xlink:href="#DejaVuSans-6e" x="643.408203"/>
     <use xlink:href="#DejaVuSans-73" x="706.787109"/>
     <use xlink:href="#DejaVuSans-74" x="758.886719"/>
     <use xlink:href="#DejaVuSans-61" x="798.095703"/>
     <use xlink:href="#DejaVuSans-6e" x="859.375"/>
     <use xlink:href="#DejaVuSans-63" x="922.753906"/>
     <use xlink:href="#DejaVuSans-65" x="977.734375"/>
     <use xlink:href="#DejaVuSans-73" x="1039.257812"/>
     <use xlink:href="#DejaVuSans-5f" x="1091.357422"/>
     <use xlink:href="#DejaVuSans-4f" x="1141.357422"/>
     <use xlink:href="#DejaVuSans-4c" x="1220.068359"/>
     <use xlink:href="#DejaVuSans-32" x="1275.78125"/>
     <use xlink:href="#DejaVuSans-41" x="1339.404297"/>
     <use xlink:href="#DejaVuSans-2f" x="1407.8125"/>
     <use xlink:href="#DejaVuSans-31" x="1441.503906"/>
     <use xlink:href="#DejaVuSans-30" x="1505.126953"/>
     <use xlink:href="#DejaVuSans-78" x="1568.75"/>
     <use xlink:href="#DejaVuSans-31" x="1627.929688"/>
     <use xlink:href="#DejaVuSans-30" x="1691.552734"/>
     <use xlink:href="#DejaVuSans-2f" x="1755.175781"/>
     <use xlink:href="#DejaVuSans-53" x="1788.867188"/>
     <use xlink:href="#DejaVuSans-41" x="1854.21875"/>
     <use xlink:href="#DejaVuSans-50" x="1922.626953"/>
     <use xlink:href="#DejaVuSans-2d" x="1980.679688"/>
     <use xlink:href="#DejaVuSans-69" x="2016.763672"/>
     <use xlink:href="#DejaVuSans-6e" x="2044.546875"/>
     <use xlink:href="#DejaVuSans-73" x="2107.925781"/>
     <use xlink:href="#DejaVuSans-74" x="2160.025391"/>
     <use xlink:href="#DejaVuSans-5f" x="2199.234375"/>
     <use xlink:href="#DejaVuSans-30" x="2249.234375"/>
     <use xlink:href="#DejaVuSans-2e" x="2312.857422"/>
     <use xlink:href="#DejaVuSans-36" x="2344.644531"/>
     <use xlink:href="#DejaVuSans-5f" x="2408.267578"/>
     <use xlink:href="#DejaVuSans-31" x="2458.267578"/>
     <use xlink:href="#DejaVuSans-30" x="2521.890625"/>
     <use xlink:href="#DejaVuSans-78" x="2585.513672"/>
     <use xlink:href="#DejaVuSans-31" x="2644.693359"/>
     <use xlink:href="#DejaVuSans-30" x="2708.316406"/>
     <use xlink:href="#DejaVuSans-2e" x="2771.939453"/>
     <use xlink:href="#DejaVuSans-64" x="2803.726562"/>
     <use xlink:href="#DejaVuSans-61" x="2867.203125"/>
     <use xlink:href="#DejaVuSans-74" x="2928.482422"/>
    </g>
    <!-- Escala: 1:1000m -->
    <g transform="translate(186.042188 22.034625)scale(0.12 -0.12)">
     <defs>
      <path id="DejaVuSans-6c" d="M 603 4863 
L 1178 4863 
L 1178 0 
L 603 0 
L 603 4863 
z
" transform="scale(0.015625)"/>
     </defs>
     <use xlink:href="#DejaVuSans-45"/>
     <use xlink:href="#DejaVuSans-73" x="63.183594"/>
     <use xlink:href="#DejaVuSans-63" x="115.283203"/>
     <use xlink:href="#DejaVuSans-61" x="170.263672"/>
     <use xlink:href="#DejaVuSans-6c" x="231.542969"/>
     <use xlink:href="#DejaVuSans-61" x="259.326172"/>
     <use xlink:href="#DejaVuSans-3a" x="320.605469"/>
     <use xlink:href="#DejaVuSans-20" x="354.296875"/>
     <use xlink:href="#DejaVuSans-31" x="386.083984"/>
     <use xlink:href="#DejaVuSans-3a" x="449.707031"/>
     <use xlink:href="#DejaVuSans-31" x="483.398438"/>
     <use xlink:href="#DejaVuSans-30" x="547.021484"/>
     <use xlink:href="#DejaVuSans-30" x="610.644531"/>
     <use xlink:href="#DejaVuSans-30" x="674.267578"/>
     <use xlink:href="#DejaVuSans-6d" x="737.890625"/>
    </g>
    <!-- Alphas: 0.0E, 1.0C, 0M  -  Tempo: 9.23 s -->
    <g transform="translate(116.586562 35.472)scale(0.12 -0.12)">
     <defs>
      <path id="DejaVuSans-70" d="M 1159 525 
L 1159 -1331 
L 581 -1331 
L 581 3500 
L 1159 3500 
L 1159 2969 
Q 1341 3281 1617 3432 
Q 1894 3584 2278 3584 
Q 2916 3584 3314 3078 
Q 3713 2572 3713 1747 
Q 3713 922 3314 415 
Q 2916 -91 2278 -91 
Q 1894 -91 1617 61 
Q 1341 213 1159 525 
z
M 3116 1747 
Q 3116 2381 2855 2742 
Q 2594 3103 2138 3103 
Q 1681 3103 1420 2742 
Q 1159 2381 1159 1747 
Q 1159 1113 1420 752 
Q 1681 391 2138 391 
Q 2594 391 2855 752 
Q 3116 1113 3116 1747 
z
" transform="scale(0.015625)"/>
      <path id="DejaVuSans-68" d="M 3513 2113 
L 3513 0 
L 2938 0 
L 2938 2094 
Q 2938 2591 2744 2837 
Q 2550 3084 2163 3084 
Q 1697 3084 1428 2787 
Q 1159 2491 1159 1978 
L 1159 0 
L 581 0 
L 581 4863 
L 1159 4863 
L 1159 2956 
Q 1366 3272 1645 3428 
Q 1925 3584 2291 3584 
Q 2894 3584 3203 3211 
Q 3513 2838 3513 2113 
z
" transform="scale(0.015625)"/>
      <path id="DejaVuSans-2c" d="M 750 794 
L 1409 794 
L 1409 256 
L 897 -744 
L 494 -744 
L 750 256 
L 750 794 
z
" transform="scale(0.015625)"/>
      <path id="DejaVuSans-43" d="M 4122 4306 
L 4122 3641 
Q 3803 3938 3442 4084 
Q 3081 4231 2675 4231 
Q 1875 4231 1450 3742 
Q 1025 3253 1025 2328 
Q 1025 1406 1450 917 
Q 1875 428 2675 428 
Q 3081 428 3442 575 
Q 3803 722 4122 1019 
L 4122 359 
Q 3791 134 3420 21 
Q 3050 -91 2638 -91 
Q 1578 -91 968 557 
Q 359 1206 359 2328 
Q 359 3453 968 4101 
Q 1578 4750 2638 4750 
Q 3056 4750 3426 4639 
Q 3797 4528 4122 4306 
z
" transform="scale(0.015625)"/>
      <path id="DejaVuSans-4d" d="M 628 4666 
L 1569 4666 
L 2759 1491 
L 3956 4666 
L 4897 4666 
L 4897 0 
L 4281 0 
L 4281 4097 
L 3078 897 
L 2444 897 
L 1241 4097 
L 1241 0 
L 628 0 
L 628 4666 
z
" transform="scale(0.015625)"/>
      <path id="DejaVuSans-54" d="M -19 4666 
L 3928 4666 
L 3928 4134 
L 2272 4134 
L 2272 0 
L 1638 0 
L 1638 4134 
L -19 4134 
L -19 4666 
z
" transform="scale(0.015625)"/>
      <path id="DejaVuSans-39" d="M 703 97 
L 703 672 
Q 941 559 1184 500 
Q 1428 441 1663 441 
Q 2288 441 2617 861 
Q 2947 1281 2994 2138 
Q 2813 1869 2534 1725 
Q 2256 1581 1919 1581 
Q 1219 1581 811 2004 
Q 403 2428 403 3163 
Q 403 3881 828 4315 
Q 1253 4750 1959 4750 
Q 2769 4750 3195 4129 
Q 3622 3509 3622 2328 
Q 3622 1225 3098 567 
Q 2575 -91 1691 -91 
Q 1453 -91 1209 -44 
Q 966 3 703 97 
z
M 1959 2075 
Q 2384 2075 2632 2365 
Q 2881 2656 2881 3163 
Q 2881 3666 2632 3958 
Q 2384 4250 1959 4250 
Q 1534 4250 1286 3958 
Q 1038 3666 1038 3163 
Q 1038 2656 1286 2365 
Q 1534 2075 1959 2075 
z
" transform="scale(0.015625)"/>
      <path id="DejaVuSans-33" d="M 2597 2516 
Q 3050 2419 3304 2112 
Q 3559 1806 3559 1356 
Q 3559 666 3084 287 
Q 2609 -91 1734 -91 
Q 1441 -91 1130 -33 
Q 819 25 488 141 
L 488 750 
Q 750 597 1062 519 
Q 1375 441 1716 441 
Q 2309 441 2620 675 
Q 2931 909 2931 1356 
Q 2931 1769 2642 2001 
Q 2353 2234 1838 2234 
L 1294 2234 
L 1294 2753 
L 1863 2753 
Q 2328 2753 2575 2939 
Q 2822 3125 2822 3475 
Q 2822 3834 2567 4026 
Q 2313 4219 1838 4219 
Q 1578 4219 1281 4162 
Q 984 4106 628 3988 
L 628 4550 
Q 988 4650 1302 4700 
Q 1616 4750 1894 4750 
Q 2613 4750 3031 4423 
Q 3450 4097 3450 3541 
Q 3450 3153 3228 2886 
Q 3006 2619 2597 2516 
z
" transform="scale(0.015625)"/>
     </defs>
     <use xlink:href="#DejaVuSans-41"/>
     <use xlink:href="#DejaVuSans-6c" x="68.408203"/>
     <use xlink:href="#DejaVuSans-70" x="96.191406"/>
     <use xlink:href="#DejaVuSans-68" x="159.667969"/>
     <use xlink:href="#DejaVuSans-61" x="223.046875"/>
     <use xlink:href="#DejaVuSans-73" x="284.326172"/>
     <use xlink:href="#DejaVuSans-3a" x="336.425781"/>
     <use xlink:href="#DejaVuSans-20" x="370.117188"/>
     <use xlink:href="#DejaVuSans-30" x="401.904297"/>
     <use xlink:href="#DejaVuSans-2e" x="465.527344"/>
     <use xlink:href="#DejaVuSans-30" x="497.314453"/>
     <use xlink:href="#DejaVuSans-45" x="560.9375"/>
     <use xlink:href="#DejaVuSans-2c" x="624.121094"/>
     <use xlink:href="#DejaVuSans-20" x="655.908203"/>
     <use xlink:href="#DejaVuSans-31" x="687.695312"/>
     <use xlink:href="#DejaVuSans-2e" x="751.318359"/>
     <use xlink:href="#DejaVuSans-30" x="783.105469"/>
     <use xlink:href="#DejaVuSans-43" x="846.728516"/>
     <use xlink:href="#DejaVuSans-2c" x="916.552734"/>
     <use xlink:href="#DejaVuSans-20" x="948.339844"/>
     <use xlink:href="#DejaVuSans-30" x="980.126953"/>
     <use xlink:href="#DejaVuSans-4d" x="1043.75"/>
     <use xlink:href="#DejaVuSans-20" x="1130.029297"/>
     <use xlink:href="#DejaVuSans-20" x="1161.816406"/>
     <use xlink:href="#DejaVuSans-2d" x="1193.603516"/>
     <use xlink:href="#DejaVuSans-20" x="1229.6875"/>
     <use xlink:href="#DejaVuSans-20" x="1261.474609"/>
     <use xlink:href="#DejaVuSans-54" x="1293.261719"/>
     <use xlink:href="#DejaVuSans-65" x="1337.345703"/>
     <use xlink:href="#DejaVuSans-6d" x="1398.869141"/>
     <use xlink:href="#DejaVuSans-70" x="1496.28125"/>
     <use xlink:href="#DejaVuSans-6f" x="1559.757812"/>
     <use xlink:href="#DejaVuSans-3a" x="1620.939453"/>
     <use xlink:href="#DejaVuSans-20" x="1654.630859"/>
     <use xlink:href="#DejaVuSans-39" x="1686.417969"/>
     <use xlink:href="#DejaVuSans-2e" x="1750.041016"/>
     <use xlink:href="#DejaVuSans-32" x="1781.828125"/>
     <use xlink:href="#DejaVuSans-33" x="1845.451172"/>
     <use xlink:href="#DejaVuSans-20" x="1909.074219"/>
     <use xlink:href="#DejaVuSans-73" x="1940.861328"/>
    </g>
   </g>
   <g id="legend_1">
    <g id="patch_67">
     <path d="M 340.166875 93.506375 
L 407.72 93.506375 
Q 409.72 93.506375 409.72 91.506375 
L 409.72 48.472 
Q 409.72 46.472 407.72 46.472 
L 340.166875 46.472 
Q 338.166875 46.472 338.166875 48.472 
L 338.166875 91.506375 
Q 338.166875 93.506375 340.166875 93.506375 
z
" style="fill: #ffffff; opacity: 0.8; stroke: #cccccc; stroke-linejoin: miter"/>
    </g>
    <g id="patch_68">
     <path d="M 342.166875 58.070438 
L 362.166875 58.070438 
L 362.166875 51.070438 
L 342.166875 51.070438 
z
" style="fill: #ff0000; stroke: #ff0000; stroke-linejoin: miter"/>
    </g>
    <g id="text_17">
     <!-- S3 -->
     <g transform="translate(370.166875 58.070438)scale(0.1 -0.1)">
      <use xlink:href="#DejaVuSans-53"/>
      <use xlink:href="#DejaVuSans-33" x="63.476562"/>
     </g>
    </g>
    <g id="patch_69">
     <path d="M 342.166875 72.748563 
L 362.166875 72.748563 
L 362.166875 65.748563 
L 342.166875 65.748563 
z
" style="fill: #0000ff; stroke: #0000ff; stroke-linejoin: miter"/>
    </g>
    <g id="text_18">
     <!-- S2CPro -->
     <g transform="translate(370.166875 72.748563)scale(0.1 -0.1)">
      <defs>
       <path id="DejaVuSans-72" d="M 2631 2963 
Q 2534 3019 2420 3045 
Q 2306 3072 2169 3072 
Q 1681 3072 1420 2755 
Q 1159 2438 1159 1844 
L 1159 0 
L 581 0 
L 581 3500 
L 1159 3500 
L 1159 2956 
Q 1341 3275 1631 3429 
Q 1922 3584 2338 3584 
Q 2397 3584 2469 3576 
Q 2541 3569 2628 3553 
L 2631 2963 
z
" transform="scale(0.015625)"/>
      </defs>
      <use xlink:href="#DejaVuSans-53"/>
      <use xlink:href="#DejaVuSans-32" x="63.476562"/>
      <use xlink:href="#DejaVuSans-43" x="127.099609"/>
      <use xlink:href="#DejaVuSans-50" x="196.923828"/>
      <use xlink:href="#DejaVuSans-72" x="255.476562"/>
      <use xlink:href="#DejaVuSans-6f" x="294.339844"/>
     </g>
    </g>
    <g id="patch_70">
     <path d="M 342.166875 87.426688 
L 362.166875 87.426688 
L 362.166875 80.426688 
L 342.166875 80.426688 
z
" style="fill: #008000; stroke: #008000; stroke-linejoin: miter"/>
    </g>
    <g id="text_19">
     <!-- S2C -->
     <g transform="translate(370.166875 87.426688)scale(0.1 -0.1)">
      <use xlink:href="#DejaVuSans-53"/>
      <use xlink:href="#DejaVuSans-32" x="63.476562"/>
      <use xlink:href="#DejaVuSans-43" x="127.099609"/>
     </g>
    </g>
   </g>
  </g>
 </g>
 <defs>
  <clipPath id="pae6c07b903">
   <rect x="57.6" y="41.472" width="357.12" height="266.112"/>
  </clipPath>
 </defs>
</svg>
