<?xml version="1.0" encoding="utf-8" standalone="no"?>
<!DOCTYPE svg PUBLIC "-//W3C//DTD SVG 1.1//EN"
  "http://www.w3.org/Graphics/SVG/1.1/DTD/svg11.dtd">
<svg xmlns:xlink="http://www.w3.org/1999/xlink" width="460.8pt" height="345.6pt" viewBox="0 0 460.8 345.6" xmlns="http://www.w3.org/2000/svg" version="1.1">
 <metadata>
  <rdf:RDF xmlns:dc="http://purl.org/dc/elements/1.1/" xmlns:cc="http://creativecommons.org/ns#" xmlns:rdf="http://www.w3.org/1999/02/22-rdf-syntax-ns#">
   <cc:Work>
    <dc:type rdf:resource="http://purl.org/dc/dcmitype/StillImage"/>
    <dc:date>2023-07-17T23:02:08.794168</dc:date>
    <dc:format>image/svg+xml</dc:format>
    <dc:creator>
     <cc:Agent>
      <dc:title>Matplotlib v3.5.2, https://matplotlib.org/</dc:title>
     </cc:Agent>
    </dc:creator>
   </cc:Work>
  </rdf:RDF>
 </metadata>
 <defs>
  <style type="text/css">*{stroke-linejoin: round; stroke-linecap: butt}</style>
 </defs>
 <g id="figure_1">
  <g id="patch_1">
   <path d="M 0 345.6 
L 460.8 345.6 
L 460.8 0 
L 0 0 
z
" style="fill: #ffffff"/>
  </g>
  <g id="axes_1">
   <g id="patch_2">
    <path d="M 57.6 307.584 
L 414.72 307.584 
L 414.72 41.472 
L 57.6 41.472 
z
" style="fill: #ffffff"/>
   </g>
   <g id="patch_3">
    <path d="M 163.945075 295.488 
C 179.266372 295.488 193.962212 289.400784 204.796005 278.56699 
C 215.629799 267.733197 221.717015 253.037357 221.717015 237.71606 
C 221.717015 222.394762 215.629799 207.698922 204.796005 196.865129 
C 193.962212 186.031335 179.266372 179.944119 163.945075 179.944119 
C 148.623777 179.944119 133.927937 186.031335 123.094144 196.865129 
C 112.26035 207.698922 106.173134 222.394762 106.173134 237.71606 
C 106.173134 253.037357 112.26035 267.733197 123.094144 278.56699 
C 133.927937 289.400784 148.623777 295.488 163.945075 295.488 
z
" clip-path="url(#pf39f673745)" style="fill: #0000ff; opacity: 0.1; stroke: #0000ff; stroke-linejoin: miter"/>
   </g>
   <g id="patch_4">
    <path d="M 163.945075 205.219343 
C 169.690561 205.219343 175.201501 202.936637 179.264174 198.873965 
C 183.326846 194.811292 185.609552 189.300352 185.609552 183.554866 
C 185.609552 177.809379 183.326846 172.298439 179.264174 168.235767 
C 175.201501 164.173094 169.690561 161.890388 163.945075 161.890388 
C 158.199588 161.890388 152.688648 164.173094 148.625976 168.235767 
C 144.563303 172.298439 142.280597 177.809379 142.280597 183.554866 
C 142.280597 189.300352 144.563303 194.811292 148.625976 198.873965 
C 152.688648 202.936637 158.199588 205.219343 163.945075 205.219343 
z
" clip-path="url(#pf39f673745)" style="fill: #008000; opacity: 0.1; stroke: #008000; stroke-linejoin: miter"/>
   </g>
   <g id="patch_5">
    <path d="M 163.945075 187.165612 
C 169.690561 187.165612 175.201501 184.882906 179.264174 180.820233 
C 183.326846 176.757561 185.609552 171.246621 185.609552 165.501134 
C 185.609552 159.755648 183.326846 154.244708 179.264174 150.182035 
C 175.201501 146.119363 169.690561 143.836657 163.945075 143.836657 
C 158.199588 143.836657 152.688648 146.119363 148.625976 150.182035 
C 144.563303 154.244708 142.280597 159.755648 142.280597 165.501134 
C 142.280597 171.246621 144.563303 176.757561 148.625976 180.820233 
C 152.688648 184.882906 158.199588 187.165612 163.945075 187.165612 
z
" clip-path="url(#pf39f673745)" style="fill: #008000; opacity: 0.1; stroke: #008000; stroke-linejoin: miter"/>
   </g>
   <g id="patch_6">
    <path d="M 163.945075 169.111881 
C 169.690561 169.111881 175.201501 166.829175 179.264174 162.766502 
C 183.326846 158.703829 185.609552 153.19289 185.609552 147.447403 
C 185.609552 141.701916 183.326846 136.190977 179.264174 132.128304 
C 175.201501 128.065631 169.690561 125.782925 163.945075 125.782925 
C 158.199588 125.782925 152.688648 128.065631 148.625976 132.128304 
C 144.563303 136.190977 142.280597 141.701916 142.280597 147.447403 
C 142.280597 153.19289 144.563303 158.703829 148.625976 162.766502 
C 152.688648 166.829175 158.199588 169.111881 163.945075 169.111881 
z
" clip-path="url(#pf39f673745)" style="fill: #008000; opacity: 0.1; stroke: #008000; stroke-linejoin: miter"/>
   </g>
   <g id="patch_7">
    <path d="M 163.945075 151.058149 
C 169.690561 151.058149 175.201501 148.775443 179.264174 144.712771 
C 183.326846 140.650098 185.609552 135.139158 185.609552 129.393672 
C 185.609552 123.648185 183.326846 118.137245 179.264174 114.074573 
C 175.201501 110.0119 169.690561 107.729194 163.945075 107.729194 
C 158.199588 107.729194 152.688648 110.0119 148.625976 114.074573 
C 144.563303 118.137245 142.280597 123.648185 142.280597 129.393672 
C 142.280597 135.139158 144.563303 140.650098 148.625976 144.712771 
C 152.688648 148.775443 158.199588 151.058149 163.945075 151.058149 
z
" clip-path="url(#pf39f673745)" style="fill: #008000; opacity: 0.1; stroke: #008000; stroke-linejoin: miter"/>
   </g>
   <g id="patch_8">
    <path d="M 163.945075 133.004418 
C 169.690561 133.004418 175.201501 130.721712 179.264174 126.659039 
C 183.326846 122.596367 185.609552 117.085427 185.609552 111.33994 
C 185.609552 105.594454 183.326846 100.083514 179.264174 96.020841 
C 175.201501 91.958169 169.690561 89.675463 163.945075 89.675463 
C 158.199588 89.675463 152.688648 91.958169 148.625976 96.020841 
C 144.563303 100.083514 142.280597 105.594454 142.280597 111.33994 
C 142.280597 117.085427 144.563303 122.596367 148.625976 126.659039 
C 152.688648 130.721712 158.199588 133.004418 163.945075 133.004418 
z
" clip-path="url(#pf39f673745)" style="fill: #008000; opacity: 0.1; stroke: #008000; stroke-linejoin: miter"/>
   </g>
   <g id="patch_9">
    <path d="M 163.945075 114.950687 
C 169.690561 114.950687 175.201501 112.667981 179.264174 108.605308 
C 183.326846 104.542635 185.609552 99.031696 185.609552 93.286209 
C 185.609552 87.540722 183.326846 82.029782 179.264174 77.96711 
C 175.201501 73.904437 169.690561 71.621731 163.945075 71.621731 
C 158.199588 71.621731 152.688648 73.904437 148.625976 77.96711 
C 144.563303 82.029782 142.280597 87.540722 142.280597 93.286209 
C 142.280597 99.031696 144.563303 104.542635 148.625976 108.605308 
C 152.688648 112.667981 158.199588 114.950687 163.945075 114.950687 
z
" clip-path="url(#pf39f673745)" style="fill: #008000; opacity: 0.1; stroke: #008000; stroke-linejoin: miter"/>
   </g>
   <g id="patch_10">
    <path d="M 163.945075 96.896955 
C 169.690561 96.896955 175.201501 94.614249 179.264174 90.551577 
C 183.326846 86.488904 185.609552 80.977964 185.609552 75.232478 
C 185.609552 69.486991 183.326846 63.976051 179.264174 59.913379 
C 175.201501 55.850706 169.690561 53.568 163.945075 53.568 
C 158.199588 53.568 152.688648 55.850706 148.625976 59.913379 
C 144.563303 63.976051 142.280597 69.486991 142.280597 75.232478 
C 142.280597 80.977964 144.563303 86.488904 148.625976 90.551577 
C 152.688648 94.614249 158.199588 96.896955 163.945075 96.896955 
z
" clip-path="url(#pf39f673745)" style="fill: #008000; opacity: 0.1; stroke: #008000; stroke-linejoin: miter"/>
   </g>
   <g id="patch_11">
    <path d="M 181.998806 241.326806 
C 187.744293 241.326806 193.255232 239.0441 197.317905 234.981427 
C 201.380578 230.918755 203.663284 225.407815 203.663284 219.662328 
C 203.663284 213.916842 201.380578 208.405902 197.317905 204.343229 
C 193.255232 200.280557 187.744293 197.997851 181.998806 197.997851 
C 176.253319 197.997851 170.742379 200.280557 166.679707 204.343229 
C 162.617034 208.405902 160.334328 213.916842 160.334328 219.662328 
C 160.334328 225.407815 162.617034 230.918755 166.679707 234.981427 
C 170.742379 239.0441 176.253319 241.326806 181.998806 241.326806 
z
" clip-path="url(#pf39f673745)" style="fill: #008000; opacity: 0.1; stroke: #008000; stroke-linejoin: miter"/>
   </g>
   <g id="patch_12">
    <path d="M 181.998806 187.165612 
C 187.744293 187.165612 193.255232 184.882906 197.317905 180.820233 
C 201.380578 176.757561 203.663284 171.246621 203.663284 165.501134 
C 203.663284 159.755648 201.380578 154.244708 197.317905 150.182035 
C 193.255232 146.119363 187.744293 143.836657 181.998806 143.836657 
C 176.253319 143.836657 170.742379 146.119363 166.679707 150.182035 
C 162.617034 154.244708 160.334328 159.755648 160.334328 165.501134 
C 160.334328 171.246621 162.617034 176.757561 166.679707 180.820233 
C 170.742379 184.882906 176.253319 187.165612 181.998806 187.165612 
z
" clip-path="url(#pf39f673745)" style="fill: #008000; opacity: 0.1; stroke: #008000; stroke-linejoin: miter"/>
   </g>
   <g id="patch_13">
    <path d="M 181.998806 133.004418 
C 187.744293 133.004418 193.255232 130.721712 197.317905 126.659039 
C 201.380578 122.596367 203.663284 117.085427 203.663284 111.33994 
C 203.663284 105.594454 201.380578 100.083514 197.317905 96.020841 
C 193.255232 91.958169 187.744293 89.675463 181.998806 89.675463 
C 176.253319 89.675463 170.742379 91.958169 166.679707 96.020841 
C 162.617034 100.083514 160.334328 105.594454 160.334328 111.33994 
C 160.334328 117.085427 162.617034 122.596367 166.679707 126.659039 
C 170.742379 130.721712 176.253319 133.004418 181.998806 133.004418 
z
" clip-path="url(#pf39f673745)" style="fill: #008000; opacity: 0.1; stroke: #008000; stroke-linejoin: miter"/>
   </g>
   <g id="patch_14">
    <path d="M 181.998806 96.896955 
C 187.744293 96.896955 193.255232 94.614249 197.317905 90.551577 
C 201.380578 86.488904 203.663284 80.977964 203.663284 75.232478 
C 203.663284 69.486991 201.380578 63.976051 197.317905 59.913379 
C 193.255232 55.850706 187.744293 53.568 181.998806 53.568 
C 176.253319 53.568 170.742379 55.850706 166.679707 59.913379 
C 162.617034 63.976051 160.334328 69.486991 160.334328 75.232478 
C 160.334328 80.977964 162.617034 86.488904 166.679707 90.551577 
C 170.742379 94.614249 176.253319 96.896955 181.998806 96.896955 
z
" clip-path="url(#pf39f673745)" style="fill: #008000; opacity: 0.1; stroke: #008000; stroke-linejoin: miter"/>
   </g>
   <g id="patch_15">
    <path d="M 200.052537 259.380537 
C 205.798024 259.380537 211.308964 257.097831 215.371636 253.035159 
C 219.434309 248.972486 221.717015 243.461546 221.717015 237.71606 
C 221.717015 231.970573 219.434309 226.459633 215.371636 222.396961 
C 211.308964 218.334288 205.798024 216.051582 200.052537 216.051582 
C 194.307051 216.051582 188.796111 218.334288 184.733438 222.396961 
C 180.670766 226.459633 178.38806 231.970573 178.38806 237.71606 
C 178.38806 243.461546 180.670766 248.972486 184.733438 253.035159 
C 188.796111 257.097831 194.307051 259.380537 200.052537 259.380537 
z
" clip-path="url(#pf39f673745)" style="fill: #008000; opacity: 0.1; stroke: #008000; stroke-linejoin: miter"/>
   </g>
   <g id="patch_16">
    <path d="M 200.052537 241.326806 
C 205.798024 241.326806 211.308964 239.0441 215.371636 234.981427 
C 219.434309 230.918755 221.717015 225.407815 221.717015 219.662328 
C 221.717015 213.916842 219.434309 208.405902 215.371636 204.343229 
C 211.308964 200.280557 205.798024 197.997851 200.052537 197.997851 
C 194.307051 197.997851 188.796111 200.280557 184.733438 204.343229 
C 180.670766 208.405902 178.38806 213.916842 178.38806 219.662328 
C 178.38806 225.407815 180.670766 230.918755 184.733438 234.981427 
C 188.796111 239.0441 194.307051 241.326806 200.052537 241.326806 
z
" clip-path="url(#pf39f673745)" style="fill: #008000; opacity: 0.1; stroke: #008000; stroke-linejoin: miter"/>
   </g>
   <g id="patch_17">
    <path d="M 200.052537 169.111881 
C 205.798024 169.111881 211.308964 166.829175 215.371636 162.766502 
C 219.434309 158.703829 221.717015 153.19289 221.717015 147.447403 
C 221.717015 141.701916 219.434309 136.190977 215.371636 132.128304 
C 211.308964 128.065631 205.798024 125.782925 200.052537 125.782925 
C 194.307051 125.782925 188.796111 128.065631 184.733438 132.128304 
C 180.670766 136.190977 178.38806 141.701916 178.38806 147.447403 
C 178.38806 153.19289 180.670766 158.703829 184.733438 162.766502 
C 188.796111 166.829175 194.307051 169.111881 200.052537 169.111881 
z
" clip-path="url(#pf39f673745)" style="fill: #008000; opacity: 0.1; stroke: #008000; stroke-linejoin: miter"/>
   </g>
   <g id="patch_18">
    <path d="M 218.106269 259.380537 
C 223.851755 259.380537 229.362695 257.097831 233.425368 253.035159 
C 237.48804 248.972486 239.770746 243.461546 239.770746 237.71606 
C 239.770746 231.970573 237.48804 226.459633 233.425368 222.396961 
C 229.362695 218.334288 223.851755 216.051582 218.106269 216.051582 
C 212.360782 216.051582 206.849842 218.334288 202.78717 222.396961 
C 198.724497 226.459633 196.441791 231.970573 196.441791 237.71606 
C 196.441791 243.461546 198.724497 248.972486 202.78717 253.035159 
C 206.849842 257.097831 212.360782 259.380537 218.106269 259.380537 
z
" clip-path="url(#pf39f673745)" style="fill: #008000; opacity: 0.1; stroke: #008000; stroke-linejoin: miter"/>
   </g>
   <g id="patch_19">
    <path d="M 218.106269 241.326806 
C 223.851755 241.326806 229.362695 239.0441 233.425368 234.981427 
C 237.48804 230.918755 239.770746 225.407815 239.770746 219.662328 
C 239.770746 213.916842 237.48804 208.405902 233.425368 204.343229 
C 229.362695 200.280557 223.851755 197.997851 218.106269 197.997851 
C 212.360782 197.997851 206.849842 200.280557 202.78717 204.343229 
C 198.724497 208.405902 196.441791 213.916842 196.441791 219.662328 
C 196.441791 225.407815 198.724497 230.918755 202.78717 234.981427 
C 206.849842 239.0441 212.360782 241.326806 218.106269 241.326806 
z
" clip-path="url(#pf39f673745)" style="fill: #008000; opacity: 0.1; stroke: #008000; stroke-linejoin: miter"/>
   </g>
   <g id="patch_20">
    <path d="M 218.106269 223.273075 
C 223.851755 223.273075 229.362695 220.990369 233.425368 216.927696 
C 237.48804 212.865023 239.770746 207.354084 239.770746 201.608597 
C 239.770746 195.86311 237.48804 190.352171 233.425368 186.289498 
C 229.362695 182.226825 223.851755 179.944119 218.106269 179.944119 
C 212.360782 179.944119 206.849842 182.226825 202.78717 186.289498 
C 198.724497 190.352171 196.441791 195.86311 196.441791 201.608597 
C 196.441791 207.354084 198.724497 212.865023 202.78717 216.927696 
C 206.849842 220.990369 212.360782 223.273075 218.106269 223.273075 
z
" clip-path="url(#pf39f673745)" style="fill: #008000; opacity: 0.1; stroke: #008000; stroke-linejoin: miter"/>
   </g>
   <g id="patch_21">
    <path d="M 218.106269 205.219343 
C 223.851755 205.219343 229.362695 202.936637 233.425368 198.873965 
C 237.48804 194.811292 239.770746 189.300352 239.770746 183.554866 
C 239.770746 177.809379 237.48804 172.298439 233.425368 168.235767 
C 229.362695 164.173094 223.851755 161.890388 218.106269 161.890388 
C 212.360782 161.890388 206.849842 164.173094 202.78717 168.235767 
C 198.724497 172.298439 196.441791 177.809379 196.441791 183.554866 
C 196.441791 189.300352 198.724497 194.811292 202.78717 198.873965 
C 206.849842 202.936637 212.360782 205.219343 218.106269 205.219343 
z
" clip-path="url(#pf39f673745)" style="fill: #008000; opacity: 0.1; stroke: #008000; stroke-linejoin: miter"/>
   </g>
   <g id="patch_22">
    <path d="M 218.106269 169.111881 
C 223.851755 169.111881 229.362695 166.829175 233.425368 162.766502 
C 237.48804 158.703829 239.770746 153.19289 239.770746 147.447403 
C 239.770746 141.701916 237.48804 136.190977 233.425368 132.128304 
C 229.362695 128.065631 223.851755 125.782925 218.106269 125.782925 
C 212.360782 125.782925 206.849842 128.065631 202.78717 132.128304 
C 198.724497 136.190977 196.441791 141.701916 196.441791 147.447403 
C 196.441791 153.19289 198.724497 158.703829 202.78717 162.766502 
C 206.849842 166.829175 212.360782 169.111881 218.106269 169.111881 
z
" clip-path="url(#pf39f673745)" style="fill: #008000; opacity: 0.1; stroke: #008000; stroke-linejoin: miter"/>
   </g>
   <g id="patch_23">
    <path d="M 218.106269 133.004418 
C 223.851755 133.004418 229.362695 130.721712 233.425368 126.659039 
C 237.48804 122.596367 239.770746 117.085427 239.770746 111.33994 
C 239.770746 105.594454 237.48804 100.083514 233.425368 96.020841 
C 229.362695 91.958169 223.851755 89.675463 218.106269 89.675463 
C 212.360782 89.675463 206.849842 91.958169 202.78717 96.020841 
C 198.724497 100.083514 196.441791 105.594454 196.441791 111.33994 
C 196.441791 117.085427 198.724497 122.596367 202.78717 126.659039 
C 206.849842 130.721712 212.360782 133.004418 218.106269 133.004418 
z
" clip-path="url(#pf39f673745)" style="fill: #008000; opacity: 0.1; stroke: #008000; stroke-linejoin: miter"/>
   </g>
   <g id="patch_24">
    <path d="M 236.16 241.326806 
C 241.905487 241.326806 247.416426 239.0441 251.479099 234.981427 
C 255.541772 230.918755 257.824478 225.407815 257.824478 219.662328 
C 257.824478 213.916842 255.541772 208.405902 251.479099 204.343229 
C 247.416426 200.280557 241.905487 197.997851 236.16 197.997851 
C 230.414513 197.997851 224.903574 200.280557 220.840901 204.343229 
C 216.778228 208.405902 214.495522 213.916842 214.495522 219.662328 
C 214.495522 225.407815 216.778228 230.918755 220.840901 234.981427 
C 224.903574 239.0441 230.414513 241.326806 236.16 241.326806 
z
" clip-path="url(#pf39f673745)" style="fill: #008000; opacity: 0.1; stroke: #008000; stroke-linejoin: miter"/>
   </g>
   <g id="patch_25">
    <path d="M 236.16 169.111881 
C 241.905487 169.111881 247.416426 166.829175 251.479099 162.766502 
C 255.541772 158.703829 257.824478 153.19289 257.824478 147.447403 
C 257.824478 141.701916 255.541772 136.190977 251.479099 132.128304 
C 247.416426 128.065631 241.905487 125.782925 236.16 125.782925 
C 230.414513 125.782925 224.903574 128.065631 220.840901 132.128304 
C 216.778228 136.190977 214.495522 141.701916 214.495522 147.447403 
C 214.495522 153.19289 216.778228 158.703829 220.840901 162.766502 
C 224.903574 166.829175 230.414513 169.111881 236.16 169.111881 
z
" clip-path="url(#pf39f673745)" style="fill: #008000; opacity: 0.1; stroke: #008000; stroke-linejoin: miter"/>
   </g>
   <g id="patch_26">
    <path d="M 236.16 133.004418 
C 241.905487 133.004418 247.416426 130.721712 251.479099 126.659039 
C 255.541772 122.596367 257.824478 117.085427 257.824478 111.33994 
C 257.824478 105.594454 255.541772 100.083514 251.479099 96.020841 
C 247.416426 91.958169 241.905487 89.675463 236.16 89.675463 
C 230.414513 89.675463 224.903574 91.958169 220.840901 96.020841 
C 216.778228 100.083514 214.495522 105.594454 214.495522 111.33994 
C 214.495522 117.085427 216.778228 122.596367 220.840901 126.659039 
C 224.903574 130.721712 230.414513 133.004418 236.16 133.004418 
z
" clip-path="url(#pf39f673745)" style="fill: #008000; opacity: 0.1; stroke: #008000; stroke-linejoin: miter"/>
   </g>
   <g id="patch_27">
    <path d="M 236.16 114.950687 
C 241.905487 114.950687 247.416426 112.667981 251.479099 108.605308 
C 255.541772 104.542635 257.824478 99.031696 257.824478 93.286209 
C 257.824478 87.540722 255.541772 82.029782 251.479099 77.96711 
C 247.416426 73.904437 241.905487 71.621731 236.16 71.621731 
C 230.414513 71.621731 224.903574 73.904437 220.840901 77.96711 
C 216.778228 82.029782 214.495522 87.540722 214.495522 93.286209 
C 214.495522 99.031696 216.778228 104.542635 220.840901 108.605308 
C 224.903574 112.667981 230.414513 114.950687 236.16 114.950687 
z
" clip-path="url(#pf39f673745)" style="fill: #008000; opacity: 0.1; stroke: #008000; stroke-linejoin: miter"/>
   </g>
   <g id="patch_28">
    <path d="M 254.213731 241.326806 
C 259.959218 241.326806 265.470158 239.0441 269.53283 234.981427 
C 273.595503 230.918755 275.878209 225.407815 275.878209 219.662328 
C 275.878209 213.916842 273.595503 208.405902 269.53283 204.343229 
C 265.470158 200.280557 259.959218 197.997851 254.213731 197.997851 
C 248.468245 197.997851 242.957305 200.280557 238.894632 204.343229 
C 234.83196 208.405902 232.549254 213.916842 232.549254 219.662328 
C 232.549254 225.407815 234.83196 230.918755 238.894632 234.981427 
C 242.957305 239.0441 248.468245 241.326806 254.213731 241.326806 
z
" clip-path="url(#pf39f673745)" style="fill: #008000; opacity: 0.1; stroke: #008000; stroke-linejoin: miter"/>
   </g>
   <g id="patch_29">
    <path d="M 254.213731 223.273075 
C 259.959218 223.273075 265.470158 220.990369 269.53283 216.927696 
C 273.595503 212.865023 275.878209 207.354084 275.878209 201.608597 
C 275.878209 195.86311 273.595503 190.352171 269.53283 186.289498 
C 265.470158 182.226825 259.959218 179.944119 254.213731 179.944119 
C 248.468245 179.944119 242.957305 182.226825 238.894632 186.289498 
C 234.83196 190.352171 232.549254 195.86311 232.549254 201.608597 
C 232.549254 207.354084 234.83196 212.865023 238.894632 216.927696 
C 242.957305 220.990369 248.468245 223.273075 254.213731 223.273075 
z
" clip-path="url(#pf39f673745)" style="fill: #008000; opacity: 0.1; stroke: #008000; stroke-linejoin: miter"/>
   </g>
   <g id="patch_30">
    <path d="M 254.213731 205.219343 
C 259.959218 205.219343 265.470158 202.936637 269.53283 198.873965 
C 273.595503 194.811292 275.878209 189.300352 275.878209 183.554866 
C 275.878209 177.809379 273.595503 172.298439 269.53283 168.235767 
C 265.470158 164.173094 259.959218 161.890388 254.213731 161.890388 
C 248.468245 161.890388 242.957305 164.173094 238.894632 168.235767 
C 234.83196 172.298439 232.549254 177.809379 232.549254 183.554866 
C 232.549254 189.300352 234.83196 194.811292 238.894632 198.873965 
C 242.957305 202.936637 248.468245 205.219343 254.213731 205.219343 
z
" clip-path="url(#pf39f673745)" style="fill: #008000; opacity: 0.1; stroke: #008000; stroke-linejoin: miter"/>
   </g>
   <g id="patch_31">
    <path d="M 254.213731 187.165612 
C 259.959218 187.165612 265.470158 184.882906 269.53283 180.820233 
C 273.595503 176.757561 275.878209 171.246621 275.878209 165.501134 
C 275.878209 159.755648 273.595503 154.244708 269.53283 150.182035 
C 265.470158 146.119363 259.959218 143.836657 254.213731 143.836657 
C 248.468245 143.836657 242.957305 146.119363 238.894632 150.182035 
C 234.83196 154.244708 232.549254 159.755648 232.549254 165.501134 
C 232.549254 171.246621 234.83196 176.757561 238.894632 180.820233 
C 242.957305 184.882906 248.468245 187.165612 254.213731 187.165612 
z
" clip-path="url(#pf39f673745)" style="fill: #008000; opacity: 0.1; stroke: #008000; stroke-linejoin: miter"/>
   </g>
   <g id="patch_32">
    <path d="M 254.213731 169.111881 
C 259.959218 169.111881 265.470158 166.829175 269.53283 162.766502 
C 273.595503 158.703829 275.878209 153.19289 275.878209 147.447403 
C 275.878209 141.701916 273.595503 136.190977 269.53283 132.128304 
C 265.470158 128.065631 259.959218 125.782925 254.213731 125.782925 
C 248.468245 125.782925 242.957305 128.065631 238.894632 132.128304 
C 234.83196 136.190977 232.549254 141.701916 232.549254 147.447403 
C 232.549254 153.19289 234.83196 158.703829 238.894632 162.766502 
C 242.957305 166.829175 248.468245 169.111881 254.213731 169.111881 
z
" clip-path="url(#pf39f673745)" style="fill: #008000; opacity: 0.1; stroke: #008000; stroke-linejoin: miter"/>
   </g>
   <g id="patch_33">
    <path d="M 254.213731 151.058149 
C 259.959218 151.058149 265.470158 148.775443 269.53283 144.712771 
C 273.595503 140.650098 275.878209 135.139158 275.878209 129.393672 
C 275.878209 123.648185 273.595503 118.137245 269.53283 114.074573 
C 265.470158 110.0119 259.959218 107.729194 254.213731 107.729194 
C 248.468245 107.729194 242.957305 110.0119 238.894632 114.074573 
C 234.83196 118.137245 232.549254 123.648185 232.549254 129.393672 
C 232.549254 135.139158 234.83196 140.650098 238.894632 144.712771 
C 242.957305 148.775443 248.468245 151.058149 254.213731 151.058149 
z
" clip-path="url(#pf39f673745)" style="fill: #008000; opacity: 0.1; stroke: #008000; stroke-linejoin: miter"/>
   </g>
   <g id="patch_34">
    <path d="M 254.213731 133.004418 
C 259.959218 133.004418 265.470158 130.721712 269.53283 126.659039 
C 273.595503 122.596367 275.878209 117.085427 275.878209 111.33994 
C 275.878209 105.594454 273.595503 100.083514 269.53283 96.020841 
C 265.470158 91.958169 259.959218 89.675463 254.213731 89.675463 
C 248.468245 89.675463 242.957305 91.958169 238.894632 96.020841 
C 234.83196 100.083514 232.549254 105.594454 232.549254 111.33994 
C 232.549254 117.085427 234.83196 122.596367 238.894632 126.659039 
C 242.957305 130.721712 248.468245 133.004418 254.213731 133.004418 
z
" clip-path="url(#pf39f673745)" style="fill: #008000; opacity: 0.1; stroke: #008000; stroke-linejoin: miter"/>
   </g>
   <g id="patch_35">
    <path d="M 254.213731 114.950687 
C 259.959218 114.950687 265.470158 112.667981 269.53283 108.605308 
C 273.595503 104.542635 275.878209 99.031696 275.878209 93.286209 
C 275.878209 87.540722 273.595503 82.029782 269.53283 77.96711 
C 265.470158 73.904437 259.959218 71.621731 254.213731 71.621731 
C 248.468245 71.621731 242.957305 73.904437 238.894632 77.96711 
C 234.83196 82.029782 232.549254 87.540722 232.549254 93.286209 
C 232.549254 99.031696 234.83196 104.542635 238.894632 108.605308 
C 242.957305 112.667981 248.468245 114.950687 254.213731 114.950687 
z
" clip-path="url(#pf39f673745)" style="fill: #008000; opacity: 0.1; stroke: #008000; stroke-linejoin: miter"/>
   </g>
   <g id="patch_36">
    <path d="M 254.213731 96.896955 
C 259.959218 96.896955 265.470158 94.614249 269.53283 90.551577 
C 273.595503 86.488904 275.878209 80.977964 275.878209 75.232478 
C 275.878209 69.486991 273.595503 63.976051 269.53283 59.913379 
C 265.470158 55.850706 259.959218 53.568 254.213731 53.568 
C 248.468245 53.568 242.957305 55.850706 238.894632 59.913379 
C 234.83196 63.976051 232.549254 69.486991 232.549254 75.232478 
C 232.549254 80.977964 234.83196 86.488904 238.894632 90.551577 
C 242.957305 94.614249 248.468245 96.896955 254.213731 96.896955 
z
" clip-path="url(#pf39f673745)" style="fill: #008000; opacity: 0.1; stroke: #008000; stroke-linejoin: miter"/>
   </g>
   <g id="patch_37">
    <path d="M 272.267463 223.273075 
C 278.012949 223.273075 283.523889 220.990369 287.586562 216.927696 
C 291.649234 212.865023 293.93194 207.354084 293.93194 201.608597 
C 293.93194 195.86311 291.649234 190.352171 287.586562 186.289498 
C 283.523889 182.226825 278.012949 179.944119 272.267463 179.944119 
C 266.521976 179.944119 261.011036 182.226825 256.948364 186.289498 
C 252.885691 190.352171 250.602985 195.86311 250.602985 201.608597 
C 250.602985 207.354084 252.885691 212.865023 256.948364 216.927696 
C 261.011036 220.990369 266.521976 223.273075 272.267463 223.273075 
z
" clip-path="url(#pf39f673745)" style="fill: #008000; opacity: 0.1; stroke: #008000; stroke-linejoin: miter"/>
   </g>
   <g id="patch_38">
    <path d="M 272.267463 205.219343 
C 278.012949 205.219343 283.523889 202.936637 287.586562 198.873965 
C 291.649234 194.811292 293.93194 189.300352 293.93194 183.554866 
C 293.93194 177.809379 291.649234 172.298439 287.586562 168.235767 
C 283.523889 164.173094 278.012949 161.890388 272.267463 161.890388 
C 266.521976 161.890388 261.011036 164.173094 256.948364 168.235767 
C 252.885691 172.298439 250.602985 177.809379 250.602985 183.554866 
C 250.602985 189.300352 252.885691 194.811292 256.948364 198.873965 
C 261.011036 202.936637 266.521976 205.219343 272.267463 205.219343 
z
" clip-path="url(#pf39f673745)" style="fill: #008000; opacity: 0.1; stroke: #008000; stroke-linejoin: miter"/>
   </g>
   <g id="patch_39">
    <path d="M 272.267463 169.111881 
C 278.012949 169.111881 283.523889 166.829175 287.586562 162.766502 
C 291.649234 158.703829 293.93194 153.19289 293.93194 147.447403 
C 293.93194 141.701916 291.649234 136.190977 287.586562 132.128304 
C 283.523889 128.065631 278.012949 125.782925 272.267463 125.782925 
C 266.521976 125.782925 261.011036 128.065631 256.948364 132.128304 
C 252.885691 136.190977 250.602985 141.701916 250.602985 147.447403 
C 250.602985 153.19289 252.885691 158.703829 256.948364 162.766502 
C 261.011036 166.829175 266.521976 169.111881 272.267463 169.111881 
z
" clip-path="url(#pf39f673745)" style="fill: #008000; opacity: 0.1; stroke: #008000; stroke-linejoin: miter"/>
   </g>
   <g id="patch_40">
    <path d="M 290.321194 241.326806 
C 296.066681 241.326806 301.577621 239.0441 305.640293 234.981427 
C 309.702966 230.918755 311.985672 225.407815 311.985672 219.662328 
C 311.985672 213.916842 309.702966 208.405902 305.640293 204.343229 
C 301.577621 200.280557 296.066681 197.997851 290.321194 197.997851 
C 284.575707 197.997851 279.064768 200.280557 275.002095 204.343229 
C 270.939422 208.405902 268.656716 213.916842 268.656716 219.662328 
C 268.656716 225.407815 270.939422 230.918755 275.002095 234.981427 
C 279.064768 239.0441 284.575707 241.326806 290.321194 241.326806 
z
" clip-path="url(#pf39f673745)" style="fill: #008000; opacity: 0.1; stroke: #008000; stroke-linejoin: miter"/>
   </g>
   <g id="patch_41">
    <path d="M 290.321194 169.111881 
C 296.066681 169.111881 301.577621 166.829175 305.640293 162.766502 
C 309.702966 158.703829 311.985672 153.19289 311.985672 147.447403 
C 311.985672 141.701916 309.702966 136.190977 305.640293 132.128304 
C 301.577621 128.065631 296.066681 125.782925 290.321194 125.782925 
C 284.575707 125.782925 279.064768 128.065631 275.002095 132.128304 
C 270.939422 136.190977 268.656716 141.701916 268.656716 147.447403 
C 268.656716 153.19289 270.939422 158.703829 275.002095 162.766502 
C 279.064768 166.829175 284.575707 169.111881 290.321194 169.111881 
z
" clip-path="url(#pf39f673745)" style="fill: #008000; opacity: 0.1; stroke: #008000; stroke-linejoin: miter"/>
   </g>
   <g id="patch_42">
    <path d="M 290.321194 151.058149 
C 296.066681 151.058149 301.577621 148.775443 305.640293 144.712771 
C 309.702966 140.650098 311.985672 135.139158 311.985672 129.393672 
C 311.985672 123.648185 309.702966 118.137245 305.640293 114.074573 
C 301.577621 110.0119 296.066681 107.729194 290.321194 107.729194 
C 284.575707 107.729194 279.064768 110.0119 275.002095 114.074573 
C 270.939422 118.137245 268.656716 123.648185 268.656716 129.393672 
C 268.656716 135.139158 270.939422 140.650098 275.002095 144.712771 
C 279.064768 148.775443 284.575707 151.058149 290.321194 151.058149 
z
" clip-path="url(#pf39f673745)" style="fill: #008000; opacity: 0.1; stroke: #008000; stroke-linejoin: miter"/>
   </g>
   <g id="patch_43">
    <path d="M 308.374925 259.380537 
C 314.120412 259.380537 319.631352 257.097831 323.694024 253.035159 
C 327.756697 248.972486 330.039403 243.461546 330.039403 237.71606 
C 330.039403 231.970573 327.756697 226.459633 323.694024 222.396961 
C 319.631352 218.334288 314.120412 216.051582 308.374925 216.051582 
C 302.629439 216.051582 297.118499 218.334288 293.055826 222.396961 
C 288.993154 226.459633 286.710448 231.970573 286.710448 237.71606 
C 286.710448 243.461546 288.993154 248.972486 293.055826 253.035159 
C 297.118499 257.097831 302.629439 259.380537 308.374925 259.380537 
z
" clip-path="url(#pf39f673745)" style="fill: #008000; opacity: 0.1; stroke: #008000; stroke-linejoin: miter"/>
   </g>
   <g id="patch_44">
    <path d="M 308.374925 241.326806 
C 314.120412 241.326806 319.631352 239.0441 323.694024 234.981427 
C 327.756697 230.918755 330.039403 225.407815 330.039403 219.662328 
C 330.039403 213.916842 327.756697 208.405902 323.694024 204.343229 
C 319.631352 200.280557 314.120412 197.997851 308.374925 197.997851 
C 302.629439 197.997851 297.118499 200.280557 293.055826 204.343229 
C 288.993154 208.405902 286.710448 213.916842 286.710448 219.662328 
C 286.710448 225.407815 288.993154 230.918755 293.055826 234.981427 
C 297.118499 239.0441 302.629439 241.326806 308.374925 241.326806 
z
" clip-path="url(#pf39f673745)" style="fill: #008000; opacity: 0.1; stroke: #008000; stroke-linejoin: miter"/>
   </g>
   <g id="patch_45">
    <path d="M 308.374925 241.326806 
C 323.696223 241.326806 338.392063 235.23959 349.225856 224.405796 
C 360.05965 213.572003 366.146866 198.876163 366.146866 183.554866 
C 366.146866 168.233568 360.05965 153.537728 349.225856 142.703935 
C 338.392063 131.870141 323.696223 125.782925 308.374925 125.782925 
C 293.053628 125.782925 278.357788 131.870141 267.523995 142.703935 
C 256.690201 153.537728 250.602985 168.233568 250.602985 183.554866 
C 250.602985 198.876163 256.690201 213.572003 267.523995 224.405796 
C 278.357788 235.23959 293.053628 241.326806 308.374925 241.326806 
z
" clip-path="url(#pf39f673745)" style="fill: #0000ff; opacity: 0.1; stroke: #0000ff; stroke-linejoin: miter"/>
   </g>
   <g id="patch_46">
    <path d="M 308.374925 169.111881 
C 314.120412 169.111881 319.631352 166.829175 323.694024 162.766502 
C 327.756697 158.703829 330.039403 153.19289 330.039403 147.447403 
C 330.039403 141.701916 327.756697 136.190977 323.694024 132.128304 
C 319.631352 128.065631 314.120412 125.782925 308.374925 125.782925 
C 302.629439 125.782925 297.118499 128.065631 293.055826 132.128304 
C 288.993154 136.190977 286.710448 141.701916 286.710448 147.447403 
C 286.710448 153.19289 288.993154 158.703829 293.055826 162.766502 
C 297.118499 166.829175 302.629439 169.111881 308.374925 169.111881 
z
" clip-path="url(#pf39f673745)" style="fill: #008000; opacity: 0.1; stroke: #008000; stroke-linejoin: miter"/>
   </g>
   <g id="patch_47">
    <path d="M 308.374925 169.111881 
C 323.696223 169.111881 338.392063 163.024665 349.225856 152.190871 
C 360.05965 141.357078 366.146866 126.661238 366.146866 111.33994 
C 366.146866 96.018643 360.05965 81.322803 349.225856 70.48901 
C 338.392063 59.655216 323.696223 53.568 308.374925 53.568 
C 293.053628 53.568 278.357788 59.655216 267.523995 70.48901 
C 256.690201 81.322803 250.602985 96.018643 250.602985 111.33994 
C 250.602985 126.661238 256.690201 141.357078 267.523995 152.190871 
C 278.357788 163.024665 293.053628 169.111881 308.374925 169.111881 
z
" clip-path="url(#pf39f673745)" style="fill: #0000ff; opacity: 0.1; stroke: #0000ff; stroke-linejoin: miter"/>
   </g>
   <g id="patch_48">
    <path d="M 308.374925 96.896955 
C 314.120412 96.896955 319.631352 94.614249 323.694024 90.551577 
C 327.756697 86.488904 330.039403 80.977964 330.039403 75.232478 
C 330.039403 69.486991 327.756697 63.976051 323.694024 59.913379 
C 319.631352 55.850706 314.120412 53.568 308.374925 53.568 
C 302.629439 53.568 297.118499 55.850706 293.055826 59.913379 
C 288.993154 63.976051 286.710448 69.486991 286.710448 75.232478 
C 286.710448 80.977964 288.993154 86.488904 293.055826 90.551577 
C 297.118499 94.614249 302.629439 96.896955 308.374925 96.896955 
z
" clip-path="url(#pf39f673745)" style="fill: #008000; opacity: 0.1; stroke: #008000; stroke-linejoin: miter"/>
   </g>
   <g id="patch_49">
    <path d="M 326.428657 241.326806 
C 332.174143 241.326806 337.685083 239.0441 341.747756 234.981427 
C 345.810428 230.918755 348.093134 225.407815 348.093134 219.662328 
C 348.093134 213.916842 345.810428 208.405902 341.747756 204.343229 
C 337.685083 200.280557 332.174143 197.997851 326.428657 197.997851 
C 320.68317 197.997851 315.17223 200.280557 311.109558 204.343229 
C 307.046885 208.405902 304.764179 213.916842 304.764179 219.662328 
C 304.764179 225.407815 307.046885 230.918755 311.109558 234.981427 
C 315.17223 239.0441 320.68317 241.326806 326.428657 241.326806 
z
" clip-path="url(#pf39f673745)" style="fill: #008000; opacity: 0.1; stroke: #008000; stroke-linejoin: miter"/>
   </g>
   <g id="patch_50">
    <path d="M 326.428657 187.165612 
C 332.174143 187.165612 337.685083 184.882906 341.747756 180.820233 
C 345.810428 176.757561 348.093134 171.246621 348.093134 165.501134 
C 348.093134 159.755648 345.810428 154.244708 341.747756 150.182035 
C 337.685083 146.119363 332.174143 143.836657 326.428657 143.836657 
C 320.68317 143.836657 315.17223 146.119363 311.109558 150.182035 
C 307.046885 154.244708 304.764179 159.755648 304.764179 165.501134 
C 304.764179 171.246621 307.046885 176.757561 311.109558 180.820233 
C 315.17223 184.882906 320.68317 187.165612 326.428657 187.165612 
z
" clip-path="url(#pf39f673745)" style="fill: #008000; opacity: 0.1; stroke: #008000; stroke-linejoin: miter"/>
   </g>
   <g id="patch_51">
    <path d="M 326.428657 169.111881 
C 332.174143 169.111881 337.685083 166.829175 341.747756 162.766502 
C 345.810428 158.703829 348.093134 153.19289 348.093134 147.447403 
C 348.093134 141.701916 345.810428 136.190977 341.747756 132.128304 
C 337.685083 128.065631 332.174143 125.782925 326.428657 125.782925 
C 320.68317 125.782925 315.17223 128.065631 311.109558 132.128304 
C 307.046885 136.190977 304.764179 141.701916 304.764179 147.447403 
C 304.764179 153.19289 307.046885 158.703829 311.109558 162.766502 
C 315.17223 166.829175 320.68317 169.111881 326.428657 169.111881 
z
" clip-path="url(#pf39f673745)" style="fill: #008000; opacity: 0.1; stroke: #008000; stroke-linejoin: miter"/>
   </g>
   <g id="patch_52">
    <path d="M 326.428657 96.896955 
C 332.174143 96.896955 337.685083 94.614249 341.747756 90.551577 
C 345.810428 86.488904 348.093134 80.977964 348.093134 75.232478 
C 348.093134 69.486991 345.810428 63.976051 341.747756 59.913379 
C 337.685083 55.850706 332.174143 53.568 326.428657 53.568 
C 320.68317 53.568 315.17223 55.850706 311.109558 59.913379 
C 307.046885 63.976051 304.764179 69.486991 304.764179 75.232478 
C 304.764179 80.977964 307.046885 86.488904 311.109558 90.551577 
C 315.17223 94.614249 320.68317 96.896955 326.428657 96.896955 
z
" clip-path="url(#pf39f673745)" style="fill: #008000; opacity: 0.1; stroke: #008000; stroke-linejoin: miter"/>
   </g>
   <g id="matplotlib.axis_1">
    <g id="xtick_1">
     <g id="line2d_1">
      <path d="M 100.757015 307.584 
L 100.757015 41.472 
" clip-path="url(#pf39f673745)" style="fill: none; stroke-dasharray: 1.85,0.8; stroke-dashoffset: 0; stroke: #b0b0b0; stroke-opacity: 0.5; stroke-width: 0.5"/>
     </g>
     <g id="line2d_2">
      <defs>
       <path id="m391a03d556" d="M 0 0 
L 0 3.5 
" style="stroke: #000000; stroke-width: 0.8"/>
      </defs>
      <g>
       <use xlink:href="#m391a03d556" x="100.757015" y="307.584" style="stroke: #000000; stroke-width: 0.8"/>
      </g>
     </g>
     <g id="text_1">
      <!-- −2.5 -->
      <g transform="translate(88.615609 322.182437)scale(0.1 -0.1)">
       <defs>
        <path id="DejaVuSans-2212" d="M 678 2272 
L 4684 2272 
L 4684 1741 
L 678 1741 
L 678 2272 
z
" transform="scale(0.015625)"/>
        <path id="DejaVuSans-32" d="M 1228 531 
L 3431 531 
L 3431 0 
L 469 0 
L 469 531 
Q 828 903 1448 1529 
Q 2069 2156 2228 2338 
Q 2531 2678 2651 2914 
Q 2772 3150 2772 3378 
Q 2772 3750 2511 3984 
Q 2250 4219 1831 4219 
Q 1534 4219 1204 4116 
Q 875 4013 500 3803 
L 500 4441 
Q 881 4594 1212 4672 
Q 1544 4750 1819 4750 
Q 2544 4750 2975 4387 
Q 3406 4025 3406 3419 
Q 3406 3131 3298 2873 
Q 3191 2616 2906 2266 
Q 2828 2175 2409 1742 
Q 1991 1309 1228 531 
z
" transform="scale(0.015625)"/>
        <path id="DejaVuSans-2e" d="M 684 794 
L 1344 794 
L 1344 0 
L 684 0 
L 684 794 
z
" transform="scale(0.015625)"/>
        <path id="DejaVuSans-35" d="M 691 4666 
L 3169 4666 
L 3169 4134 
L 1269 4134 
L 1269 2991 
Q 1406 3038 1543 3061 
Q 1681 3084 1819 3084 
Q 2600 3084 3056 2656 
Q 3513 2228 3513 1497 
Q 3513 744 3044 326 
Q 2575 -91 1722 -91 
Q 1428 -91 1123 -41 
Q 819 9 494 109 
L 494 744 
Q 775 591 1075 516 
Q 1375 441 1709 441 
Q 2250 441 2565 725 
Q 2881 1009 2881 1497 
Q 2881 1984 2565 2268 
Q 2250 2553 1709 2553 
Q 1456 2553 1204 2497 
Q 953 2441 691 2322 
L 691 4666 
z
" transform="scale(0.015625)"/>
       </defs>
       <use xlink:href="#DejaVuSans-2212"/>
       <use xlink:href="#DejaVuSans-32" x="83.789062"/>
       <use xlink:href="#DejaVuSans-2e" x="147.412109"/>
       <use xlink:href="#DejaVuSans-35" x="179.199219"/>
      </g>
     </g>
    </g>
    <g id="xtick_2">
     <g id="line2d_3">
      <path d="M 145.891343 307.584 
L 145.891343 41.472 
" clip-path="url(#pf39f673745)" style="fill: none; stroke-dasharray: 1.85,0.8; stroke-dashoffset: 0; stroke: #b0b0b0; stroke-opacity: 0.5; stroke-width: 0.5"/>
     </g>
     <g id="line2d_4">
      <g>
       <use xlink:href="#m391a03d556" x="145.891343" y="307.584" style="stroke: #000000; stroke-width: 0.8"/>
      </g>
     </g>
     <g id="text_2">
      <!-- 0.0 -->
      <g transform="translate(137.939781 322.182437)scale(0.1 -0.1)">
       <defs>
        <path id="DejaVuSans-30" d="M 2034 4250 
Q 1547 4250 1301 3770 
Q 1056 3291 1056 2328 
Q 1056 1369 1301 889 
Q 1547 409 2034 409 
Q 2525 409 2770 889 
Q 3016 1369 3016 2328 
Q 3016 3291 2770 3770 
Q 2525 4250 2034 4250 
z
M 2034 4750 
Q 2819 4750 3233 4129 
Q 3647 3509 3647 2328 
Q 3647 1150 3233 529 
Q 2819 -91 2034 -91 
Q 1250 -91 836 529 
Q 422 1150 422 2328 
Q 422 3509 836 4129 
Q 1250 4750 2034 4750 
z
" transform="scale(0.015625)"/>
       </defs>
       <use xlink:href="#DejaVuSans-30"/>
       <use xlink:href="#DejaVuSans-2e" x="63.623047"/>
       <use xlink:href="#DejaVuSans-30" x="95.410156"/>
      </g>
     </g>
    </g>
    <g id="xtick_3">
     <g id="line2d_5">
      <path d="M 191.025672 307.584 
L 191.025672 41.472 
" clip-path="url(#pf39f673745)" style="fill: none; stroke-dasharray: 1.85,0.8; stroke-dashoffset: 0; stroke: #b0b0b0; stroke-opacity: 0.5; stroke-width: 0.5"/>
     </g>
     <g id="line2d_6">
      <g>
       <use xlink:href="#m391a03d556" x="191.025672" y="307.584" style="stroke: #000000; stroke-width: 0.8"/>
      </g>
     </g>
     <g id="text_3">
      <!-- 2.5 -->
      <g transform="translate(183.074109 322.182437)scale(0.1 -0.1)">
       <use xlink:href="#DejaVuSans-32"/>
       <use xlink:href="#DejaVuSans-2e" x="63.623047"/>
       <use xlink:href="#DejaVuSans-35" x="95.410156"/>
      </g>
     </g>
    </g>
    <g id="xtick_4">
     <g id="line2d_7">
      <path d="M 236.16 307.584 
L 236.16 41.472 
" clip-path="url(#pf39f673745)" style="fill: none; stroke-dasharray: 1.85,0.8; stroke-dashoffset: 0; stroke: #b0b0b0; stroke-opacity: 0.5; stroke-width: 0.5"/>
     </g>
     <g id="line2d_8">
      <g>
       <use xlink:href="#m391a03d556" x="236.16" y="307.584" style="stroke: #000000; stroke-width: 0.8"/>
      </g>
     </g>
     <g id="text_4">
      <!-- 5.0 -->
      <g transform="translate(228.208438 322.182437)scale(0.1 -0.1)">
       <use xlink:href="#DejaVuSans-35"/>
       <use xlink:href="#DejaVuSans-2e" x="63.623047"/>
       <use xlink:href="#DejaVuSans-30" x="95.410156"/>
      </g>
     </g>
    </g>
    <g id="xtick_5">
     <g id="line2d_9">
      <path d="M 281.294328 307.584 
L 281.294328 41.472 
" clip-path="url(#pf39f673745)" style="fill: none; stroke-dasharray: 1.85,0.8; stroke-dashoffset: 0; stroke: #b0b0b0; stroke-opacity: 0.5; stroke-width: 0.5"/>
     </g>
     <g id="line2d_10">
      <g>
       <use xlink:href="#m391a03d556" x="281.294328" y="307.584" style="stroke: #000000; stroke-width: 0.8"/>
      </g>
     </g>
     <g id="text_5">
      <!-- 7.5 -->
      <g transform="translate(273.342766 322.182437)scale(0.1 -0.1)">
       <defs>
        <path id="DejaVuSans-37" d="M 525 4666 
L 3525 4666 
L 3525 4397 
L 1831 0 
L 1172 0 
L 2766 4134 
L 525 4134 
L 525 4666 
z
" transform="scale(0.015625)"/>
       </defs>
       <use xlink:href="#DejaVuSans-37"/>
       <use xlink:href="#DejaVuSans-2e" x="63.623047"/>
       <use xlink:href="#DejaVuSans-35" x="95.410156"/>
      </g>
     </g>
    </g>
    <g id="xtick_6">
     <g id="line2d_11">
      <path d="M 326.428657 307.584 
L 326.428657 41.472 
" clip-path="url(#pf39f673745)" style="fill: none; stroke-dasharray: 1.85,0.8; stroke-dashoffset: 0; stroke: #b0b0b0; stroke-opacity: 0.5; stroke-width: 0.5"/>
     </g>
     <g id="line2d_12">
      <g>
       <use xlink:href="#m391a03d556" x="326.428657" y="307.584" style="stroke: #000000; stroke-width: 0.8"/>
      </g>
     </g>
     <g id="text_6">
      <!-- 10.0 -->
      <g transform="translate(315.295844 322.182437)scale(0.1 -0.1)">
       <defs>
        <path id="DejaVuSans-31" d="M 794 531 
L 1825 531 
L 1825 4091 
L 703 3866 
L 703 4441 
L 1819 4666 
L 2450 4666 
L 2450 531 
L 3481 531 
L 3481 0 
L 794 0 
L 794 531 
z
" transform="scale(0.015625)"/>
       </defs>
       <use xlink:href="#DejaVuSans-31"/>
       <use xlink:href="#DejaVuSans-30" x="63.623047"/>
       <use xlink:href="#DejaVuSans-2e" x="127.246094"/>
       <use xlink:href="#DejaVuSans-30" x="159.033203"/>
      </g>
     </g>
    </g>
    <g id="xtick_7">
     <g id="line2d_13">
      <path d="M 371.562985 307.584 
L 371.562985 41.472 
" clip-path="url(#pf39f673745)" style="fill: none; stroke-dasharray: 1.85,0.8; stroke-dashoffset: 0; stroke: #b0b0b0; stroke-opacity: 0.5; stroke-width: 0.5"/>
     </g>
     <g id="line2d_14">
      <g>
       <use xlink:href="#m391a03d556" x="371.562985" y="307.584" style="stroke: #000000; stroke-width: 0.8"/>
      </g>
     </g>
     <g id="text_7">
      <!-- 12.5 -->
      <g transform="translate(360.430173 322.182437)scale(0.1 -0.1)">
       <use xlink:href="#DejaVuSans-31"/>
       <use xlink:href="#DejaVuSans-32" x="63.623047"/>
       <use xlink:href="#DejaVuSans-2e" x="127.246094"/>
       <use xlink:href="#DejaVuSans-35" x="159.033203"/>
      </g>
     </g>
    </g>
    <g id="text_8">
     <!-- Eixo X (m) -->
     <g transform="translate(210.374062 335.860562)scale(0.1 -0.1)">
      <defs>
       <path id="DejaVuSans-45" d="M 628 4666 
L 3578 4666 
L 3578 4134 
L 1259 4134 
L 1259 2753 
L 3481 2753 
L 3481 2222 
L 1259 2222 
L 1259 531 
L 3634 531 
L 3634 0 
L 628 0 
L 628 4666 
z
" transform="scale(0.015625)"/>
       <path id="DejaVuSans-69" d="M 603 3500 
L 1178 3500 
L 1178 0 
L 603 0 
L 603 3500 
z
M 603 4863 
L 1178 4863 
L 1178 4134 
L 603 4134 
L 603 4863 
z
" transform="scale(0.015625)"/>
       <path id="DejaVuSans-78" d="M 3513 3500 
L 2247 1797 
L 3578 0 
L 2900 0 
L 1881 1375 
L 863 0 
L 184 0 
L 1544 1831 
L 300 3500 
L 978 3500 
L 1906 2253 
L 2834 3500 
L 3513 3500 
z
" transform="scale(0.015625)"/>
       <path id="DejaVuSans-6f" d="M 1959 3097 
Q 1497 3097 1228 2736 
Q 959 2375 959 1747 
Q 959 1119 1226 758 
Q 1494 397 1959 397 
Q 2419 397 2687 759 
Q 2956 1122 2956 1747 
Q 2956 2369 2687 2733 
Q 2419 3097 1959 3097 
z
M 1959 3584 
Q 2709 3584 3137 3096 
Q 3566 2609 3566 1747 
Q 3566 888 3137 398 
Q 2709 -91 1959 -91 
Q 1206 -91 779 398 
Q 353 888 353 1747 
Q 353 2609 779 3096 
Q 1206 3584 1959 3584 
z
" transform="scale(0.015625)"/>
       <path id="DejaVuSans-20" transform="scale(0.015625)"/>
       <path id="DejaVuSans-58" d="M 403 4666 
L 1081 4666 
L 2241 2931 
L 3406 4666 
L 4084 4666 
L 2584 2425 
L 4184 0 
L 3506 0 
L 2194 1984 
L 872 0 
L 191 0 
L 1856 2491 
L 403 4666 
z
" transform="scale(0.015625)"/>
       <path id="DejaVuSans-28" d="M 1984 4856 
Q 1566 4138 1362 3434 
Q 1159 2731 1159 2009 
Q 1159 1288 1364 580 
Q 1569 -128 1984 -844 
L 1484 -844 
Q 1016 -109 783 600 
Q 550 1309 550 2009 
Q 550 2706 781 3412 
Q 1013 4119 1484 4856 
L 1984 4856 
z
" transform="scale(0.015625)"/>
       <path id="DejaVuSans-6d" d="M 3328 2828 
Q 3544 3216 3844 3400 
Q 4144 3584 4550 3584 
Q 5097 3584 5394 3201 
Q 5691 2819 5691 2113 
L 5691 0 
L 5113 0 
L 5113 2094 
Q 5113 2597 4934 2840 
Q 4756 3084 4391 3084 
Q 3944 3084 3684 2787 
Q 3425 2491 3425 1978 
L 3425 0 
L 2847 0 
L 2847 2094 
Q 2847 2600 2669 2842 
Q 2491 3084 2119 3084 
Q 1678 3084 1418 2786 
Q 1159 2488 1159 1978 
L 1159 0 
L 581 0 
L 581 3500 
L 1159 3500 
L 1159 2956 
Q 1356 3278 1631 3431 
Q 1906 3584 2284 3584 
Q 2666 3584 2933 3390 
Q 3200 3197 3328 2828 
z
" transform="scale(0.015625)"/>
       <path id="DejaVuSans-29" d="M 513 4856 
L 1013 4856 
Q 1481 4119 1714 3412 
Q 1947 2706 1947 2009 
Q 1947 1309 1714 600 
Q 1481 -109 1013 -844 
L 513 -844 
Q 928 -128 1133 580 
Q 1338 1288 1338 2009 
Q 1338 2731 1133 3434 
Q 928 4138 513 4856 
z
" transform="scale(0.015625)"/>
      </defs>
      <use xlink:href="#DejaVuSans-45"/>
      <use xlink:href="#DejaVuSans-69" x="63.183594"/>
      <use xlink:href="#DejaVuSans-78" x="90.966797"/>
      <use xlink:href="#DejaVuSans-6f" x="147.021484"/>
      <use xlink:href="#DejaVuSans-20" x="208.203125"/>
      <use xlink:href="#DejaVuSans-58" x="239.990234"/>
      <use xlink:href="#DejaVuSans-20" x="308.496094"/>
      <use xlink:href="#DejaVuSans-28" x="340.283203"/>
      <use xlink:href="#DejaVuSans-6d" x="379.296875"/>
      <use xlink:href="#DejaVuSans-29" x="476.708984"/>
     </g>
    </g>
   </g>
   <g id="matplotlib.axis_2">
    <g id="ytick_1">
     <g id="line2d_15">
      <path d="M 57.6 291.877254 
L 414.72 291.877254 
" clip-path="url(#pf39f673745)" style="fill: none; stroke-dasharray: 1.85,0.8; stroke-dashoffset: 0; stroke: #b0b0b0; stroke-opacity: 0.5; stroke-width: 0.5"/>
     </g>
     <g id="line2d_16">
      <defs>
       <path id="mae280373d5" d="M 0 0 
L -3.5 0 
" style="stroke: #000000; stroke-width: 0.8"/>
      </defs>
      <g>
       <use xlink:href="#mae280373d5" x="57.6" y="291.877254" style="stroke: #000000; stroke-width: 0.8"/>
      </g>
     </g>
     <g id="text_9">
      <!-- −2 -->
      <g transform="translate(35.857813 295.676472)scale(0.1 -0.1)">
       <use xlink:href="#DejaVuSans-2212"/>
       <use xlink:href="#DejaVuSans-32" x="83.789062"/>
      </g>
     </g>
    </g>
    <g id="ytick_2">
     <g id="line2d_17">
      <path d="M 57.6 255.769791 
L 414.72 255.769791 
" clip-path="url(#pf39f673745)" style="fill: none; stroke-dasharray: 1.85,0.8; stroke-dashoffset: 0; stroke: #b0b0b0; stroke-opacity: 0.5; stroke-width: 0.5"/>
     </g>
     <g id="line2d_18">
      <g>
       <use xlink:href="#mae280373d5" x="57.6" y="255.769791" style="stroke: #000000; stroke-width: 0.8"/>
      </g>
     </g>
     <g id="text_10">
      <!-- 0 -->
      <g transform="translate(44.2375 259.56901)scale(0.1 -0.1)">
       <use xlink:href="#DejaVuSans-30"/>
      </g>
     </g>
    </g>
    <g id="ytick_3">
     <g id="line2d_19">
      <path d="M 57.6 219.662328 
L 414.72 219.662328 
" clip-path="url(#pf39f673745)" style="fill: none; stroke-dasharray: 1.85,0.8; stroke-dashoffset: 0; stroke: #b0b0b0; stroke-opacity: 0.5; stroke-width: 0.5"/>
     </g>
     <g id="line2d_20">
      <g>
       <use xlink:href="#mae280373d5" x="57.6" y="219.662328" style="stroke: #000000; stroke-width: 0.8"/>
      </g>
     </g>
     <g id="text_11">
      <!-- 2 -->
      <g transform="translate(44.2375 223.461547)scale(0.1 -0.1)">
       <use xlink:href="#DejaVuSans-32"/>
      </g>
     </g>
    </g>
    <g id="ytick_4">
     <g id="line2d_21">
      <path d="M 57.6 183.554866 
L 414.72 183.554866 
" clip-path="url(#pf39f673745)" style="fill: none; stroke-dasharray: 1.85,0.8; stroke-dashoffset: 0; stroke: #b0b0b0; stroke-opacity: 0.5; stroke-width: 0.5"/>
     </g>
     <g id="line2d_22">
      <g>
       <use xlink:href="#mae280373d5" x="57.6" y="183.554866" style="stroke: #000000; stroke-width: 0.8"/>
      </g>
     </g>
     <g id="text_12">
      <!-- 4 -->
      <g transform="translate(44.2375 187.354084)scale(0.1 -0.1)">
       <defs>
        <path id="DejaVuSans-34" d="M 2419 4116 
L 825 1625 
L 2419 1625 
L 2419 4116 
z
M 2253 4666 
L 3047 4666 
L 3047 1625 
L 3713 1625 
L 3713 1100 
L 3047 1100 
L 3047 0 
L 2419 0 
L 2419 1100 
L 313 1100 
L 313 1709 
L 2253 4666 
z
" transform="scale(0.015625)"/>
       </defs>
       <use xlink:href="#DejaVuSans-34"/>
      </g>
     </g>
    </g>
    <g id="ytick_5">
     <g id="line2d_23">
      <path d="M 57.6 147.447403 
L 414.72 147.447403 
" clip-path="url(#pf39f673745)" style="fill: none; stroke-dasharray: 1.85,0.8; stroke-dashoffset: 0; stroke: #b0b0b0; stroke-opacity: 0.5; stroke-width: 0.5"/>
     </g>
     <g id="line2d_24">
      <g>
       <use xlink:href="#mae280373d5" x="57.6" y="147.447403" style="stroke: #000000; stroke-width: 0.8"/>
      </g>
     </g>
     <g id="text_13">
      <!-- 6 -->
      <g transform="translate(44.2375 151.246622)scale(0.1 -0.1)">
       <defs>
        <path id="DejaVuSans-36" d="M 2113 2584 
Q 1688 2584 1439 2293 
Q 1191 2003 1191 1497 
Q 1191 994 1439 701 
Q 1688 409 2113 409 
Q 2538 409 2786 701 
Q 3034 994 3034 1497 
Q 3034 2003 2786 2293 
Q 2538 2584 2113 2584 
z
M 3366 4563 
L 3366 3988 
Q 3128 4100 2886 4159 
Q 2644 4219 2406 4219 
Q 1781 4219 1451 3797 
Q 1122 3375 1075 2522 
Q 1259 2794 1537 2939 
Q 1816 3084 2150 3084 
Q 2853 3084 3261 2657 
Q 3669 2231 3669 1497 
Q 3669 778 3244 343 
Q 2819 -91 2113 -91 
Q 1303 -91 875 529 
Q 447 1150 447 2328 
Q 447 3434 972 4092 
Q 1497 4750 2381 4750 
Q 2619 4750 2861 4703 
Q 3103 4656 3366 4563 
z
" transform="scale(0.015625)"/>
       </defs>
       <use xlink:href="#DejaVuSans-36"/>
      </g>
     </g>
    </g>
    <g id="ytick_6">
     <g id="line2d_25">
      <path d="M 57.6 111.33994 
L 414.72 111.33994 
" clip-path="url(#pf39f673745)" style="fill: none; stroke-dasharray: 1.85,0.8; stroke-dashoffset: 0; stroke: #b0b0b0; stroke-opacity: 0.5; stroke-width: 0.5"/>
     </g>
     <g id="line2d_26">
      <g>
       <use xlink:href="#mae280373d5" x="57.6" y="111.33994" style="stroke: #000000; stroke-width: 0.8"/>
      </g>
     </g>
     <g id="text_14">
      <!-- 8 -->
      <g transform="translate(44.2375 115.139159)scale(0.1 -0.1)">
       <defs>
        <path id="DejaVuSans-38" d="M 2034 2216 
Q 1584 2216 1326 1975 
Q 1069 1734 1069 1313 
Q 1069 891 1326 650 
Q 1584 409 2034 409 
Q 2484 409 2743 651 
Q 3003 894 3003 1313 
Q 3003 1734 2745 1975 
Q 2488 2216 2034 2216 
z
M 1403 2484 
Q 997 2584 770 2862 
Q 544 3141 544 3541 
Q 544 4100 942 4425 
Q 1341 4750 2034 4750 
Q 2731 4750 3128 4425 
Q 3525 4100 3525 3541 
Q 3525 3141 3298 2862 
Q 3072 2584 2669 2484 
Q 3125 2378 3379 2068 
Q 3634 1759 3634 1313 
Q 3634 634 3220 271 
Q 2806 -91 2034 -91 
Q 1263 -91 848 271 
Q 434 634 434 1313 
Q 434 1759 690 2068 
Q 947 2378 1403 2484 
z
M 1172 3481 
Q 1172 3119 1398 2916 
Q 1625 2713 2034 2713 
Q 2441 2713 2670 2916 
Q 2900 3119 2900 3481 
Q 2900 3844 2670 4047 
Q 2441 4250 2034 4250 
Q 1625 4250 1398 4047 
Q 1172 3844 1172 3481 
z
" transform="scale(0.015625)"/>
       </defs>
       <use xlink:href="#DejaVuSans-38"/>
      </g>
     </g>
    </g>
    <g id="ytick_7">
     <g id="line2d_27">
      <path d="M 57.6 75.232478 
L 414.72 75.232478 
" clip-path="url(#pf39f673745)" style="fill: none; stroke-dasharray: 1.85,0.8; stroke-dashoffset: 0; stroke: #b0b0b0; stroke-opacity: 0.5; stroke-width: 0.5"/>
     </g>
     <g id="line2d_28">
      <g>
       <use xlink:href="#mae280373d5" x="57.6" y="75.232478" style="stroke: #000000; stroke-width: 0.8"/>
      </g>
     </g>
     <g id="text_15">
      <!-- 10 -->
      <g transform="translate(37.875 79.031696)scale(0.1 -0.1)">
       <use xlink:href="#DejaVuSans-31"/>
       <use xlink:href="#DejaVuSans-30" x="63.623047"/>
      </g>
     </g>
    </g>
    <g id="text_16">
     <!-- Eixo Y (m) -->
     <g transform="translate(29.778125 199.942844)rotate(-90)scale(0.1 -0.1)">
      <defs>
       <path id="DejaVuSans-59" d="M -13 4666 
L 666 4666 
L 1959 2747 
L 3244 4666 
L 3922 4666 
L 2272 2222 
L 2272 0 
L 1638 0 
L 1638 2222 
L -13 4666 
z
" transform="scale(0.015625)"/>
      </defs>
      <use xlink:href="#DejaVuSans-45"/>
      <use xlink:href="#DejaVuSans-69" x="63.183594"/>
      <use xlink:href="#DejaVuSans-78" x="90.966797"/>
      <use xlink:href="#DejaVuSans-6f" x="147.021484"/>
      <use xlink:href="#DejaVuSans-20" x="208.203125"/>
      <use xlink:href="#DejaVuSans-59" x="239.990234"/>
      <use xlink:href="#DejaVuSans-20" x="301.074219"/>
      <use xlink:href="#DejaVuSans-28" x="332.861328"/>
      <use xlink:href="#DejaVuSans-6d" x="371.875"/>
      <use xlink:href="#DejaVuSans-29" x="469.287109"/>
     </g>
    </g>
   </g>
   <g id="line2d_29">
    <defs>
     <path id="m465bed4103" d="M 0 3 
C 0.795609 3 1.55874 2.683901 2.12132 2.12132 
C 2.683901 1.55874 3 0.795609 3 0 
C 3 -0.795609 2.683901 -1.55874 2.12132 -2.12132 
C 1.55874 -2.683901 0.795609 -3 0 -3 
C -0.795609 -3 -1.55874 -2.683901 -2.12132 -2.12132 
C -2.683901 -1.55874 -3 -0.795609 -3 0 
C -3 0.795609 -2.683901 1.55874 -2.12132 2.12132 
C -1.55874 2.683901 -0.795609 3 0 3 
z
" style="stroke: #0000ff"/>
    </defs>
    <g clip-path="url(#pf39f673745)">
     <use xlink:href="#m465bed4103" x="163.945075" y="237.71606" style="fill: #0000ff; stroke: #0000ff"/>
    </g>
   </g>
   <g id="line2d_30">
    <defs>
     <path id="m488cfec265" d="M 0 3 
C 0.795609 3 1.55874 2.683901 2.12132 2.12132 
C 2.683901 1.55874 3 0.795609 3 0 
C 3 -0.795609 2.683901 -1.55874 2.12132 -2.12132 
C 1.55874 -2.683901 0.795609 -3 0 -3 
C -0.795609 -3 -1.55874 -2.683901 -2.12132 -2.12132 
C -2.683901 -1.55874 -3 -0.795609 -3 0 
C -3 0.795609 -2.683901 1.55874 -2.12132 2.12132 
C -1.55874 2.683901 -0.795609 3 0 3 
z
" style="stroke: #008000"/>
    </defs>
    <g clip-path="url(#pf39f673745)">
     <use xlink:href="#m488cfec265" x="163.945075" y="183.554866" style="fill: #008000; stroke: #008000"/>
    </g>
   </g>
   <g id="line2d_31">
    <g clip-path="url(#pf39f673745)">
     <use xlink:href="#m488cfec265" x="163.945075" y="165.501134" style="fill: #008000; stroke: #008000"/>
    </g>
   </g>
   <g id="line2d_32">
    <g clip-path="url(#pf39f673745)">
     <use xlink:href="#m488cfec265" x="163.945075" y="147.447403" style="fill: #008000; stroke: #008000"/>
    </g>
   </g>
   <g id="line2d_33">
    <g clip-path="url(#pf39f673745)">
     <use xlink:href="#m488cfec265" x="163.945075" y="129.393672" style="fill: #008000; stroke: #008000"/>
    </g>
   </g>
   <g id="line2d_34">
    <g clip-path="url(#pf39f673745)">
     <use xlink:href="#m488cfec265" x="163.945075" y="111.33994" style="fill: #008000; stroke: #008000"/>
    </g>
   </g>
   <g id="line2d_35">
    <g clip-path="url(#pf39f673745)">
     <use xlink:href="#m488cfec265" x="163.945075" y="93.286209" style="fill: #008000; stroke: #008000"/>
    </g>
   </g>
   <g id="line2d_36">
    <g clip-path="url(#pf39f673745)">
     <use xlink:href="#m488cfec265" x="163.945075" y="75.232478" style="fill: #008000; stroke: #008000"/>
    </g>
   </g>
   <g id="line2d_37">
    <g clip-path="url(#pf39f673745)">
     <use xlink:href="#m488cfec265" x="181.998806" y="219.662328" style="fill: #008000; stroke: #008000"/>
    </g>
   </g>
   <g id="line2d_38">
    <g clip-path="url(#pf39f673745)">
     <use xlink:href="#m488cfec265" x="181.998806" y="165.501134" style="fill: #008000; stroke: #008000"/>
    </g>
   </g>
   <g id="line2d_39">
    <g clip-path="url(#pf39f673745)">
     <use xlink:href="#m488cfec265" x="181.998806" y="111.33994" style="fill: #008000; stroke: #008000"/>
    </g>
   </g>
   <g id="line2d_40">
    <g clip-path="url(#pf39f673745)">
     <use xlink:href="#m488cfec265" x="181.998806" y="75.232478" style="fill: #008000; stroke: #008000"/>
    </g>
   </g>
   <g id="line2d_41">
    <g clip-path="url(#pf39f673745)">
     <use xlink:href="#m488cfec265" x="200.052537" y="237.71606" style="fill: #008000; stroke: #008000"/>
    </g>
   </g>
   <g id="line2d_42">
    <g clip-path="url(#pf39f673745)">
     <use xlink:href="#m488cfec265" x="200.052537" y="219.662328" style="fill: #008000; stroke: #008000"/>
    </g>
   </g>
   <g id="line2d_43">
    <g clip-path="url(#pf39f673745)">
     <use xlink:href="#m488cfec265" x="200.052537" y="147.447403" style="fill: #008000; stroke: #008000"/>
    </g>
   </g>
   <g id="line2d_44">
    <g clip-path="url(#pf39f673745)">
     <use xlink:href="#m488cfec265" x="218.106269" y="237.71606" style="fill: #008000; stroke: #008000"/>
    </g>
   </g>
   <g id="line2d_45">
    <g clip-path="url(#pf39f673745)">
     <use xlink:href="#m488cfec265" x="218.106269" y="219.662328" style="fill: #008000; stroke: #008000"/>
    </g>
   </g>
   <g id="line2d_46">
    <g clip-path="url(#pf39f673745)">
     <use xlink:href="#m488cfec265" x="218.106269" y="201.608597" style="fill: #008000; stroke: #008000"/>
    </g>
   </g>
   <g id="line2d_47">
    <g clip-path="url(#pf39f673745)">
     <use xlink:href="#m488cfec265" x="218.106269" y="183.554866" style="fill: #008000; stroke: #008000"/>
    </g>
   </g>
   <g id="line2d_48">
    <g clip-path="url(#pf39f673745)">
     <use xlink:href="#m488cfec265" x="218.106269" y="147.447403" style="fill: #008000; stroke: #008000"/>
    </g>
   </g>
   <g id="line2d_49">
    <g clip-path="url(#pf39f673745)">
     <use xlink:href="#m488cfec265" x="218.106269" y="111.33994" style="fill: #008000; stroke: #008000"/>
    </g>
   </g>
   <g id="line2d_50">
    <g clip-path="url(#pf39f673745)">
     <use xlink:href="#m488cfec265" x="236.16" y="219.662328" style="fill: #008000; stroke: #008000"/>
    </g>
   </g>
   <g id="line2d_51">
    <g clip-path="url(#pf39f673745)">
     <use xlink:href="#m488cfec265" x="236.16" y="147.447403" style="fill: #008000; stroke: #008000"/>
    </g>
   </g>
   <g id="line2d_52">
    <g clip-path="url(#pf39f673745)">
     <use xlink:href="#m488cfec265" x="236.16" y="111.33994" style="fill: #008000; stroke: #008000"/>
    </g>
   </g>
   <g id="line2d_53">
    <g clip-path="url(#pf39f673745)">
     <use xlink:href="#m488cfec265" x="236.16" y="93.286209" style="fill: #008000; stroke: #008000"/>
    </g>
   </g>
   <g id="line2d_54">
    <g clip-path="url(#pf39f673745)">
     <use xlink:href="#m488cfec265" x="254.213731" y="219.662328" style="fill: #008000; stroke: #008000"/>
    </g>
   </g>
   <g id="line2d_55">
    <g clip-path="url(#pf39f673745)">
     <use xlink:href="#m488cfec265" x="254.213731" y="201.608597" style="fill: #008000; stroke: #008000"/>
    </g>
   </g>
   <g id="line2d_56">
    <g clip-path="url(#pf39f673745)">
     <use xlink:href="#m488cfec265" x="254.213731" y="183.554866" style="fill: #008000; stroke: #008000"/>
    </g>
   </g>
   <g id="line2d_57">
    <g clip-path="url(#pf39f673745)">
     <use xlink:href="#m488cfec265" x="254.213731" y="165.501134" style="fill: #008000; stroke: #008000"/>
    </g>
   </g>
   <g id="line2d_58">
    <g clip-path="url(#pf39f673745)">
     <use xlink:href="#m488cfec265" x="254.213731" y="147.447403" style="fill: #008000; stroke: #008000"/>
    </g>
   </g>
   <g id="line2d_59">
    <g clip-path="url(#pf39f673745)">
     <use xlink:href="#m488cfec265" x="254.213731" y="129.393672" style="fill: #008000; stroke: #008000"/>
    </g>
   </g>
   <g id="line2d_60">
    <g clip-path="url(#pf39f673745)">
     <use xlink:href="#m488cfec265" x="254.213731" y="111.33994" style="fill: #008000; stroke: #008000"/>
    </g>
   </g>
   <g id="line2d_61">
    <g clip-path="url(#pf39f673745)">
     <use xlink:href="#m488cfec265" x="254.213731" y="93.286209" style="fill: #008000; stroke: #008000"/>
    </g>
   </g>
   <g id="line2d_62">
    <g clip-path="url(#pf39f673745)">
     <use xlink:href="#m488cfec265" x="254.213731" y="75.232478" style="fill: #008000; stroke: #008000"/>
    </g>
   </g>
   <g id="line2d_63">
    <g clip-path="url(#pf39f673745)">
     <use xlink:href="#m488cfec265" x="272.267463" y="201.608597" style="fill: #008000; stroke: #008000"/>
    </g>
   </g>
   <g id="line2d_64">
    <g clip-path="url(#pf39f673745)">
     <use xlink:href="#m488cfec265" x="272.267463" y="183.554866" style="fill: #008000; stroke: #008000"/>
    </g>
   </g>
   <g id="line2d_65">
    <g clip-path="url(#pf39f673745)">
     <use xlink:href="#m488cfec265" x="272.267463" y="147.447403" style="fill: #008000; stroke: #008000"/>
    </g>
   </g>
   <g id="line2d_66">
    <g clip-path="url(#pf39f673745)">
     <use xlink:href="#m488cfec265" x="290.321194" y="219.662328" style="fill: #008000; stroke: #008000"/>
    </g>
   </g>
   <g id="line2d_67">
    <g clip-path="url(#pf39f673745)">
     <use xlink:href="#m488cfec265" x="290.321194" y="147.447403" style="fill: #008000; stroke: #008000"/>
    </g>
   </g>
   <g id="line2d_68">
    <g clip-path="url(#pf39f673745)">
     <use xlink:href="#m488cfec265" x="290.321194" y="129.393672" style="fill: #008000; stroke: #008000"/>
    </g>
   </g>
   <g id="line2d_69">
    <g clip-path="url(#pf39f673745)">
     <use xlink:href="#m488cfec265" x="308.374925" y="237.71606" style="fill: #008000; stroke: #008000"/>
    </g>
   </g>
   <g id="line2d_70">
    <g clip-path="url(#pf39f673745)">
     <use xlink:href="#m488cfec265" x="308.374925" y="219.662328" style="fill: #008000; stroke: #008000"/>
    </g>
   </g>
   <g id="line2d_71">
    <g clip-path="url(#pf39f673745)">
     <use xlink:href="#m465bed4103" x="308.374925" y="183.554866" style="fill: #0000ff; stroke: #0000ff"/>
    </g>
   </g>
   <g id="line2d_72">
    <g clip-path="url(#pf39f673745)">
     <use xlink:href="#m488cfec265" x="308.374925" y="147.447403" style="fill: #008000; stroke: #008000"/>
    </g>
   </g>
   <g id="line2d_73">
    <g clip-path="url(#pf39f673745)">
     <use xlink:href="#m465bed4103" x="308.374925" y="111.33994" style="fill: #0000ff; stroke: #0000ff"/>
    </g>
   </g>
   <g id="line2d_74">
    <g clip-path="url(#pf39f673745)">
     <use xlink:href="#m488cfec265" x="308.374925" y="75.232478" style="fill: #008000; stroke: #008000"/>
    </g>
   </g>
   <g id="line2d_75">
    <g clip-path="url(#pf39f673745)">
     <use xlink:href="#m488cfec265" x="326.428657" y="219.662328" style="fill: #008000; stroke: #008000"/>
    </g>
   </g>
   <g id="line2d_76">
    <g clip-path="url(#pf39f673745)">
     <use xlink:href="#m488cfec265" x="326.428657" y="165.501134" style="fill: #008000; stroke: #008000"/>
    </g>
   </g>
   <g id="line2d_77">
    <g clip-path="url(#pf39f673745)">
     <use xlink:href="#m488cfec265" x="326.428657" y="147.447403" style="fill: #008000; stroke: #008000"/>
    </g>
   </g>
   <g id="line2d_78">
    <g clip-path="url(#pf39f673745)">
     <use xlink:href="#m488cfec265" x="326.428657" y="75.232478" style="fill: #008000; stroke: #008000"/>
    </g>
   </g>
   <g id="patch_53">
    <path d="M 57.6 307.584 
L 57.6 41.472 
" style="fill: none; stroke: #000000; stroke-width: 0.8; stroke-linejoin: miter; stroke-linecap: square"/>
   </g>
   <g id="patch_54">
    <path d="M 414.72 307.584 
L 414.72 41.472 
" style="fill: none; stroke: #000000; stroke-width: 0.8; stroke-linejoin: miter; stroke-linecap: square"/>
   </g>
   <g id="patch_55">
    <path d="M 57.6 307.584 
L 414.72 307.584 
" style="fill: none; stroke: #000000; stroke-width: 0.8; stroke-linejoin: miter; stroke-linecap: square"/>
   </g>
   <g id="patch_56">
    <path d="M 57.6 41.472 
L 414.72 41.472 
" style="fill: none; stroke: #000000; stroke-width: 0.8; stroke-linejoin: miter; stroke-linecap: square"/>
   </g>
   <g id="text_17">
    <!-- Instancia: ../instances_OL2A/10x10/SAP-inst_0.5_10x10.dat -->
    <g transform="translate(58.100625 8.2635)scale(0.12 -0.12)">
     <defs>
      <path id="DejaVuSans-49" d="M 628 4666 
L 1259 4666 
L 1259 0 
L 628 0 
L 628 4666 
z
" transform="scale(0.015625)"/>
      <path id="DejaVuSans-6e" d="M 3513 2113 
L 3513 0 
L 2938 0 
L 2938 2094 
Q 2938 2591 2744 2837 
Q 2550 3084 2163 3084 
Q 1697 3084 1428 2787 
Q 1159 2491 1159 1978 
L 1159 0 
L 581 0 
L 581 3500 
L 1159 3500 
L 1159 2956 
Q 1366 3272 1645 3428 
Q 1925 3584 2291 3584 
Q 2894 3584 3203 3211 
Q 3513 2838 3513 2113 
z
" transform="scale(0.015625)"/>
      <path id="DejaVuSans-73" d="M 2834 3397 
L 2834 2853 
Q 2591 2978 2328 3040 
Q 2066 3103 1784 3103 
Q 1356 3103 1142 2972 
Q 928 2841 928 2578 
Q 928 2378 1081 2264 
Q 1234 2150 1697 2047 
L 1894 2003 
Q 2506 1872 2764 1633 
Q 3022 1394 3022 966 
Q 3022 478 2636 193 
Q 2250 -91 1575 -91 
Q 1294 -91 989 -36 
Q 684 19 347 128 
L 347 722 
Q 666 556 975 473 
Q 1284 391 1588 391 
Q 1994 391 2212 530 
Q 2431 669 2431 922 
Q 2431 1156 2273 1281 
Q 2116 1406 1581 1522 
L 1381 1569 
Q 847 1681 609 1914 
Q 372 2147 372 2553 
Q 372 3047 722 3315 
Q 1072 3584 1716 3584 
Q 2034 3584 2315 3537 
Q 2597 3491 2834 3397 
z
" transform="scale(0.015625)"/>
      <path id="DejaVuSans-74" d="M 1172 4494 
L 1172 3500 
L 2356 3500 
L 2356 3053 
L 1172 3053 
L 1172 1153 
Q 1172 725 1289 603 
Q 1406 481 1766 481 
L 2356 481 
L 2356 0 
L 1766 0 
Q 1100 0 847 248 
Q 594 497 594 1153 
L 594 3053 
L 172 3053 
L 172 3500 
L 594 3500 
L 594 4494 
L 1172 4494 
z
" transform="scale(0.015625)"/>
      <path id="DejaVuSans-61" d="M 2194 1759 
Q 1497 1759 1228 1600 
Q 959 1441 959 1056 
Q 959 750 1161 570 
Q 1363 391 1709 391 
Q 2188 391 2477 730 
Q 2766 1069 2766 1631 
L 2766 1759 
L 2194 1759 
z
M 3341 1997 
L 3341 0 
L 2766 0 
L 2766 531 
Q 2569 213 2275 61 
Q 1981 -91 1556 -91 
Q 1019 -91 701 211 
Q 384 513 384 1019 
Q 384 1609 779 1909 
Q 1175 2209 1959 2209 
L 2766 2209 
L 2766 2266 
Q 2766 2663 2505 2880 
Q 2244 3097 1772 3097 
Q 1472 3097 1187 3025 
Q 903 2953 641 2809 
L 641 3341 
Q 956 3463 1253 3523 
Q 1550 3584 1831 3584 
Q 2591 3584 2966 3190 
Q 3341 2797 3341 1997 
z
" transform="scale(0.015625)"/>
      <path id="DejaVuSans-63" d="M 3122 3366 
L 3122 2828 
Q 2878 2963 2633 3030 
Q 2388 3097 2138 3097 
Q 1578 3097 1268 2742 
Q 959 2388 959 1747 
Q 959 1106 1268 751 
Q 1578 397 2138 397 
Q 2388 397 2633 464 
Q 2878 531 3122 666 
L 3122 134 
Q 2881 22 2623 -34 
Q 2366 -91 2075 -91 
Q 1284 -91 818 406 
Q 353 903 353 1747 
Q 353 2603 823 3093 
Q 1294 3584 2113 3584 
Q 2378 3584 2631 3529 
Q 2884 3475 3122 3366 
z
" transform="scale(0.015625)"/>
      <path id="DejaVuSans-3a" d="M 750 794 
L 1409 794 
L 1409 0 
L 750 0 
L 750 794 
z
M 750 3309 
L 1409 3309 
L 1409 2516 
L 750 2516 
L 750 3309 
z
" transform="scale(0.015625)"/>
      <path id="DejaVuSans-2f" d="M 1625 4666 
L 2156 4666 
L 531 -594 
L 0 -594 
L 1625 4666 
z
" transform="scale(0.015625)"/>
      <path id="DejaVuSans-65" d="M 3597 1894 
L 3597 1613 
L 953 1613 
Q 991 1019 1311 708 
Q 1631 397 2203 397 
Q 2534 397 2845 478 
Q 3156 559 3463 722 
L 3463 178 
Q 3153 47 2828 -22 
Q 2503 -91 2169 -91 
Q 1331 -91 842 396 
Q 353 884 353 1716 
Q 353 2575 817 3079 
Q 1281 3584 2069 3584 
Q 2775 3584 3186 3129 
Q 3597 2675 3597 1894 
z
M 3022 2063 
Q 3016 2534 2758 2815 
Q 2500 3097 2075 3097 
Q 1594 3097 1305 2825 
Q 1016 2553 972 2059 
L 3022 2063 
z
" transform="scale(0.015625)"/>
      <path id="DejaVuSans-5f" d="M 3263 -1063 
L 3263 -1509 
L -63 -1509 
L -63 -1063 
L 3263 -1063 
z
" transform="scale(0.015625)"/>
      <path id="DejaVuSans-4f" d="M 2522 4238 
Q 1834 4238 1429 3725 
Q 1025 3213 1025 2328 
Q 1025 1447 1429 934 
Q 1834 422 2522 422 
Q 3209 422 3611 934 
Q 4013 1447 4013 2328 
Q 4013 3213 3611 3725 
Q 3209 4238 2522 4238 
z
M 2522 4750 
Q 3503 4750 4090 4092 
Q 4678 3434 4678 2328 
Q 4678 1225 4090 567 
Q 3503 -91 2522 -91 
Q 1538 -91 948 565 
Q 359 1222 359 2328 
Q 359 3434 948 4092 
Q 1538 4750 2522 4750 
z
" transform="scale(0.015625)"/>
      <path id="DejaVuSans-4c" d="M 628 4666 
L 1259 4666 
L 1259 531 
L 3531 531 
L 3531 0 
L 628 0 
L 628 4666 
z
" transform="scale(0.015625)"/>
      <path id="DejaVuSans-41" d="M 2188 4044 
L 1331 1722 
L 3047 1722 
L 2188 4044 
z
M 1831 4666 
L 2547 4666 
L 4325 0 
L 3669 0 
L 3244 1197 
L 1141 1197 
L 716 0 
L 50 0 
L 1831 4666 
z
" transform="scale(0.015625)"/>
      <path id="DejaVuSans-53" d="M 3425 4513 
L 3425 3897 
Q 3066 4069 2747 4153 
Q 2428 4238 2131 4238 
Q 1616 4238 1336 4038 
Q 1056 3838 1056 3469 
Q 1056 3159 1242 3001 
Q 1428 2844 1947 2747 
L 2328 2669 
Q 3034 2534 3370 2195 
Q 3706 1856 3706 1288 
Q 3706 609 3251 259 
Q 2797 -91 1919 -91 
Q 1588 -91 1214 -16 
Q 841 59 441 206 
L 441 856 
Q 825 641 1194 531 
Q 1563 422 1919 422 
Q 2459 422 2753 634 
Q 3047 847 3047 1241 
Q 3047 1584 2836 1778 
Q 2625 1972 2144 2069 
L 1759 2144 
Q 1053 2284 737 2584 
Q 422 2884 422 3419 
Q 422 4038 858 4394 
Q 1294 4750 2059 4750 
Q 2388 4750 2728 4690 
Q 3069 4631 3425 4513 
z
" transform="scale(0.015625)"/>
      <path id="DejaVuSans-50" d="M 1259 4147 
L 1259 2394 
L 2053 2394 
Q 2494 2394 2734 2622 
Q 2975 2850 2975 3272 
Q 2975 3691 2734 3919 
Q 2494 4147 2053 4147 
L 1259 4147 
z
M 628 4666 
L 2053 4666 
Q 2838 4666 3239 4311 
Q 3641 3956 3641 3272 
Q 3641 2581 3239 2228 
Q 2838 1875 2053 1875 
L 1259 1875 
L 1259 0 
L 628 0 
L 628 4666 
z
" transform="scale(0.015625)"/>
      <path id="DejaVuSans-2d" d="M 313 2009 
L 1997 2009 
L 1997 1497 
L 313 1497 
L 313 2009 
z
" transform="scale(0.015625)"/>
      <path id="DejaVuSans-64" d="M 2906 2969 
L 2906 4863 
L 3481 4863 
L 3481 0 
L 2906 0 
L 2906 525 
Q 2725 213 2448 61 
Q 2172 -91 1784 -91 
Q 1150 -91 751 415 
Q 353 922 353 1747 
Q 353 2572 751 3078 
Q 1150 3584 1784 3584 
Q 2172 3584 2448 3432 
Q 2725 3281 2906 2969 
z
M 947 1747 
Q 947 1113 1208 752 
Q 1469 391 1925 391 
Q 2381 391 2643 752 
Q 2906 1113 2906 1747 
Q 2906 2381 2643 2742 
Q 2381 3103 1925 3103 
Q 1469 3103 1208 2742 
Q 947 2381 947 1747 
z
" transform="scale(0.015625)"/>
     </defs>
     <use xlink:href="#DejaVuSans-49"/>
     <use xlink:href="#DejaVuSans-6e" x="29.492188"/>
     <use xlink:href="#DejaVuSans-73" x="92.871094"/>
     <use xlink:href="#DejaVuSans-74" x="144.970703"/>
     <use xlink:href="#DejaVuSans-61" x="184.179688"/>
     <use xlink:href="#DejaVuSans-6e" x="245.458984"/>
     <use xlink:href="#DejaVuSans-63" x="308.837891"/>
     <use xlink:href="#DejaVuSans-69" x="363.818359"/>
     <use xlink:href="#DejaVuSans-61" x="391.601562"/>
     <use xlink:href="#DejaVuSans-3a" x="452.880859"/>
     <use xlink:href="#DejaVuSans-20" x="486.572266"/>
     <use xlink:href="#DejaVuSans-2e" x="518.359375"/>
     <use xlink:href="#DejaVuSans-2e" x="550.146484"/>
     <use xlink:href="#DejaVuSans-2f" x="581.933594"/>
     <use xlink:href="#DejaVuSans-69" x="615.625"/>
     <use xlink:href="#DejaVuSans-6e" x="643.408203"/>
     <use xlink:href="#DejaVuSans-73" x="706.787109"/>
     <use xlink:href="#DejaVuSans-74" x="758.886719"/>
     <use xlink:href="#DejaVuSans-61" x="798.095703"/>
     <use xlink:href="#DejaVuSans-6e" x="859.375"/>
     <use xlink:href="#DejaVuSans-63" x="922.753906"/>
     <use xlink:href="#DejaVuSans-65" x="977.734375"/>
     <use xlink:href="#DejaVuSans-73" x="1039.257812"/>
     <use xlink:href="#DejaVuSans-5f" x="1091.357422"/>
     <use xlink:href="#DejaVuSans-4f" x="1141.357422"/>
     <use xlink:href="#DejaVuSans-4c" x="1220.068359"/>
     <use xlink:href="#DejaVuSans-32" x="1275.78125"/>
     <use xlink:href="#DejaVuSans-41" x="1339.404297"/>
     <use xlink:href="#DejaVuSans-2f" x="1407.8125"/>
     <use xlink:href="#DejaVuSans-31" x="1441.503906"/>
     <use xlink:href="#DejaVuSans-30" x="1505.126953"/>
     <use xlink:href="#DejaVuSans-78" x="1568.75"/>
     <use xlink:href="#DejaVuSans-31" x="1627.929688"/>
     <use xlink:href="#DejaVuSans-30" x="1691.552734"/>
     <use xlink:href="#DejaVuSans-2f" x="1755.175781"/>
     <use xlink:href="#DejaVuSans-53" x="1788.867188"/>
     <use xlink:href="#DejaVuSans-41" x="1854.21875"/>
     <use xlink:href="#DejaVuSans-50" x="1922.626953"/>
     <use xlink:href="#DejaVuSans-2d" x="1980.679688"/>
     <use xlink:href="#DejaVuSans-69" x="2016.763672"/>
     <use xlink:href="#DejaVuSans-6e" x="2044.546875"/>
     <use xlink:href="#DejaVuSans-73" x="2107.925781"/>
     <use xlink:href="#DejaVuSans-74" x="2160.025391"/>
     <use xlink:href="#DejaVuSans-5f" x="2199.234375"/>
     <use xlink:href="#DejaVuSans-30" x="2249.234375"/>
     <use xlink:href="#DejaVuSans-2e" x="2312.857422"/>
     <use xlink:href="#DejaVuSans-35" x="2344.644531"/>
     <use xlink:href="#DejaVuSans-5f" x="2408.267578"/>
     <use xlink:href="#DejaVuSans-31" x="2458.267578"/>
     <use xlink:href="#DejaVuSans-30" x="2521.890625"/>
     <use xlink:href="#DejaVuSans-78" x="2585.513672"/>
     <use xlink:href="#DejaVuSans-31" x="2644.693359"/>
     <use xlink:href="#DejaVuSans-30" x="2708.316406"/>
     <use xlink:href="#DejaVuSans-2e" x="2771.939453"/>
     <use xlink:href="#DejaVuSans-64" x="2803.726562"/>
     <use xlink:href="#DejaVuSans-61" x="2867.203125"/>
     <use xlink:href="#DejaVuSans-74" x="2928.482422"/>
    </g>
    <!-- Escala: 1:1000m -->
    <g transform="translate(186.042188 22.034625)scale(0.12 -0.12)">
     <defs>
      <path id="DejaVuSans-6c" d="M 603 4863 
L 1178 4863 
L 1178 0 
L 603 0 
L 603 4863 
z
" transform="scale(0.015625)"/>
     </defs>
     <use xlink:href="#DejaVuSans-45"/>
     <use xlink:href="#DejaVuSans-73" x="63.183594"/>
     <use xlink:href="#DejaVuSans-63" x="115.283203"/>
     <use xlink:href="#DejaVuSans-61" x="170.263672"/>
     <use xlink:href="#DejaVuSans-6c" x="231.542969"/>
     <use xlink:href="#DejaVuSans-61" x="259.326172"/>
     <use xlink:href="#DejaVuSans-3a" x="320.605469"/>
     <use xlink:href="#DejaVuSans-20" x="354.296875"/>
     <use xlink:href="#DejaVuSans-31" x="386.083984"/>
     <use xlink:href="#DejaVuSans-3a" x="449.707031"/>
     <use xlink:href="#DejaVuSans-31" x="483.398438"/>
     <use xlink:href="#DejaVuSans-30" x="547.021484"/>
     <use xlink:href="#DejaVuSans-30" x="610.644531"/>
     <use xlink:href="#DejaVuSans-30" x="674.267578"/>
     <use xlink:href="#DejaVuSans-6d" x="737.890625"/>
    </g>
    <!-- Alphas: 0.5E, 0.5C, 0M  -  Tempo: 7.11 s -->
    <g transform="translate(116.586562 35.472)scale(0.12 -0.12)">
     <defs>
      <path id="DejaVuSans-70" d="M 1159 525 
L 1159 -1331 
L 581 -1331 
L 581 3500 
L 1159 3500 
L 1159 2969 
Q 1341 3281 1617 3432 
Q 1894 3584 2278 3584 
Q 2916 3584 3314 3078 
Q 3713 2572 3713 1747 
Q 3713 922 3314 415 
Q 2916 -91 2278 -91 
Q 1894 -91 1617 61 
Q 1341 213 1159 525 
z
M 3116 1747 
Q 3116 2381 2855 2742 
Q 2594 3103 2138 3103 
Q 1681 3103 1420 2742 
Q 1159 2381 1159 1747 
Q 1159 1113 1420 752 
Q 1681 391 2138 391 
Q 2594 391 2855 752 
Q 3116 1113 3116 1747 
z
" transform="scale(0.015625)"/>
      <path id="DejaVuSans-68" d="M 3513 2113 
L 3513 0 
L 2938 0 
L 2938 2094 
Q 2938 2591 2744 2837 
Q 2550 3084 2163 3084 
Q 1697 3084 1428 2787 
Q 1159 2491 1159 1978 
L 1159 0 
L 581 0 
L 581 4863 
L 1159 4863 
L 1159 2956 
Q 1366 3272 1645 3428 
Q 1925 3584 2291 3584 
Q 2894 3584 3203 3211 
Q 3513 2838 3513 2113 
z
" transform="scale(0.015625)"/>
      <path id="DejaVuSans-2c" d="M 750 794 
L 1409 794 
L 1409 256 
L 897 -744 
L 494 -744 
L 750 256 
L 750 794 
z
" transform="scale(0.015625)"/>
      <path id="DejaVuSans-43" d="M 4122 4306 
L 4122 3641 
Q 3803 3938 3442 4084 
Q 3081 4231 2675 4231 
Q 1875 4231 1450 3742 
Q 1025 3253 1025 2328 
Q 1025 1406 1450 917 
Q 1875 428 2675 428 
Q 3081 428 3442 575 
Q 3803 722 4122 1019 
L 4122 359 
Q 3791 134 3420 21 
Q 3050 -91 2638 -91 
Q 1578 -91 968 557 
Q 359 1206 359 2328 
Q 359 3453 968 4101 
Q 1578 4750 2638 4750 
Q 3056 4750 3426 4639 
Q 3797 4528 4122 4306 
z
" transform="scale(0.015625)"/>
      <path id="DejaVuSans-4d" d="M 628 4666 
L 1569 4666 
L 2759 1491 
L 3956 4666 
L 4897 4666 
L 4897 0 
L 4281 0 
L 4281 4097 
L 3078 897 
L 2444 897 
L 1241 4097 
L 1241 0 
L 628 0 
L 628 4666 
z
" transform="scale(0.015625)"/>
      <path id="DejaVuSans-54" d="M -19 4666 
L 3928 4666 
L 3928 4134 
L 2272 4134 
L 2272 0 
L 1638 0 
L 1638 4134 
L -19 4134 
L -19 4666 
z
" transform="scale(0.015625)"/>
     </defs>
     <use xlink:href="#DejaVuSans-41"/>
     <use xlink:href="#DejaVuSans-6c" x="68.408203"/>
     <use xlink:href="#DejaVuSans-70" x="96.191406"/>
     <use xlink:href="#DejaVuSans-68" x="159.667969"/>
     <use xlink:href="#DejaVuSans-61" x="223.046875"/>
     <use xlink:href="#DejaVuSans-73" x="284.326172"/>
     <use xlink:href="#DejaVuSans-3a" x="336.425781"/>
     <use xlink:href="#DejaVuSans-20" x="370.117188"/>
     <use xlink:href="#DejaVuSans-30" x="401.904297"/>
     <use xlink:href="#DejaVuSans-2e" x="465.527344"/>
     <use xlink:href="#DejaVuSans-35" x="497.314453"/>
     <use xlink:href="#DejaVuSans-45" x="560.9375"/>
     <use xlink:href="#DejaVuSans-2c" x="624.121094"/>
     <use xlink:href="#DejaVuSans-20" x="655.908203"/>
     <use xlink:href="#DejaVuSans-30" x="687.695312"/>
     <use xlink:href="#DejaVuSans-2e" x="751.318359"/>
     <use xlink:href="#DejaVuSans-35" x="783.105469"/>
     <use xlink:href="#DejaVuSans-43" x="846.728516"/>
     <use xlink:href="#DejaVuSans-2c" x="916.552734"/>
     <use xlink:href="#DejaVuSans-20" x="948.339844"/>
     <use xlink:href="#DejaVuSans-30" x="980.126953"/>
     <use xlink:href="#DejaVuSans-4d" x="1043.75"/>
     <use xlink:href="#DejaVuSans-20" x="1130.029297"/>
     <use xlink:href="#DejaVuSans-20" x="1161.816406"/>
     <use xlink:href="#DejaVuSans-2d" x="1193.603516"/>
     <use xlink:href="#DejaVuSans-20" x="1229.6875"/>
     <use xlink:href="#DejaVuSans-20" x="1261.474609"/>
     <use xlink:href="#DejaVuSans-54" x="1293.261719"/>
     <use xlink:href="#DejaVuSans-65" x="1337.345703"/>
     <use xlink:href="#DejaVuSans-6d" x="1398.869141"/>
     <use xlink:href="#DejaVuSans-70" x="1496.28125"/>
     <use xlink:href="#DejaVuSans-6f" x="1559.757812"/>
     <use xlink:href="#DejaVuSans-3a" x="1620.939453"/>
     <use xlink:href="#DejaVuSans-20" x="1654.630859"/>
     <use xlink:href="#DejaVuSans-37" x="1686.417969"/>
     <use xlink:href="#DejaVuSans-2e" x="1750.041016"/>
     <use xlink:href="#DejaVuSans-31" x="1781.828125"/>
     <use xlink:href="#DejaVuSans-31" x="1845.451172"/>
     <use xlink:href="#DejaVuSans-20" x="1909.074219"/>
     <use xlink:href="#DejaVuSans-73" x="1940.861328"/>
    </g>
   </g>
   <g id="legend_1">
    <g id="patch_57">
     <path d="M 340.166875 93.506375 
L 407.72 93.506375 
Q 409.72 93.506375 409.72 91.506375 
L 409.72 48.472 
Q 409.72 46.472 407.72 46.472 
L 340.166875 46.472 
Q 338.166875 46.472 338.166875 48.472 
L 338.166875 91.506375 
Q 338.166875 93.506375 340.166875 93.506375 
z
" style="fill: #ffffff; opacity: 0.8; stroke: #cccccc; stroke-linejoin: miter"/>
    </g>
    <g id="patch_58">
     <path d="M 342.166875 58.070438 
L 362.166875 58.070438 
L 362.166875 51.070438 
L 342.166875 51.070438 
z
" style="fill: #ff0000; stroke: #ff0000; stroke-linejoin: miter"/>
    </g>
    <g id="text_18">
     <!-- S3 -->
     <g transform="translate(370.166875 58.070438)scale(0.1 -0.1)">
      <defs>
       <path id="DejaVuSans-33" d="M 2597 2516 
Q 3050 2419 3304 2112 
Q 3559 1806 3559 1356 
Q 3559 666 3084 287 
Q 2609 -91 1734 -91 
Q 1441 -91 1130 -33 
Q 819 25 488 141 
L 488 750 
Q 750 597 1062 519 
Q 1375 441 1716 441 
Q 2309 441 2620 675 
Q 2931 909 2931 1356 
Q 2931 1769 2642 2001 
Q 2353 2234 1838 2234 
L 1294 2234 
L 1294 2753 
L 1863 2753 
Q 2328 2753 2575 2939 
Q 2822 3125 2822 3475 
Q 2822 3834 2567 4026 
Q 2313 4219 1838 4219 
Q 1578 4219 1281 4162 
Q 984 4106 628 3988 
L 628 4550 
Q 988 4650 1302 4700 
Q 1616 4750 1894 4750 
Q 2613 4750 3031 4423 
Q 3450 4097 3450 3541 
Q 3450 3153 3228 2886 
Q 3006 2619 2597 2516 
z
" transform="scale(0.015625)"/>
      </defs>
      <use xlink:href="#DejaVuSans-53"/>
      <use xlink:href="#DejaVuSans-33" x="63.476562"/>
     </g>
    </g>
    <g id="patch_59">
     <path d="M 342.166875 72.748563 
L 362.166875 72.748563 
L 362.166875 65.748563 
L 342.166875 65.748563 
z
" style="fill: #0000ff; stroke: #0000ff; stroke-linejoin: miter"/>
    </g>
    <g id="text_19">
     <!-- S2CPro -->
     <g transform="translate(370.166875 72.748563)scale(0.1 -0.1)">
      <defs>
       <path id="DejaVuSans-72" d="M 2631 2963 
Q 2534 3019 2420 3045 
Q 2306 3072 2169 3072 
Q 1681 3072 1420 2755 
Q 1159 2438 1159 1844 
L 1159 0 
L 581 0 
L 581 3500 
L 1159 3500 
L 1159 2956 
Q 1341 3275 1631 3429 
Q 1922 3584 2338 3584 
Q 2397 3584 2469 3576 
Q 2541 3569 2628 3553 
L 2631 2963 
z
" transform="scale(0.015625)"/>
      </defs>
      <use xlink:href="#DejaVuSans-53"/>
      <use xlink:href="#DejaVuSans-32" x="63.476562"/>
      <use xlink:href="#DejaVuSans-43" x="127.099609"/>
      <use xlink:href="#DejaVuSans-50" x="196.923828"/>
      <use xlink:href="#DejaVuSans-72" x="255.476562"/>
      <use xlink:href="#DejaVuSans-6f" x="294.339844"/>
     </g>
    </g>
    <g id="patch_60">
     <path d="M 342.166875 87.426688 
L 362.166875 87.426688 
L 362.166875 80.426688 
L 342.166875 80.426688 
z
" style="fill: #008000; stroke: #008000; stroke-linejoin: miter"/>
    </g>
    <g id="text_20">
     <!-- S2C -->
     <g transform="translate(370.166875 87.426688)scale(0.1 -0.1)">
      <use xlink:href="#DejaVuSans-53"/>
      <use xlink:href="#DejaVuSans-32" x="63.476562"/>
      <use xlink:href="#DejaVuSans-43" x="127.099609"/>
     </g>
    </g>
   </g>
  </g>
 </g>
 <defs>
  <clipPath id="pf39f673745">
   <rect x="57.6" y="41.472" width="357.12" height="266.112"/>
  </clipPath>
 </defs>
</svg>
