<?xml version="1.0" encoding="utf-8" standalone="no"?>
<!DOCTYPE svg PUBLIC "-//W3C//DTD SVG 1.1//EN"
  "http://www.w3.org/Graphics/SVG/1.1/DTD/svg11.dtd">
<svg xmlns:xlink="http://www.w3.org/1999/xlink" width="460.8pt" height="345.6pt" viewBox="0 0 460.8 345.6" xmlns="http://www.w3.org/2000/svg" version="1.1">
 <metadata>
  <rdf:RDF xmlns:dc="http://purl.org/dc/elements/1.1/" xmlns:cc="http://creativecommons.org/ns#" xmlns:rdf="http://www.w3.org/1999/02/22-rdf-syntax-ns#">
   <cc:Work>
    <dc:type rdf:resource="http://purl.org/dc/dcmitype/StillImage"/>
    <dc:date>2023-07-17T23:10:04.496313</dc:date>
    <dc:format>image/svg+xml</dc:format>
    <dc:creator>
     <cc:Agent>
      <dc:title>Matplotlib v3.5.2, https://matplotlib.org/</dc:title>
     </cc:Agent>
    </dc:creator>
   </cc:Work>
  </rdf:RDF>
 </metadata>
 <defs>
  <style type="text/css">*{stroke-linejoin: round; stroke-linecap: butt}</style>
 </defs>
 <g id="figure_1">
  <g id="patch_1">
   <path d="M 0 345.6 
L 460.8 345.6 
L 460.8 0 
L 0 0 
z
" style="fill: #ffffff"/>
  </g>
  <g id="axes_1">
   <g id="patch_2">
    <path d="M 57.6 307.584 
L 414.72 307.584 
L 414.72 41.472 
L 57.6 41.472 
z
" style="fill: #ffffff"/>
   </g>
   <g id="patch_3">
    <path d="M 161.886316 253.045895 
C 179.89556 253.045895 197.169617 245.890746 209.904076 233.156287 
C 222.638535 220.421828 229.793684 203.147771 229.793684 185.138526 
C 229.793684 167.129282 222.638535 149.855225 209.904076 137.120766 
C 197.169617 124.386307 179.89556 117.231158 161.886316 117.231158 
C 143.877071 117.231158 126.603014 124.386307 113.868555 137.120766 
C 101.134096 149.855225 93.978947 167.129282 93.978947 185.138526 
C 93.978947 203.147771 101.134096 220.421828 113.868555 233.156287 
C 126.603014 245.890746 143.877071 253.045895 161.886316 253.045895 
z
" clip-path="url(#p8a8722deac)" style="fill: #0000ff; opacity: 0.1; stroke: #0000ff; stroke-linejoin: miter"/>
   </g>
   <g id="patch_4">
    <path d="M 183.107368 231.824842 
C 201.116613 231.824842 218.39067 224.669693 231.125129 211.935234 
C 243.859588 199.200775 251.014737 181.926718 251.014737 163.917474 
C 251.014737 145.908229 243.859588 128.634172 231.125129 115.899713 
C 218.39067 103.165254 201.116613 96.010105 183.107368 96.010105 
C 165.098124 96.010105 147.824067 103.165254 135.089608 115.899713 
C 122.355149 128.634172 115.2 145.908229 115.2 163.917474 
C 115.2 181.926718 122.355149 199.200775 135.089608 211.935234 
C 147.824067 224.669693 165.098124 231.824842 183.107368 231.824842 
z
" clip-path="url(#p8a8722deac)" style="fill: #0000ff; opacity: 0.1; stroke: #0000ff; stroke-linejoin: miter"/>
   </g>
   <g id="patch_5">
    <path d="M 183.107368 125.719579 
C 189.860835 125.719579 196.338607 123.036398 201.114029 118.260976 
C 205.889451 113.485554 208.572632 107.007783 208.572632 100.254316 
C 208.572632 93.500849 205.889451 87.023078 201.114029 82.247656 
C 196.338607 77.472233 189.860835 74.789053 183.107368 74.789053 
C 176.353902 74.789053 169.87613 77.472233 165.100708 82.247656 
C 160.325286 87.023078 157.642105 93.500849 157.642105 100.254316 
C 157.642105 107.007783 160.325286 113.485554 165.100708 118.260976 
C 169.87613 123.036398 176.353902 125.719579 183.107368 125.719579 
z
" clip-path="url(#p8a8722deac)" style="fill: #008000; opacity: 0.1; stroke: #008000; stroke-linejoin: miter"/>
   </g>
   <g id="patch_6">
    <path d="M 183.107368 104.498526 
C 189.860835 104.498526 196.338607 101.815346 201.114029 97.039923 
C 205.889451 92.264501 208.572632 85.78673 208.572632 79.033263 
C 208.572632 72.279796 205.889451 65.802025 201.114029 61.026603 
C 196.338607 56.251181 189.860835 53.568 183.107368 53.568 
C 176.353902 53.568 169.87613 56.251181 165.100708 61.026603 
C 160.325286 65.802025 157.642105 72.279796 157.642105 79.033263 
C 157.642105 85.78673 160.325286 92.264501 165.100708 97.039923 
C 169.87613 101.815346 176.353902 104.498526 183.107368 104.498526 
z
" clip-path="url(#p8a8722deac)" style="fill: #008000; opacity: 0.1; stroke: #008000; stroke-linejoin: miter"/>
   </g>
   <g id="patch_7">
    <path d="M 204.328421 295.488 
C 211.081888 295.488 217.559659 292.804819 222.335081 288.029397 
C 227.110503 283.253975 229.793684 276.776204 229.793684 270.022737 
C 229.793684 263.26927 227.110503 256.791499 222.335081 252.016077 
C 217.559659 247.240654 211.081888 244.557474 204.328421 244.557474 
C 197.574954 244.557474 191.097183 247.240654 186.321761 252.016077 
C 181.546339 256.791499 178.863158 263.26927 178.863158 270.022737 
C 178.863158 276.776204 181.546339 283.253975 186.321761 288.029397 
C 191.097183 292.804819 197.574954 295.488 204.328421 295.488 
z
" clip-path="url(#p8a8722deac)" style="fill: #008000; opacity: 0.1; stroke: #008000; stroke-linejoin: miter"/>
   </g>
   <g id="patch_8">
    <path d="M 204.328421 210.603789 
C 211.081888 210.603789 217.559659 207.920609 222.335081 203.145187 
C 227.110503 198.369764 229.793684 191.891993 229.793684 185.138526 
C 229.793684 178.38506 227.110503 171.907288 222.335081 167.131866 
C 217.559659 162.356444 211.081888 159.673263 204.328421 159.673263 
C 197.574954 159.673263 191.097183 162.356444 186.321761 167.131866 
C 181.546339 171.907288 178.863158 178.38506 178.863158 185.138526 
C 178.863158 191.891993 181.546339 198.369764 186.321761 203.145187 
C 191.097183 207.920609 197.574954 210.603789 204.328421 210.603789 
z
" clip-path="url(#p8a8722deac)" style="fill: #008000; opacity: 0.1; stroke: #008000; stroke-linejoin: miter"/>
   </g>
   <g id="patch_9">
    <path d="M 204.328421 125.719579 
C 211.081888 125.719579 217.559659 123.036398 222.335081 118.260976 
C 227.110503 113.485554 229.793684 107.007783 229.793684 100.254316 
C 229.793684 93.500849 227.110503 87.023078 222.335081 82.247656 
C 217.559659 77.472233 211.081888 74.789053 204.328421 74.789053 
C 197.574954 74.789053 191.097183 77.472233 186.321761 82.247656 
C 181.546339 87.023078 178.863158 93.500849 178.863158 100.254316 
C 178.863158 107.007783 181.546339 113.485554 186.321761 118.260976 
C 191.097183 123.036398 197.574954 125.719579 204.328421 125.719579 
z
" clip-path="url(#p8a8722deac)" style="fill: #008000; opacity: 0.1; stroke: #008000; stroke-linejoin: miter"/>
   </g>
   <g id="patch_10">
    <path d="M 225.549474 295.488 
C 232.30294 295.488 238.780712 292.804819 243.556134 288.029397 
C 248.331556 283.253975 251.014737 276.776204 251.014737 270.022737 
C 251.014737 263.26927 248.331556 256.791499 243.556134 252.016077 
C 238.780712 247.240654 232.30294 244.557474 225.549474 244.557474 
C 218.796007 244.557474 212.318236 247.240654 207.542813 252.016077 
C 202.767391 256.791499 200.084211 263.26927 200.084211 270.022737 
C 200.084211 276.776204 202.767391 283.253975 207.542813 288.029397 
C 212.318236 292.804819 218.796007 295.488 225.549474 295.488 
z
" clip-path="url(#p8a8722deac)" style="fill: #008000; opacity: 0.1; stroke: #008000; stroke-linejoin: miter"/>
   </g>
   <g id="patch_11">
    <path d="M 225.549474 274.266947 
C 232.30294 274.266947 238.780712 271.583767 243.556134 266.808344 
C 248.331556 262.032922 251.014737 255.555151 251.014737 248.801684 
C 251.014737 242.048217 248.331556 235.570446 243.556134 230.795024 
C 238.780712 226.019602 232.30294 223.336421 225.549474 223.336421 
C 218.796007 223.336421 212.318236 226.019602 207.542813 230.795024 
C 202.767391 235.570446 200.084211 242.048217 200.084211 248.801684 
C 200.084211 255.555151 202.767391 262.032922 207.542813 266.808344 
C 212.318236 271.583767 218.796007 274.266947 225.549474 274.266947 
z
" clip-path="url(#p8a8722deac)" style="fill: #008000; opacity: 0.1; stroke: #008000; stroke-linejoin: miter"/>
   </g>
   <g id="patch_12">
    <path d="M 225.549474 253.045895 
C 232.30294 253.045895 238.780712 250.362714 243.556134 245.587292 
C 248.331556 240.81187 251.014737 234.334098 251.014737 227.580632 
C 251.014737 220.827165 248.331556 214.349393 243.556134 209.573971 
C 238.780712 204.798549 232.30294 202.115368 225.549474 202.115368 
C 218.796007 202.115368 212.318236 204.798549 207.542813 209.573971 
C 202.767391 214.349393 200.084211 220.827165 200.084211 227.580632 
C 200.084211 234.334098 202.767391 240.81187 207.542813 245.587292 
C 212.318236 250.362714 218.796007 253.045895 225.549474 253.045895 
z
" clip-path="url(#p8a8722deac)" style="fill: #008000; opacity: 0.1; stroke: #008000; stroke-linejoin: miter"/>
   </g>
   <g id="patch_13">
    <path d="M 225.549474 231.824842 
C 232.30294 231.824842 238.780712 229.141661 243.556134 224.366239 
C 248.331556 219.590817 251.014737 213.113046 251.014737 206.359579 
C 251.014737 199.606112 248.331556 193.128341 243.556134 188.352919 
C 238.780712 183.577497 232.30294 180.894316 225.549474 180.894316 
C 218.796007 180.894316 212.318236 183.577497 207.542813 188.352919 
C 202.767391 193.128341 200.084211 199.606112 200.084211 206.359579 
C 200.084211 213.113046 202.767391 219.590817 207.542813 224.366239 
C 212.318236 229.141661 218.796007 231.824842 225.549474 231.824842 
z
" clip-path="url(#p8a8722deac)" style="fill: #008000; opacity: 0.1; stroke: #008000; stroke-linejoin: miter"/>
   </g>
   <g id="patch_14">
    <path d="M 225.549474 210.603789 
C 232.30294 210.603789 238.780712 207.920609 243.556134 203.145187 
C 248.331556 198.369764 251.014737 191.891993 251.014737 185.138526 
C 251.014737 178.38506 248.331556 171.907288 243.556134 167.131866 
C 238.780712 162.356444 232.30294 159.673263 225.549474 159.673263 
C 218.796007 159.673263 212.318236 162.356444 207.542813 167.131866 
C 202.767391 171.907288 200.084211 178.38506 200.084211 185.138526 
C 200.084211 191.891993 202.767391 198.369764 207.542813 203.145187 
C 212.318236 207.920609 218.796007 210.603789 225.549474 210.603789 
z
" clip-path="url(#p8a8722deac)" style="fill: #008000; opacity: 0.1; stroke: #008000; stroke-linejoin: miter"/>
   </g>
   <g id="patch_15">
    <path d="M 225.549474 210.603789 
C 243.558718 210.603789 260.832775 203.448641 273.567234 190.714182 
C 286.301693 177.979723 293.456842 160.705666 293.456842 142.696421 
C 293.456842 124.687176 286.301693 107.413119 273.567234 94.67866 
C 260.832775 81.944201 243.558718 74.789053 225.549474 74.789053 
C 207.540229 74.789053 190.266172 81.944201 177.531713 94.67866 
C 164.797254 107.413119 157.642105 124.687176 157.642105 142.696421 
C 157.642105 160.705666 164.797254 177.979723 177.531713 190.714182 
C 190.266172 203.448641 207.540229 210.603789 225.549474 210.603789 
z
" clip-path="url(#p8a8722deac)" style="fill: #0000ff; opacity: 0.1; stroke: #0000ff; stroke-linejoin: miter"/>
   </g>
   <g id="patch_16">
    <path d="M 225.549474 125.719579 
C 232.30294 125.719579 238.780712 123.036398 243.556134 118.260976 
C 248.331556 113.485554 251.014737 107.007783 251.014737 100.254316 
C 251.014737 93.500849 248.331556 87.023078 243.556134 82.247656 
C 238.780712 77.472233 232.30294 74.789053 225.549474 74.789053 
C 218.796007 74.789053 212.318236 77.472233 207.542813 82.247656 
C 202.767391 87.023078 200.084211 93.500849 200.084211 100.254316 
C 200.084211 107.007783 202.767391 113.485554 207.542813 118.260976 
C 212.318236 123.036398 218.796007 125.719579 225.549474 125.719579 
z
" clip-path="url(#p8a8722deac)" style="fill: #008000; opacity: 0.1; stroke: #008000; stroke-linejoin: miter"/>
   </g>
   <g id="patch_17">
    <path d="M 225.549474 104.498526 
C 232.30294 104.498526 238.780712 101.815346 243.556134 97.039923 
C 248.331556 92.264501 251.014737 85.78673 251.014737 79.033263 
C 251.014737 72.279796 248.331556 65.802025 243.556134 61.026603 
C 238.780712 56.251181 232.30294 53.568 225.549474 53.568 
C 218.796007 53.568 212.318236 56.251181 207.542813 61.026603 
C 202.767391 65.802025 200.084211 72.279796 200.084211 79.033263 
C 200.084211 85.78673 202.767391 92.264501 207.542813 97.039923 
C 212.318236 101.815346 218.796007 104.498526 225.549474 104.498526 
z
" clip-path="url(#p8a8722deac)" style="fill: #008000; opacity: 0.1; stroke: #008000; stroke-linejoin: miter"/>
   </g>
   <g id="patch_18">
    <path d="M 246.770526 295.488 
C 253.523993 295.488 260.001764 292.804819 264.777187 288.029397 
C 269.552609 283.253975 272.235789 276.776204 272.235789 270.022737 
C 272.235789 263.26927 269.552609 256.791499 264.777187 252.016077 
C 260.001764 247.240654 253.523993 244.557474 246.770526 244.557474 
C 240.01706 244.557474 233.539288 247.240654 228.763866 252.016077 
C 223.988444 256.791499 221.305263 263.26927 221.305263 270.022737 
C 221.305263 276.776204 223.988444 283.253975 228.763866 288.029397 
C 233.539288 292.804819 240.01706 295.488 246.770526 295.488 
z
" clip-path="url(#p8a8722deac)" style="fill: #008000; opacity: 0.1; stroke: #008000; stroke-linejoin: miter"/>
   </g>
   <g id="patch_19">
    <path d="M 246.770526 274.266947 
C 253.523993 274.266947 260.001764 271.583767 264.777187 266.808344 
C 269.552609 262.032922 272.235789 255.555151 272.235789 248.801684 
C 272.235789 242.048217 269.552609 235.570446 264.777187 230.795024 
C 260.001764 226.019602 253.523993 223.336421 246.770526 223.336421 
C 240.01706 223.336421 233.539288 226.019602 228.763866 230.795024 
C 223.988444 235.570446 221.305263 242.048217 221.305263 248.801684 
C 221.305263 255.555151 223.988444 262.032922 228.763866 266.808344 
C 233.539288 271.583767 240.01706 274.266947 246.770526 274.266947 
z
" clip-path="url(#p8a8722deac)" style="fill: #008000; opacity: 0.1; stroke: #008000; stroke-linejoin: miter"/>
   </g>
   <g id="patch_20">
    <path d="M 246.770526 210.603789 
C 253.523993 210.603789 260.001764 207.920609 264.777187 203.145187 
C 269.552609 198.369764 272.235789 191.891993 272.235789 185.138526 
C 272.235789 178.38506 269.552609 171.907288 264.777187 167.131866 
C 260.001764 162.356444 253.523993 159.673263 246.770526 159.673263 
C 240.01706 159.673263 233.539288 162.356444 228.763866 167.131866 
C 223.988444 171.907288 221.305263 178.38506 221.305263 185.138526 
C 221.305263 191.891993 223.988444 198.369764 228.763866 203.145187 
C 233.539288 207.920609 240.01706 210.603789 246.770526 210.603789 
z
" clip-path="url(#p8a8722deac)" style="fill: #008000; opacity: 0.1; stroke: #008000; stroke-linejoin: miter"/>
   </g>
   <g id="patch_21">
    <path d="M 246.770526 125.719579 
C 253.523993 125.719579 260.001764 123.036398 264.777187 118.260976 
C 269.552609 113.485554 272.235789 107.007783 272.235789 100.254316 
C 272.235789 93.500849 269.552609 87.023078 264.777187 82.247656 
C 260.001764 77.472233 253.523993 74.789053 246.770526 74.789053 
C 240.01706 74.789053 233.539288 77.472233 228.763866 82.247656 
C 223.988444 87.023078 221.305263 93.500849 221.305263 100.254316 
C 221.305263 107.007783 223.988444 113.485554 228.763866 118.260976 
C 233.539288 123.036398 240.01706 125.719579 246.770526 125.719579 
z
" clip-path="url(#p8a8722deac)" style="fill: #008000; opacity: 0.1; stroke: #008000; stroke-linejoin: miter"/>
   </g>
   <g id="patch_22">
    <path d="M 267.991579 295.488 
C 274.745046 295.488 281.222817 292.804819 285.998239 288.029397 
C 290.773661 283.253975 293.456842 276.776204 293.456842 270.022737 
C 293.456842 263.26927 290.773661 256.791499 285.998239 252.016077 
C 281.222817 247.240654 274.745046 244.557474 267.991579 244.557474 
C 261.238112 244.557474 254.760341 247.240654 249.984919 252.016077 
C 245.209497 256.791499 242.526316 263.26927 242.526316 270.022737 
C 242.526316 276.776204 245.209497 283.253975 249.984919 288.029397 
C 254.760341 292.804819 261.238112 295.488 267.991579 295.488 
z
" clip-path="url(#p8a8722deac)" style="fill: #008000; opacity: 0.1; stroke: #008000; stroke-linejoin: miter"/>
   </g>
   <g id="patch_23">
    <path d="M 267.991579 274.266947 
C 274.745046 274.266947 281.222817 271.583767 285.998239 266.808344 
C 290.773661 262.032922 293.456842 255.555151 293.456842 248.801684 
C 293.456842 242.048217 290.773661 235.570446 285.998239 230.795024 
C 281.222817 226.019602 274.745046 223.336421 267.991579 223.336421 
C 261.238112 223.336421 254.760341 226.019602 249.984919 230.795024 
C 245.209497 235.570446 242.526316 242.048217 242.526316 248.801684 
C 242.526316 255.555151 245.209497 262.032922 249.984919 266.808344 
C 254.760341 271.583767 261.238112 274.266947 267.991579 274.266947 
z
" clip-path="url(#p8a8722deac)" style="fill: #008000; opacity: 0.1; stroke: #008000; stroke-linejoin: miter"/>
   </g>
   <g id="patch_24">
    <path d="M 267.991579 253.045895 
C 274.745046 253.045895 281.222817 250.362714 285.998239 245.587292 
C 290.773661 240.81187 293.456842 234.334098 293.456842 227.580632 
C 293.456842 220.827165 290.773661 214.349393 285.998239 209.573971 
C 281.222817 204.798549 274.745046 202.115368 267.991579 202.115368 
C 261.238112 202.115368 254.760341 204.798549 249.984919 209.573971 
C 245.209497 214.349393 242.526316 220.827165 242.526316 227.580632 
C 242.526316 234.334098 245.209497 240.81187 249.984919 245.587292 
C 254.760341 250.362714 261.238112 253.045895 267.991579 253.045895 
z
" clip-path="url(#p8a8722deac)" style="fill: #008000; opacity: 0.1; stroke: #008000; stroke-linejoin: miter"/>
   </g>
   <g id="patch_25">
    <path d="M 267.991579 231.824842 
C 274.745046 231.824842 281.222817 229.141661 285.998239 224.366239 
C 290.773661 219.590817 293.456842 213.113046 293.456842 206.359579 
C 293.456842 199.606112 290.773661 193.128341 285.998239 188.352919 
C 281.222817 183.577497 274.745046 180.894316 267.991579 180.894316 
C 261.238112 180.894316 254.760341 183.577497 249.984919 188.352919 
C 245.209497 193.128341 242.526316 199.606112 242.526316 206.359579 
C 242.526316 213.113046 245.209497 219.590817 249.984919 224.366239 
C 254.760341 229.141661 261.238112 231.824842 267.991579 231.824842 
z
" clip-path="url(#p8a8722deac)" style="fill: #008000; opacity: 0.1; stroke: #008000; stroke-linejoin: miter"/>
   </g>
   <g id="patch_26">
    <path d="M 267.991579 210.603789 
C 274.745046 210.603789 281.222817 207.920609 285.998239 203.145187 
C 290.773661 198.369764 293.456842 191.891993 293.456842 185.138526 
C 293.456842 178.38506 290.773661 171.907288 285.998239 167.131866 
C 281.222817 162.356444 274.745046 159.673263 267.991579 159.673263 
C 261.238112 159.673263 254.760341 162.356444 249.984919 167.131866 
C 245.209497 171.907288 242.526316 178.38506 242.526316 185.138526 
C 242.526316 191.891993 245.209497 198.369764 249.984919 203.145187 
C 254.760341 207.920609 261.238112 210.603789 267.991579 210.603789 
z
" clip-path="url(#p8a8722deac)" style="fill: #008000; opacity: 0.1; stroke: #008000; stroke-linejoin: miter"/>
   </g>
   <g id="patch_27">
    <path d="M 267.991579 189.382737 
C 274.745046 189.382737 281.222817 186.699556 285.998239 181.924134 
C 290.773661 177.148712 293.456842 170.67094 293.456842 163.917474 
C 293.456842 157.164007 290.773661 150.686236 285.998239 145.910813 
C 281.222817 141.135391 274.745046 138.452211 267.991579 138.452211 
C 261.238112 138.452211 254.760341 141.135391 249.984919 145.910813 
C 245.209497 150.686236 242.526316 157.164007 242.526316 163.917474 
C 242.526316 170.67094 245.209497 177.148712 249.984919 181.924134 
C 254.760341 186.699556 261.238112 189.382737 267.991579 189.382737 
z
" clip-path="url(#p8a8722deac)" style="fill: #008000; opacity: 0.1; stroke: #008000; stroke-linejoin: miter"/>
   </g>
   <g id="patch_28">
    <path d="M 267.991579 146.940632 
C 274.745046 146.940632 281.222817 144.257451 285.998239 139.482029 
C 290.773661 134.706607 293.456842 128.228835 293.456842 121.475368 
C 293.456842 114.721902 290.773661 108.24413 285.998239 103.468708 
C 281.222817 98.693286 274.745046 96.010105 267.991579 96.010105 
C 261.238112 96.010105 254.760341 98.693286 249.984919 103.468708 
C 245.209497 108.24413 242.526316 114.721902 242.526316 121.475368 
C 242.526316 128.228835 245.209497 134.706607 249.984919 139.482029 
C 254.760341 144.257451 261.238112 146.940632 267.991579 146.940632 
z
" clip-path="url(#p8a8722deac)" style="fill: #008000; opacity: 0.1; stroke: #008000; stroke-linejoin: miter"/>
   </g>
   <g id="patch_29">
    <path d="M 267.991579 125.719579 
C 274.745046 125.719579 281.222817 123.036398 285.998239 118.260976 
C 290.773661 113.485554 293.456842 107.007783 293.456842 100.254316 
C 293.456842 93.500849 290.773661 87.023078 285.998239 82.247656 
C 281.222817 77.472233 274.745046 74.789053 267.991579 74.789053 
C 261.238112 74.789053 254.760341 77.472233 249.984919 82.247656 
C 245.209497 87.023078 242.526316 93.500849 242.526316 100.254316 
C 242.526316 107.007783 245.209497 113.485554 249.984919 118.260976 
C 254.760341 123.036398 261.238112 125.719579 267.991579 125.719579 
z
" clip-path="url(#p8a8722deac)" style="fill: #008000; opacity: 0.1; stroke: #008000; stroke-linejoin: miter"/>
   </g>
   <g id="patch_30">
    <path d="M 267.991579 104.498526 
C 274.745046 104.498526 281.222817 101.815346 285.998239 97.039923 
C 290.773661 92.264501 293.456842 85.78673 293.456842 79.033263 
C 293.456842 72.279796 290.773661 65.802025 285.998239 61.026603 
C 281.222817 56.251181 274.745046 53.568 267.991579 53.568 
C 261.238112 53.568 254.760341 56.251181 249.984919 61.026603 
C 245.209497 65.802025 242.526316 72.279796 242.526316 79.033263 
C 242.526316 85.78673 245.209497 92.264501 249.984919 97.039923 
C 254.760341 101.815346 261.238112 104.498526 267.991579 104.498526 
z
" clip-path="url(#p8a8722deac)" style="fill: #008000; opacity: 0.1; stroke: #008000; stroke-linejoin: miter"/>
   </g>
   <g id="patch_31">
    <path d="M 289.212632 295.488 
C 295.966098 295.488 302.44387 292.804819 307.219292 288.029397 
C 311.994714 283.253975 314.677895 276.776204 314.677895 270.022737 
C 314.677895 263.26927 311.994714 256.791499 307.219292 252.016077 
C 302.44387 247.240654 295.966098 244.557474 289.212632 244.557474 
C 282.459165 244.557474 275.981393 247.240654 271.205971 252.016077 
C 266.430549 256.791499 263.747368 263.26927 263.747368 270.022737 
C 263.747368 276.776204 266.430549 283.253975 271.205971 288.029397 
C 275.981393 292.804819 282.459165 295.488 289.212632 295.488 
z
" clip-path="url(#p8a8722deac)" style="fill: #008000; opacity: 0.1; stroke: #008000; stroke-linejoin: miter"/>
   </g>
   <g id="patch_32">
    <path d="M 289.212632 274.266947 
C 295.966098 274.266947 302.44387 271.583767 307.219292 266.808344 
C 311.994714 262.032922 314.677895 255.555151 314.677895 248.801684 
C 314.677895 242.048217 311.994714 235.570446 307.219292 230.795024 
C 302.44387 226.019602 295.966098 223.336421 289.212632 223.336421 
C 282.459165 223.336421 275.981393 226.019602 271.205971 230.795024 
C 266.430549 235.570446 263.747368 242.048217 263.747368 248.801684 
C 263.747368 255.555151 266.430549 262.032922 271.205971 266.808344 
C 275.981393 271.583767 282.459165 274.266947 289.212632 274.266947 
z
" clip-path="url(#p8a8722deac)" style="fill: #008000; opacity: 0.1; stroke: #008000; stroke-linejoin: miter"/>
   </g>
   <g id="patch_33">
    <path d="M 289.212632 231.824842 
C 295.966098 231.824842 302.44387 229.141661 307.219292 224.366239 
C 311.994714 219.590817 314.677895 213.113046 314.677895 206.359579 
C 314.677895 199.606112 311.994714 193.128341 307.219292 188.352919 
C 302.44387 183.577497 295.966098 180.894316 289.212632 180.894316 
C 282.459165 180.894316 275.981393 183.577497 271.205971 188.352919 
C 266.430549 193.128341 263.747368 199.606112 263.747368 206.359579 
C 263.747368 213.113046 266.430549 219.590817 271.205971 224.366239 
C 275.981393 229.141661 282.459165 231.824842 289.212632 231.824842 
z
" clip-path="url(#p8a8722deac)" style="fill: #008000; opacity: 0.1; stroke: #008000; stroke-linejoin: miter"/>
   </g>
   <g id="patch_34">
    <path d="M 289.212632 210.603789 
C 295.966098 210.603789 302.44387 207.920609 307.219292 203.145187 
C 311.994714 198.369764 314.677895 191.891993 314.677895 185.138526 
C 314.677895 178.38506 311.994714 171.907288 307.219292 167.131866 
C 302.44387 162.356444 295.966098 159.673263 289.212632 159.673263 
C 282.459165 159.673263 275.981393 162.356444 271.205971 167.131866 
C 266.430549 171.907288 263.747368 178.38506 263.747368 185.138526 
C 263.747368 191.891993 266.430549 198.369764 271.205971 203.145187 
C 275.981393 207.920609 282.459165 210.603789 289.212632 210.603789 
z
" clip-path="url(#p8a8722deac)" style="fill: #008000; opacity: 0.1; stroke: #008000; stroke-linejoin: miter"/>
   </g>
   <g id="patch_35">
    <path d="M 289.212632 189.382737 
C 295.966098 189.382737 302.44387 186.699556 307.219292 181.924134 
C 311.994714 177.148712 314.677895 170.67094 314.677895 163.917474 
C 314.677895 157.164007 311.994714 150.686236 307.219292 145.910813 
C 302.44387 141.135391 295.966098 138.452211 289.212632 138.452211 
C 282.459165 138.452211 275.981393 141.135391 271.205971 145.910813 
C 266.430549 150.686236 263.747368 157.164007 263.747368 163.917474 
C 263.747368 170.67094 266.430549 177.148712 271.205971 181.924134 
C 275.981393 186.699556 282.459165 189.382737 289.212632 189.382737 
z
" clip-path="url(#p8a8722deac)" style="fill: #008000; opacity: 0.1; stroke: #008000; stroke-linejoin: miter"/>
   </g>
   <g id="patch_36">
    <path d="M 289.212632 146.940632 
C 295.966098 146.940632 302.44387 144.257451 307.219292 139.482029 
C 311.994714 134.706607 314.677895 128.228835 314.677895 121.475368 
C 314.677895 114.721902 311.994714 108.24413 307.219292 103.468708 
C 302.44387 98.693286 295.966098 96.010105 289.212632 96.010105 
C 282.459165 96.010105 275.981393 98.693286 271.205971 103.468708 
C 266.430549 108.24413 263.747368 114.721902 263.747368 121.475368 
C 263.747368 128.228835 266.430549 134.706607 271.205971 139.482029 
C 275.981393 144.257451 282.459165 146.940632 289.212632 146.940632 
z
" clip-path="url(#p8a8722deac)" style="fill: #008000; opacity: 0.1; stroke: #008000; stroke-linejoin: miter"/>
   </g>
   <g id="patch_37">
    <path d="M 289.212632 125.719579 
C 295.966098 125.719579 302.44387 123.036398 307.219292 118.260976 
C 311.994714 113.485554 314.677895 107.007783 314.677895 100.254316 
C 314.677895 93.500849 311.994714 87.023078 307.219292 82.247656 
C 302.44387 77.472233 295.966098 74.789053 289.212632 74.789053 
C 282.459165 74.789053 275.981393 77.472233 271.205971 82.247656 
C 266.430549 87.023078 263.747368 93.500849 263.747368 100.254316 
C 263.747368 107.007783 266.430549 113.485554 271.205971 118.260976 
C 275.981393 123.036398 282.459165 125.719579 289.212632 125.719579 
z
" clip-path="url(#p8a8722deac)" style="fill: #008000; opacity: 0.1; stroke: #008000; stroke-linejoin: miter"/>
   </g>
   <g id="patch_38">
    <path d="M 289.212632 104.498526 
C 295.966098 104.498526 302.44387 101.815346 307.219292 97.039923 
C 311.994714 92.264501 314.677895 85.78673 314.677895 79.033263 
C 314.677895 72.279796 311.994714 65.802025 307.219292 61.026603 
C 302.44387 56.251181 295.966098 53.568 289.212632 53.568 
C 282.459165 53.568 275.981393 56.251181 271.205971 61.026603 
C 266.430549 65.802025 263.747368 72.279796 263.747368 79.033263 
C 263.747368 85.78673 266.430549 92.264501 271.205971 97.039923 
C 275.981393 101.815346 282.459165 104.498526 289.212632 104.498526 
z
" clip-path="url(#p8a8722deac)" style="fill: #008000; opacity: 0.1; stroke: #008000; stroke-linejoin: miter"/>
   </g>
   <g id="patch_39">
    <path d="M 310.433684 295.488 
C 317.187151 295.488 323.664922 292.804819 328.440344 288.029397 
C 333.215767 283.253975 335.898947 276.776204 335.898947 270.022737 
C 335.898947 263.26927 333.215767 256.791499 328.440344 252.016077 
C 323.664922 247.240654 317.187151 244.557474 310.433684 244.557474 
C 303.680217 244.557474 297.202446 247.240654 292.427024 252.016077 
C 287.651602 256.791499 284.968421 263.26927 284.968421 270.022737 
C 284.968421 276.776204 287.651602 283.253975 292.427024 288.029397 
C 297.202446 292.804819 303.680217 295.488 310.433684 295.488 
z
" clip-path="url(#p8a8722deac)" style="fill: #008000; opacity: 0.1; stroke: #008000; stroke-linejoin: miter"/>
   </g>
   <g id="patch_40">
    <path d="M 310.433684 274.266947 
C 317.187151 274.266947 323.664922 271.583767 328.440344 266.808344 
C 333.215767 262.032922 335.898947 255.555151 335.898947 248.801684 
C 335.898947 242.048217 333.215767 235.570446 328.440344 230.795024 
C 323.664922 226.019602 317.187151 223.336421 310.433684 223.336421 
C 303.680217 223.336421 297.202446 226.019602 292.427024 230.795024 
C 287.651602 235.570446 284.968421 242.048217 284.968421 248.801684 
C 284.968421 255.555151 287.651602 262.032922 292.427024 266.808344 
C 297.202446 271.583767 303.680217 274.266947 310.433684 274.266947 
z
" clip-path="url(#p8a8722deac)" style="fill: #008000; opacity: 0.1; stroke: #008000; stroke-linejoin: miter"/>
   </g>
   <g id="patch_41">
    <path d="M 310.433684 253.045895 
C 317.187151 253.045895 323.664922 250.362714 328.440344 245.587292 
C 333.215767 240.81187 335.898947 234.334098 335.898947 227.580632 
C 335.898947 220.827165 333.215767 214.349393 328.440344 209.573971 
C 323.664922 204.798549 317.187151 202.115368 310.433684 202.115368 
C 303.680217 202.115368 297.202446 204.798549 292.427024 209.573971 
C 287.651602 214.349393 284.968421 220.827165 284.968421 227.580632 
C 284.968421 234.334098 287.651602 240.81187 292.427024 245.587292 
C 297.202446 250.362714 303.680217 253.045895 310.433684 253.045895 
z
" clip-path="url(#p8a8722deac)" style="fill: #008000; opacity: 0.1; stroke: #008000; stroke-linejoin: miter"/>
   </g>
   <g id="patch_42">
    <path d="M 310.433684 231.824842 
C 317.187151 231.824842 323.664922 229.141661 328.440344 224.366239 
C 333.215767 219.590817 335.898947 213.113046 335.898947 206.359579 
C 335.898947 199.606112 333.215767 193.128341 328.440344 188.352919 
C 323.664922 183.577497 317.187151 180.894316 310.433684 180.894316 
C 303.680217 180.894316 297.202446 183.577497 292.427024 188.352919 
C 287.651602 193.128341 284.968421 199.606112 284.968421 206.359579 
C 284.968421 213.113046 287.651602 219.590817 292.427024 224.366239 
C 297.202446 229.141661 303.680217 231.824842 310.433684 231.824842 
z
" clip-path="url(#p8a8722deac)" style="fill: #008000; opacity: 0.1; stroke: #008000; stroke-linejoin: miter"/>
   </g>
   <g id="patch_43">
    <path d="M 310.433684 189.382737 
C 317.187151 189.382737 323.664922 186.699556 328.440344 181.924134 
C 333.215767 177.148712 335.898947 170.67094 335.898947 163.917474 
C 335.898947 157.164007 333.215767 150.686236 328.440344 145.910813 
C 323.664922 141.135391 317.187151 138.452211 310.433684 138.452211 
C 303.680217 138.452211 297.202446 141.135391 292.427024 145.910813 
C 287.651602 150.686236 284.968421 157.164007 284.968421 163.917474 
C 284.968421 170.67094 287.651602 177.148712 292.427024 181.924134 
C 297.202446 186.699556 303.680217 189.382737 310.433684 189.382737 
z
" clip-path="url(#p8a8722deac)" style="fill: #008000; opacity: 0.1; stroke: #008000; stroke-linejoin: miter"/>
   </g>
   <g id="patch_44">
    <path d="M 310.433684 125.719579 
C 317.187151 125.719579 323.664922 123.036398 328.440344 118.260976 
C 333.215767 113.485554 335.898947 107.007783 335.898947 100.254316 
C 335.898947 93.500849 333.215767 87.023078 328.440344 82.247656 
C 323.664922 77.472233 317.187151 74.789053 310.433684 74.789053 
C 303.680217 74.789053 297.202446 77.472233 292.427024 82.247656 
C 287.651602 87.023078 284.968421 93.500849 284.968421 100.254316 
C 284.968421 107.007783 287.651602 113.485554 292.427024 118.260976 
C 297.202446 123.036398 303.680217 125.719579 310.433684 125.719579 
z
" clip-path="url(#p8a8722deac)" style="fill: #008000; opacity: 0.1; stroke: #008000; stroke-linejoin: miter"/>
   </g>
   <g id="patch_45">
    <path d="M 310.433684 104.498526 
C 317.187151 104.498526 323.664922 101.815346 328.440344 97.039923 
C 333.215767 92.264501 335.898947 85.78673 335.898947 79.033263 
C 335.898947 72.279796 333.215767 65.802025 328.440344 61.026603 
C 323.664922 56.251181 317.187151 53.568 310.433684 53.568 
C 303.680217 53.568 297.202446 56.251181 292.427024 61.026603 
C 287.651602 65.802025 284.968421 72.279796 284.968421 79.033263 
C 284.968421 85.78673 287.651602 92.264501 292.427024 97.039923 
C 297.202446 101.815346 303.680217 104.498526 310.433684 104.498526 
z
" clip-path="url(#p8a8722deac)" style="fill: #008000; opacity: 0.1; stroke: #008000; stroke-linejoin: miter"/>
   </g>
   <g id="patch_46">
    <path d="M 331.654737 295.488 
C 338.408204 295.488 344.885975 292.804819 349.661397 288.029397 
C 354.436819 283.253975 357.12 276.776204 357.12 270.022737 
C 357.12 263.26927 354.436819 256.791499 349.661397 252.016077 
C 344.885975 247.240654 338.408204 244.557474 331.654737 244.557474 
C 324.90127 244.557474 318.423499 247.240654 313.648077 252.016077 
C 308.872654 256.791499 306.189474 263.26927 306.189474 270.022737 
C 306.189474 276.776204 308.872654 283.253975 313.648077 288.029397 
C 318.423499 292.804819 324.90127 295.488 331.654737 295.488 
z
" clip-path="url(#p8a8722deac)" style="fill: #008000; opacity: 0.1; stroke: #008000; stroke-linejoin: miter"/>
   </g>
   <g id="patch_47">
    <path d="M 331.654737 274.266947 
C 338.408204 274.266947 344.885975 271.583767 349.661397 266.808344 
C 354.436819 262.032922 357.12 255.555151 357.12 248.801684 
C 357.12 242.048217 354.436819 235.570446 349.661397 230.795024 
C 344.885975 226.019602 338.408204 223.336421 331.654737 223.336421 
C 324.90127 223.336421 318.423499 226.019602 313.648077 230.795024 
C 308.872654 235.570446 306.189474 242.048217 306.189474 248.801684 
C 306.189474 255.555151 308.872654 262.032922 313.648077 266.808344 
C 318.423499 271.583767 324.90127 274.266947 331.654737 274.266947 
z
" clip-path="url(#p8a8722deac)" style="fill: #008000; opacity: 0.1; stroke: #008000; stroke-linejoin: miter"/>
   </g>
   <g id="patch_48">
    <path d="M 331.654737 253.045895 
C 338.408204 253.045895 344.885975 250.362714 349.661397 245.587292 
C 354.436819 240.81187 357.12 234.334098 357.12 227.580632 
C 357.12 220.827165 354.436819 214.349393 349.661397 209.573971 
C 344.885975 204.798549 338.408204 202.115368 331.654737 202.115368 
C 324.90127 202.115368 318.423499 204.798549 313.648077 209.573971 
C 308.872654 214.349393 306.189474 220.827165 306.189474 227.580632 
C 306.189474 234.334098 308.872654 240.81187 313.648077 245.587292 
C 318.423499 250.362714 324.90127 253.045895 331.654737 253.045895 
z
" clip-path="url(#p8a8722deac)" style="fill: #008000; opacity: 0.1; stroke: #008000; stroke-linejoin: miter"/>
   </g>
   <g id="patch_49">
    <path d="M 331.654737 231.824842 
C 338.408204 231.824842 344.885975 229.141661 349.661397 224.366239 
C 354.436819 219.590817 357.12 213.113046 357.12 206.359579 
C 357.12 199.606112 354.436819 193.128341 349.661397 188.352919 
C 344.885975 183.577497 338.408204 180.894316 331.654737 180.894316 
C 324.90127 180.894316 318.423499 183.577497 313.648077 188.352919 
C 308.872654 193.128341 306.189474 199.606112 306.189474 206.359579 
C 306.189474 213.113046 308.872654 219.590817 313.648077 224.366239 
C 318.423499 229.141661 324.90127 231.824842 331.654737 231.824842 
z
" clip-path="url(#p8a8722deac)" style="fill: #008000; opacity: 0.1; stroke: #008000; stroke-linejoin: miter"/>
   </g>
   <g id="patch_50">
    <path d="M 331.654737 210.603789 
C 338.408204 210.603789 344.885975 207.920609 349.661397 203.145187 
C 354.436819 198.369764 357.12 191.891993 357.12 185.138526 
C 357.12 178.38506 354.436819 171.907288 349.661397 167.131866 
C 344.885975 162.356444 338.408204 159.673263 331.654737 159.673263 
C 324.90127 159.673263 318.423499 162.356444 313.648077 167.131866 
C 308.872654 171.907288 306.189474 178.38506 306.189474 185.138526 
C 306.189474 191.891993 308.872654 198.369764 313.648077 203.145187 
C 318.423499 207.920609 324.90127 210.603789 331.654737 210.603789 
z
" clip-path="url(#p8a8722deac)" style="fill: #008000; opacity: 0.1; stroke: #008000; stroke-linejoin: miter"/>
   </g>
   <g id="patch_51">
    <path d="M 331.654737 189.382737 
C 338.408204 189.382737 344.885975 186.699556 349.661397 181.924134 
C 354.436819 177.148712 357.12 170.67094 357.12 163.917474 
C 357.12 157.164007 354.436819 150.686236 349.661397 145.910813 
C 344.885975 141.135391 338.408204 138.452211 331.654737 138.452211 
C 324.90127 138.452211 318.423499 141.135391 313.648077 145.910813 
C 308.872654 150.686236 306.189474 157.164007 306.189474 163.917474 
C 306.189474 170.67094 308.872654 177.148712 313.648077 181.924134 
C 318.423499 186.699556 324.90127 189.382737 331.654737 189.382737 
z
" clip-path="url(#p8a8722deac)" style="fill: #008000; opacity: 0.1; stroke: #008000; stroke-linejoin: miter"/>
   </g>
   <g id="patch_52">
    <path d="M 331.654737 146.940632 
C 338.408204 146.940632 344.885975 144.257451 349.661397 139.482029 
C 354.436819 134.706607 357.12 128.228835 357.12 121.475368 
C 357.12 114.721902 354.436819 108.24413 349.661397 103.468708 
C 344.885975 98.693286 338.408204 96.010105 331.654737 96.010105 
C 324.90127 96.010105 318.423499 98.693286 313.648077 103.468708 
C 308.872654 108.24413 306.189474 114.721902 306.189474 121.475368 
C 306.189474 128.228835 308.872654 134.706607 313.648077 139.482029 
C 318.423499 144.257451 324.90127 146.940632 331.654737 146.940632 
z
" clip-path="url(#p8a8722deac)" style="fill: #008000; opacity: 0.1; stroke: #008000; stroke-linejoin: miter"/>
   </g>
   <g id="patch_53">
    <path d="M 331.654737 125.719579 
C 338.408204 125.719579 344.885975 123.036398 349.661397 118.260976 
C 354.436819 113.485554 357.12 107.007783 357.12 100.254316 
C 357.12 93.500849 354.436819 87.023078 349.661397 82.247656 
C 344.885975 77.472233 338.408204 74.789053 331.654737 74.789053 
C 324.90127 74.789053 318.423499 77.472233 313.648077 82.247656 
C 308.872654 87.023078 306.189474 93.500849 306.189474 100.254316 
C 306.189474 107.007783 308.872654 113.485554 313.648077 118.260976 
C 318.423499 123.036398 324.90127 125.719579 331.654737 125.719579 
z
" clip-path="url(#p8a8722deac)" style="fill: #008000; opacity: 0.1; stroke: #008000; stroke-linejoin: miter"/>
   </g>
   <g id="patch_54">
    <path d="M 331.654737 104.498526 
C 338.408204 104.498526 344.885975 101.815346 349.661397 97.039923 
C 354.436819 92.264501 357.12 85.78673 357.12 79.033263 
C 357.12 72.279796 354.436819 65.802025 349.661397 61.026603 
C 344.885975 56.251181 338.408204 53.568 331.654737 53.568 
C 324.90127 53.568 318.423499 56.251181 313.648077 61.026603 
C 308.872654 65.802025 306.189474 72.279796 306.189474 79.033263 
C 306.189474 85.78673 308.872654 92.264501 313.648077 97.039923 
C 318.423499 101.815346 324.90127 104.498526 331.654737 104.498526 
z
" clip-path="url(#p8a8722deac)" style="fill: #008000; opacity: 0.1; stroke: #008000; stroke-linejoin: miter"/>
   </g>
   <g id="patch_55">
    <path d="M 352.875789 295.488 
C 359.629256 295.488 366.107028 292.804819 370.88245 288.029397 
C 375.657872 283.253975 378.341053 276.776204 378.341053 270.022737 
C 378.341053 263.26927 375.657872 256.791499 370.88245 252.016077 
C 366.107028 247.240654 359.629256 244.557474 352.875789 244.557474 
C 346.122323 244.557474 339.644551 247.240654 334.869129 252.016077 
C 330.093707 256.791499 327.410526 263.26927 327.410526 270.022737 
C 327.410526 276.776204 330.093707 283.253975 334.869129 288.029397 
C 339.644551 292.804819 346.122323 295.488 352.875789 295.488 
z
" clip-path="url(#p8a8722deac)" style="fill: #008000; opacity: 0.1; stroke: #008000; stroke-linejoin: miter"/>
   </g>
   <g id="patch_56">
    <path d="M 352.875789 274.266947 
C 359.629256 274.266947 366.107028 271.583767 370.88245 266.808344 
C 375.657872 262.032922 378.341053 255.555151 378.341053 248.801684 
C 378.341053 242.048217 375.657872 235.570446 370.88245 230.795024 
C 366.107028 226.019602 359.629256 223.336421 352.875789 223.336421 
C 346.122323 223.336421 339.644551 226.019602 334.869129 230.795024 
C 330.093707 235.570446 327.410526 242.048217 327.410526 248.801684 
C 327.410526 255.555151 330.093707 262.032922 334.869129 266.808344 
C 339.644551 271.583767 346.122323 274.266947 352.875789 274.266947 
z
" clip-path="url(#p8a8722deac)" style="fill: #008000; opacity: 0.1; stroke: #008000; stroke-linejoin: miter"/>
   </g>
   <g id="patch_57">
    <path d="M 352.875789 231.824842 
C 359.629256 231.824842 366.107028 229.141661 370.88245 224.366239 
C 375.657872 219.590817 378.341053 213.113046 378.341053 206.359579 
C 378.341053 199.606112 375.657872 193.128341 370.88245 188.352919 
C 366.107028 183.577497 359.629256 180.894316 352.875789 180.894316 
C 346.122323 180.894316 339.644551 183.577497 334.869129 188.352919 
C 330.093707 193.128341 327.410526 199.606112 327.410526 206.359579 
C 327.410526 213.113046 330.093707 219.590817 334.869129 224.366239 
C 339.644551 229.141661 346.122323 231.824842 352.875789 231.824842 
z
" clip-path="url(#p8a8722deac)" style="fill: #008000; opacity: 0.1; stroke: #008000; stroke-linejoin: miter"/>
   </g>
   <g id="patch_58">
    <path d="M 352.875789 210.603789 
C 359.629256 210.603789 366.107028 207.920609 370.88245 203.145187 
C 375.657872 198.369764 378.341053 191.891993 378.341053 185.138526 
C 378.341053 178.38506 375.657872 171.907288 370.88245 167.131866 
C 366.107028 162.356444 359.629256 159.673263 352.875789 159.673263 
C 346.122323 159.673263 339.644551 162.356444 334.869129 167.131866 
C 330.093707 171.907288 327.410526 178.38506 327.410526 185.138526 
C 327.410526 191.891993 330.093707 198.369764 334.869129 203.145187 
C 339.644551 207.920609 346.122323 210.603789 352.875789 210.603789 
z
" clip-path="url(#p8a8722deac)" style="fill: #008000; opacity: 0.1; stroke: #008000; stroke-linejoin: miter"/>
   </g>
   <g id="patch_59">
    <path d="M 352.875789 189.382737 
C 359.629256 189.382737 366.107028 186.699556 370.88245 181.924134 
C 375.657872 177.148712 378.341053 170.67094 378.341053 163.917474 
C 378.341053 157.164007 375.657872 150.686236 370.88245 145.910813 
C 366.107028 141.135391 359.629256 138.452211 352.875789 138.452211 
C 346.122323 138.452211 339.644551 141.135391 334.869129 145.910813 
C 330.093707 150.686236 327.410526 157.164007 327.410526 163.917474 
C 327.410526 170.67094 330.093707 177.148712 334.869129 181.924134 
C 339.644551 186.699556 346.122323 189.382737 352.875789 189.382737 
z
" clip-path="url(#p8a8722deac)" style="fill: #008000; opacity: 0.1; stroke: #008000; stroke-linejoin: miter"/>
   </g>
   <g id="patch_60">
    <path d="M 352.875789 146.940632 
C 359.629256 146.940632 366.107028 144.257451 370.88245 139.482029 
C 375.657872 134.706607 378.341053 128.228835 378.341053 121.475368 
C 378.341053 114.721902 375.657872 108.24413 370.88245 103.468708 
C 366.107028 98.693286 359.629256 96.010105 352.875789 96.010105 
C 346.122323 96.010105 339.644551 98.693286 334.869129 103.468708 
C 330.093707 108.24413 327.410526 114.721902 327.410526 121.475368 
C 327.410526 128.228835 330.093707 134.706607 334.869129 139.482029 
C 339.644551 144.257451 346.122323 146.940632 352.875789 146.940632 
z
" clip-path="url(#p8a8722deac)" style="fill: #008000; opacity: 0.1; stroke: #008000; stroke-linejoin: miter"/>
   </g>
   <g id="patch_61">
    <path d="M 352.875789 125.719579 
C 359.629256 125.719579 366.107028 123.036398 370.88245 118.260976 
C 375.657872 113.485554 378.341053 107.007783 378.341053 100.254316 
C 378.341053 93.500849 375.657872 87.023078 370.88245 82.247656 
C 366.107028 77.472233 359.629256 74.789053 352.875789 74.789053 
C 346.122323 74.789053 339.644551 77.472233 334.869129 82.247656 
C 330.093707 87.023078 327.410526 93.500849 327.410526 100.254316 
C 327.410526 107.007783 330.093707 113.485554 334.869129 118.260976 
C 339.644551 123.036398 346.122323 125.719579 352.875789 125.719579 
z
" clip-path="url(#p8a8722deac)" style="fill: #008000; opacity: 0.1; stroke: #008000; stroke-linejoin: miter"/>
   </g>
   <g id="patch_62">
    <path d="M 352.875789 104.498526 
C 359.629256 104.498526 366.107028 101.815346 370.88245 97.039923 
C 375.657872 92.264501 378.341053 85.78673 378.341053 79.033263 
C 378.341053 72.279796 375.657872 65.802025 370.88245 61.026603 
C 366.107028 56.251181 359.629256 53.568 352.875789 53.568 
C 346.122323 53.568 339.644551 56.251181 334.869129 61.026603 
C 330.093707 65.802025 327.410526 72.279796 327.410526 79.033263 
C 327.410526 85.78673 330.093707 92.264501 334.869129 97.039923 
C 339.644551 101.815346 346.122323 104.498526 352.875789 104.498526 
z
" clip-path="url(#p8a8722deac)" style="fill: #008000; opacity: 0.1; stroke: #008000; stroke-linejoin: miter"/>
   </g>
   <g id="matplotlib.axis_1">
    <g id="xtick_1">
     <g id="line2d_1">
      <path d="M 98.223158 307.584 
L 98.223158 41.472 
" clip-path="url(#p8a8722deac)" style="fill: none; stroke-dasharray: 1.85,0.8; stroke-dashoffset: 0; stroke: #b0b0b0; stroke-opacity: 0.5; stroke-width: 0.5"/>
     </g>
     <g id="line2d_2">
      <defs>
       <path id="m4a4a94672b" d="M 0 0 
L 0 3.5 
" style="stroke: #000000; stroke-width: 0.8"/>
      </defs>
      <g>
       <use xlink:href="#m4a4a94672b" x="98.223158" y="307.584" style="stroke: #000000; stroke-width: 0.8"/>
      </g>
     </g>
     <g id="text_1">
      <!-- −2 -->
      <g transform="translate(90.852064 322.182437)scale(0.1 -0.1)">
       <defs>
        <path id="DejaVuSans-2212" d="M 678 2272 
L 4684 2272 
L 4684 1741 
L 678 1741 
L 678 2272 
z
" transform="scale(0.015625)"/>
        <path id="DejaVuSans-32" d="M 1228 531 
L 3431 531 
L 3431 0 
L 469 0 
L 469 531 
Q 828 903 1448 1529 
Q 2069 2156 2228 2338 
Q 2531 2678 2651 2914 
Q 2772 3150 2772 3378 
Q 2772 3750 2511 3984 
Q 2250 4219 1831 4219 
Q 1534 4219 1204 4116 
Q 875 4013 500 3803 
L 500 4441 
Q 881 4594 1212 4672 
Q 1544 4750 1819 4750 
Q 2544 4750 2975 4387 
Q 3406 4025 3406 3419 
Q 3406 3131 3298 2873 
Q 3191 2616 2906 2266 
Q 2828 2175 2409 1742 
Q 1991 1309 1228 531 
z
" transform="scale(0.015625)"/>
       </defs>
       <use xlink:href="#DejaVuSans-2212"/>
       <use xlink:href="#DejaVuSans-32" x="83.789062"/>
      </g>
     </g>
    </g>
    <g id="xtick_2">
     <g id="line2d_3">
      <path d="M 140.665263 307.584 
L 140.665263 41.472 
" clip-path="url(#p8a8722deac)" style="fill: none; stroke-dasharray: 1.85,0.8; stroke-dashoffset: 0; stroke: #b0b0b0; stroke-opacity: 0.5; stroke-width: 0.5"/>
     </g>
     <g id="line2d_4">
      <g>
       <use xlink:href="#m4a4a94672b" x="140.665263" y="307.584" style="stroke: #000000; stroke-width: 0.8"/>
      </g>
     </g>
     <g id="text_2">
      <!-- 0 -->
      <g transform="translate(137.484013 322.182437)scale(0.1 -0.1)">
       <defs>
        <path id="DejaVuSans-30" d="M 2034 4250 
Q 1547 4250 1301 3770 
Q 1056 3291 1056 2328 
Q 1056 1369 1301 889 
Q 1547 409 2034 409 
Q 2525 409 2770 889 
Q 3016 1369 3016 2328 
Q 3016 3291 2770 3770 
Q 2525 4250 2034 4250 
z
M 2034 4750 
Q 2819 4750 3233 4129 
Q 3647 3509 3647 2328 
Q 3647 1150 3233 529 
Q 2819 -91 2034 -91 
Q 1250 -91 836 529 
Q 422 1150 422 2328 
Q 422 3509 836 4129 
Q 1250 4750 2034 4750 
z
" transform="scale(0.015625)"/>
       </defs>
       <use xlink:href="#DejaVuSans-30"/>
      </g>
     </g>
    </g>
    <g id="xtick_3">
     <g id="line2d_5">
      <path d="M 183.107368 307.584 
L 183.107368 41.472 
" clip-path="url(#p8a8722deac)" style="fill: none; stroke-dasharray: 1.85,0.8; stroke-dashoffset: 0; stroke: #b0b0b0; stroke-opacity: 0.5; stroke-width: 0.5"/>
     </g>
     <g id="line2d_6">
      <g>
       <use xlink:href="#m4a4a94672b" x="183.107368" y="307.584" style="stroke: #000000; stroke-width: 0.8"/>
      </g>
     </g>
     <g id="text_3">
      <!-- 2 -->
      <g transform="translate(179.926118 322.182437)scale(0.1 -0.1)">
       <use xlink:href="#DejaVuSans-32"/>
      </g>
     </g>
    </g>
    <g id="xtick_4">
     <g id="line2d_7">
      <path d="M 225.549474 307.584 
L 225.549474 41.472 
" clip-path="url(#p8a8722deac)" style="fill: none; stroke-dasharray: 1.85,0.8; stroke-dashoffset: 0; stroke: #b0b0b0; stroke-opacity: 0.5; stroke-width: 0.5"/>
     </g>
     <g id="line2d_8">
      <g>
       <use xlink:href="#m4a4a94672b" x="225.549474" y="307.584" style="stroke: #000000; stroke-width: 0.8"/>
      </g>
     </g>
     <g id="text_4">
      <!-- 4 -->
      <g transform="translate(222.368224 322.182437)scale(0.1 -0.1)">
       <defs>
        <path id="DejaVuSans-34" d="M 2419 4116 
L 825 1625 
L 2419 1625 
L 2419 4116 
z
M 2253 4666 
L 3047 4666 
L 3047 1625 
L 3713 1625 
L 3713 1100 
L 3047 1100 
L 3047 0 
L 2419 0 
L 2419 1100 
L 313 1100 
L 313 1709 
L 2253 4666 
z
" transform="scale(0.015625)"/>
       </defs>
       <use xlink:href="#DejaVuSans-34"/>
      </g>
     </g>
    </g>
    <g id="xtick_5">
     <g id="line2d_9">
      <path d="M 267.991579 307.584 
L 267.991579 41.472 
" clip-path="url(#p8a8722deac)" style="fill: none; stroke-dasharray: 1.85,0.8; stroke-dashoffset: 0; stroke: #b0b0b0; stroke-opacity: 0.5; stroke-width: 0.5"/>
     </g>
     <g id="line2d_10">
      <g>
       <use xlink:href="#m4a4a94672b" x="267.991579" y="307.584" style="stroke: #000000; stroke-width: 0.8"/>
      </g>
     </g>
     <g id="text_5">
      <!-- 6 -->
      <g transform="translate(264.810329 322.182437)scale(0.1 -0.1)">
       <defs>
        <path id="DejaVuSans-36" d="M 2113 2584 
Q 1688 2584 1439 2293 
Q 1191 2003 1191 1497 
Q 1191 994 1439 701 
Q 1688 409 2113 409 
Q 2538 409 2786 701 
Q 3034 994 3034 1497 
Q 3034 2003 2786 2293 
Q 2538 2584 2113 2584 
z
M 3366 4563 
L 3366 3988 
Q 3128 4100 2886 4159 
Q 2644 4219 2406 4219 
Q 1781 4219 1451 3797 
Q 1122 3375 1075 2522 
Q 1259 2794 1537 2939 
Q 1816 3084 2150 3084 
Q 2853 3084 3261 2657 
Q 3669 2231 3669 1497 
Q 3669 778 3244 343 
Q 2819 -91 2113 -91 
Q 1303 -91 875 529 
Q 447 1150 447 2328 
Q 447 3434 972 4092 
Q 1497 4750 2381 4750 
Q 2619 4750 2861 4703 
Q 3103 4656 3366 4563 
z
" transform="scale(0.015625)"/>
       </defs>
       <use xlink:href="#DejaVuSans-36"/>
      </g>
     </g>
    </g>
    <g id="xtick_6">
     <g id="line2d_11">
      <path d="M 310.433684 307.584 
L 310.433684 41.472 
" clip-path="url(#p8a8722deac)" style="fill: none; stroke-dasharray: 1.85,0.8; stroke-dashoffset: 0; stroke: #b0b0b0; stroke-opacity: 0.5; stroke-width: 0.5"/>
     </g>
     <g id="line2d_12">
      <g>
       <use xlink:href="#m4a4a94672b" x="310.433684" y="307.584" style="stroke: #000000; stroke-width: 0.8"/>
      </g>
     </g>
     <g id="text_6">
      <!-- 8 -->
      <g transform="translate(307.252434 322.182437)scale(0.1 -0.1)">
       <defs>
        <path id="DejaVuSans-38" d="M 2034 2216 
Q 1584 2216 1326 1975 
Q 1069 1734 1069 1313 
Q 1069 891 1326 650 
Q 1584 409 2034 409 
Q 2484 409 2743 651 
Q 3003 894 3003 1313 
Q 3003 1734 2745 1975 
Q 2488 2216 2034 2216 
z
M 1403 2484 
Q 997 2584 770 2862 
Q 544 3141 544 3541 
Q 544 4100 942 4425 
Q 1341 4750 2034 4750 
Q 2731 4750 3128 4425 
Q 3525 4100 3525 3541 
Q 3525 3141 3298 2862 
Q 3072 2584 2669 2484 
Q 3125 2378 3379 2068 
Q 3634 1759 3634 1313 
Q 3634 634 3220 271 
Q 2806 -91 2034 -91 
Q 1263 -91 848 271 
Q 434 634 434 1313 
Q 434 1759 690 2068 
Q 947 2378 1403 2484 
z
M 1172 3481 
Q 1172 3119 1398 2916 
Q 1625 2713 2034 2713 
Q 2441 2713 2670 2916 
Q 2900 3119 2900 3481 
Q 2900 3844 2670 4047 
Q 2441 4250 2034 4250 
Q 1625 4250 1398 4047 
Q 1172 3844 1172 3481 
z
" transform="scale(0.015625)"/>
       </defs>
       <use xlink:href="#DejaVuSans-38"/>
      </g>
     </g>
    </g>
    <g id="xtick_7">
     <g id="line2d_13">
      <path d="M 352.875789 307.584 
L 352.875789 41.472 
" clip-path="url(#p8a8722deac)" style="fill: none; stroke-dasharray: 1.85,0.8; stroke-dashoffset: 0; stroke: #b0b0b0; stroke-opacity: 0.5; stroke-width: 0.5"/>
     </g>
     <g id="line2d_14">
      <g>
       <use xlink:href="#m4a4a94672b" x="352.875789" y="307.584" style="stroke: #000000; stroke-width: 0.8"/>
      </g>
     </g>
     <g id="text_7">
      <!-- 10 -->
      <g transform="translate(346.513289 322.182437)scale(0.1 -0.1)">
       <defs>
        <path id="DejaVuSans-31" d="M 794 531 
L 1825 531 
L 1825 4091 
L 703 3866 
L 703 4441 
L 1819 4666 
L 2450 4666 
L 2450 531 
L 3481 531 
L 3481 0 
L 794 0 
L 794 531 
z
" transform="scale(0.015625)"/>
       </defs>
       <use xlink:href="#DejaVuSans-31"/>
       <use xlink:href="#DejaVuSans-30" x="63.623047"/>
      </g>
     </g>
    </g>
    <g id="xtick_8">
     <g id="line2d_15">
      <path d="M 395.317895 307.584 
L 395.317895 41.472 
" clip-path="url(#p8a8722deac)" style="fill: none; stroke-dasharray: 1.85,0.8; stroke-dashoffset: 0; stroke: #b0b0b0; stroke-opacity: 0.5; stroke-width: 0.5"/>
     </g>
     <g id="line2d_16">
      <g>
       <use xlink:href="#m4a4a94672b" x="395.317895" y="307.584" style="stroke: #000000; stroke-width: 0.8"/>
      </g>
     </g>
     <g id="text_8">
      <!-- 12 -->
      <g transform="translate(388.955395 322.182437)scale(0.1 -0.1)">
       <use xlink:href="#DejaVuSans-31"/>
       <use xlink:href="#DejaVuSans-32" x="63.623047"/>
      </g>
     </g>
    </g>
    <g id="text_9">
     <!-- Eixo X (m) -->
     <g transform="translate(210.374062 335.860562)scale(0.1 -0.1)">
      <defs>
       <path id="DejaVuSans-45" d="M 628 4666 
L 3578 4666 
L 3578 4134 
L 1259 4134 
L 1259 2753 
L 3481 2753 
L 3481 2222 
L 1259 2222 
L 1259 531 
L 3634 531 
L 3634 0 
L 628 0 
L 628 4666 
z
" transform="scale(0.015625)"/>
       <path id="DejaVuSans-69" d="M 603 3500 
L 1178 3500 
L 1178 0 
L 603 0 
L 603 3500 
z
M 603 4863 
L 1178 4863 
L 1178 4134 
L 603 4134 
L 603 4863 
z
" transform="scale(0.015625)"/>
       <path id="DejaVuSans-78" d="M 3513 3500 
L 2247 1797 
L 3578 0 
L 2900 0 
L 1881 1375 
L 863 0 
L 184 0 
L 1544 1831 
L 300 3500 
L 978 3500 
L 1906 2253 
L 2834 3500 
L 3513 3500 
z
" transform="scale(0.015625)"/>
       <path id="DejaVuSans-6f" d="M 1959 3097 
Q 1497 3097 1228 2736 
Q 959 2375 959 1747 
Q 959 1119 1226 758 
Q 1494 397 1959 397 
Q 2419 397 2687 759 
Q 2956 1122 2956 1747 
Q 2956 2369 2687 2733 
Q 2419 3097 1959 3097 
z
M 1959 3584 
Q 2709 3584 3137 3096 
Q 3566 2609 3566 1747 
Q 3566 888 3137 398 
Q 2709 -91 1959 -91 
Q 1206 -91 779 398 
Q 353 888 353 1747 
Q 353 2609 779 3096 
Q 1206 3584 1959 3584 
z
" transform="scale(0.015625)"/>
       <path id="DejaVuSans-20" transform="scale(0.015625)"/>
       <path id="DejaVuSans-58" d="M 403 4666 
L 1081 4666 
L 2241 2931 
L 3406 4666 
L 4084 4666 
L 2584 2425 
L 4184 0 
L 3506 0 
L 2194 1984 
L 872 0 
L 191 0 
L 1856 2491 
L 403 4666 
z
" transform="scale(0.015625)"/>
       <path id="DejaVuSans-28" d="M 1984 4856 
Q 1566 4138 1362 3434 
Q 1159 2731 1159 2009 
Q 1159 1288 1364 580 
Q 1569 -128 1984 -844 
L 1484 -844 
Q 1016 -109 783 600 
Q 550 1309 550 2009 
Q 550 2706 781 3412 
Q 1013 4119 1484 4856 
L 1984 4856 
z
" transform="scale(0.015625)"/>
       <path id="DejaVuSans-6d" d="M 3328 2828 
Q 3544 3216 3844 3400 
Q 4144 3584 4550 3584 
Q 5097 3584 5394 3201 
Q 5691 2819 5691 2113 
L 5691 0 
L 5113 0 
L 5113 2094 
Q 5113 2597 4934 2840 
Q 4756 3084 4391 3084 
Q 3944 3084 3684 2787 
Q 3425 2491 3425 1978 
L 3425 0 
L 2847 0 
L 2847 2094 
Q 2847 2600 2669 2842 
Q 2491 3084 2119 3084 
Q 1678 3084 1418 2786 
Q 1159 2488 1159 1978 
L 1159 0 
L 581 0 
L 581 3500 
L 1159 3500 
L 1159 2956 
Q 1356 3278 1631 3431 
Q 1906 3584 2284 3584 
Q 2666 3584 2933 3390 
Q 3200 3197 3328 2828 
z
" transform="scale(0.015625)"/>
       <path id="DejaVuSans-29" d="M 513 4856 
L 1013 4856 
Q 1481 4119 1714 3412 
Q 1947 2706 1947 2009 
Q 1947 1309 1714 600 
Q 1481 -109 1013 -844 
L 513 -844 
Q 928 -128 1133 580 
Q 1338 1288 1338 2009 
Q 1338 2731 1133 3434 
Q 928 4138 513 4856 
z
" transform="scale(0.015625)"/>
      </defs>
      <use xlink:href="#DejaVuSans-45"/>
      <use xlink:href="#DejaVuSans-69" x="63.183594"/>
      <use xlink:href="#DejaVuSans-78" x="90.966797"/>
      <use xlink:href="#DejaVuSans-6f" x="147.021484"/>
      <use xlink:href="#DejaVuSans-20" x="208.203125"/>
      <use xlink:href="#DejaVuSans-58" x="239.990234"/>
      <use xlink:href="#DejaVuSans-20" x="308.496094"/>
      <use xlink:href="#DejaVuSans-28" x="340.283203"/>
      <use xlink:href="#DejaVuSans-6d" x="379.296875"/>
      <use xlink:href="#DejaVuSans-29" x="476.708984"/>
     </g>
    </g>
   </g>
   <g id="matplotlib.axis_2">
    <g id="ytick_1">
     <g id="line2d_17">
      <path d="M 57.6 291.243789 
L 414.72 291.243789 
" clip-path="url(#p8a8722deac)" style="fill: none; stroke-dasharray: 1.85,0.8; stroke-dashoffset: 0; stroke: #b0b0b0; stroke-opacity: 0.5; stroke-width: 0.5"/>
     </g>
     <g id="line2d_18">
      <defs>
       <path id="m45dec1a918" d="M 0 0 
L -3.5 0 
" style="stroke: #000000; stroke-width: 0.8"/>
      </defs>
      <g>
       <use xlink:href="#m45dec1a918" x="57.6" y="291.243789" style="stroke: #000000; stroke-width: 0.8"/>
      </g>
     </g>
     <g id="text_10">
      <!-- 0 -->
      <g transform="translate(44.2375 295.043008)scale(0.1 -0.1)">
       <use xlink:href="#DejaVuSans-30"/>
      </g>
     </g>
    </g>
    <g id="ytick_2">
     <g id="line2d_19">
      <path d="M 57.6 248.801684 
L 414.72 248.801684 
" clip-path="url(#p8a8722deac)" style="fill: none; stroke-dasharray: 1.85,0.8; stroke-dashoffset: 0; stroke: #b0b0b0; stroke-opacity: 0.5; stroke-width: 0.5"/>
     </g>
     <g id="line2d_20">
      <g>
       <use xlink:href="#m45dec1a918" x="57.6" y="248.801684" style="stroke: #000000; stroke-width: 0.8"/>
      </g>
     </g>
     <g id="text_11">
      <!-- 2 -->
      <g transform="translate(44.2375 252.600903)scale(0.1 -0.1)">
       <use xlink:href="#DejaVuSans-32"/>
      </g>
     </g>
    </g>
    <g id="ytick_3">
     <g id="line2d_21">
      <path d="M 57.6 206.359579 
L 414.72 206.359579 
" clip-path="url(#p8a8722deac)" style="fill: none; stroke-dasharray: 1.85,0.8; stroke-dashoffset: 0; stroke: #b0b0b0; stroke-opacity: 0.5; stroke-width: 0.5"/>
     </g>
     <g id="line2d_22">
      <g>
       <use xlink:href="#m45dec1a918" x="57.6" y="206.359579" style="stroke: #000000; stroke-width: 0.8"/>
      </g>
     </g>
     <g id="text_12">
      <!-- 4 -->
      <g transform="translate(44.2375 210.158798)scale(0.1 -0.1)">
       <use xlink:href="#DejaVuSans-34"/>
      </g>
     </g>
    </g>
    <g id="ytick_4">
     <g id="line2d_23">
      <path d="M 57.6 163.917474 
L 414.72 163.917474 
" clip-path="url(#p8a8722deac)" style="fill: none; stroke-dasharray: 1.85,0.8; stroke-dashoffset: 0; stroke: #b0b0b0; stroke-opacity: 0.5; stroke-width: 0.5"/>
     </g>
     <g id="line2d_24">
      <g>
       <use xlink:href="#m45dec1a918" x="57.6" y="163.917474" style="stroke: #000000; stroke-width: 0.8"/>
      </g>
     </g>
     <g id="text_13">
      <!-- 6 -->
      <g transform="translate(44.2375 167.716692)scale(0.1 -0.1)">
       <use xlink:href="#DejaVuSans-36"/>
      </g>
     </g>
    </g>
    <g id="ytick_5">
     <g id="line2d_25">
      <path d="M 57.6 121.475368 
L 414.72 121.475368 
" clip-path="url(#p8a8722deac)" style="fill: none; stroke-dasharray: 1.85,0.8; stroke-dashoffset: 0; stroke: #b0b0b0; stroke-opacity: 0.5; stroke-width: 0.5"/>
     </g>
     <g id="line2d_26">
      <g>
       <use xlink:href="#m45dec1a918" x="57.6" y="121.475368" style="stroke: #000000; stroke-width: 0.8"/>
      </g>
     </g>
     <g id="text_14">
      <!-- 8 -->
      <g transform="translate(44.2375 125.274587)scale(0.1 -0.1)">
       <use xlink:href="#DejaVuSans-38"/>
      </g>
     </g>
    </g>
    <g id="ytick_6">
     <g id="line2d_27">
      <path d="M 57.6 79.033263 
L 414.72 79.033263 
" clip-path="url(#p8a8722deac)" style="fill: none; stroke-dasharray: 1.85,0.8; stroke-dashoffset: 0; stroke: #b0b0b0; stroke-opacity: 0.5; stroke-width: 0.5"/>
     </g>
     <g id="line2d_28">
      <g>
       <use xlink:href="#m45dec1a918" x="57.6" y="79.033263" style="stroke: #000000; stroke-width: 0.8"/>
      </g>
     </g>
     <g id="text_15">
      <!-- 10 -->
      <g transform="translate(37.875 82.832482)scale(0.1 -0.1)">
       <use xlink:href="#DejaVuSans-31"/>
       <use xlink:href="#DejaVuSans-30" x="63.623047"/>
      </g>
     </g>
    </g>
    <g id="text_16">
     <!-- Eixo Y (m) -->
     <g transform="translate(31.795312 199.942844)rotate(-90)scale(0.1 -0.1)">
      <defs>
       <path id="DejaVuSans-59" d="M -13 4666 
L 666 4666 
L 1959 2747 
L 3244 4666 
L 3922 4666 
L 2272 2222 
L 2272 0 
L 1638 0 
L 1638 2222 
L -13 4666 
z
" transform="scale(0.015625)"/>
      </defs>
      <use xlink:href="#DejaVuSans-45"/>
      <use xlink:href="#DejaVuSans-69" x="63.183594"/>
      <use xlink:href="#DejaVuSans-78" x="90.966797"/>
      <use xlink:href="#DejaVuSans-6f" x="147.021484"/>
      <use xlink:href="#DejaVuSans-20" x="208.203125"/>
      <use xlink:href="#DejaVuSans-59" x="239.990234"/>
      <use xlink:href="#DejaVuSans-20" x="301.074219"/>
      <use xlink:href="#DejaVuSans-28" x="332.861328"/>
      <use xlink:href="#DejaVuSans-6d" x="371.875"/>
      <use xlink:href="#DejaVuSans-29" x="469.287109"/>
     </g>
    </g>
   </g>
   <g id="line2d_29">
    <defs>
     <path id="mb0e82c305a" d="M 0 3 
C 0.795609 3 1.55874 2.683901 2.12132 2.12132 
C 2.683901 1.55874 3 0.795609 3 0 
C 3 -0.795609 2.683901 -1.55874 2.12132 -2.12132 
C 1.55874 -2.683901 0.795609 -3 0 -3 
C -0.795609 -3 -1.55874 -2.683901 -2.12132 -2.12132 
C -2.683901 -1.55874 -3 -0.795609 -3 0 
C -3 0.795609 -2.683901 1.55874 -2.12132 2.12132 
C -1.55874 2.683901 -0.795609 3 0 3 
z
" style="stroke: #0000ff"/>
    </defs>
    <g clip-path="url(#p8a8722deac)">
     <use xlink:href="#mb0e82c305a" x="161.886316" y="185.138526" style="fill: #0000ff; stroke: #0000ff"/>
    </g>
   </g>
   <g id="line2d_30">
    <g clip-path="url(#p8a8722deac)">
     <use xlink:href="#mb0e82c305a" x="183.107368" y="163.917474" style="fill: #0000ff; stroke: #0000ff"/>
    </g>
   </g>
   <g id="line2d_31">
    <defs>
     <path id="mc214e0b2e5" d="M 0 3 
C 0.795609 3 1.55874 2.683901 2.12132 2.12132 
C 2.683901 1.55874 3 0.795609 3 0 
C 3 -0.795609 2.683901 -1.55874 2.12132 -2.12132 
C 1.55874 -2.683901 0.795609 -3 0 -3 
C -0.795609 -3 -1.55874 -2.683901 -2.12132 -2.12132 
C -2.683901 -1.55874 -3 -0.795609 -3 0 
C -3 0.795609 -2.683901 1.55874 -2.12132 2.12132 
C -1.55874 2.683901 -0.795609 3 0 3 
z
" style="stroke: #008000"/>
    </defs>
    <g clip-path="url(#p8a8722deac)">
     <use xlink:href="#mc214e0b2e5" x="183.107368" y="100.254316" style="fill: #008000; stroke: #008000"/>
    </g>
   </g>
   <g id="line2d_32">
    <g clip-path="url(#p8a8722deac)">
     <use xlink:href="#mc214e0b2e5" x="183.107368" y="79.033263" style="fill: #008000; stroke: #008000"/>
    </g>
   </g>
   <g id="line2d_33">
    <g clip-path="url(#p8a8722deac)">
     <use xlink:href="#mc214e0b2e5" x="204.328421" y="270.022737" style="fill: #008000; stroke: #008000"/>
    </g>
   </g>
   <g id="line2d_34">
    <g clip-path="url(#p8a8722deac)">
     <use xlink:href="#mc214e0b2e5" x="204.328421" y="185.138526" style="fill: #008000; stroke: #008000"/>
    </g>
   </g>
   <g id="line2d_35">
    <g clip-path="url(#p8a8722deac)">
     <use xlink:href="#mc214e0b2e5" x="204.328421" y="100.254316" style="fill: #008000; stroke: #008000"/>
    </g>
   </g>
   <g id="line2d_36">
    <g clip-path="url(#p8a8722deac)">
     <use xlink:href="#mc214e0b2e5" x="225.549474" y="270.022737" style="fill: #008000; stroke: #008000"/>
    </g>
   </g>
   <g id="line2d_37">
    <g clip-path="url(#p8a8722deac)">
     <use xlink:href="#mc214e0b2e5" x="225.549474" y="248.801684" style="fill: #008000; stroke: #008000"/>
    </g>
   </g>
   <g id="line2d_38">
    <g clip-path="url(#p8a8722deac)">
     <use xlink:href="#mc214e0b2e5" x="225.549474" y="227.580632" style="fill: #008000; stroke: #008000"/>
    </g>
   </g>
   <g id="line2d_39">
    <g clip-path="url(#p8a8722deac)">
     <use xlink:href="#mc214e0b2e5" x="225.549474" y="206.359579" style="fill: #008000; stroke: #008000"/>
    </g>
   </g>
   <g id="line2d_40">
    <g clip-path="url(#p8a8722deac)">
     <use xlink:href="#mc214e0b2e5" x="225.549474" y="185.138526" style="fill: #008000; stroke: #008000"/>
    </g>
   </g>
   <g id="line2d_41">
    <g clip-path="url(#p8a8722deac)">
     <use xlink:href="#mb0e82c305a" x="225.549474" y="142.696421" style="fill: #0000ff; stroke: #0000ff"/>
    </g>
   </g>
   <g id="line2d_42">
    <g clip-path="url(#p8a8722deac)">
     <use xlink:href="#mc214e0b2e5" x="225.549474" y="100.254316" style="fill: #008000; stroke: #008000"/>
    </g>
   </g>
   <g id="line2d_43">
    <g clip-path="url(#p8a8722deac)">
     <use xlink:href="#mc214e0b2e5" x="225.549474" y="79.033263" style="fill: #008000; stroke: #008000"/>
    </g>
   </g>
   <g id="line2d_44">
    <g clip-path="url(#p8a8722deac)">
     <use xlink:href="#mc214e0b2e5" x="246.770526" y="270.022737" style="fill: #008000; stroke: #008000"/>
    </g>
   </g>
   <g id="line2d_45">
    <g clip-path="url(#p8a8722deac)">
     <use xlink:href="#mc214e0b2e5" x="246.770526" y="248.801684" style="fill: #008000; stroke: #008000"/>
    </g>
   </g>
   <g id="line2d_46">
    <g clip-path="url(#p8a8722deac)">
     <use xlink:href="#mc214e0b2e5" x="246.770526" y="185.138526" style="fill: #008000; stroke: #008000"/>
    </g>
   </g>
   <g id="line2d_47">
    <g clip-path="url(#p8a8722deac)">
     <use xlink:href="#mc214e0b2e5" x="246.770526" y="100.254316" style="fill: #008000; stroke: #008000"/>
    </g>
   </g>
   <g id="line2d_48">
    <g clip-path="url(#p8a8722deac)">
     <use xlink:href="#mc214e0b2e5" x="267.991579" y="270.022737" style="fill: #008000; stroke: #008000"/>
    </g>
   </g>
   <g id="line2d_49">
    <g clip-path="url(#p8a8722deac)">
     <use xlink:href="#mc214e0b2e5" x="267.991579" y="248.801684" style="fill: #008000; stroke: #008000"/>
    </g>
   </g>
   <g id="line2d_50">
    <g clip-path="url(#p8a8722deac)">
     <use xlink:href="#mc214e0b2e5" x="267.991579" y="227.580632" style="fill: #008000; stroke: #008000"/>
    </g>
   </g>
   <g id="line2d_51">
    <g clip-path="url(#p8a8722deac)">
     <use xlink:href="#mc214e0b2e5" x="267.991579" y="206.359579" style="fill: #008000; stroke: #008000"/>
    </g>
   </g>
   <g id="line2d_52">
    <g clip-path="url(#p8a8722deac)">
     <use xlink:href="#mc214e0b2e5" x="267.991579" y="185.138526" style="fill: #008000; stroke: #008000"/>
    </g>
   </g>
   <g id="line2d_53">
    <g clip-path="url(#p8a8722deac)">
     <use xlink:href="#mc214e0b2e5" x="267.991579" y="163.917474" style="fill: #008000; stroke: #008000"/>
    </g>
   </g>
   <g id="line2d_54">
    <g clip-path="url(#p8a8722deac)">
     <use xlink:href="#mc214e0b2e5" x="267.991579" y="121.475368" style="fill: #008000; stroke: #008000"/>
    </g>
   </g>
   <g id="line2d_55">
    <g clip-path="url(#p8a8722deac)">
     <use xlink:href="#mc214e0b2e5" x="267.991579" y="100.254316" style="fill: #008000; stroke: #008000"/>
    </g>
   </g>
   <g id="line2d_56">
    <g clip-path="url(#p8a8722deac)">
     <use xlink:href="#mc214e0b2e5" x="267.991579" y="79.033263" style="fill: #008000; stroke: #008000"/>
    </g>
   </g>
   <g id="line2d_57">
    <g clip-path="url(#p8a8722deac)">
     <use xlink:href="#mc214e0b2e5" x="289.212632" y="270.022737" style="fill: #008000; stroke: #008000"/>
    </g>
   </g>
   <g id="line2d_58">
    <g clip-path="url(#p8a8722deac)">
     <use xlink:href="#mc214e0b2e5" x="289.212632" y="248.801684" style="fill: #008000; stroke: #008000"/>
    </g>
   </g>
   <g id="line2d_59">
    <g clip-path="url(#p8a8722deac)">
     <use xlink:href="#mc214e0b2e5" x="289.212632" y="206.359579" style="fill: #008000; stroke: #008000"/>
    </g>
   </g>
   <g id="line2d_60">
    <g clip-path="url(#p8a8722deac)">
     <use xlink:href="#mc214e0b2e5" x="289.212632" y="185.138526" style="fill: #008000; stroke: #008000"/>
    </g>
   </g>
   <g id="line2d_61">
    <g clip-path="url(#p8a8722deac)">
     <use xlink:href="#mc214e0b2e5" x="289.212632" y="163.917474" style="fill: #008000; stroke: #008000"/>
    </g>
   </g>
   <g id="line2d_62">
    <g clip-path="url(#p8a8722deac)">
     <use xlink:href="#mc214e0b2e5" x="289.212632" y="121.475368" style="fill: #008000; stroke: #008000"/>
    </g>
   </g>
   <g id="line2d_63">
    <g clip-path="url(#p8a8722deac)">
     <use xlink:href="#mc214e0b2e5" x="289.212632" y="100.254316" style="fill: #008000; stroke: #008000"/>
    </g>
   </g>
   <g id="line2d_64">
    <g clip-path="url(#p8a8722deac)">
     <use xlink:href="#mc214e0b2e5" x="289.212632" y="79.033263" style="fill: #008000; stroke: #008000"/>
    </g>
   </g>
   <g id="line2d_65">
    <g clip-path="url(#p8a8722deac)">
     <use xlink:href="#mc214e0b2e5" x="310.433684" y="270.022737" style="fill: #008000; stroke: #008000"/>
    </g>
   </g>
   <g id="line2d_66">
    <g clip-path="url(#p8a8722deac)">
     <use xlink:href="#mc214e0b2e5" x="310.433684" y="248.801684" style="fill: #008000; stroke: #008000"/>
    </g>
   </g>
   <g id="line2d_67">
    <g clip-path="url(#p8a8722deac)">
     <use xlink:href="#mc214e0b2e5" x="310.433684" y="227.580632" style="fill: #008000; stroke: #008000"/>
    </g>
   </g>
   <g id="line2d_68">
    <g clip-path="url(#p8a8722deac)">
     <use xlink:href="#mc214e0b2e5" x="310.433684" y="206.359579" style="fill: #008000; stroke: #008000"/>
    </g>
   </g>
   <g id="line2d_69">
    <g clip-path="url(#p8a8722deac)">
     <use xlink:href="#mc214e0b2e5" x="310.433684" y="163.917474" style="fill: #008000; stroke: #008000"/>
    </g>
   </g>
   <g id="line2d_70">
    <g clip-path="url(#p8a8722deac)">
     <use xlink:href="#mc214e0b2e5" x="310.433684" y="100.254316" style="fill: #008000; stroke: #008000"/>
    </g>
   </g>
   <g id="line2d_71">
    <g clip-path="url(#p8a8722deac)">
     <use xlink:href="#mc214e0b2e5" x="310.433684" y="79.033263" style="fill: #008000; stroke: #008000"/>
    </g>
   </g>
   <g id="line2d_72">
    <g clip-path="url(#p8a8722deac)">
     <use xlink:href="#mc214e0b2e5" x="331.654737" y="270.022737" style="fill: #008000; stroke: #008000"/>
    </g>
   </g>
   <g id="line2d_73">
    <g clip-path="url(#p8a8722deac)">
     <use xlink:href="#mc214e0b2e5" x="331.654737" y="248.801684" style="fill: #008000; stroke: #008000"/>
    </g>
   </g>
   <g id="line2d_74">
    <g clip-path="url(#p8a8722deac)">
     <use xlink:href="#mc214e0b2e5" x="331.654737" y="227.580632" style="fill: #008000; stroke: #008000"/>
    </g>
   </g>
   <g id="line2d_75">
    <g clip-path="url(#p8a8722deac)">
     <use xlink:href="#mc214e0b2e5" x="331.654737" y="206.359579" style="fill: #008000; stroke: #008000"/>
    </g>
   </g>
   <g id="line2d_76">
    <g clip-path="url(#p8a8722deac)">
     <use xlink:href="#mc214e0b2e5" x="331.654737" y="185.138526" style="fill: #008000; stroke: #008000"/>
    </g>
   </g>
   <g id="line2d_77">
    <g clip-path="url(#p8a8722deac)">
     <use xlink:href="#mc214e0b2e5" x="331.654737" y="163.917474" style="fill: #008000; stroke: #008000"/>
    </g>
   </g>
   <g id="line2d_78">
    <g clip-path="url(#p8a8722deac)">
     <use xlink:href="#mc214e0b2e5" x="331.654737" y="121.475368" style="fill: #008000; stroke: #008000"/>
    </g>
   </g>
   <g id="line2d_79">
    <g clip-path="url(#p8a8722deac)">
     <use xlink:href="#mc214e0b2e5" x="331.654737" y="100.254316" style="fill: #008000; stroke: #008000"/>
    </g>
   </g>
   <g id="line2d_80">
    <g clip-path="url(#p8a8722deac)">
     <use xlink:href="#mc214e0b2e5" x="331.654737" y="79.033263" style="fill: #008000; stroke: #008000"/>
    </g>
   </g>
   <g id="line2d_81">
    <g clip-path="url(#p8a8722deac)">
     <use xlink:href="#mc214e0b2e5" x="352.875789" y="270.022737" style="fill: #008000; stroke: #008000"/>
    </g>
   </g>
   <g id="line2d_82">
    <g clip-path="url(#p8a8722deac)">
     <use xlink:href="#mc214e0b2e5" x="352.875789" y="248.801684" style="fill: #008000; stroke: #008000"/>
    </g>
   </g>
   <g id="line2d_83">
    <g clip-path="url(#p8a8722deac)">
     <use xlink:href="#mc214e0b2e5" x="352.875789" y="206.359579" style="fill: #008000; stroke: #008000"/>
    </g>
   </g>
   <g id="line2d_84">
    <g clip-path="url(#p8a8722deac)">
     <use xlink:href="#mc214e0b2e5" x="352.875789" y="185.138526" style="fill: #008000; stroke: #008000"/>
    </g>
   </g>
   <g id="line2d_85">
    <g clip-path="url(#p8a8722deac)">
     <use xlink:href="#mc214e0b2e5" x="352.875789" y="163.917474" style="fill: #008000; stroke: #008000"/>
    </g>
   </g>
   <g id="line2d_86">
    <g clip-path="url(#p8a8722deac)">
     <use xlink:href="#mc214e0b2e5" x="352.875789" y="121.475368" style="fill: #008000; stroke: #008000"/>
    </g>
   </g>
   <g id="line2d_87">
    <g clip-path="url(#p8a8722deac)">
     <use xlink:href="#mc214e0b2e5" x="352.875789" y="100.254316" style="fill: #008000; stroke: #008000"/>
    </g>
   </g>
   <g id="line2d_88">
    <g clip-path="url(#p8a8722deac)">
     <use xlink:href="#mc214e0b2e5" x="352.875789" y="79.033263" style="fill: #008000; stroke: #008000"/>
    </g>
   </g>
   <g id="patch_63">
    <path d="M 57.6 307.584 
L 57.6 41.472 
" style="fill: none; stroke: #000000; stroke-width: 0.8; stroke-linejoin: miter; stroke-linecap: square"/>
   </g>
   <g id="patch_64">
    <path d="M 414.72 307.584 
L 414.72 41.472 
" style="fill: none; stroke: #000000; stroke-width: 0.8; stroke-linejoin: miter; stroke-linecap: square"/>
   </g>
   <g id="patch_65">
    <path d="M 57.6 307.584 
L 414.72 307.584 
" style="fill: none; stroke: #000000; stroke-width: 0.8; stroke-linejoin: miter; stroke-linecap: square"/>
   </g>
   <g id="patch_66">
    <path d="M 57.6 41.472 
L 414.72 41.472 
" style="fill: none; stroke: #000000; stroke-width: 0.8; stroke-linejoin: miter; stroke-linecap: square"/>
   </g>
   <g id="text_17">
    <!-- Instancia: ../instances_OL2A/10x10/SAP-inst_0.6_10x10.dat -->
    <g transform="translate(58.100625 8.2635)scale(0.12 -0.12)">
     <defs>
      <path id="DejaVuSans-49" d="M 628 4666 
L 1259 4666 
L 1259 0 
L 628 0 
L 628 4666 
z
" transform="scale(0.015625)"/>
      <path id="DejaVuSans-6e" d="M 3513 2113 
L 3513 0 
L 2938 0 
L 2938 2094 
Q 2938 2591 2744 2837 
Q 2550 3084 2163 3084 
Q 1697 3084 1428 2787 
Q 1159 2491 1159 1978 
L 1159 0 
L 581 0 
L 581 3500 
L 1159 3500 
L 1159 2956 
Q 1366 3272 1645 3428 
Q 1925 3584 2291 3584 
Q 2894 3584 3203 3211 
Q 3513 2838 3513 2113 
z
" transform="scale(0.015625)"/>
      <path id="DejaVuSans-73" d="M 2834 3397 
L 2834 2853 
Q 2591 2978 2328 3040 
Q 2066 3103 1784 3103 
Q 1356 3103 1142 2972 
Q 928 2841 928 2578 
Q 928 2378 1081 2264 
Q 1234 2150 1697 2047 
L 1894 2003 
Q 2506 1872 2764 1633 
Q 3022 1394 3022 966 
Q 3022 478 2636 193 
Q 2250 -91 1575 -91 
Q 1294 -91 989 -36 
Q 684 19 347 128 
L 347 722 
Q 666 556 975 473 
Q 1284 391 1588 391 
Q 1994 391 2212 530 
Q 2431 669 2431 922 
Q 2431 1156 2273 1281 
Q 2116 1406 1581 1522 
L 1381 1569 
Q 847 1681 609 1914 
Q 372 2147 372 2553 
Q 372 3047 722 3315 
Q 1072 3584 1716 3584 
Q 2034 3584 2315 3537 
Q 2597 3491 2834 3397 
z
" transform="scale(0.015625)"/>
      <path id="DejaVuSans-74" d="M 1172 4494 
L 1172 3500 
L 2356 3500 
L 2356 3053 
L 1172 3053 
L 1172 1153 
Q 1172 725 1289 603 
Q 1406 481 1766 481 
L 2356 481 
L 2356 0 
L 1766 0 
Q 1100 0 847 248 
Q 594 497 594 1153 
L 594 3053 
L 172 3053 
L 172 3500 
L 594 3500 
L 594 4494 
L 1172 4494 
z
" transform="scale(0.015625)"/>
      <path id="DejaVuSans-61" d="M 2194 1759 
Q 1497 1759 1228 1600 
Q 959 1441 959 1056 
Q 959 750 1161 570 
Q 1363 391 1709 391 
Q 2188 391 2477 730 
Q 2766 1069 2766 1631 
L 2766 1759 
L 2194 1759 
z
M 3341 1997 
L 3341 0 
L 2766 0 
L 2766 531 
Q 2569 213 2275 61 
Q 1981 -91 1556 -91 
Q 1019 -91 701 211 
Q 384 513 384 1019 
Q 384 1609 779 1909 
Q 1175 2209 1959 2209 
L 2766 2209 
L 2766 2266 
Q 2766 2663 2505 2880 
Q 2244 3097 1772 3097 
Q 1472 3097 1187 3025 
Q 903 2953 641 2809 
L 641 3341 
Q 956 3463 1253 3523 
Q 1550 3584 1831 3584 
Q 2591 3584 2966 3190 
Q 3341 2797 3341 1997 
z
" transform="scale(0.015625)"/>
      <path id="DejaVuSans-63" d="M 3122 3366 
L 3122 2828 
Q 2878 2963 2633 3030 
Q 2388 3097 2138 3097 
Q 1578 3097 1268 2742 
Q 959 2388 959 1747 
Q 959 1106 1268 751 
Q 1578 397 2138 397 
Q 2388 397 2633 464 
Q 2878 531 3122 666 
L 3122 134 
Q 2881 22 2623 -34 
Q 2366 -91 2075 -91 
Q 1284 -91 818 406 
Q 353 903 353 1747 
Q 353 2603 823 3093 
Q 1294 3584 2113 3584 
Q 2378 3584 2631 3529 
Q 2884 3475 3122 3366 
z
" transform="scale(0.015625)"/>
      <path id="DejaVuSans-3a" d="M 750 794 
L 1409 794 
L 1409 0 
L 750 0 
L 750 794 
z
M 750 3309 
L 1409 3309 
L 1409 2516 
L 750 2516 
L 750 3309 
z
" transform="scale(0.015625)"/>
      <path id="DejaVuSans-2e" d="M 684 794 
L 1344 794 
L 1344 0 
L 684 0 
L 684 794 
z
" transform="scale(0.015625)"/>
      <path id="DejaVuSans-2f" d="M 1625 4666 
L 2156 4666 
L 531 -594 
L 0 -594 
L 1625 4666 
z
" transform="scale(0.015625)"/>
      <path id="DejaVuSans-65" d="M 3597 1894 
L 3597 1613 
L 953 1613 
Q 991 1019 1311 708 
Q 1631 397 2203 397 
Q 2534 397 2845 478 
Q 3156 559 3463 722 
L 3463 178 
Q 3153 47 2828 -22 
Q 2503 -91 2169 -91 
Q 1331 -91 842 396 
Q 353 884 353 1716 
Q 353 2575 817 3079 
Q 1281 3584 2069 3584 
Q 2775 3584 3186 3129 
Q 3597 2675 3597 1894 
z
M 3022 2063 
Q 3016 2534 2758 2815 
Q 2500 3097 2075 3097 
Q 1594 3097 1305 2825 
Q 1016 2553 972 2059 
L 3022 2063 
z
" transform="scale(0.015625)"/>
      <path id="DejaVuSans-5f" d="M 3263 -1063 
L 3263 -1509 
L -63 -1509 
L -63 -1063 
L 3263 -1063 
z
" transform="scale(0.015625)"/>
      <path id="DejaVuSans-4f" d="M 2522 4238 
Q 1834 4238 1429 3725 
Q 1025 3213 1025 2328 
Q 1025 1447 1429 934 
Q 1834 422 2522 422 
Q 3209 422 3611 934 
Q 4013 1447 4013 2328 
Q 4013 3213 3611 3725 
Q 3209 4238 2522 4238 
z
M 2522 4750 
Q 3503 4750 4090 4092 
Q 4678 3434 4678 2328 
Q 4678 1225 4090 567 
Q 3503 -91 2522 -91 
Q 1538 -91 948 565 
Q 359 1222 359 2328 
Q 359 3434 948 4092 
Q 1538 4750 2522 4750 
z
" transform="scale(0.015625)"/>
      <path id="DejaVuSans-4c" d="M 628 4666 
L 1259 4666 
L 1259 531 
L 3531 531 
L 3531 0 
L 628 0 
L 628 4666 
z
" transform="scale(0.015625)"/>
      <path id="DejaVuSans-41" d="M 2188 4044 
L 1331 1722 
L 3047 1722 
L 2188 4044 
z
M 1831 4666 
L 2547 4666 
L 4325 0 
L 3669 0 
L 3244 1197 
L 1141 1197 
L 716 0 
L 50 0 
L 1831 4666 
z
" transform="scale(0.015625)"/>
      <path id="DejaVuSans-53" d="M 3425 4513 
L 3425 3897 
Q 3066 4069 2747 4153 
Q 2428 4238 2131 4238 
Q 1616 4238 1336 4038 
Q 1056 3838 1056 3469 
Q 1056 3159 1242 3001 
Q 1428 2844 1947 2747 
L 2328 2669 
Q 3034 2534 3370 2195 
Q 3706 1856 3706 1288 
Q 3706 609 3251 259 
Q 2797 -91 1919 -91 
Q 1588 -91 1214 -16 
Q 841 59 441 206 
L 441 856 
Q 825 641 1194 531 
Q 1563 422 1919 422 
Q 2459 422 2753 634 
Q 3047 847 3047 1241 
Q 3047 1584 2836 1778 
Q 2625 1972 2144 2069 
L 1759 2144 
Q 1053 2284 737 2584 
Q 422 2884 422 3419 
Q 422 4038 858 4394 
Q 1294 4750 2059 4750 
Q 2388 4750 2728 4690 
Q 3069 4631 3425 4513 
z
" transform="scale(0.015625)"/>
      <path id="DejaVuSans-50" d="M 1259 4147 
L 1259 2394 
L 2053 2394 
Q 2494 2394 2734 2622 
Q 2975 2850 2975 3272 
Q 2975 3691 2734 3919 
Q 2494 4147 2053 4147 
L 1259 4147 
z
M 628 4666 
L 2053 4666 
Q 2838 4666 3239 4311 
Q 3641 3956 3641 3272 
Q 3641 2581 3239 2228 
Q 2838 1875 2053 1875 
L 1259 1875 
L 1259 0 
L 628 0 
L 628 4666 
z
" transform="scale(0.015625)"/>
      <path id="DejaVuSans-2d" d="M 313 2009 
L 1997 2009 
L 1997 1497 
L 313 1497 
L 313 2009 
z
" transform="scale(0.015625)"/>
      <path id="DejaVuSans-64" d="M 2906 2969 
L 2906 4863 
L 3481 4863 
L 3481 0 
L 2906 0 
L 2906 525 
Q 2725 213 2448 61 
Q 2172 -91 1784 -91 
Q 1150 -91 751 415 
Q 353 922 353 1747 
Q 353 2572 751 3078 
Q 1150 3584 1784 3584 
Q 2172 3584 2448 3432 
Q 2725 3281 2906 2969 
z
M 947 1747 
Q 947 1113 1208 752 
Q 1469 391 1925 391 
Q 2381 391 2643 752 
Q 2906 1113 2906 1747 
Q 2906 2381 2643 2742 
Q 2381 3103 1925 3103 
Q 1469 3103 1208 2742 
Q 947 2381 947 1747 
z
" transform="scale(0.015625)"/>
     </defs>
     <use xlink:href="#DejaVuSans-49"/>
     <use xlink:href="#DejaVuSans-6e" x="29.492188"/>
     <use xlink:href="#DejaVuSans-73" x="92.871094"/>
     <use xlink:href="#DejaVuSans-74" x="144.970703"/>
     <use xlink:href="#DejaVuSans-61" x="184.179688"/>
     <use xlink:href="#DejaVuSans-6e" x="245.458984"/>
     <use xlink:href="#DejaVuSans-63" x="308.837891"/>
     <use xlink:href="#DejaVuSans-69" x="363.818359"/>
     <use xlink:href="#DejaVuSans-61" x="391.601562"/>
     <use xlink:href="#DejaVuSans-3a" x="452.880859"/>
     <use xlink:href="#DejaVuSans-20" x="486.572266"/>
     <use xlink:href="#DejaVuSans-2e" x="518.359375"/>
     <use xlink:href="#DejaVuSans-2e" x="550.146484"/>
     <use xlink:href="#DejaVuSans-2f" x="581.933594"/>
     <use xlink:href="#DejaVuSans-69" x="615.625"/>
     <use xlink:href="#DejaVuSans-6e" x="643.408203"/>
     <use xlink:href="#DejaVuSans-73" x="706.787109"/>
     <use xlink:href="#DejaVuSans-74" x="758.886719"/>
     <use xlink:href="#DejaVuSans-61" x="798.095703"/>
     <use xlink:href="#DejaVuSans-6e" x="859.375"/>
     <use xlink:href="#DejaVuSans-63" x="922.753906"/>
     <use xlink:href="#DejaVuSans-65" x="977.734375"/>
     <use xlink:href="#DejaVuSans-73" x="1039.257812"/>
     <use xlink:href="#DejaVuSans-5f" x="1091.357422"/>
     <use xlink:href="#DejaVuSans-4f" x="1141.357422"/>
     <use xlink:href="#DejaVuSans-4c" x="1220.068359"/>
     <use xlink:href="#DejaVuSans-32" x="1275.78125"/>
     <use xlink:href="#DejaVuSans-41" x="1339.404297"/>
     <use xlink:href="#DejaVuSans-2f" x="1407.8125"/>
     <use xlink:href="#DejaVuSans-31" x="1441.503906"/>
     <use xlink:href="#DejaVuSans-30" x="1505.126953"/>
     <use xlink:href="#DejaVuSans-78" x="1568.75"/>
     <use xlink:href="#DejaVuSans-31" x="1627.929688"/>
     <use xlink:href="#DejaVuSans-30" x="1691.552734"/>
     <use xlink:href="#DejaVuSans-2f" x="1755.175781"/>
     <use xlink:href="#DejaVuSans-53" x="1788.867188"/>
     <use xlink:href="#DejaVuSans-41" x="1854.21875"/>
     <use xlink:href="#DejaVuSans-50" x="1922.626953"/>
     <use xlink:href="#DejaVuSans-2d" x="1980.679688"/>
     <use xlink:href="#DejaVuSans-69" x="2016.763672"/>
     <use xlink:href="#DejaVuSans-6e" x="2044.546875"/>
     <use xlink:href="#DejaVuSans-73" x="2107.925781"/>
     <use xlink:href="#DejaVuSans-74" x="2160.025391"/>
     <use xlink:href="#DejaVuSans-5f" x="2199.234375"/>
     <use xlink:href="#DejaVuSans-30" x="2249.234375"/>
     <use xlink:href="#DejaVuSans-2e" x="2312.857422"/>
     <use xlink:href="#DejaVuSans-36" x="2344.644531"/>
     <use xlink:href="#DejaVuSans-5f" x="2408.267578"/>
     <use xlink:href="#DejaVuSans-31" x="2458.267578"/>
     <use xlink:href="#DejaVuSans-30" x="2521.890625"/>
     <use xlink:href="#DejaVuSans-78" x="2585.513672"/>
     <use xlink:href="#DejaVuSans-31" x="2644.693359"/>
     <use xlink:href="#DejaVuSans-30" x="2708.316406"/>
     <use xlink:href="#DejaVuSans-2e" x="2771.939453"/>
     <use xlink:href="#DejaVuSans-64" x="2803.726562"/>
     <use xlink:href="#DejaVuSans-61" x="2867.203125"/>
     <use xlink:href="#DejaVuSans-74" x="2928.482422"/>
    </g>
    <!-- Escala: 1:1000m -->
    <g transform="translate(186.042188 22.034625)scale(0.12 -0.12)">
     <defs>
      <path id="DejaVuSans-6c" d="M 603 4863 
L 1178 4863 
L 1178 0 
L 603 0 
L 603 4863 
z
" transform="scale(0.015625)"/>
     </defs>
     <use xlink:href="#DejaVuSans-45"/>
     <use xlink:href="#DejaVuSans-73" x="63.183594"/>
     <use xlink:href="#DejaVuSans-63" x="115.283203"/>
     <use xlink:href="#DejaVuSans-61" x="170.263672"/>
     <use xlink:href="#DejaVuSans-6c" x="231.542969"/>
     <use xlink:href="#DejaVuSans-61" x="259.326172"/>
     <use xlink:href="#DejaVuSans-3a" x="320.605469"/>
     <use xlink:href="#DejaVuSans-20" x="354.296875"/>
     <use xlink:href="#DejaVuSans-31" x="386.083984"/>
     <use xlink:href="#DejaVuSans-3a" x="449.707031"/>
     <use xlink:href="#DejaVuSans-31" x="483.398438"/>
     <use xlink:href="#DejaVuSans-30" x="547.021484"/>
     <use xlink:href="#DejaVuSans-30" x="610.644531"/>
     <use xlink:href="#DejaVuSans-30" x="674.267578"/>
     <use xlink:href="#DejaVuSans-6d" x="737.890625"/>
    </g>
    <!-- Alphas: 0.5E, 0.5C, 0M  -  Tempo: 12.3 s -->
    <g transform="translate(116.586562 35.472)scale(0.12 -0.12)">
     <defs>
      <path id="DejaVuSans-70" d="M 1159 525 
L 1159 -1331 
L 581 -1331 
L 581 3500 
L 1159 3500 
L 1159 2969 
Q 1341 3281 1617 3432 
Q 1894 3584 2278 3584 
Q 2916 3584 3314 3078 
Q 3713 2572 3713 1747 
Q 3713 922 3314 415 
Q 2916 -91 2278 -91 
Q 1894 -91 1617 61 
Q 1341 213 1159 525 
z
M 3116 1747 
Q 3116 2381 2855 2742 
Q 2594 3103 2138 3103 
Q 1681 3103 1420 2742 
Q 1159 2381 1159 1747 
Q 1159 1113 1420 752 
Q 1681 391 2138 391 
Q 2594 391 2855 752 
Q 3116 1113 3116 1747 
z
" transform="scale(0.015625)"/>
      <path id="DejaVuSans-68" d="M 3513 2113 
L 3513 0 
L 2938 0 
L 2938 2094 
Q 2938 2591 2744 2837 
Q 2550 3084 2163 3084 
Q 1697 3084 1428 2787 
Q 1159 2491 1159 1978 
L 1159 0 
L 581 0 
L 581 4863 
L 1159 4863 
L 1159 2956 
Q 1366 3272 1645 3428 
Q 1925 3584 2291 3584 
Q 2894 3584 3203 3211 
Q 3513 2838 3513 2113 
z
" transform="scale(0.015625)"/>
      <path id="DejaVuSans-35" d="M 691 4666 
L 3169 4666 
L 3169 4134 
L 1269 4134 
L 1269 2991 
Q 1406 3038 1543 3061 
Q 1681 3084 1819 3084 
Q 2600 3084 3056 2656 
Q 3513 2228 3513 1497 
Q 3513 744 3044 326 
Q 2575 -91 1722 -91 
Q 1428 -91 1123 -41 
Q 819 9 494 109 
L 494 744 
Q 775 591 1075 516 
Q 1375 441 1709 441 
Q 2250 441 2565 725 
Q 2881 1009 2881 1497 
Q 2881 1984 2565 2268 
Q 2250 2553 1709 2553 
Q 1456 2553 1204 2497 
Q 953 2441 691 2322 
L 691 4666 
z
" transform="scale(0.015625)"/>
      <path id="DejaVuSans-2c" d="M 750 794 
L 1409 794 
L 1409 256 
L 897 -744 
L 494 -744 
L 750 256 
L 750 794 
z
" transform="scale(0.015625)"/>
      <path id="DejaVuSans-43" d="M 4122 4306 
L 4122 3641 
Q 3803 3938 3442 4084 
Q 3081 4231 2675 4231 
Q 1875 4231 1450 3742 
Q 1025 3253 1025 2328 
Q 1025 1406 1450 917 
Q 1875 428 2675 428 
Q 3081 428 3442 575 
Q 3803 722 4122 1019 
L 4122 359 
Q 3791 134 3420 21 
Q 3050 -91 2638 -91 
Q 1578 -91 968 557 
Q 359 1206 359 2328 
Q 359 3453 968 4101 
Q 1578 4750 2638 4750 
Q 3056 4750 3426 4639 
Q 3797 4528 4122 4306 
z
" transform="scale(0.015625)"/>
      <path id="DejaVuSans-4d" d="M 628 4666 
L 1569 4666 
L 2759 1491 
L 3956 4666 
L 4897 4666 
L 4897 0 
L 4281 0 
L 4281 4097 
L 3078 897 
L 2444 897 
L 1241 4097 
L 1241 0 
L 628 0 
L 628 4666 
z
" transform="scale(0.015625)"/>
      <path id="DejaVuSans-54" d="M -19 4666 
L 3928 4666 
L 3928 4134 
L 2272 4134 
L 2272 0 
L 1638 0 
L 1638 4134 
L -19 4134 
L -19 4666 
z
" transform="scale(0.015625)"/>
      <path id="DejaVuSans-33" d="M 2597 2516 
Q 3050 2419 3304 2112 
Q 3559 1806 3559 1356 
Q 3559 666 3084 287 
Q 2609 -91 1734 -91 
Q 1441 -91 1130 -33 
Q 819 25 488 141 
L 488 750 
Q 750 597 1062 519 
Q 1375 441 1716 441 
Q 2309 441 2620 675 
Q 2931 909 2931 1356 
Q 2931 1769 2642 2001 
Q 2353 2234 1838 2234 
L 1294 2234 
L 1294 2753 
L 1863 2753 
Q 2328 2753 2575 2939 
Q 2822 3125 2822 3475 
Q 2822 3834 2567 4026 
Q 2313 4219 1838 4219 
Q 1578 4219 1281 4162 
Q 984 4106 628 3988 
L 628 4550 
Q 988 4650 1302 4700 
Q 1616 4750 1894 4750 
Q 2613 4750 3031 4423 
Q 3450 4097 3450 3541 
Q 3450 3153 3228 2886 
Q 3006 2619 2597 2516 
z
" transform="scale(0.015625)"/>
     </defs>
     <use xlink:href="#DejaVuSans-41"/>
     <use xlink:href="#DejaVuSans-6c" x="68.408203"/>
     <use xlink:href="#DejaVuSans-70" x="96.191406"/>
     <use xlink:href="#DejaVuSans-68" x="159.667969"/>
     <use xlink:href="#DejaVuSans-61" x="223.046875"/>
     <use xlink:href="#DejaVuSans-73" x="284.326172"/>
     <use xlink:href="#DejaVuSans-3a" x="336.425781"/>
     <use xlink:href="#DejaVuSans-20" x="370.117188"/>
     <use xlink:href="#DejaVuSans-30" x="401.904297"/>
     <use xlink:href="#DejaVuSans-2e" x="465.527344"/>
     <use xlink:href="#DejaVuSans-35" x="497.314453"/>
     <use xlink:href="#DejaVuSans-45" x="560.9375"/>
     <use xlink:href="#DejaVuSans-2c" x="624.121094"/>
     <use xlink:href="#DejaVuSans-20" x="655.908203"/>
     <use xlink:href="#DejaVuSans-30" x="687.695312"/>
     <use xlink:href="#DejaVuSans-2e" x="751.318359"/>
     <use xlink:href="#DejaVuSans-35" x="783.105469"/>
     <use xlink:href="#DejaVuSans-43" x="846.728516"/>
     <use xlink:href="#DejaVuSans-2c" x="916.552734"/>
     <use xlink:href="#DejaVuSans-20" x="948.339844"/>
     <use xlink:href="#DejaVuSans-30" x="980.126953"/>
     <use xlink:href="#DejaVuSans-4d" x="1043.75"/>
     <use xlink:href="#DejaVuSans-20" x="1130.029297"/>
     <use xlink:href="#DejaVuSans-20" x="1161.816406"/>
     <use xlink:href="#DejaVuSans-2d" x="1193.603516"/>
     <use xlink:href="#DejaVuSans-20" x="1229.6875"/>
     <use xlink:href="#DejaVuSans-20" x="1261.474609"/>
     <use xlink:href="#DejaVuSans-54" x="1293.261719"/>
     <use xlink:href="#DejaVuSans-65" x="1337.345703"/>
     <use xlink:href="#DejaVuSans-6d" x="1398.869141"/>
     <use xlink:href="#DejaVuSans-70" x="1496.28125"/>
     <use xlink:href="#DejaVuSans-6f" x="1559.757812"/>
     <use xlink:href="#DejaVuSans-3a" x="1620.939453"/>
     <use xlink:href="#DejaVuSans-20" x="1654.630859"/>
     <use xlink:href="#DejaVuSans-31" x="1686.417969"/>
     <use xlink:href="#DejaVuSans-32" x="1750.041016"/>
     <use xlink:href="#DejaVuSans-2e" x="1813.664062"/>
     <use xlink:href="#DejaVuSans-33" x="1845.451172"/>
     <use xlink:href="#DejaVuSans-20" x="1909.074219"/>
     <use xlink:href="#DejaVuSans-73" x="1940.861328"/>
    </g>
   </g>
   <g id="legend_1">
    <g id="patch_67">
     <path d="M 340.166875 93.506375 
L 407.72 93.506375 
Q 409.72 93.506375 409.72 91.506375 
L 409.72 48.472 
Q 409.72 46.472 407.72 46.472 
L 340.166875 46.472 
Q 338.166875 46.472 338.166875 48.472 
L 338.166875 91.506375 
Q 338.166875 93.506375 340.166875 93.506375 
z
" style="fill: #ffffff; opacity: 0.8; stroke: #cccccc; stroke-linejoin: miter"/>
    </g>
    <g id="patch_68">
     <path d="M 342.166875 58.070438 
L 362.166875 58.070438 
L 362.166875 51.070438 
L 342.166875 51.070438 
z
" style="fill: #ff0000; stroke: #ff0000; stroke-linejoin: miter"/>
    </g>
    <g id="text_18">
     <!-- S3 -->
     <g transform="translate(370.166875 58.070438)scale(0.1 -0.1)">
      <use xlink:href="#DejaVuSans-53"/>
      <use xlink:href="#DejaVuSans-33" x="63.476562"/>
     </g>
    </g>
    <g id="patch_69">
     <path d="M 342.166875 72.748563 
L 362.166875 72.748563 
L 362.166875 65.748563 
L 342.166875 65.748563 
z
" style="fill: #0000ff; stroke: #0000ff; stroke-linejoin: miter"/>
    </g>
    <g id="text_19">
     <!-- S2CPro -->
     <g transform="translate(370.166875 72.748563)scale(0.1 -0.1)">
      <defs>
       <path id="DejaVuSans-72" d="M 2631 2963 
Q 2534 3019 2420 3045 
Q 2306 3072 2169 3072 
Q 1681 3072 1420 2755 
Q 1159 2438 1159 1844 
L 1159 0 
L 581 0 
L 581 3500 
L 1159 3500 
L 1159 2956 
Q 1341 3275 1631 3429 
Q 1922 3584 2338 3584 
Q 2397 3584 2469 3576 
Q 2541 3569 2628 3553 
L 2631 2963 
z
" transform="scale(0.015625)"/>
      </defs>
      <use xlink:href="#DejaVuSans-53"/>
      <use xlink:href="#DejaVuSans-32" x="63.476562"/>
      <use xlink:href="#DejaVuSans-43" x="127.099609"/>
      <use xlink:href="#DejaVuSans-50" x="196.923828"/>
      <use xlink:href="#DejaVuSans-72" x="255.476562"/>
      <use xlink:href="#DejaVuSans-6f" x="294.339844"/>
     </g>
    </g>
    <g id="patch_70">
     <path d="M 342.166875 87.426688 
L 362.166875 87.426688 
L 362.166875 80.426688 
L 342.166875 80.426688 
z
" style="fill: #008000; stroke: #008000; stroke-linejoin: miter"/>
    </g>
    <g id="text_20">
     <!-- S2C -->
     <g transform="translate(370.166875 87.426688)scale(0.1 -0.1)">
      <use xlink:href="#DejaVuSans-53"/>
      <use xlink:href="#DejaVuSans-32" x="63.476562"/>
      <use xlink:href="#DejaVuSans-43" x="127.099609"/>
     </g>
    </g>
   </g>
  </g>
 </g>
 <defs>
  <clipPath id="p8a8722deac">
   <rect x="57.6" y="41.472" width="357.12" height="266.112"/>
  </clipPath>
 </defs>
</svg>
