<?xml version="1.0" encoding="utf-8" standalone="no"?>
<!DOCTYPE svg PUBLIC "-//W3C//DTD SVG 1.1//EN"
  "http://www.w3.org/Graphics/SVG/1.1/DTD/svg11.dtd">
<svg xmlns:xlink="http://www.w3.org/1999/xlink" width="460.8pt" height="345.6pt" viewBox="0 0 460.8 345.6" xmlns="http://www.w3.org/2000/svg" version="1.1">
 <metadata>
  <rdf:RDF xmlns:dc="http://purl.org/dc/elements/1.1/" xmlns:cc="http://creativecommons.org/ns#" xmlns:rdf="http://www.w3.org/1999/02/22-rdf-syntax-ns#">
   <cc:Work>
    <dc:type rdf:resource="http://purl.org/dc/dcmitype/StillImage"/>
    <dc:date>2023-07-17T22:51:56.598255</dc:date>
    <dc:format>image/svg+xml</dc:format>
    <dc:creator>
     <cc:Agent>
      <dc:title>Matplotlib v3.5.2, https://matplotlib.org/</dc:title>
     </cc:Agent>
    </dc:creator>
   </cc:Work>
  </rdf:RDF>
 </metadata>
 <defs>
  <style type="text/css">*{stroke-linejoin: round; stroke-linecap: butt}</style>
 </defs>
 <g id="figure_1">
  <g id="patch_1">
   <path d="M 0 345.6 
L 460.8 345.6 
L 460.8 0 
L 0 0 
z
" style="fill: #ffffff"/>
  </g>
  <g id="axes_1">
   <g id="patch_2">
    <path d="M 57.6 307.584 
L 414.72 307.584 
L 414.72 41.472 
L 57.6 41.472 
z
" style="fill: #ffffff"/>
   </g>
   <g id="patch_3">
    <path d="M 181.998806 295.488 
C 187.744293 295.488 193.255232 293.205294 197.317905 289.142621 
C 201.380578 285.079949 203.663284 279.569009 203.663284 273.823522 
C 203.663284 268.078036 201.380578 262.567096 197.317905 258.504423 
C 193.255232 254.441751 187.744293 252.159045 181.998806 252.159045 
C 176.253319 252.159045 170.742379 254.441751 166.679707 258.504423 
C 162.617034 262.567096 160.334328 268.078036 160.334328 273.823522 
C 160.334328 279.569009 162.617034 285.079949 166.679707 289.142621 
C 170.742379 293.205294 176.253319 295.488 181.998806 295.488 
z
" clip-path="url(#pf71262d244)" style="fill: #008000; opacity: 0.1; stroke: #008000; stroke-linejoin: miter"/>
   </g>
   <g id="patch_4">
    <path d="M 181.998806 277.434269 
C 187.744293 277.434269 193.255232 275.151563 197.317905 271.08889 
C 201.380578 267.026218 203.663284 261.515278 203.663284 255.769791 
C 203.663284 250.024304 201.380578 244.513365 197.317905 240.450692 
C 193.255232 236.388019 187.744293 234.105313 181.998806 234.105313 
C 176.253319 234.105313 170.742379 236.388019 166.679707 240.450692 
C 162.617034 244.513365 160.334328 250.024304 160.334328 255.769791 
C 160.334328 261.515278 162.617034 267.026218 166.679707 271.08889 
C 170.742379 275.151563 176.253319 277.434269 181.998806 277.434269 
z
" clip-path="url(#pf71262d244)" style="fill: #008000; opacity: 0.1; stroke: #008000; stroke-linejoin: miter"/>
   </g>
   <g id="patch_5">
    <path d="M 181.998806 277.434269 
C 197.320104 277.434269 212.015943 271.347053 222.849737 260.513259 
C 233.68353 249.679466 239.770746 234.983626 239.770746 219.662328 
C 239.770746 204.341031 233.68353 189.645191 222.849737 178.811398 
C 212.015943 167.977604 197.320104 161.890388 181.998806 161.890388 
C 166.677508 161.890388 151.981669 167.977604 141.147875 178.811398 
C 130.314082 189.645191 124.226866 204.341031 124.226866 219.662328 
C 124.226866 234.983626 130.314082 249.679466 141.147875 260.513259 
C 151.981669 271.347053 166.677508 277.434269 181.998806 277.434269 
z
" clip-path="url(#pf71262d244)" style="fill: #0000ff; opacity: 0.1; stroke: #0000ff; stroke-linejoin: miter"/>
   </g>
   <g id="patch_6">
    <path d="M 200.052537 295.488 
C 205.798024 295.488 211.308964 293.205294 215.371636 289.142621 
C 219.434309 285.079949 221.717015 279.569009 221.717015 273.823522 
C 221.717015 268.078036 219.434309 262.567096 215.371636 258.504423 
C 211.308964 254.441751 205.798024 252.159045 200.052537 252.159045 
C 194.307051 252.159045 188.796111 254.441751 184.733438 258.504423 
C 180.670766 262.567096 178.38806 268.078036 178.38806 273.823522 
C 178.38806 279.569009 180.670766 285.079949 184.733438 289.142621 
C 188.796111 293.205294 194.307051 295.488 200.052537 295.488 
z
" clip-path="url(#pf71262d244)" style="fill: #008000; opacity: 0.1; stroke: #008000; stroke-linejoin: miter"/>
   </g>
   <g id="patch_7">
    <path d="M 200.052537 295.488 
C 215.373835 295.488 230.069675 289.400784 240.903468 278.56699 
C 251.737262 267.733197 257.824478 253.037357 257.824478 237.71606 
C 257.824478 222.394762 251.737262 207.698922 240.903468 196.865129 
C 230.069675 186.031335 215.373835 179.944119 200.052537 179.944119 
C 184.73124 179.944119 170.0354 186.031335 159.201607 196.865129 
C 148.367813 207.698922 142.280597 222.394762 142.280597 237.71606 
C 142.280597 253.037357 148.367813 267.733197 159.201607 278.56699 
C 170.0354 289.400784 184.73124 295.488 200.052537 295.488 
z
" clip-path="url(#pf71262d244)" style="fill: #0000ff; opacity: 0.1; stroke: #0000ff; stroke-linejoin: miter"/>
   </g>
   <g id="patch_8">
    <path d="M 200.052537 259.380537 
C 215.373835 259.380537 230.069675 253.293321 240.903468 242.459528 
C 251.737262 231.625734 257.824478 216.929895 257.824478 201.608597 
C 257.824478 186.287299 251.737262 171.59146 240.903468 160.757666 
C 230.069675 149.923873 215.373835 143.836657 200.052537 143.836657 
C 184.73124 143.836657 170.0354 149.923873 159.201607 160.757666 
C 148.367813 171.59146 142.280597 186.287299 142.280597 201.608597 
C 142.280597 216.929895 148.367813 231.625734 159.201607 242.459528 
C 170.0354 253.293321 184.73124 259.380537 200.052537 259.380537 
z
" clip-path="url(#pf71262d244)" style="fill: #0000ff; opacity: 0.1; stroke: #0000ff; stroke-linejoin: miter"/>
   </g>
   <g id="patch_9">
    <path d="M 200.052537 169.111881 
C 215.373835 169.111881 230.069675 163.024665 240.903468 152.190871 
C 251.737262 141.357078 257.824478 126.661238 257.824478 111.33994 
C 257.824478 96.018643 251.737262 81.322803 240.903468 70.48901 
C 230.069675 59.655216 215.373835 53.568 200.052537 53.568 
C 184.73124 53.568 170.0354 59.655216 159.201607 70.48901 
C 148.367813 81.322803 142.280597 96.018643 142.280597 111.33994 
C 142.280597 126.661238 148.367813 141.357078 159.201607 152.190871 
C 170.0354 163.024665 184.73124 169.111881 200.052537 169.111881 
z
" clip-path="url(#pf71262d244)" style="fill: #0000ff; opacity: 0.1; stroke: #0000ff; stroke-linejoin: miter"/>
   </g>
   <g id="patch_10">
    <path d="M 218.106269 205.219343 
C 233.427566 205.219343 248.123406 199.132127 258.957199 188.298334 
C 269.790993 177.46454 275.878209 162.768701 275.878209 147.447403 
C 275.878209 132.126105 269.790993 117.430266 258.957199 106.596472 
C 248.123406 95.762679 233.427566 89.675463 218.106269 89.675463 
C 202.784971 89.675463 188.089131 95.762679 177.255338 106.596472 
C 166.421544 117.430266 160.334328 132.126105 160.334328 147.447403 
C 160.334328 162.768701 166.421544 177.46454 177.255338 188.298334 
C 188.089131 199.132127 202.784971 205.219343 218.106269 205.219343 
z
" clip-path="url(#pf71262d244)" style="fill: #0000ff; opacity: 0.1; stroke: #0000ff; stroke-linejoin: miter"/>
   </g>
   <g id="patch_11">
    <path d="M 236.16 295.488 
C 241.905487 295.488 247.416426 293.205294 251.479099 289.142621 
C 255.541772 285.079949 257.824478 279.569009 257.824478 273.823522 
C 257.824478 268.078036 255.541772 262.567096 251.479099 258.504423 
C 247.416426 254.441751 241.905487 252.159045 236.16 252.159045 
C 230.414513 252.159045 224.903574 254.441751 220.840901 258.504423 
C 216.778228 262.567096 214.495522 268.078036 214.495522 273.823522 
C 214.495522 279.569009 216.778228 285.079949 220.840901 289.142621 
C 224.903574 293.205294 230.414513 295.488 236.16 295.488 
z
" clip-path="url(#pf71262d244)" style="fill: #008000; opacity: 0.1; stroke: #008000; stroke-linejoin: miter"/>
   </g>
   <g id="patch_12">
    <path d="M 236.16 187.165612 
C 241.905487 187.165612 247.416426 184.882906 251.479099 180.820233 
C 255.541772 176.757561 257.824478 171.246621 257.824478 165.501134 
C 257.824478 159.755648 255.541772 154.244708 251.479099 150.182035 
C 247.416426 146.119363 241.905487 143.836657 236.16 143.836657 
C 230.414513 143.836657 224.903574 146.119363 220.840901 150.182035 
C 216.778228 154.244708 214.495522 159.755648 214.495522 165.501134 
C 214.495522 171.246621 216.778228 176.757561 220.840901 180.820233 
C 224.903574 184.882906 230.414513 187.165612 236.16 187.165612 
z
" clip-path="url(#pf71262d244)" style="fill: #008000; opacity: 0.1; stroke: #008000; stroke-linejoin: miter"/>
   </g>
   <g id="patch_13">
    <path d="M 254.213731 295.488 
C 259.959218 295.488 265.470158 293.205294 269.53283 289.142621 
C 273.595503 285.079949 275.878209 279.569009 275.878209 273.823522 
C 275.878209 268.078036 273.595503 262.567096 269.53283 258.504423 
C 265.470158 254.441751 259.959218 252.159045 254.213731 252.159045 
C 248.468245 252.159045 242.957305 254.441751 238.894632 258.504423 
C 234.83196 262.567096 232.549254 268.078036 232.549254 273.823522 
C 232.549254 279.569009 234.83196 285.079949 238.894632 289.142621 
C 242.957305 293.205294 248.468245 295.488 254.213731 295.488 
z
" clip-path="url(#pf71262d244)" style="fill: #008000; opacity: 0.1; stroke: #008000; stroke-linejoin: miter"/>
   </g>
   <g id="patch_14">
    <path d="M 254.213731 277.434269 
C 259.959218 277.434269 265.470158 275.151563 269.53283 271.08889 
C 273.595503 267.026218 275.878209 261.515278 275.878209 255.769791 
C 275.878209 250.024304 273.595503 244.513365 269.53283 240.450692 
C 265.470158 236.388019 259.959218 234.105313 254.213731 234.105313 
C 248.468245 234.105313 242.957305 236.388019 238.894632 240.450692 
C 234.83196 244.513365 232.549254 250.024304 232.549254 255.769791 
C 232.549254 261.515278 234.83196 267.026218 238.894632 271.08889 
C 242.957305 275.151563 248.468245 277.434269 254.213731 277.434269 
z
" clip-path="url(#pf71262d244)" style="fill: #008000; opacity: 0.1; stroke: #008000; stroke-linejoin: miter"/>
   </g>
   <g id="patch_15">
    <path d="M 254.213731 223.273075 
C 259.959218 223.273075 265.470158 220.990369 269.53283 216.927696 
C 273.595503 212.865023 275.878209 207.354084 275.878209 201.608597 
C 275.878209 195.86311 273.595503 190.352171 269.53283 186.289498 
C 265.470158 182.226825 259.959218 179.944119 254.213731 179.944119 
C 248.468245 179.944119 242.957305 182.226825 238.894632 186.289498 
C 234.83196 190.352171 232.549254 195.86311 232.549254 201.608597 
C 232.549254 207.354084 234.83196 212.865023 238.894632 216.927696 
C 242.957305 220.990369 248.468245 223.273075 254.213731 223.273075 
z
" clip-path="url(#pf71262d244)" style="fill: #008000; opacity: 0.1; stroke: #008000; stroke-linejoin: miter"/>
   </g>
   <g id="patch_16">
    <path d="M 254.213731 205.219343 
C 259.959218 205.219343 265.470158 202.936637 269.53283 198.873965 
C 273.595503 194.811292 275.878209 189.300352 275.878209 183.554866 
C 275.878209 177.809379 273.595503 172.298439 269.53283 168.235767 
C 265.470158 164.173094 259.959218 161.890388 254.213731 161.890388 
C 248.468245 161.890388 242.957305 164.173094 238.894632 168.235767 
C 234.83196 172.298439 232.549254 177.809379 232.549254 183.554866 
C 232.549254 189.300352 234.83196 194.811292 238.894632 198.873965 
C 242.957305 202.936637 248.468245 205.219343 254.213731 205.219343 
z
" clip-path="url(#pf71262d244)" style="fill: #008000; opacity: 0.1; stroke: #008000; stroke-linejoin: miter"/>
   </g>
   <g id="patch_17">
    <path d="M 254.213731 187.165612 
C 259.959218 187.165612 265.470158 184.882906 269.53283 180.820233 
C 273.595503 176.757561 275.878209 171.246621 275.878209 165.501134 
C 275.878209 159.755648 273.595503 154.244708 269.53283 150.182035 
C 265.470158 146.119363 259.959218 143.836657 254.213731 143.836657 
C 248.468245 143.836657 242.957305 146.119363 238.894632 150.182035 
C 234.83196 154.244708 232.549254 159.755648 232.549254 165.501134 
C 232.549254 171.246621 234.83196 176.757561 238.894632 180.820233 
C 242.957305 184.882906 248.468245 187.165612 254.213731 187.165612 
z
" clip-path="url(#pf71262d244)" style="fill: #008000; opacity: 0.1; stroke: #008000; stroke-linejoin: miter"/>
   </g>
   <g id="patch_18">
    <path d="M 272.267463 223.273075 
C 278.012949 223.273075 283.523889 220.990369 287.586562 216.927696 
C 291.649234 212.865023 293.93194 207.354084 293.93194 201.608597 
C 293.93194 195.86311 291.649234 190.352171 287.586562 186.289498 
C 283.523889 182.226825 278.012949 179.944119 272.267463 179.944119 
C 266.521976 179.944119 261.011036 182.226825 256.948364 186.289498 
C 252.885691 190.352171 250.602985 195.86311 250.602985 201.608597 
C 250.602985 207.354084 252.885691 212.865023 256.948364 216.927696 
C 261.011036 220.990369 266.521976 223.273075 272.267463 223.273075 
z
" clip-path="url(#pf71262d244)" style="fill: #008000; opacity: 0.1; stroke: #008000; stroke-linejoin: miter"/>
   </g>
   <g id="patch_19">
    <path d="M 290.321194 241.326806 
C 296.066681 241.326806 301.577621 239.0441 305.640293 234.981427 
C 309.702966 230.918755 311.985672 225.407815 311.985672 219.662328 
C 311.985672 213.916842 309.702966 208.405902 305.640293 204.343229 
C 301.577621 200.280557 296.066681 197.997851 290.321194 197.997851 
C 284.575707 197.997851 279.064768 200.280557 275.002095 204.343229 
C 270.939422 208.405902 268.656716 213.916842 268.656716 219.662328 
C 268.656716 225.407815 270.939422 230.918755 275.002095 234.981427 
C 279.064768 239.0441 284.575707 241.326806 290.321194 241.326806 
z
" clip-path="url(#pf71262d244)" style="fill: #008000; opacity: 0.1; stroke: #008000; stroke-linejoin: miter"/>
   </g>
   <g id="patch_20">
    <path d="M 290.321194 223.273075 
C 296.066681 223.273075 301.577621 220.990369 305.640293 216.927696 
C 309.702966 212.865023 311.985672 207.354084 311.985672 201.608597 
C 311.985672 195.86311 309.702966 190.352171 305.640293 186.289498 
C 301.577621 182.226825 296.066681 179.944119 290.321194 179.944119 
C 284.575707 179.944119 279.064768 182.226825 275.002095 186.289498 
C 270.939422 190.352171 268.656716 195.86311 268.656716 201.608597 
C 268.656716 207.354084 270.939422 212.865023 275.002095 216.927696 
C 279.064768 220.990369 284.575707 223.273075 290.321194 223.273075 
z
" clip-path="url(#pf71262d244)" style="fill: #008000; opacity: 0.1; stroke: #008000; stroke-linejoin: miter"/>
   </g>
   <g id="patch_21">
    <path d="M 290.321194 223.273075 
C 305.642492 223.273075 320.338331 217.185859 331.172125 206.352065 
C 342.005918 195.518272 348.093134 180.822432 348.093134 165.501134 
C 348.093134 150.179837 342.005918 135.483997 331.172125 124.650204 
C 320.338331 113.81641 305.642492 107.729194 290.321194 107.729194 
C 274.999896 107.729194 260.304057 113.81641 249.470263 124.650204 
C 238.63647 135.483997 232.549254 150.179837 232.549254 165.501134 
C 232.549254 180.822432 238.63647 195.518272 249.470263 206.352065 
C 260.304057 217.185859 274.999896 223.273075 290.321194 223.273075 
z
" clip-path="url(#pf71262d244)" style="fill: #0000ff; opacity: 0.1; stroke: #0000ff; stroke-linejoin: miter"/>
   </g>
   <g id="matplotlib.axis_1">
    <g id="xtick_1">
     <g id="line2d_1">
      <path d="M 82.703284 307.584 
L 82.703284 41.472 
" clip-path="url(#pf71262d244)" style="fill: none; stroke-dasharray: 1.85,0.8; stroke-dashoffset: 0; stroke: #b0b0b0; stroke-opacity: 0.5; stroke-width: 0.5"/>
     </g>
     <g id="line2d_2">
      <defs>
       <path id="mbc0351ef6a" d="M 0 0 
L 0 3.5 
" style="stroke: #000000; stroke-width: 0.8"/>
      </defs>
      <g>
       <use xlink:href="#mbc0351ef6a" x="82.703284" y="307.584" style="stroke: #000000; stroke-width: 0.8"/>
      </g>
     </g>
     <g id="text_1">
      <!-- −2.5 -->
      <g transform="translate(70.561877 322.182437)scale(0.1 -0.1)">
       <defs>
        <path id="DejaVuSans-2212" d="M 678 2272 
L 4684 2272 
L 4684 1741 
L 678 1741 
L 678 2272 
z
" transform="scale(0.015625)"/>
        <path id="DejaVuSans-32" d="M 1228 531 
L 3431 531 
L 3431 0 
L 469 0 
L 469 531 
Q 828 903 1448 1529 
Q 2069 2156 2228 2338 
Q 2531 2678 2651 2914 
Q 2772 3150 2772 3378 
Q 2772 3750 2511 3984 
Q 2250 4219 1831 4219 
Q 1534 4219 1204 4116 
Q 875 4013 500 3803 
L 500 4441 
Q 881 4594 1212 4672 
Q 1544 4750 1819 4750 
Q 2544 4750 2975 4387 
Q 3406 4025 3406 3419 
Q 3406 3131 3298 2873 
Q 3191 2616 2906 2266 
Q 2828 2175 2409 1742 
Q 1991 1309 1228 531 
z
" transform="scale(0.015625)"/>
        <path id="DejaVuSans-2e" d="M 684 794 
L 1344 794 
L 1344 0 
L 684 0 
L 684 794 
z
" transform="scale(0.015625)"/>
        <path id="DejaVuSans-35" d="M 691 4666 
L 3169 4666 
L 3169 4134 
L 1269 4134 
L 1269 2991 
Q 1406 3038 1543 3061 
Q 1681 3084 1819 3084 
Q 2600 3084 3056 2656 
Q 3513 2228 3513 1497 
Q 3513 744 3044 326 
Q 2575 -91 1722 -91 
Q 1428 -91 1123 -41 
Q 819 9 494 109 
L 494 744 
Q 775 591 1075 516 
Q 1375 441 1709 441 
Q 2250 441 2565 725 
Q 2881 1009 2881 1497 
Q 2881 1984 2565 2268 
Q 2250 2553 1709 2553 
Q 1456 2553 1204 2497 
Q 953 2441 691 2322 
L 691 4666 
z
" transform="scale(0.015625)"/>
       </defs>
       <use xlink:href="#DejaVuSans-2212"/>
       <use xlink:href="#DejaVuSans-32" x="83.789062"/>
       <use xlink:href="#DejaVuSans-2e" x="147.412109"/>
       <use xlink:href="#DejaVuSans-35" x="179.199219"/>
      </g>
     </g>
    </g>
    <g id="xtick_2">
     <g id="line2d_3">
      <path d="M 127.837612 307.584 
L 127.837612 41.472 
" clip-path="url(#pf71262d244)" style="fill: none; stroke-dasharray: 1.85,0.8; stroke-dashoffset: 0; stroke: #b0b0b0; stroke-opacity: 0.5; stroke-width: 0.5"/>
     </g>
     <g id="line2d_4">
      <g>
       <use xlink:href="#mbc0351ef6a" x="127.837612" y="307.584" style="stroke: #000000; stroke-width: 0.8"/>
      </g>
     </g>
     <g id="text_2">
      <!-- 0.0 -->
      <g transform="translate(119.886049 322.182437)scale(0.1 -0.1)">
       <defs>
        <path id="DejaVuSans-30" d="M 2034 4250 
Q 1547 4250 1301 3770 
Q 1056 3291 1056 2328 
Q 1056 1369 1301 889 
Q 1547 409 2034 409 
Q 2525 409 2770 889 
Q 3016 1369 3016 2328 
Q 3016 3291 2770 3770 
Q 2525 4250 2034 4250 
z
M 2034 4750 
Q 2819 4750 3233 4129 
Q 3647 3509 3647 2328 
Q 3647 1150 3233 529 
Q 2819 -91 2034 -91 
Q 1250 -91 836 529 
Q 422 1150 422 2328 
Q 422 3509 836 4129 
Q 1250 4750 2034 4750 
z
" transform="scale(0.015625)"/>
       </defs>
       <use xlink:href="#DejaVuSans-30"/>
       <use xlink:href="#DejaVuSans-2e" x="63.623047"/>
       <use xlink:href="#DejaVuSans-30" x="95.410156"/>
      </g>
     </g>
    </g>
    <g id="xtick_3">
     <g id="line2d_5">
      <path d="M 172.97194 307.584 
L 172.97194 41.472 
" clip-path="url(#pf71262d244)" style="fill: none; stroke-dasharray: 1.85,0.8; stroke-dashoffset: 0; stroke: #b0b0b0; stroke-opacity: 0.5; stroke-width: 0.5"/>
     </g>
     <g id="line2d_6">
      <g>
       <use xlink:href="#mbc0351ef6a" x="172.97194" y="307.584" style="stroke: #000000; stroke-width: 0.8"/>
      </g>
     </g>
     <g id="text_3">
      <!-- 2.5 -->
      <g transform="translate(165.020378 322.182437)scale(0.1 -0.1)">
       <use xlink:href="#DejaVuSans-32"/>
       <use xlink:href="#DejaVuSans-2e" x="63.623047"/>
       <use xlink:href="#DejaVuSans-35" x="95.410156"/>
      </g>
     </g>
    </g>
    <g id="xtick_4">
     <g id="line2d_7">
      <path d="M 218.106269 307.584 
L 218.106269 41.472 
" clip-path="url(#pf71262d244)" style="fill: none; stroke-dasharray: 1.85,0.8; stroke-dashoffset: 0; stroke: #b0b0b0; stroke-opacity: 0.5; stroke-width: 0.5"/>
     </g>
     <g id="line2d_8">
      <g>
       <use xlink:href="#mbc0351ef6a" x="218.106269" y="307.584" style="stroke: #000000; stroke-width: 0.8"/>
      </g>
     </g>
     <g id="text_4">
      <!-- 5.0 -->
      <g transform="translate(210.154706 322.182437)scale(0.1 -0.1)">
       <use xlink:href="#DejaVuSans-35"/>
       <use xlink:href="#DejaVuSans-2e" x="63.623047"/>
       <use xlink:href="#DejaVuSans-30" x="95.410156"/>
      </g>
     </g>
    </g>
    <g id="xtick_5">
     <g id="line2d_9">
      <path d="M 263.240597 307.584 
L 263.240597 41.472 
" clip-path="url(#pf71262d244)" style="fill: none; stroke-dasharray: 1.85,0.8; stroke-dashoffset: 0; stroke: #b0b0b0; stroke-opacity: 0.5; stroke-width: 0.5"/>
     </g>
     <g id="line2d_10">
      <g>
       <use xlink:href="#mbc0351ef6a" x="263.240597" y="307.584" style="stroke: #000000; stroke-width: 0.8"/>
      </g>
     </g>
     <g id="text_5">
      <!-- 7.5 -->
      <g transform="translate(255.289035 322.182437)scale(0.1 -0.1)">
       <defs>
        <path id="DejaVuSans-37" d="M 525 4666 
L 3525 4666 
L 3525 4397 
L 1831 0 
L 1172 0 
L 2766 4134 
L 525 4134 
L 525 4666 
z
" transform="scale(0.015625)"/>
       </defs>
       <use xlink:href="#DejaVuSans-37"/>
       <use xlink:href="#DejaVuSans-2e" x="63.623047"/>
       <use xlink:href="#DejaVuSans-35" x="95.410156"/>
      </g>
     </g>
    </g>
    <g id="xtick_6">
     <g id="line2d_11">
      <path d="M 308.374925 307.584 
L 308.374925 41.472 
" clip-path="url(#pf71262d244)" style="fill: none; stroke-dasharray: 1.85,0.8; stroke-dashoffset: 0; stroke: #b0b0b0; stroke-opacity: 0.5; stroke-width: 0.5"/>
     </g>
     <g id="line2d_12">
      <g>
       <use xlink:href="#mbc0351ef6a" x="308.374925" y="307.584" style="stroke: #000000; stroke-width: 0.8"/>
      </g>
     </g>
     <g id="text_6">
      <!-- 10.0 -->
      <g transform="translate(297.242113 322.182437)scale(0.1 -0.1)">
       <defs>
        <path id="DejaVuSans-31" d="M 794 531 
L 1825 531 
L 1825 4091 
L 703 3866 
L 703 4441 
L 1819 4666 
L 2450 4666 
L 2450 531 
L 3481 531 
L 3481 0 
L 794 0 
L 794 531 
z
" transform="scale(0.015625)"/>
       </defs>
       <use xlink:href="#DejaVuSans-31"/>
       <use xlink:href="#DejaVuSans-30" x="63.623047"/>
       <use xlink:href="#DejaVuSans-2e" x="127.246094"/>
       <use xlink:href="#DejaVuSans-30" x="159.033203"/>
      </g>
     </g>
    </g>
    <g id="xtick_7">
     <g id="line2d_13">
      <path d="M 353.509254 307.584 
L 353.509254 41.472 
" clip-path="url(#pf71262d244)" style="fill: none; stroke-dasharray: 1.85,0.8; stroke-dashoffset: 0; stroke: #b0b0b0; stroke-opacity: 0.5; stroke-width: 0.5"/>
     </g>
     <g id="line2d_14">
      <g>
       <use xlink:href="#mbc0351ef6a" x="353.509254" y="307.584" style="stroke: #000000; stroke-width: 0.8"/>
      </g>
     </g>
     <g id="text_7">
      <!-- 12.5 -->
      <g transform="translate(342.376441 322.182437)scale(0.1 -0.1)">
       <use xlink:href="#DejaVuSans-31"/>
       <use xlink:href="#DejaVuSans-32" x="63.623047"/>
       <use xlink:href="#DejaVuSans-2e" x="127.246094"/>
       <use xlink:href="#DejaVuSans-35" x="159.033203"/>
      </g>
     </g>
    </g>
    <g id="xtick_8">
     <g id="line2d_15">
      <path d="M 398.643582 307.584 
L 398.643582 41.472 
" clip-path="url(#pf71262d244)" style="fill: none; stroke-dasharray: 1.85,0.8; stroke-dashoffset: 0; stroke: #b0b0b0; stroke-opacity: 0.5; stroke-width: 0.5"/>
     </g>
     <g id="line2d_16">
      <g>
       <use xlink:href="#mbc0351ef6a" x="398.643582" y="307.584" style="stroke: #000000; stroke-width: 0.8"/>
      </g>
     </g>
     <g id="text_8">
      <!-- 15.0 -->
      <g transform="translate(387.51077 322.182437)scale(0.1 -0.1)">
       <use xlink:href="#DejaVuSans-31"/>
       <use xlink:href="#DejaVuSans-35" x="63.623047"/>
       <use xlink:href="#DejaVuSans-2e" x="127.246094"/>
       <use xlink:href="#DejaVuSans-30" x="159.033203"/>
      </g>
     </g>
    </g>
    <g id="text_9">
     <!-- Eixo X (m) -->
     <g transform="translate(210.374062 335.860562)scale(0.1 -0.1)">
      <defs>
       <path id="DejaVuSans-45" d="M 628 4666 
L 3578 4666 
L 3578 4134 
L 1259 4134 
L 1259 2753 
L 3481 2753 
L 3481 2222 
L 1259 2222 
L 1259 531 
L 3634 531 
L 3634 0 
L 628 0 
L 628 4666 
z
" transform="scale(0.015625)"/>
       <path id="DejaVuSans-69" d="M 603 3500 
L 1178 3500 
L 1178 0 
L 603 0 
L 603 3500 
z
M 603 4863 
L 1178 4863 
L 1178 4134 
L 603 4134 
L 603 4863 
z
" transform="scale(0.015625)"/>
       <path id="DejaVuSans-78" d="M 3513 3500 
L 2247 1797 
L 3578 0 
L 2900 0 
L 1881 1375 
L 863 0 
L 184 0 
L 1544 1831 
L 300 3500 
L 978 3500 
L 1906 2253 
L 2834 3500 
L 3513 3500 
z
" transform="scale(0.015625)"/>
       <path id="DejaVuSans-6f" d="M 1959 3097 
Q 1497 3097 1228 2736 
Q 959 2375 959 1747 
Q 959 1119 1226 758 
Q 1494 397 1959 397 
Q 2419 397 2687 759 
Q 2956 1122 2956 1747 
Q 2956 2369 2687 2733 
Q 2419 3097 1959 3097 
z
M 1959 3584 
Q 2709 3584 3137 3096 
Q 3566 2609 3566 1747 
Q 3566 888 3137 398 
Q 2709 -91 1959 -91 
Q 1206 -91 779 398 
Q 353 888 353 1747 
Q 353 2609 779 3096 
Q 1206 3584 1959 3584 
z
" transform="scale(0.015625)"/>
       <path id="DejaVuSans-20" transform="scale(0.015625)"/>
       <path id="DejaVuSans-58" d="M 403 4666 
L 1081 4666 
L 2241 2931 
L 3406 4666 
L 4084 4666 
L 2584 2425 
L 4184 0 
L 3506 0 
L 2194 1984 
L 872 0 
L 191 0 
L 1856 2491 
L 403 4666 
z
" transform="scale(0.015625)"/>
       <path id="DejaVuSans-28" d="M 1984 4856 
Q 1566 4138 1362 3434 
Q 1159 2731 1159 2009 
Q 1159 1288 1364 580 
Q 1569 -128 1984 -844 
L 1484 -844 
Q 1016 -109 783 600 
Q 550 1309 550 2009 
Q 550 2706 781 3412 
Q 1013 4119 1484 4856 
L 1984 4856 
z
" transform="scale(0.015625)"/>
       <path id="DejaVuSans-6d" d="M 3328 2828 
Q 3544 3216 3844 3400 
Q 4144 3584 4550 3584 
Q 5097 3584 5394 3201 
Q 5691 2819 5691 2113 
L 5691 0 
L 5113 0 
L 5113 2094 
Q 5113 2597 4934 2840 
Q 4756 3084 4391 3084 
Q 3944 3084 3684 2787 
Q 3425 2491 3425 1978 
L 3425 0 
L 2847 0 
L 2847 2094 
Q 2847 2600 2669 2842 
Q 2491 3084 2119 3084 
Q 1678 3084 1418 2786 
Q 1159 2488 1159 1978 
L 1159 0 
L 581 0 
L 581 3500 
L 1159 3500 
L 1159 2956 
Q 1356 3278 1631 3431 
Q 1906 3584 2284 3584 
Q 2666 3584 2933 3390 
Q 3200 3197 3328 2828 
z
" transform="scale(0.015625)"/>
       <path id="DejaVuSans-29" d="M 513 4856 
L 1013 4856 
Q 1481 4119 1714 3412 
Q 1947 2706 1947 2009 
Q 1947 1309 1714 600 
Q 1481 -109 1013 -844 
L 513 -844 
Q 928 -128 1133 580 
Q 1338 1288 1338 2009 
Q 1338 2731 1133 3434 
Q 928 4138 513 4856 
z
" transform="scale(0.015625)"/>
      </defs>
      <use xlink:href="#DejaVuSans-45"/>
      <use xlink:href="#DejaVuSans-69" x="63.183594"/>
      <use xlink:href="#DejaVuSans-78" x="90.966797"/>
      <use xlink:href="#DejaVuSans-6f" x="147.021484"/>
      <use xlink:href="#DejaVuSans-20" x="208.203125"/>
      <use xlink:href="#DejaVuSans-58" x="239.990234"/>
      <use xlink:href="#DejaVuSans-20" x="308.496094"/>
      <use xlink:href="#DejaVuSans-28" x="340.283203"/>
      <use xlink:href="#DejaVuSans-6d" x="379.296875"/>
      <use xlink:href="#DejaVuSans-29" x="476.708984"/>
     </g>
    </g>
   </g>
   <g id="matplotlib.axis_2">
    <g id="ytick_1">
     <g id="line2d_17">
      <path d="M 57.6 291.877254 
L 414.72 291.877254 
" clip-path="url(#pf71262d244)" style="fill: none; stroke-dasharray: 1.85,0.8; stroke-dashoffset: 0; stroke: #b0b0b0; stroke-opacity: 0.5; stroke-width: 0.5"/>
     </g>
     <g id="line2d_18">
      <defs>
       <path id="m30d98b3d75" d="M 0 0 
L -3.5 0 
" style="stroke: #000000; stroke-width: 0.8"/>
      </defs>
      <g>
       <use xlink:href="#m30d98b3d75" x="57.6" y="291.877254" style="stroke: #000000; stroke-width: 0.8"/>
      </g>
     </g>
     <g id="text_10">
      <!-- 0 -->
      <g transform="translate(44.2375 295.676472)scale(0.1 -0.1)">
       <use xlink:href="#DejaVuSans-30"/>
      </g>
     </g>
    </g>
    <g id="ytick_2">
     <g id="line2d_19">
      <path d="M 57.6 255.769791 
L 414.72 255.769791 
" clip-path="url(#pf71262d244)" style="fill: none; stroke-dasharray: 1.85,0.8; stroke-dashoffset: 0; stroke: #b0b0b0; stroke-opacity: 0.5; stroke-width: 0.5"/>
     </g>
     <g id="line2d_20">
      <g>
       <use xlink:href="#m30d98b3d75" x="57.6" y="255.769791" style="stroke: #000000; stroke-width: 0.8"/>
      </g>
     </g>
     <g id="text_11">
      <!-- 2 -->
      <g transform="translate(44.2375 259.56901)scale(0.1 -0.1)">
       <use xlink:href="#DejaVuSans-32"/>
      </g>
     </g>
    </g>
    <g id="ytick_3">
     <g id="line2d_21">
      <path d="M 57.6 219.662328 
L 414.72 219.662328 
" clip-path="url(#pf71262d244)" style="fill: none; stroke-dasharray: 1.85,0.8; stroke-dashoffset: 0; stroke: #b0b0b0; stroke-opacity: 0.5; stroke-width: 0.5"/>
     </g>
     <g id="line2d_22">
      <g>
       <use xlink:href="#m30d98b3d75" x="57.6" y="219.662328" style="stroke: #000000; stroke-width: 0.8"/>
      </g>
     </g>
     <g id="text_12">
      <!-- 4 -->
      <g transform="translate(44.2375 223.461547)scale(0.1 -0.1)">
       <defs>
        <path id="DejaVuSans-34" d="M 2419 4116 
L 825 1625 
L 2419 1625 
L 2419 4116 
z
M 2253 4666 
L 3047 4666 
L 3047 1625 
L 3713 1625 
L 3713 1100 
L 3047 1100 
L 3047 0 
L 2419 0 
L 2419 1100 
L 313 1100 
L 313 1709 
L 2253 4666 
z
" transform="scale(0.015625)"/>
       </defs>
       <use xlink:href="#DejaVuSans-34"/>
      </g>
     </g>
    </g>
    <g id="ytick_4">
     <g id="line2d_23">
      <path d="M 57.6 183.554866 
L 414.72 183.554866 
" clip-path="url(#pf71262d244)" style="fill: none; stroke-dasharray: 1.85,0.8; stroke-dashoffset: 0; stroke: #b0b0b0; stroke-opacity: 0.5; stroke-width: 0.5"/>
     </g>
     <g id="line2d_24">
      <g>
       <use xlink:href="#m30d98b3d75" x="57.6" y="183.554866" style="stroke: #000000; stroke-width: 0.8"/>
      </g>
     </g>
     <g id="text_13">
      <!-- 6 -->
      <g transform="translate(44.2375 187.354084)scale(0.1 -0.1)">
       <defs>
        <path id="DejaVuSans-36" d="M 2113 2584 
Q 1688 2584 1439 2293 
Q 1191 2003 1191 1497 
Q 1191 994 1439 701 
Q 1688 409 2113 409 
Q 2538 409 2786 701 
Q 3034 994 3034 1497 
Q 3034 2003 2786 2293 
Q 2538 2584 2113 2584 
z
M 3366 4563 
L 3366 3988 
Q 3128 4100 2886 4159 
Q 2644 4219 2406 4219 
Q 1781 4219 1451 3797 
Q 1122 3375 1075 2522 
Q 1259 2794 1537 2939 
Q 1816 3084 2150 3084 
Q 2853 3084 3261 2657 
Q 3669 2231 3669 1497 
Q 3669 778 3244 343 
Q 2819 -91 2113 -91 
Q 1303 -91 875 529 
Q 447 1150 447 2328 
Q 447 3434 972 4092 
Q 1497 4750 2381 4750 
Q 2619 4750 2861 4703 
Q 3103 4656 3366 4563 
z
" transform="scale(0.015625)"/>
       </defs>
       <use xlink:href="#DejaVuSans-36"/>
      </g>
     </g>
    </g>
    <g id="ytick_5">
     <g id="line2d_25">
      <path d="M 57.6 147.447403 
L 414.72 147.447403 
" clip-path="url(#pf71262d244)" style="fill: none; stroke-dasharray: 1.85,0.8; stroke-dashoffset: 0; stroke: #b0b0b0; stroke-opacity: 0.5; stroke-width: 0.5"/>
     </g>
     <g id="line2d_26">
      <g>
       <use xlink:href="#m30d98b3d75" x="57.6" y="147.447403" style="stroke: #000000; stroke-width: 0.8"/>
      </g>
     </g>
     <g id="text_14">
      <!-- 8 -->
      <g transform="translate(44.2375 151.246622)scale(0.1 -0.1)">
       <defs>
        <path id="DejaVuSans-38" d="M 2034 2216 
Q 1584 2216 1326 1975 
Q 1069 1734 1069 1313 
Q 1069 891 1326 650 
Q 1584 409 2034 409 
Q 2484 409 2743 651 
Q 3003 894 3003 1313 
Q 3003 1734 2745 1975 
Q 2488 2216 2034 2216 
z
M 1403 2484 
Q 997 2584 770 2862 
Q 544 3141 544 3541 
Q 544 4100 942 4425 
Q 1341 4750 2034 4750 
Q 2731 4750 3128 4425 
Q 3525 4100 3525 3541 
Q 3525 3141 3298 2862 
Q 3072 2584 2669 2484 
Q 3125 2378 3379 2068 
Q 3634 1759 3634 1313 
Q 3634 634 3220 271 
Q 2806 -91 2034 -91 
Q 1263 -91 848 271 
Q 434 634 434 1313 
Q 434 1759 690 2068 
Q 947 2378 1403 2484 
z
M 1172 3481 
Q 1172 3119 1398 2916 
Q 1625 2713 2034 2713 
Q 2441 2713 2670 2916 
Q 2900 3119 2900 3481 
Q 2900 3844 2670 4047 
Q 2441 4250 2034 4250 
Q 1625 4250 1398 4047 
Q 1172 3844 1172 3481 
z
" transform="scale(0.015625)"/>
       </defs>
       <use xlink:href="#DejaVuSans-38"/>
      </g>
     </g>
    </g>
    <g id="ytick_6">
     <g id="line2d_27">
      <path d="M 57.6 111.33994 
L 414.72 111.33994 
" clip-path="url(#pf71262d244)" style="fill: none; stroke-dasharray: 1.85,0.8; stroke-dashoffset: 0; stroke: #b0b0b0; stroke-opacity: 0.5; stroke-width: 0.5"/>
     </g>
     <g id="line2d_28">
      <g>
       <use xlink:href="#m30d98b3d75" x="57.6" y="111.33994" style="stroke: #000000; stroke-width: 0.8"/>
      </g>
     </g>
     <g id="text_15">
      <!-- 10 -->
      <g transform="translate(37.875 115.139159)scale(0.1 -0.1)">
       <use xlink:href="#DejaVuSans-31"/>
       <use xlink:href="#DejaVuSans-30" x="63.623047"/>
      </g>
     </g>
    </g>
    <g id="ytick_7">
     <g id="line2d_29">
      <path d="M 57.6 75.232478 
L 414.72 75.232478 
" clip-path="url(#pf71262d244)" style="fill: none; stroke-dasharray: 1.85,0.8; stroke-dashoffset: 0; stroke: #b0b0b0; stroke-opacity: 0.5; stroke-width: 0.5"/>
     </g>
     <g id="line2d_30">
      <g>
       <use xlink:href="#m30d98b3d75" x="57.6" y="75.232478" style="stroke: #000000; stroke-width: 0.8"/>
      </g>
     </g>
     <g id="text_16">
      <!-- 12 -->
      <g transform="translate(37.875 79.031696)scale(0.1 -0.1)">
       <use xlink:href="#DejaVuSans-31"/>
       <use xlink:href="#DejaVuSans-32" x="63.623047"/>
      </g>
     </g>
    </g>
    <g id="text_17">
     <!-- Eixo Y (m) -->
     <g transform="translate(31.795312 199.942844)rotate(-90)scale(0.1 -0.1)">
      <defs>
       <path id="DejaVuSans-59" d="M -13 4666 
L 666 4666 
L 1959 2747 
L 3244 4666 
L 3922 4666 
L 2272 2222 
L 2272 0 
L 1638 0 
L 1638 2222 
L -13 4666 
z
" transform="scale(0.015625)"/>
      </defs>
      <use xlink:href="#DejaVuSans-45"/>
      <use xlink:href="#DejaVuSans-69" x="63.183594"/>
      <use xlink:href="#DejaVuSans-78" x="90.966797"/>
      <use xlink:href="#DejaVuSans-6f" x="147.021484"/>
      <use xlink:href="#DejaVuSans-20" x="208.203125"/>
      <use xlink:href="#DejaVuSans-59" x="239.990234"/>
      <use xlink:href="#DejaVuSans-20" x="301.074219"/>
      <use xlink:href="#DejaVuSans-28" x="332.861328"/>
      <use xlink:href="#DejaVuSans-6d" x="371.875"/>
      <use xlink:href="#DejaVuSans-29" x="469.287109"/>
     </g>
    </g>
   </g>
   <g id="line2d_31">
    <defs>
     <path id="maa55345bb3" d="M 0 3 
C 0.795609 3 1.55874 2.683901 2.12132 2.12132 
C 2.683901 1.55874 3 0.795609 3 0 
C 3 -0.795609 2.683901 -1.55874 2.12132 -2.12132 
C 1.55874 -2.683901 0.795609 -3 0 -3 
C -0.795609 -3 -1.55874 -2.683901 -2.12132 -2.12132 
C -2.683901 -1.55874 -3 -0.795609 -3 0 
C -3 0.795609 -2.683901 1.55874 -2.12132 2.12132 
C -1.55874 2.683901 -0.795609 3 0 3 
z
" style="stroke: #000000"/>
    </defs>
    <g clip-path="url(#pf71262d244)">
     <use xlink:href="#maa55345bb3" x="145.891343" y="165.501134" style="fill-opacity: 0; stroke: #000000"/>
    </g>
   </g>
   <g id="line2d_32">
    <defs>
     <path id="m7dc5d4709f" d="M 0 3 
C 0.795609 3 1.55874 2.683901 2.12132 2.12132 
C 2.683901 1.55874 3 0.795609 3 0 
C 3 -0.795609 2.683901 -1.55874 2.12132 -2.12132 
C 1.55874 -2.683901 0.795609 -3 0 -3 
C -0.795609 -3 -1.55874 -2.683901 -2.12132 -2.12132 
C -2.683901 -1.55874 -3 -0.795609 -3 0 
C -3 0.795609 -2.683901 1.55874 -2.12132 2.12132 
C -1.55874 2.683901 -0.795609 3 0 3 
z
" style="stroke: #008000"/>
    </defs>
    <g clip-path="url(#pf71262d244)">
     <use xlink:href="#m7dc5d4709f" x="181.998806" y="273.823522" style="fill: #008000; stroke: #008000"/>
    </g>
   </g>
   <g id="line2d_33">
    <g clip-path="url(#pf71262d244)">
     <use xlink:href="#m7dc5d4709f" x="181.998806" y="255.769791" style="fill: #008000; stroke: #008000"/>
    </g>
   </g>
   <g id="line2d_34">
    <defs>
     <path id="m9326ab6c6e" d="M 0 3 
C 0.795609 3 1.55874 2.683901 2.12132 2.12132 
C 2.683901 1.55874 3 0.795609 3 0 
C 3 -0.795609 2.683901 -1.55874 2.12132 -2.12132 
C 1.55874 -2.683901 0.795609 -3 0 -3 
C -0.795609 -3 -1.55874 -2.683901 -2.12132 -2.12132 
C -2.683901 -1.55874 -3 -0.795609 -3 0 
C -3 0.795609 -2.683901 1.55874 -2.12132 2.12132 
C -1.55874 2.683901 -0.795609 3 0 3 
z
" style="stroke: #0000ff"/>
    </defs>
    <g clip-path="url(#pf71262d244)">
     <use xlink:href="#m9326ab6c6e" x="181.998806" y="219.662328" style="fill: #0000ff; stroke: #0000ff"/>
    </g>
   </g>
   <g id="line2d_35">
    <g clip-path="url(#pf71262d244)">
     <use xlink:href="#m7dc5d4709f" x="200.052537" y="273.823522" style="fill: #008000; stroke: #008000"/>
    </g>
   </g>
   <g id="line2d_36">
    <g clip-path="url(#pf71262d244)">
     <use xlink:href="#m9326ab6c6e" x="200.052537" y="237.71606" style="fill: #0000ff; stroke: #0000ff"/>
    </g>
   </g>
   <g id="line2d_37">
    <g clip-path="url(#pf71262d244)">
     <use xlink:href="#m9326ab6c6e" x="200.052537" y="201.608597" style="fill: #0000ff; stroke: #0000ff"/>
    </g>
   </g>
   <g id="line2d_38">
    <g clip-path="url(#pf71262d244)">
     <use xlink:href="#m9326ab6c6e" x="200.052537" y="111.33994" style="fill: #0000ff; stroke: #0000ff"/>
    </g>
   </g>
   <g id="line2d_39">
    <g clip-path="url(#pf71262d244)">
     <use xlink:href="#m9326ab6c6e" x="218.106269" y="147.447403" style="fill: #0000ff; stroke: #0000ff"/>
    </g>
   </g>
   <g id="line2d_40">
    <g clip-path="url(#pf71262d244)">
     <use xlink:href="#m7dc5d4709f" x="236.16" y="273.823522" style="fill: #008000; stroke: #008000"/>
    </g>
   </g>
   <g id="line2d_41">
    <g clip-path="url(#pf71262d244)">
     <use xlink:href="#m7dc5d4709f" x="236.16" y="165.501134" style="fill: #008000; stroke: #008000"/>
    </g>
   </g>
   <g id="line2d_42">
    <g clip-path="url(#pf71262d244)">
     <use xlink:href="#m7dc5d4709f" x="254.213731" y="273.823522" style="fill: #008000; stroke: #008000"/>
    </g>
   </g>
   <g id="line2d_43">
    <g clip-path="url(#pf71262d244)">
     <use xlink:href="#m7dc5d4709f" x="254.213731" y="255.769791" style="fill: #008000; stroke: #008000"/>
    </g>
   </g>
   <g id="line2d_44">
    <g clip-path="url(#pf71262d244)">
     <use xlink:href="#m7dc5d4709f" x="254.213731" y="201.608597" style="fill: #008000; stroke: #008000"/>
    </g>
   </g>
   <g id="line2d_45">
    <g clip-path="url(#pf71262d244)">
     <use xlink:href="#m7dc5d4709f" x="254.213731" y="183.554866" style="fill: #008000; stroke: #008000"/>
    </g>
   </g>
   <g id="line2d_46">
    <g clip-path="url(#pf71262d244)">
     <use xlink:href="#m7dc5d4709f" x="254.213731" y="165.501134" style="fill: #008000; stroke: #008000"/>
    </g>
   </g>
   <g id="line2d_47">
    <g clip-path="url(#pf71262d244)">
     <use xlink:href="#m7dc5d4709f" x="272.267463" y="201.608597" style="fill: #008000; stroke: #008000"/>
    </g>
   </g>
   <g id="line2d_48">
    <g clip-path="url(#pf71262d244)">
     <use xlink:href="#m7dc5d4709f" x="290.321194" y="219.662328" style="fill: #008000; stroke: #008000"/>
    </g>
   </g>
   <g id="line2d_49">
    <g clip-path="url(#pf71262d244)">
     <use xlink:href="#m7dc5d4709f" x="290.321194" y="201.608597" style="fill: #008000; stroke: #008000"/>
    </g>
   </g>
   <g id="line2d_50">
    <g clip-path="url(#pf71262d244)">
     <use xlink:href="#m9326ab6c6e" x="290.321194" y="165.501134" style="fill: #0000ff; stroke: #0000ff"/>
    </g>
   </g>
   <g id="patch_22">
    <path d="M 57.6 307.584 
L 57.6 41.472 
" style="fill: none; stroke: #000000; stroke-width: 0.8; stroke-linejoin: miter; stroke-linecap: square"/>
   </g>
   <g id="patch_23">
    <path d="M 414.72 307.584 
L 414.72 41.472 
" style="fill: none; stroke: #000000; stroke-width: 0.8; stroke-linejoin: miter; stroke-linecap: square"/>
   </g>
   <g id="patch_24">
    <path d="M 57.6 307.584 
L 414.72 307.584 
" style="fill: none; stroke: #000000; stroke-width: 0.8; stroke-linejoin: miter; stroke-linecap: square"/>
   </g>
   <g id="patch_25">
    <path d="M 57.6 41.472 
L 414.72 41.472 
" style="fill: none; stroke: #000000; stroke-width: 0.8; stroke-linejoin: miter; stroke-linecap: square"/>
   </g>
   <g id="text_18">
    <!-- Instancia: ../instances_OL2A/10x10/SAP-inst_0.2_10x10.dat -->
    <g transform="translate(58.100625 8.2635)scale(0.12 -0.12)">
     <defs>
      <path id="DejaVuSans-49" d="M 628 4666 
L 1259 4666 
L 1259 0 
L 628 0 
L 628 4666 
z
" transform="scale(0.015625)"/>
      <path id="DejaVuSans-6e" d="M 3513 2113 
L 3513 0 
L 2938 0 
L 2938 2094 
Q 2938 2591 2744 2837 
Q 2550 3084 2163 3084 
Q 1697 3084 1428 2787 
Q 1159 2491 1159 1978 
L 1159 0 
L 581 0 
L 581 3500 
L 1159 3500 
L 1159 2956 
Q 1366 3272 1645 3428 
Q 1925 3584 2291 3584 
Q 2894 3584 3203 3211 
Q 3513 2838 3513 2113 
z
" transform="scale(0.015625)"/>
      <path id="DejaVuSans-73" d="M 2834 3397 
L 2834 2853 
Q 2591 2978 2328 3040 
Q 2066 3103 1784 3103 
Q 1356 3103 1142 2972 
Q 928 2841 928 2578 
Q 928 2378 1081 2264 
Q 1234 2150 1697 2047 
L 1894 2003 
Q 2506 1872 2764 1633 
Q 3022 1394 3022 966 
Q 3022 478 2636 193 
Q 2250 -91 1575 -91 
Q 1294 -91 989 -36 
Q 684 19 347 128 
L 347 722 
Q 666 556 975 473 
Q 1284 391 1588 391 
Q 1994 391 2212 530 
Q 2431 669 2431 922 
Q 2431 1156 2273 1281 
Q 2116 1406 1581 1522 
L 1381 1569 
Q 847 1681 609 1914 
Q 372 2147 372 2553 
Q 372 3047 722 3315 
Q 1072 3584 1716 3584 
Q 2034 3584 2315 3537 
Q 2597 3491 2834 3397 
z
" transform="scale(0.015625)"/>
      <path id="DejaVuSans-74" d="M 1172 4494 
L 1172 3500 
L 2356 3500 
L 2356 3053 
L 1172 3053 
L 1172 1153 
Q 1172 725 1289 603 
Q 1406 481 1766 481 
L 2356 481 
L 2356 0 
L 1766 0 
Q 1100 0 847 248 
Q 594 497 594 1153 
L 594 3053 
L 172 3053 
L 172 3500 
L 594 3500 
L 594 4494 
L 1172 4494 
z
" transform="scale(0.015625)"/>
      <path id="DejaVuSans-61" d="M 2194 1759 
Q 1497 1759 1228 1600 
Q 959 1441 959 1056 
Q 959 750 1161 570 
Q 1363 391 1709 391 
Q 2188 391 2477 730 
Q 2766 1069 2766 1631 
L 2766 1759 
L 2194 1759 
z
M 3341 1997 
L 3341 0 
L 2766 0 
L 2766 531 
Q 2569 213 2275 61 
Q 1981 -91 1556 -91 
Q 1019 -91 701 211 
Q 384 513 384 1019 
Q 384 1609 779 1909 
Q 1175 2209 1959 2209 
L 2766 2209 
L 2766 2266 
Q 2766 2663 2505 2880 
Q 2244 3097 1772 3097 
Q 1472 3097 1187 3025 
Q 903 2953 641 2809 
L 641 3341 
Q 956 3463 1253 3523 
Q 1550 3584 1831 3584 
Q 2591 3584 2966 3190 
Q 3341 2797 3341 1997 
z
" transform="scale(0.015625)"/>
      <path id="DejaVuSans-63" d="M 3122 3366 
L 3122 2828 
Q 2878 2963 2633 3030 
Q 2388 3097 2138 3097 
Q 1578 3097 1268 2742 
Q 959 2388 959 1747 
Q 959 1106 1268 751 
Q 1578 397 2138 397 
Q 2388 397 2633 464 
Q 2878 531 3122 666 
L 3122 134 
Q 2881 22 2623 -34 
Q 2366 -91 2075 -91 
Q 1284 -91 818 406 
Q 353 903 353 1747 
Q 353 2603 823 3093 
Q 1294 3584 2113 3584 
Q 2378 3584 2631 3529 
Q 2884 3475 3122 3366 
z
" transform="scale(0.015625)"/>
      <path id="DejaVuSans-3a" d="M 750 794 
L 1409 794 
L 1409 0 
L 750 0 
L 750 794 
z
M 750 3309 
L 1409 3309 
L 1409 2516 
L 750 2516 
L 750 3309 
z
" transform="scale(0.015625)"/>
      <path id="DejaVuSans-2f" d="M 1625 4666 
L 2156 4666 
L 531 -594 
L 0 -594 
L 1625 4666 
z
" transform="scale(0.015625)"/>
      <path id="DejaVuSans-65" d="M 3597 1894 
L 3597 1613 
L 953 1613 
Q 991 1019 1311 708 
Q 1631 397 2203 397 
Q 2534 397 2845 478 
Q 3156 559 3463 722 
L 3463 178 
Q 3153 47 2828 -22 
Q 2503 -91 2169 -91 
Q 1331 -91 842 396 
Q 353 884 353 1716 
Q 353 2575 817 3079 
Q 1281 3584 2069 3584 
Q 2775 3584 3186 3129 
Q 3597 2675 3597 1894 
z
M 3022 2063 
Q 3016 2534 2758 2815 
Q 2500 3097 2075 3097 
Q 1594 3097 1305 2825 
Q 1016 2553 972 2059 
L 3022 2063 
z
" transform="scale(0.015625)"/>
      <path id="DejaVuSans-5f" d="M 3263 -1063 
L 3263 -1509 
L -63 -1509 
L -63 -1063 
L 3263 -1063 
z
" transform="scale(0.015625)"/>
      <path id="DejaVuSans-4f" d="M 2522 4238 
Q 1834 4238 1429 3725 
Q 1025 3213 1025 2328 
Q 1025 1447 1429 934 
Q 1834 422 2522 422 
Q 3209 422 3611 934 
Q 4013 1447 4013 2328 
Q 4013 3213 3611 3725 
Q 3209 4238 2522 4238 
z
M 2522 4750 
Q 3503 4750 4090 4092 
Q 4678 3434 4678 2328 
Q 4678 1225 4090 567 
Q 3503 -91 2522 -91 
Q 1538 -91 948 565 
Q 359 1222 359 2328 
Q 359 3434 948 4092 
Q 1538 4750 2522 4750 
z
" transform="scale(0.015625)"/>
      <path id="DejaVuSans-4c" d="M 628 4666 
L 1259 4666 
L 1259 531 
L 3531 531 
L 3531 0 
L 628 0 
L 628 4666 
z
" transform="scale(0.015625)"/>
      <path id="DejaVuSans-41" d="M 2188 4044 
L 1331 1722 
L 3047 1722 
L 2188 4044 
z
M 1831 4666 
L 2547 4666 
L 4325 0 
L 3669 0 
L 3244 1197 
L 1141 1197 
L 716 0 
L 50 0 
L 1831 4666 
z
" transform="scale(0.015625)"/>
      <path id="DejaVuSans-53" d="M 3425 4513 
L 3425 3897 
Q 3066 4069 2747 4153 
Q 2428 4238 2131 4238 
Q 1616 4238 1336 4038 
Q 1056 3838 1056 3469 
Q 1056 3159 1242 3001 
Q 1428 2844 1947 2747 
L 2328 2669 
Q 3034 2534 3370 2195 
Q 3706 1856 3706 1288 
Q 3706 609 3251 259 
Q 2797 -91 1919 -91 
Q 1588 -91 1214 -16 
Q 841 59 441 206 
L 441 856 
Q 825 641 1194 531 
Q 1563 422 1919 422 
Q 2459 422 2753 634 
Q 3047 847 3047 1241 
Q 3047 1584 2836 1778 
Q 2625 1972 2144 2069 
L 1759 2144 
Q 1053 2284 737 2584 
Q 422 2884 422 3419 
Q 422 4038 858 4394 
Q 1294 4750 2059 4750 
Q 2388 4750 2728 4690 
Q 3069 4631 3425 4513 
z
" transform="scale(0.015625)"/>
      <path id="DejaVuSans-50" d="M 1259 4147 
L 1259 2394 
L 2053 2394 
Q 2494 2394 2734 2622 
Q 2975 2850 2975 3272 
Q 2975 3691 2734 3919 
Q 2494 4147 2053 4147 
L 1259 4147 
z
M 628 4666 
L 2053 4666 
Q 2838 4666 3239 4311 
Q 3641 3956 3641 3272 
Q 3641 2581 3239 2228 
Q 2838 1875 2053 1875 
L 1259 1875 
L 1259 0 
L 628 0 
L 628 4666 
z
" transform="scale(0.015625)"/>
      <path id="DejaVuSans-2d" d="M 313 2009 
L 1997 2009 
L 1997 1497 
L 313 1497 
L 313 2009 
z
" transform="scale(0.015625)"/>
      <path id="DejaVuSans-64" d="M 2906 2969 
L 2906 4863 
L 3481 4863 
L 3481 0 
L 2906 0 
L 2906 525 
Q 2725 213 2448 61 
Q 2172 -91 1784 -91 
Q 1150 -91 751 415 
Q 353 922 353 1747 
Q 353 2572 751 3078 
Q 1150 3584 1784 3584 
Q 2172 3584 2448 3432 
Q 2725 3281 2906 2969 
z
M 947 1747 
Q 947 1113 1208 752 
Q 1469 391 1925 391 
Q 2381 391 2643 752 
Q 2906 1113 2906 1747 
Q 2906 2381 2643 2742 
Q 2381 3103 1925 3103 
Q 1469 3103 1208 2742 
Q 947 2381 947 1747 
z
" transform="scale(0.015625)"/>
     </defs>
     <use xlink:href="#DejaVuSans-49"/>
     <use xlink:href="#DejaVuSans-6e" x="29.492188"/>
     <use xlink:href="#DejaVuSans-73" x="92.871094"/>
     <use xlink:href="#DejaVuSans-74" x="144.970703"/>
     <use xlink:href="#DejaVuSans-61" x="184.179688"/>
     <use xlink:href="#DejaVuSans-6e" x="245.458984"/>
     <use xlink:href="#DejaVuSans-63" x="308.837891"/>
     <use xlink:href="#DejaVuSans-69" x="363.818359"/>
     <use xlink:href="#DejaVuSans-61" x="391.601562"/>
     <use xlink:href="#DejaVuSans-3a" x="452.880859"/>
     <use xlink:href="#DejaVuSans-20" x="486.572266"/>
     <use xlink:href="#DejaVuSans-2e" x="518.359375"/>
     <use xlink:href="#DejaVuSans-2e" x="550.146484"/>
     <use xlink:href="#DejaVuSans-2f" x="581.933594"/>
     <use xlink:href="#DejaVuSans-69" x="615.625"/>
     <use xlink:href="#DejaVuSans-6e" x="643.408203"/>
     <use xlink:href="#DejaVuSans-73" x="706.787109"/>
     <use xlink:href="#DejaVuSans-74" x="758.886719"/>
     <use xlink:href="#DejaVuSans-61" x="798.095703"/>
     <use xlink:href="#DejaVuSans-6e" x="859.375"/>
     <use xlink:href="#DejaVuSans-63" x="922.753906"/>
     <use xlink:href="#DejaVuSans-65" x="977.734375"/>
     <use xlink:href="#DejaVuSans-73" x="1039.257812"/>
     <use xlink:href="#DejaVuSans-5f" x="1091.357422"/>
     <use xlink:href="#DejaVuSans-4f" x="1141.357422"/>
     <use xlink:href="#DejaVuSans-4c" x="1220.068359"/>
     <use xlink:href="#DejaVuSans-32" x="1275.78125"/>
     <use xlink:href="#DejaVuSans-41" x="1339.404297"/>
     <use xlink:href="#DejaVuSans-2f" x="1407.8125"/>
     <use xlink:href="#DejaVuSans-31" x="1441.503906"/>
     <use xlink:href="#DejaVuSans-30" x="1505.126953"/>
     <use xlink:href="#DejaVuSans-78" x="1568.75"/>
     <use xlink:href="#DejaVuSans-31" x="1627.929688"/>
     <use xlink:href="#DejaVuSans-30" x="1691.552734"/>
     <use xlink:href="#DejaVuSans-2f" x="1755.175781"/>
     <use xlink:href="#DejaVuSans-53" x="1788.867188"/>
     <use xlink:href="#DejaVuSans-41" x="1854.21875"/>
     <use xlink:href="#DejaVuSans-50" x="1922.626953"/>
     <use xlink:href="#DejaVuSans-2d" x="1980.679688"/>
     <use xlink:href="#DejaVuSans-69" x="2016.763672"/>
     <use xlink:href="#DejaVuSans-6e" x="2044.546875"/>
     <use xlink:href="#DejaVuSans-73" x="2107.925781"/>
     <use xlink:href="#DejaVuSans-74" x="2160.025391"/>
     <use xlink:href="#DejaVuSans-5f" x="2199.234375"/>
     <use xlink:href="#DejaVuSans-30" x="2249.234375"/>
     <use xlink:href="#DejaVuSans-2e" x="2312.857422"/>
     <use xlink:href="#DejaVuSans-32" x="2344.644531"/>
     <use xlink:href="#DejaVuSans-5f" x="2408.267578"/>
     <use xlink:href="#DejaVuSans-31" x="2458.267578"/>
     <use xlink:href="#DejaVuSans-30" x="2521.890625"/>
     <use xlink:href="#DejaVuSans-78" x="2585.513672"/>
     <use xlink:href="#DejaVuSans-31" x="2644.693359"/>
     <use xlink:href="#DejaVuSans-30" x="2708.316406"/>
     <use xlink:href="#DejaVuSans-2e" x="2771.939453"/>
     <use xlink:href="#DejaVuSans-64" x="2803.726562"/>
     <use xlink:href="#DejaVuSans-61" x="2867.203125"/>
     <use xlink:href="#DejaVuSans-74" x="2928.482422"/>
    </g>
    <!-- Escala: 1:1000m -->
    <g transform="translate(186.042188 22.034625)scale(0.12 -0.12)">
     <defs>
      <path id="DejaVuSans-6c" d="M 603 4863 
L 1178 4863 
L 1178 0 
L 603 0 
L 603 4863 
z
" transform="scale(0.015625)"/>
     </defs>
     <use xlink:href="#DejaVuSans-45"/>
     <use xlink:href="#DejaVuSans-73" x="63.183594"/>
     <use xlink:href="#DejaVuSans-63" x="115.283203"/>
     <use xlink:href="#DejaVuSans-61" x="170.263672"/>
     <use xlink:href="#DejaVuSans-6c" x="231.542969"/>
     <use xlink:href="#DejaVuSans-61" x="259.326172"/>
     <use xlink:href="#DejaVuSans-3a" x="320.605469"/>
     <use xlink:href="#DejaVuSans-20" x="354.296875"/>
     <use xlink:href="#DejaVuSans-31" x="386.083984"/>
     <use xlink:href="#DejaVuSans-3a" x="449.707031"/>
     <use xlink:href="#DejaVuSans-31" x="483.398438"/>
     <use xlink:href="#DejaVuSans-30" x="547.021484"/>
     <use xlink:href="#DejaVuSans-30" x="610.644531"/>
     <use xlink:href="#DejaVuSans-30" x="674.267578"/>
     <use xlink:href="#DejaVuSans-6d" x="737.890625"/>
    </g>
    <!-- Alphas: 0.5E, 0.5C, 0M  -  Tempo: 0.75 s -->
    <g transform="translate(116.586562 35.472)scale(0.12 -0.12)">
     <defs>
      <path id="DejaVuSans-70" d="M 1159 525 
L 1159 -1331 
L 581 -1331 
L 581 3500 
L 1159 3500 
L 1159 2969 
Q 1341 3281 1617 3432 
Q 1894 3584 2278 3584 
Q 2916 3584 3314 3078 
Q 3713 2572 3713 1747 
Q 3713 922 3314 415 
Q 2916 -91 2278 -91 
Q 1894 -91 1617 61 
Q 1341 213 1159 525 
z
M 3116 1747 
Q 3116 2381 2855 2742 
Q 2594 3103 2138 3103 
Q 1681 3103 1420 2742 
Q 1159 2381 1159 1747 
Q 1159 1113 1420 752 
Q 1681 391 2138 391 
Q 2594 391 2855 752 
Q 3116 1113 3116 1747 
z
" transform="scale(0.015625)"/>
      <path id="DejaVuSans-68" d="M 3513 2113 
L 3513 0 
L 2938 0 
L 2938 2094 
Q 2938 2591 2744 2837 
Q 2550 3084 2163 3084 
Q 1697 3084 1428 2787 
Q 1159 2491 1159 1978 
L 1159 0 
L 581 0 
L 581 4863 
L 1159 4863 
L 1159 2956 
Q 1366 3272 1645 3428 
Q 1925 3584 2291 3584 
Q 2894 3584 3203 3211 
Q 3513 2838 3513 2113 
z
" transform="scale(0.015625)"/>
      <path id="DejaVuSans-2c" d="M 750 794 
L 1409 794 
L 1409 256 
L 897 -744 
L 494 -744 
L 750 256 
L 750 794 
z
" transform="scale(0.015625)"/>
      <path id="DejaVuSans-43" d="M 4122 4306 
L 4122 3641 
Q 3803 3938 3442 4084 
Q 3081 4231 2675 4231 
Q 1875 4231 1450 3742 
Q 1025 3253 1025 2328 
Q 1025 1406 1450 917 
Q 1875 428 2675 428 
Q 3081 428 3442 575 
Q 3803 722 4122 1019 
L 4122 359 
Q 3791 134 3420 21 
Q 3050 -91 2638 -91 
Q 1578 -91 968 557 
Q 359 1206 359 2328 
Q 359 3453 968 4101 
Q 1578 4750 2638 4750 
Q 3056 4750 3426 4639 
Q 3797 4528 4122 4306 
z
" transform="scale(0.015625)"/>
      <path id="DejaVuSans-4d" d="M 628 4666 
L 1569 4666 
L 2759 1491 
L 3956 4666 
L 4897 4666 
L 4897 0 
L 4281 0 
L 4281 4097 
L 3078 897 
L 2444 897 
L 1241 4097 
L 1241 0 
L 628 0 
L 628 4666 
z
" transform="scale(0.015625)"/>
      <path id="DejaVuSans-54" d="M -19 4666 
L 3928 4666 
L 3928 4134 
L 2272 4134 
L 2272 0 
L 1638 0 
L 1638 4134 
L -19 4134 
L -19 4666 
z
" transform="scale(0.015625)"/>
     </defs>
     <use xlink:href="#DejaVuSans-41"/>
     <use xlink:href="#DejaVuSans-6c" x="68.408203"/>
     <use xlink:href="#DejaVuSans-70" x="96.191406"/>
     <use xlink:href="#DejaVuSans-68" x="159.667969"/>
     <use xlink:href="#DejaVuSans-61" x="223.046875"/>
     <use xlink:href="#DejaVuSans-73" x="284.326172"/>
     <use xlink:href="#DejaVuSans-3a" x="336.425781"/>
     <use xlink:href="#DejaVuSans-20" x="370.117188"/>
     <use xlink:href="#DejaVuSans-30" x="401.904297"/>
     <use xlink:href="#DejaVuSans-2e" x="465.527344"/>
     <use xlink:href="#DejaVuSans-35" x="497.314453"/>
     <use xlink:href="#DejaVuSans-45" x="560.9375"/>
     <use xlink:href="#DejaVuSans-2c" x="624.121094"/>
     <use xlink:href="#DejaVuSans-20" x="655.908203"/>
     <use xlink:href="#DejaVuSans-30" x="687.695312"/>
     <use xlink:href="#DejaVuSans-2e" x="751.318359"/>
     <use xlink:href="#DejaVuSans-35" x="783.105469"/>
     <use xlink:href="#DejaVuSans-43" x="846.728516"/>
     <use xlink:href="#DejaVuSans-2c" x="916.552734"/>
     <use xlink:href="#DejaVuSans-20" x="948.339844"/>
     <use xlink:href="#DejaVuSans-30" x="980.126953"/>
     <use xlink:href="#DejaVuSans-4d" x="1043.75"/>
     <use xlink:href="#DejaVuSans-20" x="1130.029297"/>
     <use xlink:href="#DejaVuSans-20" x="1161.816406"/>
     <use xlink:href="#DejaVuSans-2d" x="1193.603516"/>
     <use xlink:href="#DejaVuSans-20" x="1229.6875"/>
     <use xlink:href="#DejaVuSans-20" x="1261.474609"/>
     <use xlink:href="#DejaVuSans-54" x="1293.261719"/>
     <use xlink:href="#DejaVuSans-65" x="1337.345703"/>
     <use xlink:href="#DejaVuSans-6d" x="1398.869141"/>
     <use xlink:href="#DejaVuSans-70" x="1496.28125"/>
     <use xlink:href="#DejaVuSans-6f" x="1559.757812"/>
     <use xlink:href="#DejaVuSans-3a" x="1620.939453"/>
     <use xlink:href="#DejaVuSans-20" x="1654.630859"/>
     <use xlink:href="#DejaVuSans-30" x="1686.417969"/>
     <use xlink:href="#DejaVuSans-2e" x="1750.041016"/>
     <use xlink:href="#DejaVuSans-37" x="1781.828125"/>
     <use xlink:href="#DejaVuSans-35" x="1845.451172"/>
     <use xlink:href="#DejaVuSans-20" x="1909.074219"/>
     <use xlink:href="#DejaVuSans-73" x="1940.861328"/>
    </g>
   </g>
   <g id="legend_1">
    <g id="patch_26">
     <path d="M 340.166875 93.506375 
L 407.72 93.506375 
Q 409.72 93.506375 409.72 91.506375 
L 409.72 48.472 
Q 409.72 46.472 407.72 46.472 
L 340.166875 46.472 
Q 338.166875 46.472 338.166875 48.472 
L 338.166875 91.506375 
Q 338.166875 93.506375 340.166875 93.506375 
z
" style="fill: #ffffff; opacity: 0.8; stroke: #cccccc; stroke-linejoin: miter"/>
    </g>
    <g id="patch_27">
     <path d="M 342.166875 58.070438 
L 362.166875 58.070438 
L 362.166875 51.070438 
L 342.166875 51.070438 
z
" style="fill: #ff0000; stroke: #ff0000; stroke-linejoin: miter"/>
    </g>
    <g id="text_19">
     <!-- S3 -->
     <g transform="translate(370.166875 58.070438)scale(0.1 -0.1)">
      <defs>
       <path id="DejaVuSans-33" d="M 2597 2516 
Q 3050 2419 3304 2112 
Q 3559 1806 3559 1356 
Q 3559 666 3084 287 
Q 2609 -91 1734 -91 
Q 1441 -91 1130 -33 
Q 819 25 488 141 
L 488 750 
Q 750 597 1062 519 
Q 1375 441 1716 441 
Q 2309 441 2620 675 
Q 2931 909 2931 1356 
Q 2931 1769 2642 2001 
Q 2353 2234 1838 2234 
L 1294 2234 
L 1294 2753 
L 1863 2753 
Q 2328 2753 2575 2939 
Q 2822 3125 2822 3475 
Q 2822 3834 2567 4026 
Q 2313 4219 1838 4219 
Q 1578 4219 1281 4162 
Q 984 4106 628 3988 
L 628 4550 
Q 988 4650 1302 4700 
Q 1616 4750 1894 4750 
Q 2613 4750 3031 4423 
Q 3450 4097 3450 3541 
Q 3450 3153 3228 2886 
Q 3006 2619 2597 2516 
z
" transform="scale(0.015625)"/>
      </defs>
      <use xlink:href="#DejaVuSans-53"/>
      <use xlink:href="#DejaVuSans-33" x="63.476562"/>
     </g>
    </g>
    <g id="patch_28">
     <path d="M 342.166875 72.748563 
L 362.166875 72.748563 
L 362.166875 65.748563 
L 342.166875 65.748563 
z
" style="fill: #0000ff; stroke: #0000ff; stroke-linejoin: miter"/>
    </g>
    <g id="text_20">
     <!-- S2CPro -->
     <g transform="translate(370.166875 72.748563)scale(0.1 -0.1)">
      <defs>
       <path id="DejaVuSans-72" d="M 2631 2963 
Q 2534 3019 2420 3045 
Q 2306 3072 2169 3072 
Q 1681 3072 1420 2755 
Q 1159 2438 1159 1844 
L 1159 0 
L 581 0 
L 581 3500 
L 1159 3500 
L 1159 2956 
Q 1341 3275 1631 3429 
Q 1922 3584 2338 3584 
Q 2397 3584 2469 3576 
Q 2541 3569 2628 3553 
L 2631 2963 
z
" transform="scale(0.015625)"/>
      </defs>
      <use xlink:href="#DejaVuSans-53"/>
      <use xlink:href="#DejaVuSans-32" x="63.476562"/>
      <use xlink:href="#DejaVuSans-43" x="127.099609"/>
      <use xlink:href="#DejaVuSans-50" x="196.923828"/>
      <use xlink:href="#DejaVuSans-72" x="255.476562"/>
      <use xlink:href="#DejaVuSans-6f" x="294.339844"/>
     </g>
    </g>
    <g id="patch_29">
     <path d="M 342.166875 87.426688 
L 362.166875 87.426688 
L 362.166875 80.426688 
L 342.166875 80.426688 
z
" style="fill: #008000; stroke: #008000; stroke-linejoin: miter"/>
    </g>
    <g id="text_21">
     <!-- S2C -->
     <g transform="translate(370.166875 87.426688)scale(0.1 -0.1)">
      <use xlink:href="#DejaVuSans-53"/>
      <use xlink:href="#DejaVuSans-32" x="63.476562"/>
      <use xlink:href="#DejaVuSans-43" x="127.099609"/>
     </g>
    </g>
   </g>
  </g>
 </g>
 <defs>
  <clipPath id="pf71262d244">
   <rect x="57.6" y="41.472" width="357.12" height="266.112"/>
  </clipPath>
 </defs>
</svg>
