<?xml version="1.0" encoding="utf-8" standalone="no"?>
<!DOCTYPE svg PUBLIC "-//W3C//DTD SVG 1.1//EN"
  "http://www.w3.org/Graphics/SVG/1.1/DTD/svg11.dtd">
<svg xmlns:xlink="http://www.w3.org/1999/xlink" width="460.8pt" height="345.6pt" viewBox="0 0 460.8 345.6" xmlns="http://www.w3.org/2000/svg" version="1.1">
 <metadata>
  <rdf:RDF xmlns:dc="http://purl.org/dc/elements/1.1/" xmlns:cc="http://creativecommons.org/ns#" xmlns:rdf="http://www.w3.org/1999/02/22-rdf-syntax-ns#">
   <cc:Work>
    <dc:type rdf:resource="http://purl.org/dc/dcmitype/StillImage"/>
    <dc:date>2023-07-21T00:04:39.099303</dc:date>
    <dc:format>image/svg+xml</dc:format>
    <dc:creator>
     <cc:Agent>
      <dc:title>Matplotlib v3.5.2, https://matplotlib.org/</dc:title>
     </cc:Agent>
    </dc:creator>
   </cc:Work>
  </rdf:RDF>
 </metadata>
 <defs>
  <style type="text/css">*{stroke-linejoin: round; stroke-linecap: butt}</style>
 </defs>
 <g id="figure_1">
  <g id="patch_1">
   <path d="M 0 345.6 
L 460.8 345.6 
L 460.8 0 
L 0 0 
z
" style="fill: #ffffff"/>
  </g>
  <g id="axes_1">
   <g id="patch_2">
    <path d="M 57.6 307.584 
L 414.72 307.584 
L 414.72 41.472 
L 57.6 41.472 
z
" style="fill: #ffffff"/>
   </g>
   <g id="patch_3">
    <path d="M 165.469091 295.488 
C 178.80061 295.488 191.587899 290.191331 201.014706 280.764524 
C 210.441513 271.337717 215.738182 258.550428 215.738182 245.218909 
C 215.738182 231.88739 210.441513 219.100101 201.014706 209.673294 
C 191.587899 200.246487 178.80061 194.949818 165.469091 194.949818 
C 152.137572 194.949818 139.350283 200.246487 129.923476 209.673294 
C 120.496669 219.100101 115.2 231.88739 115.2 245.218909 
C 115.2 258.550428 120.496669 271.337717 129.923476 280.764524 
C 139.350283 290.191331 152.137572 295.488 165.469091 295.488 
z
" clip-path="url(#pb82829c8be)" style="fill: #0000ff; opacity: 0.1; stroke: #0000ff; stroke-linejoin: miter"/>
   </g>
   <g id="patch_4">
    <path d="M 165.469091 248.360727 
C 178.80061 248.360727 191.587899 243.064059 201.014706 233.637251 
C 210.441513 224.210444 215.738182 211.423155 215.738182 198.091636 
C 215.738182 184.760118 210.441513 171.972829 201.014706 162.546021 
C 191.587899 153.119214 178.80061 147.822545 165.469091 147.822545 
C 152.137572 147.822545 139.350283 153.119214 129.923476 162.546021 
C 120.496669 171.972829 115.2 184.760118 115.2 198.091636 
C 115.2 211.423155 120.496669 224.210444 129.923476 233.637251 
C 139.350283 243.064059 152.137572 248.360727 165.469091 248.360727 
z
" clip-path="url(#pb82829c8be)" style="fill: #0000ff; opacity: 0.1; stroke: #0000ff; stroke-linejoin: miter"/>
   </g>
   <g id="patch_5">
    <path d="M 165.469091 232.651636 
C 178.80061 232.651636 191.587899 227.354968 201.014706 217.928161 
C 210.441513 208.501353 215.738182 195.714064 215.738182 182.382545 
C 215.738182 169.051027 210.441513 156.263738 201.014706 146.83693 
C 191.587899 137.410123 178.80061 132.113455 165.469091 132.113455 
C 152.137572 132.113455 139.350283 137.410123 129.923476 146.83693 
C 120.496669 156.263738 115.2 169.051027 115.2 182.382545 
C 115.2 195.714064 120.496669 208.501353 129.923476 217.928161 
C 139.350283 227.354968 152.137572 232.651636 165.469091 232.651636 
z
" clip-path="url(#pb82829c8be)" style="fill: #0000ff; opacity: 0.1; stroke: #0000ff; stroke-linejoin: miter"/>
   </g>
   <g id="patch_6">
    <path d="M 165.469091 216.942545 
C 178.80061 216.942545 191.587899 211.645877 201.014706 202.21907 
C 210.441513 192.792262 215.738182 180.004973 215.738182 166.673455 
C 215.738182 153.341936 210.441513 140.554647 201.014706 131.127839 
C 191.587899 121.701032 178.80061 116.404364 165.469091 116.404364 
C 152.137572 116.404364 139.350283 121.701032 129.923476 131.127839 
C 120.496669 140.554647 115.2 153.341936 115.2 166.673455 
C 115.2 180.004973 120.496669 192.792262 129.923476 202.21907 
C 139.350283 211.645877 152.137572 216.942545 165.469091 216.942545 
z
" clip-path="url(#pb82829c8be)" style="fill: #0000ff; opacity: 0.1; stroke: #0000ff; stroke-linejoin: miter"/>
   </g>
   <g id="patch_7">
    <path d="M 165.469091 201.233455 
C 178.80061 201.233455 191.587899 195.936786 201.014706 186.509979 
C 210.441513 177.083171 215.738182 164.295882 215.738182 150.964364 
C 215.738182 137.632845 210.441513 124.845556 201.014706 115.418749 
C 191.587899 105.991941 178.80061 100.695273 165.469091 100.695273 
C 152.137572 100.695273 139.350283 105.991941 129.923476 115.418749 
C 120.496669 124.845556 115.2 137.632845 115.2 150.964364 
C 115.2 164.295882 120.496669 177.083171 129.923476 186.509979 
C 139.350283 195.936786 152.137572 201.233455 165.469091 201.233455 
z
" clip-path="url(#pb82829c8be)" style="fill: #0000ff; opacity: 0.1; stroke: #0000ff; stroke-linejoin: miter"/>
   </g>
   <g id="patch_8">
    <path d="M 165.469091 185.524364 
C 178.80061 185.524364 191.587899 180.227695 201.014706 170.800888 
C 210.441513 161.37408 215.738182 148.586791 215.738182 135.255273 
C 215.738182 121.923754 210.441513 109.136465 201.014706 99.709658 
C 191.587899 90.28285 178.80061 84.986182 165.469091 84.986182 
C 152.137572 84.986182 139.350283 90.28285 129.923476 99.709658 
C 120.496669 109.136465 115.2 121.923754 115.2 135.255273 
C 115.2 148.586791 120.496669 161.37408 129.923476 170.800888 
C 139.350283 180.227695 152.137572 185.524364 165.469091 185.524364 
z
" clip-path="url(#pb82829c8be)" style="fill: #0000ff; opacity: 0.1; stroke: #0000ff; stroke-linejoin: miter"/>
   </g>
   <g id="patch_9">
    <path d="M 165.469091 169.815273 
C 178.80061 169.815273 191.587899 164.518604 201.014706 155.091797 
C 210.441513 145.66499 215.738182 132.877701 215.738182 119.546182 
C 215.738182 106.214663 210.441513 93.427374 201.014706 84.000567 
C 191.587899 74.573759 178.80061 69.277091 165.469091 69.277091 
C 152.137572 69.277091 139.350283 74.573759 129.923476 84.000567 
C 120.496669 93.427374 115.2 106.214663 115.2 119.546182 
C 115.2 132.877701 120.496669 145.66499 129.923476 155.091797 
C 139.350283 164.518604 152.137572 169.815273 165.469091 169.815273 
z
" clip-path="url(#pb82829c8be)" style="fill: #0000ff; opacity: 0.1; stroke: #0000ff; stroke-linejoin: miter"/>
   </g>
   <g id="patch_10">
    <path d="M 165.469091 154.106182 
C 178.80061 154.106182 191.587899 148.809513 201.014706 139.382706 
C 210.441513 129.955899 215.738182 117.16861 215.738182 103.837091 
C 215.738182 90.505572 210.441513 77.718283 201.014706 68.291476 
C 191.587899 58.864669 178.80061 53.568 165.469091 53.568 
C 152.137572 53.568 139.350283 58.864669 129.923476 68.291476 
C 120.496669 77.718283 115.2 90.505572 115.2 103.837091 
C 115.2 117.16861 120.496669 129.955899 129.923476 139.382706 
C 139.350283 148.809513 152.137572 154.106182 165.469091 154.106182 
z
" clip-path="url(#pb82829c8be)" style="fill: #0000ff; opacity: 0.1; stroke: #0000ff; stroke-linejoin: miter"/>
   </g>
   <g id="patch_11">
    <path d="M 181.178182 279.778909 
C 194.509701 279.778909 207.29699 274.482241 216.723797 265.055433 
C 226.150604 255.628626 231.447273 242.841337 231.447273 229.509818 
C 231.447273 216.178299 226.150604 203.39101 216.723797 193.964203 
C 207.29699 184.537396 194.509701 179.240727 181.178182 179.240727 
C 167.846663 179.240727 155.059374 184.537396 145.632567 193.964203 
C 136.205759 203.39101 130.909091 216.178299 130.909091 229.509818 
C 130.909091 242.841337 136.205759 255.628626 145.632567 265.055433 
C 155.059374 274.482241 167.846663 279.778909 181.178182 279.778909 
z
" clip-path="url(#pb82829c8be)" style="fill: #0000ff; opacity: 0.1; stroke: #0000ff; stroke-linejoin: miter"/>
   </g>
   <g id="patch_12">
    <path d="M 181.178182 232.651636 
C 194.509701 232.651636 207.29699 227.354968 216.723797 217.928161 
C 226.150604 208.501353 231.447273 195.714064 231.447273 182.382545 
C 231.447273 169.051027 226.150604 156.263738 216.723797 146.83693 
C 207.29699 137.410123 194.509701 132.113455 181.178182 132.113455 
C 167.846663 132.113455 155.059374 137.410123 145.632567 146.83693 
C 136.205759 156.263738 130.909091 169.051027 130.909091 182.382545 
C 130.909091 195.714064 136.205759 208.501353 145.632567 217.928161 
C 155.059374 227.354968 167.846663 232.651636 181.178182 232.651636 
z
" clip-path="url(#pb82829c8be)" style="fill: #0000ff; opacity: 0.1; stroke: #0000ff; stroke-linejoin: miter"/>
   </g>
   <g id="patch_13">
    <path d="M 181.178182 185.524364 
C 194.509701 185.524364 207.29699 180.227695 216.723797 170.800888 
C 226.150604 161.37408 231.447273 148.586791 231.447273 135.255273 
C 231.447273 121.923754 226.150604 109.136465 216.723797 99.709658 
C 207.29699 90.28285 194.509701 84.986182 181.178182 84.986182 
C 167.846663 84.986182 155.059374 90.28285 145.632567 99.709658 
C 136.205759 109.136465 130.909091 121.923754 130.909091 135.255273 
C 130.909091 148.586791 136.205759 161.37408 145.632567 170.800888 
C 155.059374 180.227695 167.846663 185.524364 181.178182 185.524364 
z
" clip-path="url(#pb82829c8be)" style="fill: #0000ff; opacity: 0.1; stroke: #0000ff; stroke-linejoin: miter"/>
   </g>
   <g id="patch_14">
    <path d="M 181.178182 154.106182 
C 194.509701 154.106182 207.29699 148.809513 216.723797 139.382706 
C 226.150604 129.955899 231.447273 117.16861 231.447273 103.837091 
C 231.447273 90.505572 226.150604 77.718283 216.723797 68.291476 
C 207.29699 58.864669 194.509701 53.568 181.178182 53.568 
C 167.846663 53.568 155.059374 58.864669 145.632567 68.291476 
C 136.205759 77.718283 130.909091 90.505572 130.909091 103.837091 
C 130.909091 117.16861 136.205759 129.955899 145.632567 139.382706 
C 155.059374 148.809513 167.846663 154.106182 181.178182 154.106182 
z
" clip-path="url(#pb82829c8be)" style="fill: #0000ff; opacity: 0.1; stroke: #0000ff; stroke-linejoin: miter"/>
   </g>
   <g id="patch_15">
    <path d="M 196.887273 295.488 
C 210.218791 295.488 223.00608 290.191331 232.432888 280.764524 
C 241.859695 271.337717 247.156364 258.550428 247.156364 245.218909 
C 247.156364 231.88739 241.859695 219.100101 232.432888 209.673294 
C 223.00608 200.246487 210.218791 194.949818 196.887273 194.949818 
C 183.555754 194.949818 170.768465 200.246487 161.341658 209.673294 
C 151.91485 219.100101 146.618182 231.88739 146.618182 245.218909 
C 146.618182 258.550428 151.91485 271.337717 161.341658 280.764524 
C 170.768465 290.191331 183.555754 295.488 196.887273 295.488 
z
" clip-path="url(#pb82829c8be)" style="fill: #0000ff; opacity: 0.1; stroke: #0000ff; stroke-linejoin: miter"/>
   </g>
   <g id="patch_16">
    <path d="M 196.887273 279.778909 
C 210.218791 279.778909 223.00608 274.482241 232.432888 265.055433 
C 241.859695 255.628626 247.156364 242.841337 247.156364 229.509818 
C 247.156364 216.178299 241.859695 203.39101 232.432888 193.964203 
C 223.00608 184.537396 210.218791 179.240727 196.887273 179.240727 
C 183.555754 179.240727 170.768465 184.537396 161.341658 193.964203 
C 151.91485 203.39101 146.618182 216.178299 146.618182 229.509818 
C 146.618182 242.841337 151.91485 255.628626 161.341658 265.055433 
C 170.768465 274.482241 183.555754 279.778909 196.887273 279.778909 
z
" clip-path="url(#pb82829c8be)" style="fill: #0000ff; opacity: 0.1; stroke: #0000ff; stroke-linejoin: miter"/>
   </g>
   <g id="patch_17">
    <path d="M 196.887273 216.942545 
C 210.218791 216.942545 223.00608 211.645877 232.432888 202.21907 
C 241.859695 192.792262 247.156364 180.004973 247.156364 166.673455 
C 247.156364 153.341936 241.859695 140.554647 232.432888 131.127839 
C 223.00608 121.701032 210.218791 116.404364 196.887273 116.404364 
C 183.555754 116.404364 170.768465 121.701032 161.341658 131.127839 
C 151.91485 140.554647 146.618182 153.341936 146.618182 166.673455 
C 146.618182 180.004973 151.91485 192.792262 161.341658 202.21907 
C 170.768465 211.645877 183.555754 216.942545 196.887273 216.942545 
z
" clip-path="url(#pb82829c8be)" style="fill: #0000ff; opacity: 0.1; stroke: #0000ff; stroke-linejoin: miter"/>
   </g>
   <g id="patch_18">
    <path d="M 212.596364 295.488 
C 225.927882 295.488 238.715171 290.191331 248.141979 280.764524 
C 257.568786 271.337717 262.865455 258.550428 262.865455 245.218909 
C 262.865455 231.88739 257.568786 219.100101 248.141979 209.673294 
C 238.715171 200.246487 225.927882 194.949818 212.596364 194.949818 
C 199.264845 194.949818 186.477556 200.246487 177.050749 209.673294 
C 167.623941 219.100101 162.327273 231.88739 162.327273 245.218909 
C 162.327273 258.550428 167.623941 271.337717 177.050749 280.764524 
C 186.477556 290.191331 199.264845 295.488 212.596364 295.488 
z
" clip-path="url(#pb82829c8be)" style="fill: #0000ff; opacity: 0.1; stroke: #0000ff; stroke-linejoin: miter"/>
   </g>
   <g id="patch_19">
    <path d="M 212.596364 279.778909 
C 225.927882 279.778909 238.715171 274.482241 248.141979 265.055433 
C 257.568786 255.628626 262.865455 242.841337 262.865455 229.509818 
C 262.865455 216.178299 257.568786 203.39101 248.141979 193.964203 
C 238.715171 184.537396 225.927882 179.240727 212.596364 179.240727 
C 199.264845 179.240727 186.477556 184.537396 177.050749 193.964203 
C 167.623941 203.39101 162.327273 216.178299 162.327273 229.509818 
C 162.327273 242.841337 167.623941 255.628626 177.050749 265.055433 
C 186.477556 274.482241 199.264845 279.778909 212.596364 279.778909 
z
" clip-path="url(#pb82829c8be)" style="fill: #0000ff; opacity: 0.1; stroke: #0000ff; stroke-linejoin: miter"/>
   </g>
   <g id="patch_20">
    <path d="M 212.596364 264.069818 
C 225.927882 264.069818 238.715171 258.77315 248.141979 249.346342 
C 257.568786 239.919535 262.865455 227.132246 262.865455 213.800727 
C 262.865455 200.469209 257.568786 187.68192 248.141979 178.255112 
C 238.715171 168.828305 225.927882 163.531636 212.596364 163.531636 
C 199.264845 163.531636 186.477556 168.828305 177.050749 178.255112 
C 167.623941 187.68192 162.327273 200.469209 162.327273 213.800727 
C 162.327273 227.132246 167.623941 239.919535 177.050749 249.346342 
C 186.477556 258.77315 199.264845 264.069818 212.596364 264.069818 
z
" clip-path="url(#pb82829c8be)" style="fill: #0000ff; opacity: 0.1; stroke: #0000ff; stroke-linejoin: miter"/>
   </g>
   <g id="patch_21">
    <path d="M 212.596364 248.360727 
C 225.927882 248.360727 238.715171 243.064059 248.141979 233.637251 
C 257.568786 224.210444 262.865455 211.423155 262.865455 198.091636 
C 262.865455 184.760118 257.568786 171.972829 248.141979 162.546021 
C 238.715171 153.119214 225.927882 147.822545 212.596364 147.822545 
C 199.264845 147.822545 186.477556 153.119214 177.050749 162.546021 
C 167.623941 171.972829 162.327273 184.760118 162.327273 198.091636 
C 162.327273 211.423155 167.623941 224.210444 177.050749 233.637251 
C 186.477556 243.064059 199.264845 248.360727 212.596364 248.360727 
z
" clip-path="url(#pb82829c8be)" style="fill: #0000ff; opacity: 0.1; stroke: #0000ff; stroke-linejoin: miter"/>
   </g>
   <g id="patch_22">
    <path d="M 212.596364 216.942545 
C 225.927882 216.942545 238.715171 211.645877 248.141979 202.21907 
C 257.568786 192.792262 262.865455 180.004973 262.865455 166.673455 
C 262.865455 153.341936 257.568786 140.554647 248.141979 131.127839 
C 238.715171 121.701032 225.927882 116.404364 212.596364 116.404364 
C 199.264845 116.404364 186.477556 121.701032 177.050749 131.127839 
C 167.623941 140.554647 162.327273 153.341936 162.327273 166.673455 
C 162.327273 180.004973 167.623941 192.792262 177.050749 202.21907 
C 186.477556 211.645877 199.264845 216.942545 212.596364 216.942545 
z
" clip-path="url(#pb82829c8be)" style="fill: #0000ff; opacity: 0.1; stroke: #0000ff; stroke-linejoin: miter"/>
   </g>
   <g id="patch_23">
    <path d="M 212.596364 185.524364 
C 225.927882 185.524364 238.715171 180.227695 248.141979 170.800888 
C 257.568786 161.37408 262.865455 148.586791 262.865455 135.255273 
C 262.865455 121.923754 257.568786 109.136465 248.141979 99.709658 
C 238.715171 90.28285 225.927882 84.986182 212.596364 84.986182 
C 199.264845 84.986182 186.477556 90.28285 177.050749 99.709658 
C 167.623941 109.136465 162.327273 121.923754 162.327273 135.255273 
C 162.327273 148.586791 167.623941 161.37408 177.050749 170.800888 
C 186.477556 180.227695 199.264845 185.524364 212.596364 185.524364 
z
" clip-path="url(#pb82829c8be)" style="fill: #0000ff; opacity: 0.1; stroke: #0000ff; stroke-linejoin: miter"/>
   </g>
   <g id="patch_24">
    <path d="M 228.305455 279.778909 
C 241.636973 279.778909 254.424262 274.482241 263.85107 265.055433 
C 273.277877 255.628626 278.574545 242.841337 278.574545 229.509818 
C 278.574545 216.178299 273.277877 203.39101 263.85107 193.964203 
C 254.424262 184.537396 241.636973 179.240727 228.305455 179.240727 
C 214.973936 179.240727 202.186647 184.537396 192.759839 193.964203 
C 183.333032 203.39101 178.036364 216.178299 178.036364 229.509818 
C 178.036364 242.841337 183.333032 255.628626 192.759839 265.055433 
C 202.186647 274.482241 214.973936 279.778909 228.305455 279.778909 
z
" clip-path="url(#pb82829c8be)" style="fill: #0000ff; opacity: 0.1; stroke: #0000ff; stroke-linejoin: miter"/>
   </g>
   <g id="patch_25">
    <path d="M 228.305455 216.942545 
C 241.636973 216.942545 254.424262 211.645877 263.85107 202.21907 
C 273.277877 192.792262 278.574545 180.004973 278.574545 166.673455 
C 278.574545 153.341936 273.277877 140.554647 263.85107 131.127839 
C 254.424262 121.701032 241.636973 116.404364 228.305455 116.404364 
C 214.973936 116.404364 202.186647 121.701032 192.759839 131.127839 
C 183.333032 140.554647 178.036364 153.341936 178.036364 166.673455 
C 178.036364 180.004973 183.333032 192.792262 192.759839 202.21907 
C 202.186647 211.645877 214.973936 216.942545 228.305455 216.942545 
z
" clip-path="url(#pb82829c8be)" style="fill: #0000ff; opacity: 0.1; stroke: #0000ff; stroke-linejoin: miter"/>
   </g>
   <g id="patch_26">
    <path d="M 228.305455 185.524364 
C 241.636973 185.524364 254.424262 180.227695 263.85107 170.800888 
C 273.277877 161.37408 278.574545 148.586791 278.574545 135.255273 
C 278.574545 121.923754 273.277877 109.136465 263.85107 99.709658 
C 254.424262 90.28285 241.636973 84.986182 228.305455 84.986182 
C 214.973936 84.986182 202.186647 90.28285 192.759839 99.709658 
C 183.333032 109.136465 178.036364 121.923754 178.036364 135.255273 
C 178.036364 148.586791 183.333032 161.37408 192.759839 170.800888 
C 202.186647 180.227695 214.973936 185.524364 228.305455 185.524364 
z
" clip-path="url(#pb82829c8be)" style="fill: #0000ff; opacity: 0.1; stroke: #0000ff; stroke-linejoin: miter"/>
   </g>
   <g id="patch_27">
    <path d="M 228.305455 169.815273 
C 241.636973 169.815273 254.424262 164.518604 263.85107 155.091797 
C 273.277877 145.66499 278.574545 132.877701 278.574545 119.546182 
C 278.574545 106.214663 273.277877 93.427374 263.85107 84.000567 
C 254.424262 74.573759 241.636973 69.277091 228.305455 69.277091 
C 214.973936 69.277091 202.186647 74.573759 192.759839 84.000567 
C 183.333032 93.427374 178.036364 106.214663 178.036364 119.546182 
C 178.036364 132.877701 183.333032 145.66499 192.759839 155.091797 
C 202.186647 164.518604 214.973936 169.815273 228.305455 169.815273 
z
" clip-path="url(#pb82829c8be)" style="fill: #0000ff; opacity: 0.1; stroke: #0000ff; stroke-linejoin: miter"/>
   </g>
   <g id="patch_28">
    <path d="M 244.014545 279.778909 
C 257.346064 279.778909 270.133353 274.482241 279.560161 265.055433 
C 288.986968 255.628626 294.283636 242.841337 294.283636 229.509818 
C 294.283636 216.178299 288.986968 203.39101 279.560161 193.964203 
C 270.133353 184.537396 257.346064 179.240727 244.014545 179.240727 
C 230.683027 179.240727 217.895738 184.537396 208.46893 193.964203 
C 199.042123 203.39101 193.745455 216.178299 193.745455 229.509818 
C 193.745455 242.841337 199.042123 255.628626 208.46893 265.055433 
C 217.895738 274.482241 230.683027 279.778909 244.014545 279.778909 
z
" clip-path="url(#pb82829c8be)" style="fill: #0000ff; opacity: 0.1; stroke: #0000ff; stroke-linejoin: miter"/>
   </g>
   <g id="patch_29">
    <path d="M 244.014545 264.069818 
C 257.346064 264.069818 270.133353 258.77315 279.560161 249.346342 
C 288.986968 239.919535 294.283636 227.132246 294.283636 213.800727 
C 294.283636 200.469209 288.986968 187.68192 279.560161 178.255112 
C 270.133353 168.828305 257.346064 163.531636 244.014545 163.531636 
C 230.683027 163.531636 217.895738 168.828305 208.46893 178.255112 
C 199.042123 187.68192 193.745455 200.469209 193.745455 213.800727 
C 193.745455 227.132246 199.042123 239.919535 208.46893 249.346342 
C 217.895738 258.77315 230.683027 264.069818 244.014545 264.069818 
z
" clip-path="url(#pb82829c8be)" style="fill: #0000ff; opacity: 0.1; stroke: #0000ff; stroke-linejoin: miter"/>
   </g>
   <g id="patch_30">
    <path d="M 244.014545 248.360727 
C 257.346064 248.360727 270.133353 243.064059 279.560161 233.637251 
C 288.986968 224.210444 294.283636 211.423155 294.283636 198.091636 
C 294.283636 184.760118 288.986968 171.972829 279.560161 162.546021 
C 270.133353 153.119214 257.346064 147.822545 244.014545 147.822545 
C 230.683027 147.822545 217.895738 153.119214 208.46893 162.546021 
C 199.042123 171.972829 193.745455 184.760118 193.745455 198.091636 
C 193.745455 211.423155 199.042123 224.210444 208.46893 233.637251 
C 217.895738 243.064059 230.683027 248.360727 244.014545 248.360727 
z
" clip-path="url(#pb82829c8be)" style="fill: #0000ff; opacity: 0.1; stroke: #0000ff; stroke-linejoin: miter"/>
   </g>
   <g id="patch_31">
    <path d="M 244.014545 232.651636 
C 257.346064 232.651636 270.133353 227.354968 279.560161 217.928161 
C 288.986968 208.501353 294.283636 195.714064 294.283636 182.382545 
C 294.283636 169.051027 288.986968 156.263738 279.560161 146.83693 
C 270.133353 137.410123 257.346064 132.113455 244.014545 132.113455 
C 230.683027 132.113455 217.895738 137.410123 208.46893 146.83693 
C 199.042123 156.263738 193.745455 169.051027 193.745455 182.382545 
C 193.745455 195.714064 199.042123 208.501353 208.46893 217.928161 
C 217.895738 227.354968 230.683027 232.651636 244.014545 232.651636 
z
" clip-path="url(#pb82829c8be)" style="fill: #0000ff; opacity: 0.1; stroke: #0000ff; stroke-linejoin: miter"/>
   </g>
   <g id="patch_32">
    <path d="M 244.014545 216.942545 
C 257.346064 216.942545 270.133353 211.645877 279.560161 202.21907 
C 288.986968 192.792262 294.283636 180.004973 294.283636 166.673455 
C 294.283636 153.341936 288.986968 140.554647 279.560161 131.127839 
C 270.133353 121.701032 257.346064 116.404364 244.014545 116.404364 
C 230.683027 116.404364 217.895738 121.701032 208.46893 131.127839 
C 199.042123 140.554647 193.745455 153.341936 193.745455 166.673455 
C 193.745455 180.004973 199.042123 192.792262 208.46893 202.21907 
C 217.895738 211.645877 230.683027 216.942545 244.014545 216.942545 
z
" clip-path="url(#pb82829c8be)" style="fill: #0000ff; opacity: 0.1; stroke: #0000ff; stroke-linejoin: miter"/>
   </g>
   <g id="patch_33">
    <path d="M 244.014545 201.233455 
C 257.346064 201.233455 270.133353 195.936786 279.560161 186.509979 
C 288.986968 177.083171 294.283636 164.295882 294.283636 150.964364 
C 294.283636 137.632845 288.986968 124.845556 279.560161 115.418749 
C 270.133353 105.991941 257.346064 100.695273 244.014545 100.695273 
C 230.683027 100.695273 217.895738 105.991941 208.46893 115.418749 
C 199.042123 124.845556 193.745455 137.632845 193.745455 150.964364 
C 193.745455 164.295882 199.042123 177.083171 208.46893 186.509979 
C 217.895738 195.936786 230.683027 201.233455 244.014545 201.233455 
z
" clip-path="url(#pb82829c8be)" style="fill: #0000ff; opacity: 0.1; stroke: #0000ff; stroke-linejoin: miter"/>
   </g>
   <g id="patch_34">
    <path d="M 244.014545 185.524364 
C 257.346064 185.524364 270.133353 180.227695 279.560161 170.800888 
C 288.986968 161.37408 294.283636 148.586791 294.283636 135.255273 
C 294.283636 121.923754 288.986968 109.136465 279.560161 99.709658 
C 270.133353 90.28285 257.346064 84.986182 244.014545 84.986182 
C 230.683027 84.986182 217.895738 90.28285 208.46893 99.709658 
C 199.042123 109.136465 193.745455 121.923754 193.745455 135.255273 
C 193.745455 148.586791 199.042123 161.37408 208.46893 170.800888 
C 217.895738 180.227695 230.683027 185.524364 244.014545 185.524364 
z
" clip-path="url(#pb82829c8be)" style="fill: #0000ff; opacity: 0.1; stroke: #0000ff; stroke-linejoin: miter"/>
   </g>
   <g id="patch_35">
    <path d="M 244.014545 169.815273 
C 257.346064 169.815273 270.133353 164.518604 279.560161 155.091797 
C 288.986968 145.66499 294.283636 132.877701 294.283636 119.546182 
C 294.283636 106.214663 288.986968 93.427374 279.560161 84.000567 
C 270.133353 74.573759 257.346064 69.277091 244.014545 69.277091 
C 230.683027 69.277091 217.895738 74.573759 208.46893 84.000567 
C 199.042123 93.427374 193.745455 106.214663 193.745455 119.546182 
C 193.745455 132.877701 199.042123 145.66499 208.46893 155.091797 
C 217.895738 164.518604 230.683027 169.815273 244.014545 169.815273 
z
" clip-path="url(#pb82829c8be)" style="fill: #0000ff; opacity: 0.1; stroke: #0000ff; stroke-linejoin: miter"/>
   </g>
   <g id="patch_36">
    <path d="M 244.014545 154.106182 
C 257.346064 154.106182 270.133353 148.809513 279.560161 139.382706 
C 288.986968 129.955899 294.283636 117.16861 294.283636 103.837091 
C 294.283636 90.505572 288.986968 77.718283 279.560161 68.291476 
C 270.133353 58.864669 257.346064 53.568 244.014545 53.568 
C 230.683027 53.568 217.895738 58.864669 208.46893 68.291476 
C 199.042123 77.718283 193.745455 90.505572 193.745455 103.837091 
C 193.745455 117.16861 199.042123 129.955899 208.46893 139.382706 
C 217.895738 148.809513 230.683027 154.106182 244.014545 154.106182 
z
" clip-path="url(#pb82829c8be)" style="fill: #0000ff; opacity: 0.1; stroke: #0000ff; stroke-linejoin: miter"/>
   </g>
   <g id="patch_37">
    <path d="M 259.723636 264.069818 
C 273.055155 264.069818 285.842444 258.77315 295.269251 249.346342 
C 304.696059 239.919535 309.992727 227.132246 309.992727 213.800727 
C 309.992727 200.469209 304.696059 187.68192 295.269251 178.255112 
C 285.842444 168.828305 273.055155 163.531636 259.723636 163.531636 
C 246.392118 163.531636 233.604829 168.828305 224.178021 178.255112 
C 214.751214 187.68192 209.454545 200.469209 209.454545 213.800727 
C 209.454545 227.132246 214.751214 239.919535 224.178021 249.346342 
C 233.604829 258.77315 246.392118 264.069818 259.723636 264.069818 
z
" clip-path="url(#pb82829c8be)" style="fill: #0000ff; opacity: 0.1; stroke: #0000ff; stroke-linejoin: miter"/>
   </g>
   <g id="patch_38">
    <path d="M 259.723636 248.360727 
C 273.055155 248.360727 285.842444 243.064059 295.269251 233.637251 
C 304.696059 224.210444 309.992727 211.423155 309.992727 198.091636 
C 309.992727 184.760118 304.696059 171.972829 295.269251 162.546021 
C 285.842444 153.119214 273.055155 147.822545 259.723636 147.822545 
C 246.392118 147.822545 233.604829 153.119214 224.178021 162.546021 
C 214.751214 171.972829 209.454545 184.760118 209.454545 198.091636 
C 209.454545 211.423155 214.751214 224.210444 224.178021 233.637251 
C 233.604829 243.064059 246.392118 248.360727 259.723636 248.360727 
z
" clip-path="url(#pb82829c8be)" style="fill: #0000ff; opacity: 0.1; stroke: #0000ff; stroke-linejoin: miter"/>
   </g>
   <g id="patch_39">
    <path d="M 259.723636 216.942545 
C 273.055155 216.942545 285.842444 211.645877 295.269251 202.21907 
C 304.696059 192.792262 309.992727 180.004973 309.992727 166.673455 
C 309.992727 153.341936 304.696059 140.554647 295.269251 131.127839 
C 285.842444 121.701032 273.055155 116.404364 259.723636 116.404364 
C 246.392118 116.404364 233.604829 121.701032 224.178021 131.127839 
C 214.751214 140.554647 209.454545 153.341936 209.454545 166.673455 
C 209.454545 180.004973 214.751214 192.792262 224.178021 202.21907 
C 233.604829 211.645877 246.392118 216.942545 259.723636 216.942545 
z
" clip-path="url(#pb82829c8be)" style="fill: #0000ff; opacity: 0.1; stroke: #0000ff; stroke-linejoin: miter"/>
   </g>
   <g id="patch_40">
    <path d="M 275.432727 279.778909 
C 288.764246 279.778909 301.551535 274.482241 310.978342 265.055433 
C 320.40515 255.628626 325.701818 242.841337 325.701818 229.509818 
C 325.701818 216.178299 320.40515 203.39101 310.978342 193.964203 
C 301.551535 184.537396 288.764246 179.240727 275.432727 179.240727 
C 262.101209 179.240727 249.31392 184.537396 239.887112 193.964203 
C 230.460305 203.39101 225.163636 216.178299 225.163636 229.509818 
C 225.163636 242.841337 230.460305 255.628626 239.887112 265.055433 
C 249.31392 274.482241 262.101209 279.778909 275.432727 279.778909 
z
" clip-path="url(#pb82829c8be)" style="fill: #0000ff; opacity: 0.1; stroke: #0000ff; stroke-linejoin: miter"/>
   </g>
   <g id="patch_41">
    <path d="M 275.432727 216.942545 
C 288.764246 216.942545 301.551535 211.645877 310.978342 202.21907 
C 320.40515 192.792262 325.701818 180.004973 325.701818 166.673455 
C 325.701818 153.341936 320.40515 140.554647 310.978342 131.127839 
C 301.551535 121.701032 288.764246 116.404364 275.432727 116.404364 
C 262.101209 116.404364 249.31392 121.701032 239.887112 131.127839 
C 230.460305 140.554647 225.163636 153.341936 225.163636 166.673455 
C 225.163636 180.004973 230.460305 192.792262 239.887112 202.21907 
C 249.31392 211.645877 262.101209 216.942545 275.432727 216.942545 
z
" clip-path="url(#pb82829c8be)" style="fill: #0000ff; opacity: 0.1; stroke: #0000ff; stroke-linejoin: miter"/>
   </g>
   <g id="patch_42">
    <path d="M 275.432727 201.233455 
C 288.764246 201.233455 301.551535 195.936786 310.978342 186.509979 
C 320.40515 177.083171 325.701818 164.295882 325.701818 150.964364 
C 325.701818 137.632845 320.40515 124.845556 310.978342 115.418749 
C 301.551535 105.991941 288.764246 100.695273 275.432727 100.695273 
C 262.101209 100.695273 249.31392 105.991941 239.887112 115.418749 
C 230.460305 124.845556 225.163636 137.632845 225.163636 150.964364 
C 225.163636 164.295882 230.460305 177.083171 239.887112 186.509979 
C 249.31392 195.936786 262.101209 201.233455 275.432727 201.233455 
z
" clip-path="url(#pb82829c8be)" style="fill: #0000ff; opacity: 0.1; stroke: #0000ff; stroke-linejoin: miter"/>
   </g>
   <g id="patch_43">
    <path d="M 291.141818 295.488 
C 304.473337 295.488 317.260626 290.191331 326.687433 280.764524 
C 336.114241 271.337717 341.410909 258.550428 341.410909 245.218909 
C 341.410909 231.88739 336.114241 219.100101 326.687433 209.673294 
C 317.260626 200.246487 304.473337 194.949818 291.141818 194.949818 
C 277.810299 194.949818 265.02301 200.246487 255.596203 209.673294 
C 246.169396 219.100101 240.872727 231.88739 240.872727 245.218909 
C 240.872727 258.550428 246.169396 271.337717 255.596203 280.764524 
C 265.02301 290.191331 277.810299 295.488 291.141818 295.488 
z
" clip-path="url(#pb82829c8be)" style="fill: #0000ff; opacity: 0.1; stroke: #0000ff; stroke-linejoin: miter"/>
   </g>
   <g id="patch_44">
    <path d="M 291.141818 279.778909 
C 304.473337 279.778909 317.260626 274.482241 326.687433 265.055433 
C 336.114241 255.628626 341.410909 242.841337 341.410909 229.509818 
C 341.410909 216.178299 336.114241 203.39101 326.687433 193.964203 
C 317.260626 184.537396 304.473337 179.240727 291.141818 179.240727 
C 277.810299 179.240727 265.02301 184.537396 255.596203 193.964203 
C 246.169396 203.39101 240.872727 216.178299 240.872727 229.509818 
C 240.872727 242.841337 246.169396 255.628626 255.596203 265.055433 
C 265.02301 274.482241 277.810299 279.778909 291.141818 279.778909 
z
" clip-path="url(#pb82829c8be)" style="fill: #0000ff; opacity: 0.1; stroke: #0000ff; stroke-linejoin: miter"/>
   </g>
   <g id="patch_45">
    <path d="M 291.141818 248.360727 
C 304.473337 248.360727 317.260626 243.064059 326.687433 233.637251 
C 336.114241 224.210444 341.410909 211.423155 341.410909 198.091636 
C 341.410909 184.760118 336.114241 171.972829 326.687433 162.546021 
C 317.260626 153.119214 304.473337 147.822545 291.141818 147.822545 
C 277.810299 147.822545 265.02301 153.119214 255.596203 162.546021 
C 246.169396 171.972829 240.872727 184.760118 240.872727 198.091636 
C 240.872727 211.423155 246.169396 224.210444 255.596203 233.637251 
C 265.02301 243.064059 277.810299 248.360727 291.141818 248.360727 
z
" clip-path="url(#pb82829c8be)" style="fill: #0000ff; opacity: 0.1; stroke: #0000ff; stroke-linejoin: miter"/>
   </g>
   <g id="patch_46">
    <path d="M 291.141818 216.942545 
C 304.473337 216.942545 317.260626 211.645877 326.687433 202.21907 
C 336.114241 192.792262 341.410909 180.004973 341.410909 166.673455 
C 341.410909 153.341936 336.114241 140.554647 326.687433 131.127839 
C 317.260626 121.701032 304.473337 116.404364 291.141818 116.404364 
C 277.810299 116.404364 265.02301 121.701032 255.596203 131.127839 
C 246.169396 140.554647 240.872727 153.341936 240.872727 166.673455 
C 240.872727 180.004973 246.169396 192.792262 255.596203 202.21907 
C 265.02301 211.645877 277.810299 216.942545 291.141818 216.942545 
z
" clip-path="url(#pb82829c8be)" style="fill: #0000ff; opacity: 0.1; stroke: #0000ff; stroke-linejoin: miter"/>
   </g>
   <g id="patch_47">
    <path d="M 291.141818 185.524364 
C 304.473337 185.524364 317.260626 180.227695 326.687433 170.800888 
C 336.114241 161.37408 341.410909 148.586791 341.410909 135.255273 
C 341.410909 121.923754 336.114241 109.136465 326.687433 99.709658 
C 317.260626 90.28285 304.473337 84.986182 291.141818 84.986182 
C 277.810299 84.986182 265.02301 90.28285 255.596203 99.709658 
C 246.169396 109.136465 240.872727 121.923754 240.872727 135.255273 
C 240.872727 148.586791 246.169396 161.37408 255.596203 170.800888 
C 265.02301 180.227695 277.810299 185.524364 291.141818 185.524364 
z
" clip-path="url(#pb82829c8be)" style="fill: #0000ff; opacity: 0.1; stroke: #0000ff; stroke-linejoin: miter"/>
   </g>
   <g id="patch_48">
    <path d="M 291.141818 154.106182 
C 304.473337 154.106182 317.260626 148.809513 326.687433 139.382706 
C 336.114241 129.955899 341.410909 117.16861 341.410909 103.837091 
C 341.410909 90.505572 336.114241 77.718283 326.687433 68.291476 
C 317.260626 58.864669 304.473337 53.568 291.141818 53.568 
C 277.810299 53.568 265.02301 58.864669 255.596203 68.291476 
C 246.169396 77.718283 240.872727 90.505572 240.872727 103.837091 
C 240.872727 117.16861 246.169396 129.955899 255.596203 139.382706 
C 265.02301 148.809513 277.810299 154.106182 291.141818 154.106182 
z
" clip-path="url(#pb82829c8be)" style="fill: #0000ff; opacity: 0.1; stroke: #0000ff; stroke-linejoin: miter"/>
   </g>
   <g id="patch_49">
    <path d="M 306.850909 279.778909 
C 320.182428 279.778909 332.969717 274.482241 342.396524 265.055433 
C 351.823331 255.628626 357.12 242.841337 357.12 229.509818 
C 357.12 216.178299 351.823331 203.39101 342.396524 193.964203 
C 332.969717 184.537396 320.182428 179.240727 306.850909 179.240727 
C 293.51939 179.240727 280.732101 184.537396 271.305294 193.964203 
C 261.878487 203.39101 256.581818 216.178299 256.581818 229.509818 
C 256.581818 242.841337 261.878487 255.628626 271.305294 265.055433 
C 280.732101 274.482241 293.51939 279.778909 306.850909 279.778909 
z
" clip-path="url(#pb82829c8be)" style="fill: #0000ff; opacity: 0.1; stroke: #0000ff; stroke-linejoin: miter"/>
   </g>
   <g id="patch_50">
    <path d="M 306.850909 232.651636 
C 320.182428 232.651636 332.969717 227.354968 342.396524 217.928161 
C 351.823331 208.501353 357.12 195.714064 357.12 182.382545 
C 357.12 169.051027 351.823331 156.263738 342.396524 146.83693 
C 332.969717 137.410123 320.182428 132.113455 306.850909 132.113455 
C 293.51939 132.113455 280.732101 137.410123 271.305294 146.83693 
C 261.878487 156.263738 256.581818 169.051027 256.581818 182.382545 
C 256.581818 195.714064 261.878487 208.501353 271.305294 217.928161 
C 280.732101 227.354968 293.51939 232.651636 306.850909 232.651636 
z
" clip-path="url(#pb82829c8be)" style="fill: #0000ff; opacity: 0.1; stroke: #0000ff; stroke-linejoin: miter"/>
   </g>
   <g id="patch_51">
    <path d="M 306.850909 216.942545 
C 320.182428 216.942545 332.969717 211.645877 342.396524 202.21907 
C 351.823331 192.792262 357.12 180.004973 357.12 166.673455 
C 357.12 153.341936 351.823331 140.554647 342.396524 131.127839 
C 332.969717 121.701032 320.182428 116.404364 306.850909 116.404364 
C 293.51939 116.404364 280.732101 121.701032 271.305294 131.127839 
C 261.878487 140.554647 256.581818 153.341936 256.581818 166.673455 
C 256.581818 180.004973 261.878487 192.792262 271.305294 202.21907 
C 280.732101 211.645877 293.51939 216.942545 306.850909 216.942545 
z
" clip-path="url(#pb82829c8be)" style="fill: #0000ff; opacity: 0.1; stroke: #0000ff; stroke-linejoin: miter"/>
   </g>
   <g id="patch_52">
    <path d="M 306.850909 154.106182 
C 320.182428 154.106182 332.969717 148.809513 342.396524 139.382706 
C 351.823331 129.955899 357.12 117.16861 357.12 103.837091 
C 357.12 90.505572 351.823331 77.718283 342.396524 68.291476 
C 332.969717 58.864669 320.182428 53.568 306.850909 53.568 
C 293.51939 53.568 280.732101 58.864669 271.305294 68.291476 
C 261.878487 77.718283 256.581818 90.505572 256.581818 103.837091 
C 256.581818 117.16861 261.878487 129.955899 271.305294 139.382706 
C 280.732101 148.809513 293.51939 154.106182 306.850909 154.106182 
z
" clip-path="url(#pb82829c8be)" style="fill: #0000ff; opacity: 0.1; stroke: #0000ff; stroke-linejoin: miter"/>
   </g>
   <g id="matplotlib.axis_1">
    <g id="xtick_1">
     <g id="line2d_1">
      <path d="M 71.214545 307.584 
L 71.214545 41.472 
" clip-path="url(#pb82829c8be)" style="fill: none; stroke-dasharray: 1.85,0.8; stroke-dashoffset: 0; stroke: #b0b0b0; stroke-opacity: 0.5; stroke-width: 0.5"/>
     </g>
     <g id="line2d_2">
      <defs>
       <path id="m719d9a4a2a" d="M 0 0 
L 0 3.5 
" style="stroke: #000000; stroke-width: 0.8"/>
      </defs>
      <g>
       <use xlink:href="#m719d9a4a2a" x="71.214545" y="307.584" style="stroke: #000000; stroke-width: 0.8"/>
      </g>
     </g>
     <g id="text_1">
      <!-- −5 -->
      <g transform="translate(63.843452 322.182437)scale(0.1 -0.1)">
       <defs>
        <path id="DejaVuSans-2212" d="M 678 2272 
L 4684 2272 
L 4684 1741 
L 678 1741 
L 678 2272 
z
" transform="scale(0.015625)"/>
        <path id="DejaVuSans-35" d="M 691 4666 
L 3169 4666 
L 3169 4134 
L 1269 4134 
L 1269 2991 
Q 1406 3038 1543 3061 
Q 1681 3084 1819 3084 
Q 2600 3084 3056 2656 
Q 3513 2228 3513 1497 
Q 3513 744 3044 326 
Q 2575 -91 1722 -91 
Q 1428 -91 1123 -41 
Q 819 9 494 109 
L 494 744 
Q 775 591 1075 516 
Q 1375 441 1709 441 
Q 2250 441 2565 725 
Q 2881 1009 2881 1497 
Q 2881 1984 2565 2268 
Q 2250 2553 1709 2553 
Q 1456 2553 1204 2497 
Q 953 2441 691 2322 
L 691 4666 
z
" transform="scale(0.015625)"/>
       </defs>
       <use xlink:href="#DejaVuSans-2212"/>
       <use xlink:href="#DejaVuSans-35" x="83.789062"/>
      </g>
     </g>
    </g>
    <g id="xtick_2">
     <g id="line2d_3">
      <path d="M 149.76 307.584 
L 149.76 41.472 
" clip-path="url(#pb82829c8be)" style="fill: none; stroke-dasharray: 1.85,0.8; stroke-dashoffset: 0; stroke: #b0b0b0; stroke-opacity: 0.5; stroke-width: 0.5"/>
     </g>
     <g id="line2d_4">
      <g>
       <use xlink:href="#m719d9a4a2a" x="149.76" y="307.584" style="stroke: #000000; stroke-width: 0.8"/>
      </g>
     </g>
     <g id="text_2">
      <!-- 0 -->
      <g transform="translate(146.57875 322.182437)scale(0.1 -0.1)">
       <defs>
        <path id="DejaVuSans-30" d="M 2034 4250 
Q 1547 4250 1301 3770 
Q 1056 3291 1056 2328 
Q 1056 1369 1301 889 
Q 1547 409 2034 409 
Q 2525 409 2770 889 
Q 3016 1369 3016 2328 
Q 3016 3291 2770 3770 
Q 2525 4250 2034 4250 
z
M 2034 4750 
Q 2819 4750 3233 4129 
Q 3647 3509 3647 2328 
Q 3647 1150 3233 529 
Q 2819 -91 2034 -91 
Q 1250 -91 836 529 
Q 422 1150 422 2328 
Q 422 3509 836 4129 
Q 1250 4750 2034 4750 
z
" transform="scale(0.015625)"/>
       </defs>
       <use xlink:href="#DejaVuSans-30"/>
      </g>
     </g>
    </g>
    <g id="xtick_3">
     <g id="line2d_5">
      <path d="M 228.305455 307.584 
L 228.305455 41.472 
" clip-path="url(#pb82829c8be)" style="fill: none; stroke-dasharray: 1.85,0.8; stroke-dashoffset: 0; stroke: #b0b0b0; stroke-opacity: 0.5; stroke-width: 0.5"/>
     </g>
     <g id="line2d_6">
      <g>
       <use xlink:href="#m719d9a4a2a" x="228.305455" y="307.584" style="stroke: #000000; stroke-width: 0.8"/>
      </g>
     </g>
     <g id="text_3">
      <!-- 5 -->
      <g transform="translate(225.124205 322.182437)scale(0.1 -0.1)">
       <use xlink:href="#DejaVuSans-35"/>
      </g>
     </g>
    </g>
    <g id="xtick_4">
     <g id="line2d_7">
      <path d="M 306.850909 307.584 
L 306.850909 41.472 
" clip-path="url(#pb82829c8be)" style="fill: none; stroke-dasharray: 1.85,0.8; stroke-dashoffset: 0; stroke: #b0b0b0; stroke-opacity: 0.5; stroke-width: 0.5"/>
     </g>
     <g id="line2d_8">
      <g>
       <use xlink:href="#m719d9a4a2a" x="306.850909" y="307.584" style="stroke: #000000; stroke-width: 0.8"/>
      </g>
     </g>
     <g id="text_4">
      <!-- 10 -->
      <g transform="translate(300.488409 322.182437)scale(0.1 -0.1)">
       <defs>
        <path id="DejaVuSans-31" d="M 794 531 
L 1825 531 
L 1825 4091 
L 703 3866 
L 703 4441 
L 1819 4666 
L 2450 4666 
L 2450 531 
L 3481 531 
L 3481 0 
L 794 0 
L 794 531 
z
" transform="scale(0.015625)"/>
       </defs>
       <use xlink:href="#DejaVuSans-31"/>
       <use xlink:href="#DejaVuSans-30" x="63.623047"/>
      </g>
     </g>
    </g>
    <g id="xtick_5">
     <g id="line2d_9">
      <path d="M 385.396364 307.584 
L 385.396364 41.472 
" clip-path="url(#pb82829c8be)" style="fill: none; stroke-dasharray: 1.85,0.8; stroke-dashoffset: 0; stroke: #b0b0b0; stroke-opacity: 0.5; stroke-width: 0.5"/>
     </g>
     <g id="line2d_10">
      <g>
       <use xlink:href="#m719d9a4a2a" x="385.396364" y="307.584" style="stroke: #000000; stroke-width: 0.8"/>
      </g>
     </g>
     <g id="text_5">
      <!-- 15 -->
      <g transform="translate(379.033864 322.182437)scale(0.1 -0.1)">
       <use xlink:href="#DejaVuSans-31"/>
       <use xlink:href="#DejaVuSans-35" x="63.623047"/>
      </g>
     </g>
    </g>
    <g id="text_6">
     <!-- Eixo X (m) -->
     <g transform="translate(210.374062 335.860562)scale(0.1 -0.1)">
      <defs>
       <path id="DejaVuSans-45" d="M 628 4666 
L 3578 4666 
L 3578 4134 
L 1259 4134 
L 1259 2753 
L 3481 2753 
L 3481 2222 
L 1259 2222 
L 1259 531 
L 3634 531 
L 3634 0 
L 628 0 
L 628 4666 
z
" transform="scale(0.015625)"/>
       <path id="DejaVuSans-69" d="M 603 3500 
L 1178 3500 
L 1178 0 
L 603 0 
L 603 3500 
z
M 603 4863 
L 1178 4863 
L 1178 4134 
L 603 4134 
L 603 4863 
z
" transform="scale(0.015625)"/>
       <path id="DejaVuSans-78" d="M 3513 3500 
L 2247 1797 
L 3578 0 
L 2900 0 
L 1881 1375 
L 863 0 
L 184 0 
L 1544 1831 
L 300 3500 
L 978 3500 
L 1906 2253 
L 2834 3500 
L 3513 3500 
z
" transform="scale(0.015625)"/>
       <path id="DejaVuSans-6f" d="M 1959 3097 
Q 1497 3097 1228 2736 
Q 959 2375 959 1747 
Q 959 1119 1226 758 
Q 1494 397 1959 397 
Q 2419 397 2687 759 
Q 2956 1122 2956 1747 
Q 2956 2369 2687 2733 
Q 2419 3097 1959 3097 
z
M 1959 3584 
Q 2709 3584 3137 3096 
Q 3566 2609 3566 1747 
Q 3566 888 3137 398 
Q 2709 -91 1959 -91 
Q 1206 -91 779 398 
Q 353 888 353 1747 
Q 353 2609 779 3096 
Q 1206 3584 1959 3584 
z
" transform="scale(0.015625)"/>
       <path id="DejaVuSans-20" transform="scale(0.015625)"/>
       <path id="DejaVuSans-58" d="M 403 4666 
L 1081 4666 
L 2241 2931 
L 3406 4666 
L 4084 4666 
L 2584 2425 
L 4184 0 
L 3506 0 
L 2194 1984 
L 872 0 
L 191 0 
L 1856 2491 
L 403 4666 
z
" transform="scale(0.015625)"/>
       <path id="DejaVuSans-28" d="M 1984 4856 
Q 1566 4138 1362 3434 
Q 1159 2731 1159 2009 
Q 1159 1288 1364 580 
Q 1569 -128 1984 -844 
L 1484 -844 
Q 1016 -109 783 600 
Q 550 1309 550 2009 
Q 550 2706 781 3412 
Q 1013 4119 1484 4856 
L 1984 4856 
z
" transform="scale(0.015625)"/>
       <path id="DejaVuSans-6d" d="M 3328 2828 
Q 3544 3216 3844 3400 
Q 4144 3584 4550 3584 
Q 5097 3584 5394 3201 
Q 5691 2819 5691 2113 
L 5691 0 
L 5113 0 
L 5113 2094 
Q 5113 2597 4934 2840 
Q 4756 3084 4391 3084 
Q 3944 3084 3684 2787 
Q 3425 2491 3425 1978 
L 3425 0 
L 2847 0 
L 2847 2094 
Q 2847 2600 2669 2842 
Q 2491 3084 2119 3084 
Q 1678 3084 1418 2786 
Q 1159 2488 1159 1978 
L 1159 0 
L 581 0 
L 581 3500 
L 1159 3500 
L 1159 2956 
Q 1356 3278 1631 3431 
Q 1906 3584 2284 3584 
Q 2666 3584 2933 3390 
Q 3200 3197 3328 2828 
z
" transform="scale(0.015625)"/>
       <path id="DejaVuSans-29" d="M 513 4856 
L 1013 4856 
Q 1481 4119 1714 3412 
Q 1947 2706 1947 2009 
Q 1947 1309 1714 600 
Q 1481 -109 1013 -844 
L 513 -844 
Q 928 -128 1133 580 
Q 1338 1288 1338 2009 
Q 1338 2731 1133 3434 
Q 928 4138 513 4856 
z
" transform="scale(0.015625)"/>
      </defs>
      <use xlink:href="#DejaVuSans-45"/>
      <use xlink:href="#DejaVuSans-69" x="63.183594"/>
      <use xlink:href="#DejaVuSans-78" x="90.966797"/>
      <use xlink:href="#DejaVuSans-6f" x="147.021484"/>
      <use xlink:href="#DejaVuSans-20" x="208.203125"/>
      <use xlink:href="#DejaVuSans-58" x="239.990234"/>
      <use xlink:href="#DejaVuSans-20" x="308.496094"/>
      <use xlink:href="#DejaVuSans-28" x="340.283203"/>
      <use xlink:href="#DejaVuSans-6d" x="379.296875"/>
      <use xlink:href="#DejaVuSans-29" x="476.708984"/>
     </g>
    </g>
   </g>
   <g id="matplotlib.axis_2">
    <g id="ytick_1">
     <g id="line2d_11">
      <path d="M 57.6 292.346182 
L 414.72 292.346182 
" clip-path="url(#pb82829c8be)" style="fill: none; stroke-dasharray: 1.85,0.8; stroke-dashoffset: 0; stroke: #b0b0b0; stroke-opacity: 0.5; stroke-width: 0.5"/>
     </g>
     <g id="line2d_12">
      <defs>
       <path id="m98e0e63a53" d="M 0 0 
L -3.5 0 
" style="stroke: #000000; stroke-width: 0.8"/>
      </defs>
      <g>
       <use xlink:href="#m98e0e63a53" x="57.6" y="292.346182" style="stroke: #000000; stroke-width: 0.8"/>
      </g>
     </g>
     <g id="text_7">
      <!-- −2 -->
      <g transform="translate(35.857813 296.145401)scale(0.1 -0.1)">
       <defs>
        <path id="DejaVuSans-32" d="M 1228 531 
L 3431 531 
L 3431 0 
L 469 0 
L 469 531 
Q 828 903 1448 1529 
Q 2069 2156 2228 2338 
Q 2531 2678 2651 2914 
Q 2772 3150 2772 3378 
Q 2772 3750 2511 3984 
Q 2250 4219 1831 4219 
Q 1534 4219 1204 4116 
Q 875 4013 500 3803 
L 500 4441 
Q 881 4594 1212 4672 
Q 1544 4750 1819 4750 
Q 2544 4750 2975 4387 
Q 3406 4025 3406 3419 
Q 3406 3131 3298 2873 
Q 3191 2616 2906 2266 
Q 2828 2175 2409 1742 
Q 1991 1309 1228 531 
z
" transform="scale(0.015625)"/>
       </defs>
       <use xlink:href="#DejaVuSans-2212"/>
       <use xlink:href="#DejaVuSans-32" x="83.789062"/>
      </g>
     </g>
    </g>
    <g id="ytick_2">
     <g id="line2d_13">
      <path d="M 57.6 260.928 
L 414.72 260.928 
" clip-path="url(#pb82829c8be)" style="fill: none; stroke-dasharray: 1.85,0.8; stroke-dashoffset: 0; stroke: #b0b0b0; stroke-opacity: 0.5; stroke-width: 0.5"/>
     </g>
     <g id="line2d_14">
      <g>
       <use xlink:href="#m98e0e63a53" x="57.6" y="260.928" style="stroke: #000000; stroke-width: 0.8"/>
      </g>
     </g>
     <g id="text_8">
      <!-- 0 -->
      <g transform="translate(44.2375 264.727219)scale(0.1 -0.1)">
       <use xlink:href="#DejaVuSans-30"/>
      </g>
     </g>
    </g>
    <g id="ytick_3">
     <g id="line2d_15">
      <path d="M 57.6 229.509818 
L 414.72 229.509818 
" clip-path="url(#pb82829c8be)" style="fill: none; stroke-dasharray: 1.85,0.8; stroke-dashoffset: 0; stroke: #b0b0b0; stroke-opacity: 0.5; stroke-width: 0.5"/>
     </g>
     <g id="line2d_16">
      <g>
       <use xlink:href="#m98e0e63a53" x="57.6" y="229.509818" style="stroke: #000000; stroke-width: 0.8"/>
      </g>
     </g>
     <g id="text_9">
      <!-- 2 -->
      <g transform="translate(44.2375 233.309037)scale(0.1 -0.1)">
       <use xlink:href="#DejaVuSans-32"/>
      </g>
     </g>
    </g>
    <g id="ytick_4">
     <g id="line2d_17">
      <path d="M 57.6 198.091636 
L 414.72 198.091636 
" clip-path="url(#pb82829c8be)" style="fill: none; stroke-dasharray: 1.85,0.8; stroke-dashoffset: 0; stroke: #b0b0b0; stroke-opacity: 0.5; stroke-width: 0.5"/>
     </g>
     <g id="line2d_18">
      <g>
       <use xlink:href="#m98e0e63a53" x="57.6" y="198.091636" style="stroke: #000000; stroke-width: 0.8"/>
      </g>
     </g>
     <g id="text_10">
      <!-- 4 -->
      <g transform="translate(44.2375 201.890855)scale(0.1 -0.1)">
       <defs>
        <path id="DejaVuSans-34" d="M 2419 4116 
L 825 1625 
L 2419 1625 
L 2419 4116 
z
M 2253 4666 
L 3047 4666 
L 3047 1625 
L 3713 1625 
L 3713 1100 
L 3047 1100 
L 3047 0 
L 2419 0 
L 2419 1100 
L 313 1100 
L 313 1709 
L 2253 4666 
z
" transform="scale(0.015625)"/>
       </defs>
       <use xlink:href="#DejaVuSans-34"/>
      </g>
     </g>
    </g>
    <g id="ytick_5">
     <g id="line2d_19">
      <path d="M 57.6 166.673455 
L 414.72 166.673455 
" clip-path="url(#pb82829c8be)" style="fill: none; stroke-dasharray: 1.85,0.8; stroke-dashoffset: 0; stroke: #b0b0b0; stroke-opacity: 0.5; stroke-width: 0.5"/>
     </g>
     <g id="line2d_20">
      <g>
       <use xlink:href="#m98e0e63a53" x="57.6" y="166.673455" style="stroke: #000000; stroke-width: 0.8"/>
      </g>
     </g>
     <g id="text_11">
      <!-- 6 -->
      <g transform="translate(44.2375 170.472673)scale(0.1 -0.1)">
       <defs>
        <path id="DejaVuSans-36" d="M 2113 2584 
Q 1688 2584 1439 2293 
Q 1191 2003 1191 1497 
Q 1191 994 1439 701 
Q 1688 409 2113 409 
Q 2538 409 2786 701 
Q 3034 994 3034 1497 
Q 3034 2003 2786 2293 
Q 2538 2584 2113 2584 
z
M 3366 4563 
L 3366 3988 
Q 3128 4100 2886 4159 
Q 2644 4219 2406 4219 
Q 1781 4219 1451 3797 
Q 1122 3375 1075 2522 
Q 1259 2794 1537 2939 
Q 1816 3084 2150 3084 
Q 2853 3084 3261 2657 
Q 3669 2231 3669 1497 
Q 3669 778 3244 343 
Q 2819 -91 2113 -91 
Q 1303 -91 875 529 
Q 447 1150 447 2328 
Q 447 3434 972 4092 
Q 1497 4750 2381 4750 
Q 2619 4750 2861 4703 
Q 3103 4656 3366 4563 
z
" transform="scale(0.015625)"/>
       </defs>
       <use xlink:href="#DejaVuSans-36"/>
      </g>
     </g>
    </g>
    <g id="ytick_6">
     <g id="line2d_21">
      <path d="M 57.6 135.255273 
L 414.72 135.255273 
" clip-path="url(#pb82829c8be)" style="fill: none; stroke-dasharray: 1.85,0.8; stroke-dashoffset: 0; stroke: #b0b0b0; stroke-opacity: 0.5; stroke-width: 0.5"/>
     </g>
     <g id="line2d_22">
      <g>
       <use xlink:href="#m98e0e63a53" x="57.6" y="135.255273" style="stroke: #000000; stroke-width: 0.8"/>
      </g>
     </g>
     <g id="text_12">
      <!-- 8 -->
      <g transform="translate(44.2375 139.054491)scale(0.1 -0.1)">
       <defs>
        <path id="DejaVuSans-38" d="M 2034 2216 
Q 1584 2216 1326 1975 
Q 1069 1734 1069 1313 
Q 1069 891 1326 650 
Q 1584 409 2034 409 
Q 2484 409 2743 651 
Q 3003 894 3003 1313 
Q 3003 1734 2745 1975 
Q 2488 2216 2034 2216 
z
M 1403 2484 
Q 997 2584 770 2862 
Q 544 3141 544 3541 
Q 544 4100 942 4425 
Q 1341 4750 2034 4750 
Q 2731 4750 3128 4425 
Q 3525 4100 3525 3541 
Q 3525 3141 3298 2862 
Q 3072 2584 2669 2484 
Q 3125 2378 3379 2068 
Q 3634 1759 3634 1313 
Q 3634 634 3220 271 
Q 2806 -91 2034 -91 
Q 1263 -91 848 271 
Q 434 634 434 1313 
Q 434 1759 690 2068 
Q 947 2378 1403 2484 
z
M 1172 3481 
Q 1172 3119 1398 2916 
Q 1625 2713 2034 2713 
Q 2441 2713 2670 2916 
Q 2900 3119 2900 3481 
Q 2900 3844 2670 4047 
Q 2441 4250 2034 4250 
Q 1625 4250 1398 4047 
Q 1172 3844 1172 3481 
z
" transform="scale(0.015625)"/>
       </defs>
       <use xlink:href="#DejaVuSans-38"/>
      </g>
     </g>
    </g>
    <g id="ytick_7">
     <g id="line2d_23">
      <path d="M 57.6 103.837091 
L 414.72 103.837091 
" clip-path="url(#pb82829c8be)" style="fill: none; stroke-dasharray: 1.85,0.8; stroke-dashoffset: 0; stroke: #b0b0b0; stroke-opacity: 0.5; stroke-width: 0.5"/>
     </g>
     <g id="line2d_24">
      <g>
       <use xlink:href="#m98e0e63a53" x="57.6" y="103.837091" style="stroke: #000000; stroke-width: 0.8"/>
      </g>
     </g>
     <g id="text_13">
      <!-- 10 -->
      <g transform="translate(37.875 107.63631)scale(0.1 -0.1)">
       <use xlink:href="#DejaVuSans-31"/>
       <use xlink:href="#DejaVuSans-30" x="63.623047"/>
      </g>
     </g>
    </g>
    <g id="ytick_8">
     <g id="line2d_25">
      <path d="M 57.6 72.418909 
L 414.72 72.418909 
" clip-path="url(#pb82829c8be)" style="fill: none; stroke-dasharray: 1.85,0.8; stroke-dashoffset: 0; stroke: #b0b0b0; stroke-opacity: 0.5; stroke-width: 0.5"/>
     </g>
     <g id="line2d_26">
      <g>
       <use xlink:href="#m98e0e63a53" x="57.6" y="72.418909" style="stroke: #000000; stroke-width: 0.8"/>
      </g>
     </g>
     <g id="text_14">
      <!-- 12 -->
      <g transform="translate(37.875 76.218128)scale(0.1 -0.1)">
       <use xlink:href="#DejaVuSans-31"/>
       <use xlink:href="#DejaVuSans-32" x="63.623047"/>
      </g>
     </g>
    </g>
    <g id="text_15">
     <!-- Eixo Y (m) -->
     <g transform="translate(29.778125 199.942844)rotate(-90)scale(0.1 -0.1)">
      <defs>
       <path id="DejaVuSans-59" d="M -13 4666 
L 666 4666 
L 1959 2747 
L 3244 4666 
L 3922 4666 
L 2272 2222 
L 2272 0 
L 1638 0 
L 1638 2222 
L -13 4666 
z
" transform="scale(0.015625)"/>
      </defs>
      <use xlink:href="#DejaVuSans-45"/>
      <use xlink:href="#DejaVuSans-69" x="63.183594"/>
      <use xlink:href="#DejaVuSans-78" x="90.966797"/>
      <use xlink:href="#DejaVuSans-6f" x="147.021484"/>
      <use xlink:href="#DejaVuSans-20" x="208.203125"/>
      <use xlink:href="#DejaVuSans-59" x="239.990234"/>
      <use xlink:href="#DejaVuSans-20" x="301.074219"/>
      <use xlink:href="#DejaVuSans-28" x="332.861328"/>
      <use xlink:href="#DejaVuSans-6d" x="371.875"/>
      <use xlink:href="#DejaVuSans-29" x="469.287109"/>
     </g>
    </g>
   </g>
   <g id="line2d_27">
    <defs>
     <path id="mf05f2dec52" d="M 0 3 
C 0.795609 3 1.55874 2.683901 2.12132 2.12132 
C 2.683901 1.55874 3 0.795609 3 0 
C 3 -0.795609 2.683901 -1.55874 2.12132 -2.12132 
C 1.55874 -2.683901 0.795609 -3 0 -3 
C -0.795609 -3 -1.55874 -2.683901 -2.12132 -2.12132 
C -2.683901 -1.55874 -3 -0.795609 -3 0 
C -3 0.795609 -2.683901 1.55874 -2.12132 2.12132 
C -1.55874 2.683901 -0.795609 3 0 3 
z
" style="stroke: #0000ff"/>
    </defs>
    <g clip-path="url(#pb82829c8be)">
     <use xlink:href="#mf05f2dec52" x="165.469091" y="245.218909" style="fill: #0000ff; stroke: #0000ff"/>
    </g>
   </g>
   <g id="line2d_28">
    <g clip-path="url(#pb82829c8be)">
     <use xlink:href="#mf05f2dec52" x="165.469091" y="198.091636" style="fill: #0000ff; stroke: #0000ff"/>
    </g>
   </g>
   <g id="line2d_29">
    <g clip-path="url(#pb82829c8be)">
     <use xlink:href="#mf05f2dec52" x="165.469091" y="182.382545" style="fill: #0000ff; stroke: #0000ff"/>
    </g>
   </g>
   <g id="line2d_30">
    <g clip-path="url(#pb82829c8be)">
     <use xlink:href="#mf05f2dec52" x="165.469091" y="166.673455" style="fill: #0000ff; stroke: #0000ff"/>
    </g>
   </g>
   <g id="line2d_31">
    <g clip-path="url(#pb82829c8be)">
     <use xlink:href="#mf05f2dec52" x="165.469091" y="150.964364" style="fill: #0000ff; stroke: #0000ff"/>
    </g>
   </g>
   <g id="line2d_32">
    <g clip-path="url(#pb82829c8be)">
     <use xlink:href="#mf05f2dec52" x="165.469091" y="135.255273" style="fill: #0000ff; stroke: #0000ff"/>
    </g>
   </g>
   <g id="line2d_33">
    <g clip-path="url(#pb82829c8be)">
     <use xlink:href="#mf05f2dec52" x="165.469091" y="119.546182" style="fill: #0000ff; stroke: #0000ff"/>
    </g>
   </g>
   <g id="line2d_34">
    <g clip-path="url(#pb82829c8be)">
     <use xlink:href="#mf05f2dec52" x="165.469091" y="103.837091" style="fill: #0000ff; stroke: #0000ff"/>
    </g>
   </g>
   <g id="line2d_35">
    <g clip-path="url(#pb82829c8be)">
     <use xlink:href="#mf05f2dec52" x="181.178182" y="229.509818" style="fill: #0000ff; stroke: #0000ff"/>
    </g>
   </g>
   <g id="line2d_36">
    <g clip-path="url(#pb82829c8be)">
     <use xlink:href="#mf05f2dec52" x="181.178182" y="182.382545" style="fill: #0000ff; stroke: #0000ff"/>
    </g>
   </g>
   <g id="line2d_37">
    <g clip-path="url(#pb82829c8be)">
     <use xlink:href="#mf05f2dec52" x="181.178182" y="135.255273" style="fill: #0000ff; stroke: #0000ff"/>
    </g>
   </g>
   <g id="line2d_38">
    <g clip-path="url(#pb82829c8be)">
     <use xlink:href="#mf05f2dec52" x="181.178182" y="103.837091" style="fill: #0000ff; stroke: #0000ff"/>
    </g>
   </g>
   <g id="line2d_39">
    <g clip-path="url(#pb82829c8be)">
     <use xlink:href="#mf05f2dec52" x="196.887273" y="245.218909" style="fill: #0000ff; stroke: #0000ff"/>
    </g>
   </g>
   <g id="line2d_40">
    <g clip-path="url(#pb82829c8be)">
     <use xlink:href="#mf05f2dec52" x="196.887273" y="229.509818" style="fill: #0000ff; stroke: #0000ff"/>
    </g>
   </g>
   <g id="line2d_41">
    <g clip-path="url(#pb82829c8be)">
     <use xlink:href="#mf05f2dec52" x="196.887273" y="166.673455" style="fill: #0000ff; stroke: #0000ff"/>
    </g>
   </g>
   <g id="line2d_42">
    <g clip-path="url(#pb82829c8be)">
     <use xlink:href="#mf05f2dec52" x="212.596364" y="245.218909" style="fill: #0000ff; stroke: #0000ff"/>
    </g>
   </g>
   <g id="line2d_43">
    <g clip-path="url(#pb82829c8be)">
     <use xlink:href="#mf05f2dec52" x="212.596364" y="229.509818" style="fill: #0000ff; stroke: #0000ff"/>
    </g>
   </g>
   <g id="line2d_44">
    <g clip-path="url(#pb82829c8be)">
     <use xlink:href="#mf05f2dec52" x="212.596364" y="213.800727" style="fill: #0000ff; stroke: #0000ff"/>
    </g>
   </g>
   <g id="line2d_45">
    <g clip-path="url(#pb82829c8be)">
     <use xlink:href="#mf05f2dec52" x="212.596364" y="198.091636" style="fill: #0000ff; stroke: #0000ff"/>
    </g>
   </g>
   <g id="line2d_46">
    <g clip-path="url(#pb82829c8be)">
     <use xlink:href="#mf05f2dec52" x="212.596364" y="166.673455" style="fill: #0000ff; stroke: #0000ff"/>
    </g>
   </g>
   <g id="line2d_47">
    <g clip-path="url(#pb82829c8be)">
     <use xlink:href="#mf05f2dec52" x="212.596364" y="135.255273" style="fill: #0000ff; stroke: #0000ff"/>
    </g>
   </g>
   <g id="line2d_48">
    <g clip-path="url(#pb82829c8be)">
     <use xlink:href="#mf05f2dec52" x="228.305455" y="229.509818" style="fill: #0000ff; stroke: #0000ff"/>
    </g>
   </g>
   <g id="line2d_49">
    <g clip-path="url(#pb82829c8be)">
     <use xlink:href="#mf05f2dec52" x="228.305455" y="166.673455" style="fill: #0000ff; stroke: #0000ff"/>
    </g>
   </g>
   <g id="line2d_50">
    <g clip-path="url(#pb82829c8be)">
     <use xlink:href="#mf05f2dec52" x="228.305455" y="135.255273" style="fill: #0000ff; stroke: #0000ff"/>
    </g>
   </g>
   <g id="line2d_51">
    <g clip-path="url(#pb82829c8be)">
     <use xlink:href="#mf05f2dec52" x="228.305455" y="119.546182" style="fill: #0000ff; stroke: #0000ff"/>
    </g>
   </g>
   <g id="line2d_52">
    <g clip-path="url(#pb82829c8be)">
     <use xlink:href="#mf05f2dec52" x="244.014545" y="229.509818" style="fill: #0000ff; stroke: #0000ff"/>
    </g>
   </g>
   <g id="line2d_53">
    <g clip-path="url(#pb82829c8be)">
     <use xlink:href="#mf05f2dec52" x="244.014545" y="213.800727" style="fill: #0000ff; stroke: #0000ff"/>
    </g>
   </g>
   <g id="line2d_54">
    <g clip-path="url(#pb82829c8be)">
     <use xlink:href="#mf05f2dec52" x="244.014545" y="198.091636" style="fill: #0000ff; stroke: #0000ff"/>
    </g>
   </g>
   <g id="line2d_55">
    <g clip-path="url(#pb82829c8be)">
     <use xlink:href="#mf05f2dec52" x="244.014545" y="182.382545" style="fill: #0000ff; stroke: #0000ff"/>
    </g>
   </g>
   <g id="line2d_56">
    <g clip-path="url(#pb82829c8be)">
     <use xlink:href="#mf05f2dec52" x="244.014545" y="166.673455" style="fill: #0000ff; stroke: #0000ff"/>
    </g>
   </g>
   <g id="line2d_57">
    <g clip-path="url(#pb82829c8be)">
     <use xlink:href="#mf05f2dec52" x="244.014545" y="150.964364" style="fill: #0000ff; stroke: #0000ff"/>
    </g>
   </g>
   <g id="line2d_58">
    <g clip-path="url(#pb82829c8be)">
     <use xlink:href="#mf05f2dec52" x="244.014545" y="135.255273" style="fill: #0000ff; stroke: #0000ff"/>
    </g>
   </g>
   <g id="line2d_59">
    <g clip-path="url(#pb82829c8be)">
     <use xlink:href="#mf05f2dec52" x="244.014545" y="119.546182" style="fill: #0000ff; stroke: #0000ff"/>
    </g>
   </g>
   <g id="line2d_60">
    <g clip-path="url(#pb82829c8be)">
     <use xlink:href="#mf05f2dec52" x="244.014545" y="103.837091" style="fill: #0000ff; stroke: #0000ff"/>
    </g>
   </g>
   <g id="line2d_61">
    <g clip-path="url(#pb82829c8be)">
     <use xlink:href="#mf05f2dec52" x="259.723636" y="213.800727" style="fill: #0000ff; stroke: #0000ff"/>
    </g>
   </g>
   <g id="line2d_62">
    <g clip-path="url(#pb82829c8be)">
     <use xlink:href="#mf05f2dec52" x="259.723636" y="198.091636" style="fill: #0000ff; stroke: #0000ff"/>
    </g>
   </g>
   <g id="line2d_63">
    <g clip-path="url(#pb82829c8be)">
     <use xlink:href="#mf05f2dec52" x="259.723636" y="166.673455" style="fill: #0000ff; stroke: #0000ff"/>
    </g>
   </g>
   <g id="line2d_64">
    <g clip-path="url(#pb82829c8be)">
     <use xlink:href="#mf05f2dec52" x="275.432727" y="229.509818" style="fill: #0000ff; stroke: #0000ff"/>
    </g>
   </g>
   <g id="line2d_65">
    <g clip-path="url(#pb82829c8be)">
     <use xlink:href="#mf05f2dec52" x="275.432727" y="166.673455" style="fill: #0000ff; stroke: #0000ff"/>
    </g>
   </g>
   <g id="line2d_66">
    <g clip-path="url(#pb82829c8be)">
     <use xlink:href="#mf05f2dec52" x="275.432727" y="150.964364" style="fill: #0000ff; stroke: #0000ff"/>
    </g>
   </g>
   <g id="line2d_67">
    <g clip-path="url(#pb82829c8be)">
     <use xlink:href="#mf05f2dec52" x="291.141818" y="245.218909" style="fill: #0000ff; stroke: #0000ff"/>
    </g>
   </g>
   <g id="line2d_68">
    <g clip-path="url(#pb82829c8be)">
     <use xlink:href="#mf05f2dec52" x="291.141818" y="229.509818" style="fill: #0000ff; stroke: #0000ff"/>
    </g>
   </g>
   <g id="line2d_69">
    <g clip-path="url(#pb82829c8be)">
     <use xlink:href="#mf05f2dec52" x="291.141818" y="198.091636" style="fill: #0000ff; stroke: #0000ff"/>
    </g>
   </g>
   <g id="line2d_70">
    <g clip-path="url(#pb82829c8be)">
     <use xlink:href="#mf05f2dec52" x="291.141818" y="166.673455" style="fill: #0000ff; stroke: #0000ff"/>
    </g>
   </g>
   <g id="line2d_71">
    <g clip-path="url(#pb82829c8be)">
     <use xlink:href="#mf05f2dec52" x="291.141818" y="135.255273" style="fill: #0000ff; stroke: #0000ff"/>
    </g>
   </g>
   <g id="line2d_72">
    <g clip-path="url(#pb82829c8be)">
     <use xlink:href="#mf05f2dec52" x="291.141818" y="103.837091" style="fill: #0000ff; stroke: #0000ff"/>
    </g>
   </g>
   <g id="line2d_73">
    <g clip-path="url(#pb82829c8be)">
     <use xlink:href="#mf05f2dec52" x="306.850909" y="229.509818" style="fill: #0000ff; stroke: #0000ff"/>
    </g>
   </g>
   <g id="line2d_74">
    <g clip-path="url(#pb82829c8be)">
     <use xlink:href="#mf05f2dec52" x="306.850909" y="182.382545" style="fill: #0000ff; stroke: #0000ff"/>
    </g>
   </g>
   <g id="line2d_75">
    <g clip-path="url(#pb82829c8be)">
     <use xlink:href="#mf05f2dec52" x="306.850909" y="166.673455" style="fill: #0000ff; stroke: #0000ff"/>
    </g>
   </g>
   <g id="line2d_76">
    <g clip-path="url(#pb82829c8be)">
     <use xlink:href="#mf05f2dec52" x="306.850909" y="103.837091" style="fill: #0000ff; stroke: #0000ff"/>
    </g>
   </g>
   <g id="patch_53">
    <path d="M 57.6 307.584 
L 57.6 41.472 
" style="fill: none; stroke: #000000; stroke-width: 0.8; stroke-linejoin: miter; stroke-linecap: square"/>
   </g>
   <g id="patch_54">
    <path d="M 414.72 307.584 
L 414.72 41.472 
" style="fill: none; stroke: #000000; stroke-width: 0.8; stroke-linejoin: miter; stroke-linecap: square"/>
   </g>
   <g id="patch_55">
    <path d="M 57.6 307.584 
L 414.72 307.584 
" style="fill: none; stroke: #000000; stroke-width: 0.8; stroke-linejoin: miter; stroke-linecap: square"/>
   </g>
   <g id="patch_56">
    <path d="M 57.6 41.472 
L 414.72 41.472 
" style="fill: none; stroke: #000000; stroke-width: 0.8; stroke-linejoin: miter; stroke-linecap: square"/>
   </g>
   <g id="text_16">
    <!-- Instancia: ../instances_OL2A/10x10/SAP-inst_0.5_10x10.dat -->
    <g transform="translate(58.100625 8.2635)scale(0.12 -0.12)">
     <defs>
      <path id="DejaVuSans-49" d="M 628 4666 
L 1259 4666 
L 1259 0 
L 628 0 
L 628 4666 
z
" transform="scale(0.015625)"/>
      <path id="DejaVuSans-6e" d="M 3513 2113 
L 3513 0 
L 2938 0 
L 2938 2094 
Q 2938 2591 2744 2837 
Q 2550 3084 2163 3084 
Q 1697 3084 1428 2787 
Q 1159 2491 1159 1978 
L 1159 0 
L 581 0 
L 581 3500 
L 1159 3500 
L 1159 2956 
Q 1366 3272 1645 3428 
Q 1925 3584 2291 3584 
Q 2894 3584 3203 3211 
Q 3513 2838 3513 2113 
z
" transform="scale(0.015625)"/>
      <path id="DejaVuSans-73" d="M 2834 3397 
L 2834 2853 
Q 2591 2978 2328 3040 
Q 2066 3103 1784 3103 
Q 1356 3103 1142 2972 
Q 928 2841 928 2578 
Q 928 2378 1081 2264 
Q 1234 2150 1697 2047 
L 1894 2003 
Q 2506 1872 2764 1633 
Q 3022 1394 3022 966 
Q 3022 478 2636 193 
Q 2250 -91 1575 -91 
Q 1294 -91 989 -36 
Q 684 19 347 128 
L 347 722 
Q 666 556 975 473 
Q 1284 391 1588 391 
Q 1994 391 2212 530 
Q 2431 669 2431 922 
Q 2431 1156 2273 1281 
Q 2116 1406 1581 1522 
L 1381 1569 
Q 847 1681 609 1914 
Q 372 2147 372 2553 
Q 372 3047 722 3315 
Q 1072 3584 1716 3584 
Q 2034 3584 2315 3537 
Q 2597 3491 2834 3397 
z
" transform="scale(0.015625)"/>
      <path id="DejaVuSans-74" d="M 1172 4494 
L 1172 3500 
L 2356 3500 
L 2356 3053 
L 1172 3053 
L 1172 1153 
Q 1172 725 1289 603 
Q 1406 481 1766 481 
L 2356 481 
L 2356 0 
L 1766 0 
Q 1100 0 847 248 
Q 594 497 594 1153 
L 594 3053 
L 172 3053 
L 172 3500 
L 594 3500 
L 594 4494 
L 1172 4494 
z
" transform="scale(0.015625)"/>
      <path id="DejaVuSans-61" d="M 2194 1759 
Q 1497 1759 1228 1600 
Q 959 1441 959 1056 
Q 959 750 1161 570 
Q 1363 391 1709 391 
Q 2188 391 2477 730 
Q 2766 1069 2766 1631 
L 2766 1759 
L 2194 1759 
z
M 3341 1997 
L 3341 0 
L 2766 0 
L 2766 531 
Q 2569 213 2275 61 
Q 1981 -91 1556 -91 
Q 1019 -91 701 211 
Q 384 513 384 1019 
Q 384 1609 779 1909 
Q 1175 2209 1959 2209 
L 2766 2209 
L 2766 2266 
Q 2766 2663 2505 2880 
Q 2244 3097 1772 3097 
Q 1472 3097 1187 3025 
Q 903 2953 641 2809 
L 641 3341 
Q 956 3463 1253 3523 
Q 1550 3584 1831 3584 
Q 2591 3584 2966 3190 
Q 3341 2797 3341 1997 
z
" transform="scale(0.015625)"/>
      <path id="DejaVuSans-63" d="M 3122 3366 
L 3122 2828 
Q 2878 2963 2633 3030 
Q 2388 3097 2138 3097 
Q 1578 3097 1268 2742 
Q 959 2388 959 1747 
Q 959 1106 1268 751 
Q 1578 397 2138 397 
Q 2388 397 2633 464 
Q 2878 531 3122 666 
L 3122 134 
Q 2881 22 2623 -34 
Q 2366 -91 2075 -91 
Q 1284 -91 818 406 
Q 353 903 353 1747 
Q 353 2603 823 3093 
Q 1294 3584 2113 3584 
Q 2378 3584 2631 3529 
Q 2884 3475 3122 3366 
z
" transform="scale(0.015625)"/>
      <path id="DejaVuSans-3a" d="M 750 794 
L 1409 794 
L 1409 0 
L 750 0 
L 750 794 
z
M 750 3309 
L 1409 3309 
L 1409 2516 
L 750 2516 
L 750 3309 
z
" transform="scale(0.015625)"/>
      <path id="DejaVuSans-2e" d="M 684 794 
L 1344 794 
L 1344 0 
L 684 0 
L 684 794 
z
" transform="scale(0.015625)"/>
      <path id="DejaVuSans-2f" d="M 1625 4666 
L 2156 4666 
L 531 -594 
L 0 -594 
L 1625 4666 
z
" transform="scale(0.015625)"/>
      <path id="DejaVuSans-65" d="M 3597 1894 
L 3597 1613 
L 953 1613 
Q 991 1019 1311 708 
Q 1631 397 2203 397 
Q 2534 397 2845 478 
Q 3156 559 3463 722 
L 3463 178 
Q 3153 47 2828 -22 
Q 2503 -91 2169 -91 
Q 1331 -91 842 396 
Q 353 884 353 1716 
Q 353 2575 817 3079 
Q 1281 3584 2069 3584 
Q 2775 3584 3186 3129 
Q 3597 2675 3597 1894 
z
M 3022 2063 
Q 3016 2534 2758 2815 
Q 2500 3097 2075 3097 
Q 1594 3097 1305 2825 
Q 1016 2553 972 2059 
L 3022 2063 
z
" transform="scale(0.015625)"/>
      <path id="DejaVuSans-5f" d="M 3263 -1063 
L 3263 -1509 
L -63 -1509 
L -63 -1063 
L 3263 -1063 
z
" transform="scale(0.015625)"/>
      <path id="DejaVuSans-4f" d="M 2522 4238 
Q 1834 4238 1429 3725 
Q 1025 3213 1025 2328 
Q 1025 1447 1429 934 
Q 1834 422 2522 422 
Q 3209 422 3611 934 
Q 4013 1447 4013 2328 
Q 4013 3213 3611 3725 
Q 3209 4238 2522 4238 
z
M 2522 4750 
Q 3503 4750 4090 4092 
Q 4678 3434 4678 2328 
Q 4678 1225 4090 567 
Q 3503 -91 2522 -91 
Q 1538 -91 948 565 
Q 359 1222 359 2328 
Q 359 3434 948 4092 
Q 1538 4750 2522 4750 
z
" transform="scale(0.015625)"/>
      <path id="DejaVuSans-4c" d="M 628 4666 
L 1259 4666 
L 1259 531 
L 3531 531 
L 3531 0 
L 628 0 
L 628 4666 
z
" transform="scale(0.015625)"/>
      <path id="DejaVuSans-41" d="M 2188 4044 
L 1331 1722 
L 3047 1722 
L 2188 4044 
z
M 1831 4666 
L 2547 4666 
L 4325 0 
L 3669 0 
L 3244 1197 
L 1141 1197 
L 716 0 
L 50 0 
L 1831 4666 
z
" transform="scale(0.015625)"/>
      <path id="DejaVuSans-53" d="M 3425 4513 
L 3425 3897 
Q 3066 4069 2747 4153 
Q 2428 4238 2131 4238 
Q 1616 4238 1336 4038 
Q 1056 3838 1056 3469 
Q 1056 3159 1242 3001 
Q 1428 2844 1947 2747 
L 2328 2669 
Q 3034 2534 3370 2195 
Q 3706 1856 3706 1288 
Q 3706 609 3251 259 
Q 2797 -91 1919 -91 
Q 1588 -91 1214 -16 
Q 841 59 441 206 
L 441 856 
Q 825 641 1194 531 
Q 1563 422 1919 422 
Q 2459 422 2753 634 
Q 3047 847 3047 1241 
Q 3047 1584 2836 1778 
Q 2625 1972 2144 2069 
L 1759 2144 
Q 1053 2284 737 2584 
Q 422 2884 422 3419 
Q 422 4038 858 4394 
Q 1294 4750 2059 4750 
Q 2388 4750 2728 4690 
Q 3069 4631 3425 4513 
z
" transform="scale(0.015625)"/>
      <path id="DejaVuSans-50" d="M 1259 4147 
L 1259 2394 
L 2053 2394 
Q 2494 2394 2734 2622 
Q 2975 2850 2975 3272 
Q 2975 3691 2734 3919 
Q 2494 4147 2053 4147 
L 1259 4147 
z
M 628 4666 
L 2053 4666 
Q 2838 4666 3239 4311 
Q 3641 3956 3641 3272 
Q 3641 2581 3239 2228 
Q 2838 1875 2053 1875 
L 1259 1875 
L 1259 0 
L 628 0 
L 628 4666 
z
" transform="scale(0.015625)"/>
      <path id="DejaVuSans-2d" d="M 313 2009 
L 1997 2009 
L 1997 1497 
L 313 1497 
L 313 2009 
z
" transform="scale(0.015625)"/>
      <path id="DejaVuSans-64" d="M 2906 2969 
L 2906 4863 
L 3481 4863 
L 3481 0 
L 2906 0 
L 2906 525 
Q 2725 213 2448 61 
Q 2172 -91 1784 -91 
Q 1150 -91 751 415 
Q 353 922 353 1747 
Q 353 2572 751 3078 
Q 1150 3584 1784 3584 
Q 2172 3584 2448 3432 
Q 2725 3281 2906 2969 
z
M 947 1747 
Q 947 1113 1208 752 
Q 1469 391 1925 391 
Q 2381 391 2643 752 
Q 2906 1113 2906 1747 
Q 2906 2381 2643 2742 
Q 2381 3103 1925 3103 
Q 1469 3103 1208 2742 
Q 947 2381 947 1747 
z
" transform="scale(0.015625)"/>
     </defs>
     <use xlink:href="#DejaVuSans-49"/>
     <use xlink:href="#DejaVuSans-6e" x="29.492188"/>
     <use xlink:href="#DejaVuSans-73" x="92.871094"/>
     <use xlink:href="#DejaVuSans-74" x="144.970703"/>
     <use xlink:href="#DejaVuSans-61" x="184.179688"/>
     <use xlink:href="#DejaVuSans-6e" x="245.458984"/>
     <use xlink:href="#DejaVuSans-63" x="308.837891"/>
     <use xlink:href="#DejaVuSans-69" x="363.818359"/>
     <use xlink:href="#DejaVuSans-61" x="391.601562"/>
     <use xlink:href="#DejaVuSans-3a" x="452.880859"/>
     <use xlink:href="#DejaVuSans-20" x="486.572266"/>
     <use xlink:href="#DejaVuSans-2e" x="518.359375"/>
     <use xlink:href="#DejaVuSans-2e" x="550.146484"/>
     <use xlink:href="#DejaVuSans-2f" x="581.933594"/>
     <use xlink:href="#DejaVuSans-69" x="615.625"/>
     <use xlink:href="#DejaVuSans-6e" x="643.408203"/>
     <use xlink:href="#DejaVuSans-73" x="706.787109"/>
     <use xlink:href="#DejaVuSans-74" x="758.886719"/>
     <use xlink:href="#DejaVuSans-61" x="798.095703"/>
     <use xlink:href="#DejaVuSans-6e" x="859.375"/>
     <use xlink:href="#DejaVuSans-63" x="922.753906"/>
     <use xlink:href="#DejaVuSans-65" x="977.734375"/>
     <use xlink:href="#DejaVuSans-73" x="1039.257812"/>
     <use xlink:href="#DejaVuSans-5f" x="1091.357422"/>
     <use xlink:href="#DejaVuSans-4f" x="1141.357422"/>
     <use xlink:href="#DejaVuSans-4c" x="1220.068359"/>
     <use xlink:href="#DejaVuSans-32" x="1275.78125"/>
     <use xlink:href="#DejaVuSans-41" x="1339.404297"/>
     <use xlink:href="#DejaVuSans-2f" x="1407.8125"/>
     <use xlink:href="#DejaVuSans-31" x="1441.503906"/>
     <use xlink:href="#DejaVuSans-30" x="1505.126953"/>
     <use xlink:href="#DejaVuSans-78" x="1568.75"/>
     <use xlink:href="#DejaVuSans-31" x="1627.929688"/>
     <use xlink:href="#DejaVuSans-30" x="1691.552734"/>
     <use xlink:href="#DejaVuSans-2f" x="1755.175781"/>
     <use xlink:href="#DejaVuSans-53" x="1788.867188"/>
     <use xlink:href="#DejaVuSans-41" x="1854.21875"/>
     <use xlink:href="#DejaVuSans-50" x="1922.626953"/>
     <use xlink:href="#DejaVuSans-2d" x="1980.679688"/>
     <use xlink:href="#DejaVuSans-69" x="2016.763672"/>
     <use xlink:href="#DejaVuSans-6e" x="2044.546875"/>
     <use xlink:href="#DejaVuSans-73" x="2107.925781"/>
     <use xlink:href="#DejaVuSans-74" x="2160.025391"/>
     <use xlink:href="#DejaVuSans-5f" x="2199.234375"/>
     <use xlink:href="#DejaVuSans-30" x="2249.234375"/>
     <use xlink:href="#DejaVuSans-2e" x="2312.857422"/>
     <use xlink:href="#DejaVuSans-35" x="2344.644531"/>
     <use xlink:href="#DejaVuSans-5f" x="2408.267578"/>
     <use xlink:href="#DejaVuSans-31" x="2458.267578"/>
     <use xlink:href="#DejaVuSans-30" x="2521.890625"/>
     <use xlink:href="#DejaVuSans-78" x="2585.513672"/>
     <use xlink:href="#DejaVuSans-31" x="2644.693359"/>
     <use xlink:href="#DejaVuSans-30" x="2708.316406"/>
     <use xlink:href="#DejaVuSans-2e" x="2771.939453"/>
     <use xlink:href="#DejaVuSans-64" x="2803.726562"/>
     <use xlink:href="#DejaVuSans-61" x="2867.203125"/>
     <use xlink:href="#DejaVuSans-74" x="2928.482422"/>
    </g>
    <!-- Escala: 1:1000m -->
    <g transform="translate(186.042188 22.034625)scale(0.12 -0.12)">
     <defs>
      <path id="DejaVuSans-6c" d="M 603 4863 
L 1178 4863 
L 1178 0 
L 603 0 
L 603 4863 
z
" transform="scale(0.015625)"/>
     </defs>
     <use xlink:href="#DejaVuSans-45"/>
     <use xlink:href="#DejaVuSans-73" x="63.183594"/>
     <use xlink:href="#DejaVuSans-63" x="115.283203"/>
     <use xlink:href="#DejaVuSans-61" x="170.263672"/>
     <use xlink:href="#DejaVuSans-6c" x="231.542969"/>
     <use xlink:href="#DejaVuSans-61" x="259.326172"/>
     <use xlink:href="#DejaVuSans-3a" x="320.605469"/>
     <use xlink:href="#DejaVuSans-20" x="354.296875"/>
     <use xlink:href="#DejaVuSans-31" x="386.083984"/>
     <use xlink:href="#DejaVuSans-3a" x="449.707031"/>
     <use xlink:href="#DejaVuSans-31" x="483.398438"/>
     <use xlink:href="#DejaVuSans-30" x="547.021484"/>
     <use xlink:href="#DejaVuSans-30" x="610.644531"/>
     <use xlink:href="#DejaVuSans-30" x="674.267578"/>
     <use xlink:href="#DejaVuSans-6d" x="737.890625"/>
    </g>
    <!-- Alphas: 0.25E, 0.75C, 0M  -  Tempo: 15.11 s -->
    <g transform="translate(105.134062 35.472)scale(0.12 -0.12)">
     <defs>
      <path id="DejaVuSans-70" d="M 1159 525 
L 1159 -1331 
L 581 -1331 
L 581 3500 
L 1159 3500 
L 1159 2969 
Q 1341 3281 1617 3432 
Q 1894 3584 2278 3584 
Q 2916 3584 3314 3078 
Q 3713 2572 3713 1747 
Q 3713 922 3314 415 
Q 2916 -91 2278 -91 
Q 1894 -91 1617 61 
Q 1341 213 1159 525 
z
M 3116 1747 
Q 3116 2381 2855 2742 
Q 2594 3103 2138 3103 
Q 1681 3103 1420 2742 
Q 1159 2381 1159 1747 
Q 1159 1113 1420 752 
Q 1681 391 2138 391 
Q 2594 391 2855 752 
Q 3116 1113 3116 1747 
z
" transform="scale(0.015625)"/>
      <path id="DejaVuSans-68" d="M 3513 2113 
L 3513 0 
L 2938 0 
L 2938 2094 
Q 2938 2591 2744 2837 
Q 2550 3084 2163 3084 
Q 1697 3084 1428 2787 
Q 1159 2491 1159 1978 
L 1159 0 
L 581 0 
L 581 4863 
L 1159 4863 
L 1159 2956 
Q 1366 3272 1645 3428 
Q 1925 3584 2291 3584 
Q 2894 3584 3203 3211 
Q 3513 2838 3513 2113 
z
" transform="scale(0.015625)"/>
      <path id="DejaVuSans-2c" d="M 750 794 
L 1409 794 
L 1409 256 
L 897 -744 
L 494 -744 
L 750 256 
L 750 794 
z
" transform="scale(0.015625)"/>
      <path id="DejaVuSans-37" d="M 525 4666 
L 3525 4666 
L 3525 4397 
L 1831 0 
L 1172 0 
L 2766 4134 
L 525 4134 
L 525 4666 
z
" transform="scale(0.015625)"/>
      <path id="DejaVuSans-43" d="M 4122 4306 
L 4122 3641 
Q 3803 3938 3442 4084 
Q 3081 4231 2675 4231 
Q 1875 4231 1450 3742 
Q 1025 3253 1025 2328 
Q 1025 1406 1450 917 
Q 1875 428 2675 428 
Q 3081 428 3442 575 
Q 3803 722 4122 1019 
L 4122 359 
Q 3791 134 3420 21 
Q 3050 -91 2638 -91 
Q 1578 -91 968 557 
Q 359 1206 359 2328 
Q 359 3453 968 4101 
Q 1578 4750 2638 4750 
Q 3056 4750 3426 4639 
Q 3797 4528 4122 4306 
z
" transform="scale(0.015625)"/>
      <path id="DejaVuSans-4d" d="M 628 4666 
L 1569 4666 
L 2759 1491 
L 3956 4666 
L 4897 4666 
L 4897 0 
L 4281 0 
L 4281 4097 
L 3078 897 
L 2444 897 
L 1241 4097 
L 1241 0 
L 628 0 
L 628 4666 
z
" transform="scale(0.015625)"/>
      <path id="DejaVuSans-54" d="M -19 4666 
L 3928 4666 
L 3928 4134 
L 2272 4134 
L 2272 0 
L 1638 0 
L 1638 4134 
L -19 4134 
L -19 4666 
z
" transform="scale(0.015625)"/>
     </defs>
     <use xlink:href="#DejaVuSans-41"/>
     <use xlink:href="#DejaVuSans-6c" x="68.408203"/>
     <use xlink:href="#DejaVuSans-70" x="96.191406"/>
     <use xlink:href="#DejaVuSans-68" x="159.667969"/>
     <use xlink:href="#DejaVuSans-61" x="223.046875"/>
     <use xlink:href="#DejaVuSans-73" x="284.326172"/>
     <use xlink:href="#DejaVuSans-3a" x="336.425781"/>
     <use xlink:href="#DejaVuSans-20" x="370.117188"/>
     <use xlink:href="#DejaVuSans-30" x="401.904297"/>
     <use xlink:href="#DejaVuSans-2e" x="465.527344"/>
     <use xlink:href="#DejaVuSans-32" x="497.314453"/>
     <use xlink:href="#DejaVuSans-35" x="560.9375"/>
     <use xlink:href="#DejaVuSans-45" x="624.560547"/>
     <use xlink:href="#DejaVuSans-2c" x="687.744141"/>
     <use xlink:href="#DejaVuSans-20" x="719.53125"/>
     <use xlink:href="#DejaVuSans-30" x="751.318359"/>
     <use xlink:href="#DejaVuSans-2e" x="814.941406"/>
     <use xlink:href="#DejaVuSans-37" x="846.728516"/>
     <use xlink:href="#DejaVuSans-35" x="910.351562"/>
     <use xlink:href="#DejaVuSans-43" x="973.974609"/>
     <use xlink:href="#DejaVuSans-2c" x="1043.798828"/>
     <use xlink:href="#DejaVuSans-20" x="1075.585938"/>
     <use xlink:href="#DejaVuSans-30" x="1107.373047"/>
     <use xlink:href="#DejaVuSans-4d" x="1170.996094"/>
     <use xlink:href="#DejaVuSans-20" x="1257.275391"/>
     <use xlink:href="#DejaVuSans-20" x="1289.0625"/>
     <use xlink:href="#DejaVuSans-2d" x="1320.849609"/>
     <use xlink:href="#DejaVuSans-20" x="1356.933594"/>
     <use xlink:href="#DejaVuSans-20" x="1388.720703"/>
     <use xlink:href="#DejaVuSans-54" x="1420.507812"/>
     <use xlink:href="#DejaVuSans-65" x="1464.591797"/>
     <use xlink:href="#DejaVuSans-6d" x="1526.115234"/>
     <use xlink:href="#DejaVuSans-70" x="1623.527344"/>
     <use xlink:href="#DejaVuSans-6f" x="1687.003906"/>
     <use xlink:href="#DejaVuSans-3a" x="1748.185547"/>
     <use xlink:href="#DejaVuSans-20" x="1781.876953"/>
     <use xlink:href="#DejaVuSans-31" x="1813.664062"/>
     <use xlink:href="#DejaVuSans-35" x="1877.287109"/>
     <use xlink:href="#DejaVuSans-2e" x="1940.910156"/>
     <use xlink:href="#DejaVuSans-31" x="1972.697266"/>
     <use xlink:href="#DejaVuSans-31" x="2036.320312"/>
     <use xlink:href="#DejaVuSans-20" x="2099.943359"/>
     <use xlink:href="#DejaVuSans-73" x="2131.730469"/>
    </g>
   </g>
   <g id="legend_1">
    <g id="patch_57">
     <path d="M 340.166875 93.506375 
L 407.72 93.506375 
Q 409.72 93.506375 409.72 91.506375 
L 409.72 48.472 
Q 409.72 46.472 407.72 46.472 
L 340.166875 46.472 
Q 338.166875 46.472 338.166875 48.472 
L 338.166875 91.506375 
Q 338.166875 93.506375 340.166875 93.506375 
z
" style="fill: #ffffff; opacity: 0.8; stroke: #cccccc; stroke-linejoin: miter"/>
    </g>
    <g id="patch_58">
     <path d="M 342.166875 58.070438 
L 362.166875 58.070438 
L 362.166875 51.070438 
L 342.166875 51.070438 
z
" style="fill: #ff0000; stroke: #ff0000; stroke-linejoin: miter"/>
    </g>
    <g id="text_17">
     <!-- S3 -->
     <g transform="translate(370.166875 58.070438)scale(0.1 -0.1)">
      <defs>
       <path id="DejaVuSans-33" d="M 2597 2516 
Q 3050 2419 3304 2112 
Q 3559 1806 3559 1356 
Q 3559 666 3084 287 
Q 2609 -91 1734 -91 
Q 1441 -91 1130 -33 
Q 819 25 488 141 
L 488 750 
Q 750 597 1062 519 
Q 1375 441 1716 441 
Q 2309 441 2620 675 
Q 2931 909 2931 1356 
Q 2931 1769 2642 2001 
Q 2353 2234 1838 2234 
L 1294 2234 
L 1294 2753 
L 1863 2753 
Q 2328 2753 2575 2939 
Q 2822 3125 2822 3475 
Q 2822 3834 2567 4026 
Q 2313 4219 1838 4219 
Q 1578 4219 1281 4162 
Q 984 4106 628 3988 
L 628 4550 
Q 988 4650 1302 4700 
Q 1616 4750 1894 4750 
Q 2613 4750 3031 4423 
Q 3450 4097 3450 3541 
Q 3450 3153 3228 2886 
Q 3006 2619 2597 2516 
z
" transform="scale(0.015625)"/>
      </defs>
      <use xlink:href="#DejaVuSans-53"/>
      <use xlink:href="#DejaVuSans-33" x="63.476562"/>
     </g>
    </g>
    <g id="patch_59">
     <path d="M 342.166875 72.748563 
L 362.166875 72.748563 
L 362.166875 65.748563 
L 342.166875 65.748563 
z
" style="fill: #0000ff; stroke: #0000ff; stroke-linejoin: miter"/>
    </g>
    <g id="text_18">
     <!-- S2CPro -->
     <g transform="translate(370.166875 72.748563)scale(0.1 -0.1)">
      <defs>
       <path id="DejaVuSans-72" d="M 2631 2963 
Q 2534 3019 2420 3045 
Q 2306 3072 2169 3072 
Q 1681 3072 1420 2755 
Q 1159 2438 1159 1844 
L 1159 0 
L 581 0 
L 581 3500 
L 1159 3500 
L 1159 2956 
Q 1341 3275 1631 3429 
Q 1922 3584 2338 3584 
Q 2397 3584 2469 3576 
Q 2541 3569 2628 3553 
L 2631 2963 
z
" transform="scale(0.015625)"/>
      </defs>
      <use xlink:href="#DejaVuSans-53"/>
      <use xlink:href="#DejaVuSans-32" x="63.476562"/>
      <use xlink:href="#DejaVuSans-43" x="127.099609"/>
      <use xlink:href="#DejaVuSans-50" x="196.923828"/>
      <use xlink:href="#DejaVuSans-72" x="255.476562"/>
      <use xlink:href="#DejaVuSans-6f" x="294.339844"/>
     </g>
    </g>
    <g id="patch_60">
     <path d="M 342.166875 87.426688 
L 362.166875 87.426688 
L 362.166875 80.426688 
L 342.166875 80.426688 
z
" style="fill: #008000; stroke: #008000; stroke-linejoin: miter"/>
    </g>
    <g id="text_19">
     <!-- S2C -->
     <g transform="translate(370.166875 87.426688)scale(0.1 -0.1)">
      <use xlink:href="#DejaVuSans-53"/>
      <use xlink:href="#DejaVuSans-32" x="63.476562"/>
      <use xlink:href="#DejaVuSans-43" x="127.099609"/>
     </g>
    </g>
   </g>
  </g>
 </g>
 <defs>
  <clipPath id="pb82829c8be">
   <rect x="57.6" y="41.472" width="357.12" height="266.112"/>
  </clipPath>
 </defs>
</svg>
